<?xml version="1.0" encoding="UTF-8"?>
<svg id="b" data-name="Layer 2" xmlns="http://www.w3.org/2000/svg" width="20.087" height="14.123" viewBox="0 0 20.087 14.123">
  <defs>
    <style>
      .e {
        fill: #fff;
      }
    </style>
  </defs>
  <g id="c" data-name="Layer 1">
    <g id="d" data-name="Layer 1-2">
      <path class="e" d="M20.087,12.554c-.115.281-.189.588-.353.835-.324.489-.821.706-1.403.733-.039.002-.079,0-.117,0-5.444,0-10.889,0-16.334,0-.619,0-1.135-.211-1.518-.71C.113,13.091.003,12.719.003,12.318,0,8.814-.003,5.311.004,1.808.006.748.782.002,1.859.001,4.114-.001,6.369,0,8.624,0h9.588c.767,0,1.35.318,1.696,1.014.085.172.121.369.179.555v10.984h0ZM2.032,1.182c.05.056.073.085.099.111,2.206,2.195,4.409,4.392,6.619,6.582.772.765,1.827.757,2.602-.013,2.195-2.178,4.385-4.36,6.577-6.542.037-.037.069-.081.118-.139H2.032ZM2.148,12.931h15.796c-1.621-1.654-3.276-3.342-4.955-5.055-.285.292-.548.563-.814.831-.541.545-1.191.862-1.963.903-.9.047-1.663-.268-2.297-.902-.267-.267-.529-.538-.814-.829-1.678,1.712-3.332,3.4-4.952,5.052h0ZM1.192,2.009v10.113c1.692-1.724,3.351-3.414,4.971-5.064-1.624-1.649-3.282-3.334-4.971-5.049ZM18.902,2.018c-1.689,1.715-3.35,3.403-4.95,5.028,1.617,1.648,3.274,3.338,4.95,5.045V2.018Z"/>
    </g>
  </g>
</svg>