<?xml version="1.0" encoding="UTF-8"?>
<svg id="b" data-name="Layer 2" xmlns="http://www.w3.org/2000/svg" width="101" height="35.912" viewBox="0 0 101 35.912">
  <defs>
    <style>
      .d {
        fill: #fff;
      }
    </style>
  </defs>
  <g id="c" data-name="Layer 1">
    <path class="d" d="M49.937,4.5c7.42,0,13.456,6.036,13.456,13.456s-6.036,13.456-13.456,13.456-13.456-6.036-13.456-13.456,6.036-13.456,13.456-13.456M96.5,5.479v24.953h-24.953V5.479h24.953M19.081,7.892l12.957,22.443H6.124L19.081,7.892M49.937,1.5c-9.088,0-16.456,7.368-16.456,16.456s7.368,16.456,16.456,16.456,16.456-7.368,16.456-16.456S59.026,1.5,49.937,1.5h0ZM97.933,2.479h-27.818c-.866,0-1.567.702-1.567,1.567v27.819c0,.866.702,1.567,1.567,1.567h27.818c.866,0,1.567-.702,1.567-1.567V4.047c0-.866-.702-1.567-1.567-1.567h0ZM19.081,2.676c-.264,0-.528.131-.679.392L1.606,32.159c-.302.522.075,1.175.679,1.175h33.592c.603,0,.98-.653.679-1.175L19.76,3.067c-.151-.261-.415-.392-.679-.392h0Z"/>
  </g>
</svg>