<?xml version="1.0" encoding="UTF-8"?>
<svg id="b" data-name="Layer 2" xmlns="http://www.w3.org/2000/svg" width="19.509" height="19.569" viewBox="0 0 19.509 19.569">
  <defs>
    <style>
      .e {
        fill: #fff;
      }
    </style>
  </defs>
  <g id="c" data-name="Layer 1">
    <g id="d" data-name="Layer 1-2">
      <g>
        <path class="e" d="M19.509,5.778v7.869c-.011.068-.024.136-.032.204-.041.385-.06.773-.125,1.154-.208,1.228-.732,2.291-1.675,3.128-1.022.906-2.252,1.268-3.581,1.358-.461.032-.924.052-1.386.078h-5.882c-.119-.011-.239-.027-.358-.03-.783-.021-1.564-.051-2.329-.238-1.608-.395-2.806-1.31-3.518-2.819-.444-.938-.577-1.947-.588-2.973C.011,11.402-.006,9.296.002,7.19c.003-.959.014-1.924.22-2.868C.59,2.647,1.504,1.391,3.07.649,3.995.209,4.99.079,6.001.055c2.697-.063,5.395-.095,8.092.035.786.038,1.554.19,2.274.517,1.791.811,2.732,2.248,3.025,4.152.052.338.078.68.116,1.019l.002.002ZM9.764,17.84v-.03c.515,0,1.032.016,1.547-.003,1.112-.04,2.233-.027,3.332-.165,1.504-.19,2.519-1.058,2.889-2.554.147-.599.198-1.233.209-1.852.033-1.973.041-3.947.029-5.92-.005-.788-.043-1.58-.141-2.361-.198-1.577-1.177-2.643-2.738-2.955-.669-.133-1.364-.173-2.047-.184-1.821-.027-3.641-.032-5.46-.01-.87.011-1.749.032-2.605.17-1.469.236-2.447,1.108-2.778,2.578-.147.658-.19,1.348-.204,2.025-.036,1.585-.046,3.171-.029,4.755.011,1.087.041,2.177.146,3.259.105,1.082.61,1.974,1.561,2.562.632.391,1.342.548,2.074.575,1.405.051,2.811.074,4.218.109h-.002Z"/>
        <path class="e" d="M9.756,14.815c-2.782-.017-5.034-2.282-5.014-5.04.021-2.784,2.285-5.031,5.045-5.006,2.79.025,5.031,2.288,5.001,5.048-.032,2.784-2.277,5.017-5.033,4.999v-.002ZM6.513,9.792c0,1.803,1.45,3.252,3.252,3.253,1.803,0,3.253-1.444,3.258-3.247.005-1.81-1.45-3.266-3.261-3.263-1.802.003-3.248,1.455-3.248,3.256Z"/>
        <path class="e" d="M16.158,4.574c-.003.654-.529,1.173-1.184,1.166-.64-.006-1.158-.534-1.157-1.177.002-.645.521-1.161,1.168-1.163.658,0,1.176.518,1.173,1.174Z"/>
      </g>
    </g>
  </g>
</svg>