<?xml version="1.0" encoding="UTF-8"?>
<svg id="b" data-name="Layer 2" xmlns="http://www.w3.org/2000/svg" width="61.505" height="61.54" viewBox="0 0 61.505 61.54">
  <g id="c" data-name="Layer 1">
    <path d="M32.882,0l3.627.519c12.24,2.275,22.152,12.236,24.45,24.461l.519,3.628c-.064,1.421.087,2.915,0,4.327-1.548,25.084-31.947,37.729-51,21.032C-10.08,35.952,1.549,1.668,28.557,0h4.325ZM22.765,16.142c-2.353.111-4.772.411-7.086.844-1.326.248-4.572.831-5.433,1.777-1.423,1.565-.8,4.539,1.363,4.983,1.344.276,4.635-.855,6.229-1.114,8.648-1.404,19.957-.525,28.016,3.034,1.108.489,2.263,1.298,3.326,1.721,3.012,1.201,5.266-2.123,3.456-4.539-.669-.893-2.972-1.945-4.053-2.436-7.772-3.526-17.325-4.671-25.818-4.271ZM23.006,26.72c-2.259.118-8.482.866-10.298,1.958-2.132,1.282-1.109,4.821,1.476,4.608,1.154-.095,3.059-.802,4.379-1.035,7.652-1.346,16.19-.465,23.292,2.706,1.027.458,3.477,2.022,4.334,2.157,2.183.346,3.488-2.211,2.294-3.979-.553-.818-2.507-1.752-3.439-2.209-6.752-3.311-14.53-4.599-22.037-4.206ZM23.006,36.817c-2.343.128-4.895.488-7.186.985-1.212.263-2.8.405-2.991,1.935-.188,1.501.843,2.473,2.32,2.32,1.426-.148,3.188-.723,4.715-.931,6.057-.826,12.455-.577,18.146,1.765,1.189.489,3.726,2.078,4.692,2.278,1.331.276,2.533-.637,2.387-2.018-.129-1.226-1.083-1.753-2.033-2.303-5.985-3.463-13.209-4.405-20.05-4.031Z"/>
  </g>
</svg>