<?xml version="1.0" encoding="UTF-8"?>
<svg id="b" data-name="Layer 2" xmlns="http://www.w3.org/2000/svg" width="409.593" height="309.202" viewBox="0 0 409.593 309.202">
  <defs>
    <style>
      .d {
        fill: #fff;
      }
    </style>
  </defs>
  <g id="c" data-name="Layer 1">
    <g>
      <path class="d" d="M408.934,113.811c.879,26.081.879,55.36,0,81.441-1.884,55.925-5.295,104.782-72.15,110.177-62.121,5.013-127.509,4.169-189.683,2.37-28.648-.829-61.967.438-89.857-5.013C3.432,292.27,3.298,242.616,1.62,198.014.106,157.759-3.09,90.437,7.952,52.718,23.405-.076,64.834,4.041,110.432,2.063c63.151-2.74,125.747-2.76,188.86,0,31.799,1.391,67.734-2.194,90.121,24.709,17.294,20.782,18.645,61.053,19.52,87.04ZM39.336,267.628c13.79,15.461,46.173,13.715,65.475,14.662,72.403,3.553,145.165,3.796,217.599-.84,26.567-1.7,46.068.279,55.661-29.682,10.293-32.148,7.194-95.441,6.118-130.339-.738-23.948,1.678-70.277-19.967-85.395-13.9-9.708-42.172-9.24-59.284-10.085-65.744-3.243-134.434-3.196-200.152,0-37.294,1.813-66.243-2.64-75.552,40.899-7.279,34.047-4.811,86.188-3.7,121.584.654,20.828-.429,63.242,13.801,79.195Z"/>
      <path class="d" d="M271.539,138.848c7.834,7.869,5.653,21.651-4.255,26.706l-93.07,49.7c-10.185,2.959-20.252-4.188-21.199-14.779-2.883-32.252,2.24-68.751.011-101.455,2.287-11.648,13.013-17.133,23.935-12.755,25.6,14.794,52.194,27.922,77.86,42.58,4.349,2.484,13.581,6.853,16.717,10.004ZM176.962,113.811v72.658l66.959-35.141-66.959-37.517Z"/>
    </g>
  </g>
</svg>