<?xml version="1.0" encoding="UTF-8"?>
<svg id="Layer_1" data-name="Layer 1" xmlns="http://www.w3.org/2000/svg" viewBox="0 0 347.21 483.16">
  <g>
    <path d="M154.54,49.03c.68,2.06.79,3.3,2.7,3.28v.71h-6.67v-.71c2.75-.03,1.93-2.35,1.3-4.61,0,0-1.41-4.52-2.66-8.5h-3.57l-2.44,8.33c-.66,2.42-1.35,4.74,1.21,4.77v.73h-4.96v-.73c1.68-.05,1.91-1.72,2.55-3.53,0,0,3.36-11.39,4.92-16.69-.44-1.37-.81-2.16-2.34-2.15v-.71h3.74l.09.29h.02s6.1,19.52,6.1,19.52h0ZM149,38.54c-.89-2.84-1.64-5.24-1.64-5.24l-1.54,5.24h3.17Z"/>
    <path d="M168.27,51.01c-1.24,1.58-2.83,2.41-4.6,2.41h0c-1.59,0-3.24-.67-4.93-1.99,0-.92,0-7.44,0-13.2,0-4.05,0-7.54,0-8-.01-.53-.22-.77-.64-.77-.25,0-.57.08-.9.17-.13.03-.26.07-.4.1l-.14-.6,4.28-1.41.02,12.28.08.02c.92-1.98,2.35-3.07,4.04-3.07,2.31,0,4.41,2.02,4.99,4.79.79,3.25.08,6.89-1.79,9.26ZM166.46,51.37c1.69-2.12,2.02-6.39,1.36-9.28-.45-1.97-2.04-3.51-3.63-3.51-.86,0-1.65.46-2.29,1.33-.66.89-.99,2.14-.99,3.73v6.55c-.01,1.05.69,2.01,1.69,2.32.44.13.86.2,1.25.2,1.03,0,1.9-.45,2.61-1.33h0Z"/>
    <path d="M182.17,51.92c-1.07,1-2.3,1.52-3.56,1.52-2.7,0-5.22-2.4-5.87-5.57-.76-2.79-.14-6.3,1.51-8.53,1.13-1.52,2.65-2.35,4.4-2.4,2.94.01,5.08,2.8,5.68,5.55.74,3.09.36,7.2-2.16,9.42ZM181.69,48.86c.62-2.49.62-5.05.02-7.62-.5-2.15-1.67-3.41-3.22-3.46h0c-.81.04-1.51.45-2.07,1.23-1.69,2.34-1.77,7.61-1.09,10.06.48,2.13,1.8,3.56,3.27,3.56,1.45,0,2.61-1.41,3.09-3.77h0Z"/>
    <path d="M200.71,48.95h.47c-.12.3-.24.63-.36.95-.66,1.82-1.29,3.53-2.81,3.53h0c-.46,0-.81-.13-1.07-.41-.72-.73-.71-2.34-.69-4.04,0-.24,0-.92,0-1.15v-4.98h-.09c-.45,4.28-2.38,10.61-5.07,10.61-.42,0-.84-.16-1.27-.47-1.12-.82-1.08-2.96-1.07-4,0-.14,0-.27,0-.36l.02-7.52c.03-1.15-.08-1.86-.33-2.11-.07-.07-.14-.1-.23-.1-.51,0-1.18,1.26-1.61,2.51l-.41.02c.52-1.53,1.08-3.02,1.71-3.68.37-.43.83-.67,1.29-.67.74,0,1.35.58,1.52,1.43.25,1.04.21,4.68.19,7.34-.01,1.19-.02,2.22,0,2.78-.04.95.09,2.14.57,2.64.15.16.33.24.53.24.25,0,.54-.13.86-.38,2.65-2.1,3.34-12.76,3.4-13.63h2.1l-.04,11.08h0v.47c-.01,1.25-.02,2,.36,2.27.14.1.29.16.43.16.72,0,1.17-1.31,1.5-2.27l.1-.28h0Z"/>
    <path d="M208.32,49.03l.43-.02c-.51,1.55-1.03,3.13-1.66,3.77-.37.43-.84.65-1.36.65-.94,0-1.74-.72-1.92-1.7-.3-1.17-.25-6.04-.21-9.59.02-1.64.03-3.05,0-3.69v-.04h-2.2l-.02-.62c2.55-.47,3.41-1.67,3.8-5.28h.56v4.86h2.29v1.04s-2.26,0-2.26,0l-.04,10.58c.02.31.01.62.01.91,0,.69,0,1.29.23,1.65.11.16.29.26.5.26.15,0,.29-.05.4-.15.13-.11.26-.26.4-.45.18-.24.52-.95,1.04-2.18h0Z"/>
  </g>
  <path d="M301.12,433.15c1.67.02,3.33.06,5,.05.44,0,.66.09.62.58-.03.44.04.88.04,1.33,0,9.1,0,18.19,0,27.29,0,.4,0,.8,0,1.22h5.12c0-.06,0-.12.01-.18l.17.1,16.99-29.46s.03,0,.05,0v-.09l.04-.08-.04-.03v-4.81h-17.2v-6.99c-.07-.12-.11-.25-.12-.39,0-.2.1-.43.23-.57s.36-.23.57-.23h1.43s.03,0,.04,0c.06-.01.1-.02.14-.02.54.08.65-.19.63-.68-.04-.78,0-1.56-.01-2.34,0-.88-.01-.89-.86-.98-.19-.02-.39-.04-.58-.04-2.72,0-5.43,0-8.15,0-.49,0-.98,0-1.49,0v4.12c.27-.07.47-.07.62-.03h1.67c.45,0,.78.37.8.8,0,.14-.04.26-.1.37,0,2.25,0,4.45-.02,6.64,0,.11-.27.31-.41.31-1.15.03-2.31.03-3.46.03-.72,0-1.44,0-2.17,0v4.04c.18.01.32.02.46.03ZM325.29,437.42s.04-.06.05-.09l-.05.09ZM311.95,433.23c.19-.01.36-.03.53-.03,3.34,0,6.67,0,10.01,0,.45,0,.59.13.56.57,0,.08,0,.17,0,.25l-10.84,19.46c-.23-.05-.29-.21-.29-.49-.01-3.71-.04-7.42-.05-11.13,0-2.34-.01-4.69,0-7.03,0-.51.05-1.02.09-1.58Z"/>
  <path d="M313.92,384.68c-.37-2.91-1.02-5.73-2.79-8.38h7.44c-1.42,2.63-2.78,5.27-2.35,8.84,1.39-2.11,2.89-3.63,5.06-4.21,2.21-.59,4.33-.34,6.29.89,3.03,1.89,4.33,5.56,3.18,8.99-1.23,3.7-4.41,5.4-9.7,5.1.82,2.02,1.87,3.94,1.4,6.21-.45,2.16-1.51,3.89-3.32,5.14-2.79,1.92-6.51,1.75-9.15-.39-3.08-2.49-3.52-5.75-1.46-10.9-5.23.13-8.34-1.58-9.52-5.23-1.15-3.58.42-7.49,3.72-9.24,3.3-1.75,7.39-.87,9.75,2.11.36.45.67.95,1,1.42.14.25.28.5.42.75.3-.36.18-.73.03-1.11Z"/>
  <path d="M18.26,433.15c1.67.02,3.33.06,5,.05.44,0,.66.09.62.58-.03.44.04.88.04,1.33,0,9.1,0,18.19,0,27.29,0,.4,0,.8,0,1.22h5.12c0-.06,0-.12.01-.18l.17.1,16.99-29.46s.03,0,.05,0v-.09l.04-.08-.04-.03v-4.81h-17.2v-6.99c-.07-.12-.11-.25-.12-.39,0-.2.1-.43.23-.57s.36-.23.57-.23h1.43s.03,0,.04,0c.06-.01.1-.02.14-.02.54.08.65-.19.63-.68-.04-.78,0-1.56-.01-2.34,0-.88-.01-.89-.86-.98-.19-.02-.39-.04-.58-.04-2.72,0-5.43,0-8.15,0-.49,0-.98,0-1.49,0v4.12c.27-.07.47-.07.62-.03h1.67c.45,0,.78.37.8.8,0,.14-.04.26-.1.37,0,2.25,0,4.45-.02,6.64,0,.11-.27.31-.41.31-1.15.03-2.31.03-3.46.03-.72,0-1.44,0-2.17,0v4.04c.18.01.32.02.46.03ZM42.43,437.42s.04-.06.05-.09l-.05.09ZM29.09,433.23c.19-.01.36-.03.53-.03,3.34,0,6.67,0,10.01,0,.45,0,.59.13.56.57,0,.08,0,.17,0,.25l-10.84,19.46c-.23-.05-.29-.21-.29-.49-.01-3.71-.04-7.42-.05-11.13,0-2.34-.01-4.69,0-7.03,0-.51.05-1.02.09-1.58Z"/>
  <path d="M31.07,384.68c-.37-2.91-1.02-5.73-2.79-8.38h7.44c-1.42,2.63-2.78,5.27-2.35,8.84,1.39-2.11,2.89-3.63,5.06-4.21,2.21-.59,4.33-.34,6.29.89,3.03,1.89,4.33,5.56,3.18,8.99-1.23,3.7-4.41,5.4-9.7,5.1.82,2.02,1.87,3.94,1.4,6.21-.45,2.16-1.51,3.89-3.32,5.14-2.79,1.92-6.51,1.75-9.15-.39-3.08-2.49-3.52-5.75-1.46-10.9-5.23.13-8.34-1.58-9.52-5.23-1.15-3.58.42-7.49,3.72-9.24,3.3-1.75,7.39-.87,9.75,2.11.36.45.67.95,1,1.42.14.25.28.5.42.75.3-.36.18-.73.03-1.11Z"/>
  <path d="M45.85,48.59c-1.67-.02-3.33-.06-5-.05-.44,0-.66-.09-.62-.58.03-.44-.04-.88-.04-1.33,0-9.1,0-18.19,0-27.29,0-.4,0-.8,0-1.22h-5.12c0,.06,0,.12-.01.18l-.17-.1-16.99,29.46s-.03,0-.05,0v.09l-.04.08.04.03v4.81h17.2v6.99c.07.12.11.25.12.39,0,.2-.1.43-.23.57s-.36.23-.57.23h-1.43s-.03,0-.04,0c-.06.01-.1.02-.14.02-.54-.08-.65.19-.63.68.04.78,0,1.56.01,2.34,0,.88.01.89.86.98.19.02.39.04.58.04,2.72,0,5.43,0,8.15,0,.49,0,.98,0,1.49,0v-4.12c-.27.07-.47.07-.62.03h-1.67c-.45,0-.78-.37-.8-.8,0-.14.04-.26.1-.37,0-2.25,0-4.45.02-6.64,0-.11.27-.31.41-.31,1.15-.03,2.31-.03,3.46-.03.72,0,1.44,0,2.17,0v-4.04c-.18-.01-.32-.02-.46-.03ZM21.68,44.32s-.04.06-.05.09l.05-.09ZM35.02,48.5c-.19.01-.36.03-.53.03-3.34,0-6.67,0-10.01,0-.45,0-.59-.13-.56-.57,0-.08,0-.17,0-.25l10.84-19.46c.23.05.29.21.29.49.01,3.71.04,7.42.05,11.13,0,2.34.01,4.69,0,7.03,0,.51-.05,1.02-.09,1.58Z"/>
  <path d="M33.04,98.48c.37,2.91,1.02,5.73,2.79,8.38h-7.44c1.42-2.63,2.78-5.27,2.35-8.84-1.39,2.11-2.89,3.63-5.06,4.21-2.21.59-4.33.34-6.29-.89-3.03-1.89-4.33-5.56-3.18-8.99,1.23-3.7,4.41-5.4,9.7-5.1-.82-2.02-1.87-3.94-1.4-6.21.45-2.16,1.51-3.89,3.32-5.14,2.79-1.92,6.51-1.75,9.15.39,3.08,2.49,3.52,5.75,1.46,10.9,5.23-.13,8.34,1.58,9.52,5.23,1.15,3.58-.42,7.49-3.72,9.24-3.3,1.75-7.39.87-9.75-2.11-.36-.45-.67-.95-1-1.42-.14-.25-.28-.5-.42-.75-.3.36-.18.73-.03,1.11Z"/>
  <path d="M328.7,48.59c-1.67-.02-3.33-.06-5-.05-.44,0-.66-.09-.62-.58.03-.44-.04-.88-.04-1.33,0-9.1,0-18.19,0-27.29,0-.4,0-.8,0-1.22h-5.12c0,.06,0,.12-.01.18l-.17-.1-16.99,29.46s-.03,0-.05,0v.09l-.04.08.04.03v4.81h17.2v6.99c.07.12.11.25.12.39,0,.2-.1.43-.23.57s-.36.23-.57.23h-1.43s-.03,0-.04,0c-.06.01-.1.02-.14.02-.54-.08-.65.19-.63.68.04.78,0,1.56.01,2.34,0,.88.01.89.86.98.19.02.39.04.58.04,2.72,0,5.43,0,8.15,0,.49,0,.98,0,1.49,0v-4.12c-.27.07-.47.07-.62.03h-1.67c-.45,0-.78-.37-.8-.8,0-.14.04-.26.1-.37,0-2.25,0-4.45.02-6.64,0-.11.27-.31.41-.31,1.15-.03,2.31-.03,3.46-.03.72,0,1.44,0,2.17,0v-4.04c-.18-.01-.32-.02-.46-.03ZM304.54,44.32s-.04.06-.05.09l.05-.09ZM317.88,48.5c-.19.01-.36.03-.53.03-3.34,0-6.67,0-10.01,0-.45,0-.59-.13-.56-.57,0-.08,0-.17,0-.25l10.84-19.46c.23.05.29.21.29.49.01,3.71.04,7.42.05,11.13,0,2.34.01,4.69,0,7.03,0,.51-.05,1.02-.09,1.58Z"/>
  <path d="M315.9,98.48c.37,2.91,1.02,5.73,2.79,8.38h-7.44c1.42-2.63,2.78-5.27,2.35-8.84-1.39,2.11-2.89,3.63-5.06,4.21-2.21.59-4.33.34-6.29-.89-3.03-1.89-4.33-5.56-3.18-8.99,1.23-3.7,4.41-5.4,9.7-5.1-.82-2.02-1.87-3.94-1.4-6.21.45-2.16,1.51-3.89,3.32-5.14,2.79-1.92,6.51-1.75,9.15.39,3.08,2.49,3.52,5.75,1.46,10.9,5.23-.13,8.34,1.58,9.52,5.23,1.15,3.58-.42,7.49-3.72,9.24-3.3,1.75-7.39.87-9.75-2.11-.36-.45-.67-.95-1-1.42-.14-.25-.28-.5-.42-.75-.3.36-.18.73-.03,1.11Z"/>
  <path d="M113.94,206.99c1.03,8.2,2.87,16.15,7.85,23.6h-20.97c3.99-7.4,7.83-14.83,6.62-24.89-3.91,5.94-8.15,10.22-14.26,11.85-6.22,1.66-12.18.96-17.72-2.49-8.53-5.31-12.19-15.65-8.97-25.33,3.47-10.42,12.43-15.2,27.31-14.35-2.31-5.7-5.27-11.1-3.93-17.5,1.27-6.09,4.24-10.96,9.36-14.48,7.86-5.4,18.32-4.93,25.78,1.09,8.67,7.01,9.9,16.18,4.11,30.69,14.74-.36,23.5,4.45,26.8,14.72,3.25,10.09-1.18,21.1-10.46,26.02-9.3,4.93-20.82,2.45-27.45-5.93-1.01-1.28-1.88-2.67-2.81-4.01-.39-.7-.78-1.41-1.18-2.11-.84,1.02-.49,2.07-.08,3.11Z"/>
  <path d="M244.75,206.99c1.03,8.2,2.87,16.15,7.85,23.6h-20.97c3.99-7.4,7.83-14.83,6.62-24.89-3.91,5.94-8.15,10.22-14.26,11.85-6.22,1.66-12.18.96-17.72-2.49-8.53-5.31-12.19-15.65-8.97-25.33,3.47-10.42,12.43-15.2,27.31-14.35-2.31-5.7-5.27-11.1-3.93-17.5,1.27-6.09,4.24-10.96,9.36-14.48,7.86-5.4,18.32-4.93,25.78,1.09,8.67,7.01,9.9,16.18,4.11,30.69,14.74-.36,23.5,4.45,26.8,14.72,3.25,10.09-1.18,21.1-10.46,26.02-9.3,4.93-20.82,2.45-27.45-5.93-1.01-1.28-1.88-2.67-2.81-4.01-.39-.7-.78-1.41-1.18-2.11-.84,1.02-.49,2.07-.08,3.11Z"/>
  <path d="M239.41,286.91c-1.03-8.2-2.87-16.15-7.85-23.6h20.97c-3.99,7.4-7.83,14.83-6.62,24.89,3.91-5.94,8.15-10.22,14.26-11.85,6.22-1.66,12.18-.96,17.72,2.49,8.53,5.31,12.19,15.65,8.97,25.33-3.47,10.42-12.43,15.2-27.31,14.35,2.31,5.7,5.27,11.1,3.93,17.5-1.27,6.09-4.24,10.96-9.36,14.48-7.86,5.4-18.32,4.93-25.78-1.09-8.67-7.01-9.9-16.18-4.11-30.69-14.74.36-23.5-4.45-26.8-14.72-3.25-10.09,1.18-21.1,10.46-26.02,9.3-4.93,20.82-2.45,27.45,5.93,1.01,1.28,1.88,2.67,2.81,4.01.39.7.78,1.41,1.18,2.11.84-1.02.49-2.07.08-3.11Z"/>
  <path d="M108.6,286.91c-1.03-8.2-2.87-16.15-7.85-23.6h20.97c-3.99,7.4-7.83,14.83-6.62,24.89,3.91-5.94,8.15-10.22,14.26-11.85,6.22-1.66,12.18-.96,17.72,2.49,8.53,5.31,12.19,15.65,8.97,25.33-3.47,10.42-12.43,15.2-27.31,14.35,2.31,5.7,5.27,11.1,3.93,17.5-1.27,6.09-4.24,10.96-9.36,14.48-7.86,5.4-18.32,4.93-25.78-1.09-8.67-7.01-9.9-16.18-4.11-30.69-14.74.36-23.5-4.45-26.8-14.72-3.25-10.09,1.18-21.1,10.46-26.02,9.3-4.93,20.82-2.45,27.45,5.93,1.01,1.28,1.88,2.67,2.81,4.01.39.7.78,1.41,1.18,2.11.84-1.02.49-2.07.08-3.11Z"/>
  <g>
    <path d="M190.93,439.84c-.68-2.06-.79-3.29-2.7-3.28v-.71h6.67v.71c-2.75.03-1.93,2.35-1.3,4.61,0,0,1.41,4.52,2.65,8.5h3.57l2.44-8.33c.66-2.42,1.35-4.74-1.21-4.77v-.73h4.96v.73c-1.67.04-1.91,1.71-2.55,3.53,0,0-3.36,11.39-4.92,16.69.44,1.37.82,2.16,2.34,2.15v.71h-3.74l-.09-.29h-.02s-6.1-19.52-6.1-19.52h0ZM196.47,450.33c.89,2.84,1.64,5.24,1.64,5.24l1.54-5.24h-3.17Z"/>
    <path d="M177.2,437.87c1.24-1.58,2.83-2.41,4.6-2.41,1.59,0,3.25.67,4.93,1.99,0,.92,0,7.44,0,13.2,0,4.05,0,7.54,0,8,0,.53.21.78.64.78.25,0,.57-.08.9-.17.13-.03.26-.07.4-.1l.14.6-4.28,1.41-.02-12.28-.08-.02c-.92,1.98-2.35,3.07-4.04,3.07-2.31,0-4.41-2.02-4.99-4.79-.79-3.25-.08-6.89,1.79-9.26ZM179.01,437.51c-1.69,2.12-2.02,6.39-1.36,9.28.45,1.97,2.04,3.51,3.63,3.51.86,0,1.65-.46,2.29-1.33.66-.89,1-2.14.99-3.73v-6.55c.01-1.05-.69-2.01-1.69-2.32-.44-.13-.86-.2-1.25-.2-1.03,0-1.9.45-2.61,1.33h0Z"/>
    <path d="M163.29,436.96c1.07-1,2.3-1.53,3.56-1.53,2.7,0,5.22,2.4,5.87,5.57.77,2.79.15,6.3-1.51,8.53-1.13,1.53-2.65,2.36-4.4,2.4-2.93-.01-5.08-2.8-5.68-5.55-.74-3.09-.36-7.2,2.16-9.42ZM163.76,447.63c.5,2.14,1.67,3.41,3.22,3.46h0c.81-.04,1.51-.45,2.07-1.23,1.69-2.34,1.77-7.61,1.09-10.06-.48-2.13-1.8-3.56-3.27-3.56s-2.61,1.41-3.09,3.77c-.62,2.49-.62,5.05-.02,7.62Z"/>
    <path d="M144.76,439.93h-.47c.12-.3.24-.63.36-.95.66-1.82,1.29-3.53,2.81-3.53h0c.45,0,.81.13,1.07.41.72.73.71,2.34.69,4.04,0,.24,0,.92,0,1.15v4.98h.09c.45-4.28,2.38-10.61,5.08-10.61.42,0,.84.16,1.27.47,1.12.82,1.08,2.96,1.06,4,0,.14,0,.27,0,.36l-.02,7.52c-.03,1.15.08,1.86.33,2.11.07.07.14.1.23.1.51,0,1.18-1.26,1.61-2.51l.41-.02c-.52,1.53-1.08,3.02-1.71,3.68-.37.43-.83.67-1.29.67-.74,0-1.35-.57-1.52-1.43-.25-1.04-.21-4.68-.19-7.34.01-1.19.02-2.22,0-2.78.04-.95-.09-2.14-.57-2.64-.15-.16-.33-.24-.53-.24-.25,0-.54.13-.86.38-2.65,2.1-3.34,12.76-3.4,13.63h-2.1l.04-11.08h0v-.47c.01-1.25.02-2-.36-2.28-.14-.1-.29-.15-.43-.15-.72,0-1.17,1.31-1.5,2.27l-.1.28h0Z"/>
    <path d="M137.15,439.85l-.43.02c.51-1.55,1.03-3.13,1.66-3.77.37-.43.84-.65,1.36-.65.94,0,1.74.71,1.92,1.7.3,1.17.25,6.04.21,9.59-.02,1.64-.03,3.05,0,3.69v.04h2.2l.02.62c-2.55.47-3.41,1.67-3.8,5.28h-.56v-4.86h-2.29v-1.04s2.26,0,2.26,0l.04-10.58c-.02-.31-.01-.62-.01-.91,0-.69,0-1.29-.23-1.65-.11-.16-.29-.26-.5-.26-.14,0-.29.05-.4.14-.13.11-.26.26-.4.45-.18.24-.52.95-1.04,2.18h0Z"/>
  </g>
</svg>