<?xml version="1.0" encoding="UTF-8"?>
<svg id="Layer_1" data-name="Layer 1" xmlns="http://www.w3.org/2000/svg" viewBox="0 0 347.21 483.16">
  <defs>
    <style>
      .cls-1 {
        font-family: KiromeRegular, Kirome;
        font-size: 34px;
      }

      .cls-1, .cls-2 {
        fill: #000;
      }

      .cls-2 {
        stroke-width: 0px;
      }

      .cls-3 {
        letter-spacing: 0em;
      }

      .cls-4 {
        letter-spacing: -.01em;
      }
    </style>
  </defs>
  <text class="cls-1" transform="translate(122.05 52.44)"><tspan x="0" y="0">Ab</tspan><tspan class="cls-3" x="49.23" y="0">o</tspan><tspan class="cls-4" x="70.45" y="0">u</tspan><tspan x="93.77" y="0">t</tspan></text>
  <path class="cls-2" d="M301.12,433.15c1.67.02,3.33.06,5,.05.44,0,.66.09.62.58-.03.44.04.88.04,1.33,0,9.1,0,18.19,0,27.29,0,.4,0,.8,0,1.22h5.12c0-.06,0-.12.01-.18l.17.1,16.99-29.46s.03,0,.05,0v-.09l.04-.08-.04-.03v-4.81h-17.2v-6.99c-.07-.12-.11-.25-.12-.39,0-.2.1-.43.23-.57s.36-.23.57-.23h1.43s.03,0,.04,0c.06-.01.1-.02.14-.02.54.08.65-.19.63-.68-.04-.78,0-1.56-.01-2.34,0-.88-.01-.89-.86-.98-.19-.02-.39-.04-.58-.04-2.72,0-5.43,0-8.15,0-.49,0-.98,0-1.49,0v4.12c.27-.07.47-.07.62-.03h1.67c.45,0,.78.37.8.8,0,.14-.04.26-.1.37,0,2.25,0,4.45-.02,6.64,0,.11-.27.31-.41.31-1.15.03-2.31.03-3.46.03-.72,0-1.44,0-2.17,0v4.04c.18.01.32.02.46.03ZM325.29,437.42s.04-.06.05-.09l-.05.09ZM311.95,433.23c.19-.01.36-.03.53-.03,3.34,0,6.67,0,10.01,0,.45,0,.59.13.56.57,0,.08,0,.17,0,.25l-10.84,19.46c-.23-.05-.29-.21-.29-.49-.01-3.71-.04-7.42-.05-11.13,0-2.34-.01-4.69,0-7.03,0-.51.05-1.02.09-1.58Z"/>
  <path class="cls-2" d="M313.92,384.68c-.37-2.91-1.02-5.73-2.79-8.38h7.44c-1.42,2.63-2.78,5.27-2.35,8.84,1.39-2.11,2.89-3.63,5.06-4.21,2.21-.59,4.33-.34,6.29.89,3.03,1.89,4.33,5.56,3.18,8.99-1.23,3.7-4.41,5.4-9.7,5.1.82,2.02,1.87,3.94,1.4,6.21-.45,2.16-1.51,3.89-3.32,5.14-2.79,1.92-6.51,1.75-9.15-.39-3.08-2.49-3.52-5.75-1.46-10.9-5.23.13-8.34-1.58-9.52-5.23-1.15-3.58.42-7.49,3.72-9.24,3.3-1.75,7.39-.87,9.75,2.11.36.45.67.95,1,1.42.14.25.28.5.42.75.3-.36.18-.73.03-1.11Z"/>
  <path class="cls-2" d="M18.26,433.15c1.67.02,3.33.06,5,.05.44,0,.66.09.62.58-.03.44.04.88.04,1.33,0,9.1,0,18.19,0,27.29,0,.4,0,.8,0,1.22h5.12c0-.06,0-.12.01-.18l.17.1,16.99-29.46s.03,0,.05,0v-.09l.04-.08-.04-.03v-4.81h-17.2v-6.99c-.07-.12-.11-.25-.12-.39,0-.2.1-.43.23-.57s.36-.23.57-.23h1.43s.03,0,.04,0c.06-.01.1-.02.14-.02.54.08.65-.19.63-.68-.04-.78,0-1.56-.01-2.34,0-.88-.01-.89-.86-.98-.19-.02-.39-.04-.58-.04-2.72,0-5.43,0-8.15,0-.49,0-.98,0-1.49,0v4.12c.27-.07.47-.07.62-.03h1.67c.45,0,.78.37.8.8,0,.14-.04.26-.1.37,0,2.25,0,4.45-.02,6.64,0,.11-.27.31-.41.31-1.15.03-2.31.03-3.46.03-.72,0-1.44,0-2.17,0v4.04c.18.01.32.02.46.03ZM42.43,437.42s.04-.06.05-.09l-.05.09ZM29.09,433.23c.19-.01.36-.03.53-.03,3.34,0,6.67,0,10.01,0,.45,0,.59.13.56.57,0,.08,0,.17,0,.25l-10.84,19.46c-.23-.05-.29-.21-.29-.49-.01-3.71-.04-7.42-.05-11.13,0-2.34-.01-4.69,0-7.03,0-.51.05-1.02.09-1.58Z"/>
  <path class="cls-2" d="M31.07,384.68c-.37-2.91-1.02-5.73-2.79-8.38h7.44c-1.42,2.63-2.78,5.27-2.35,8.84,1.39-2.11,2.89-3.63,5.06-4.21,2.21-.59,4.33-.34,6.29.89,3.03,1.89,4.33,5.56,3.18,8.99-1.23,3.7-4.41,5.4-9.7,5.1.82,2.02,1.87,3.94,1.4,6.21-.45,2.16-1.51,3.89-3.32,5.14-2.79,1.92-6.51,1.75-9.15-.39-3.08-2.49-3.52-5.75-1.46-10.9-5.23.13-8.34-1.58-9.52-5.23-1.15-3.58.42-7.49,3.72-9.24,3.3-1.75,7.39-.87,9.75,2.11.36.45.67.95,1,1.42.14.25.28.5.42.75.3-.36.18-.73.03-1.11Z"/>
  <path class="cls-2" d="M45.85,48.59c-1.67-.02-3.33-.06-5-.05-.44,0-.66-.09-.62-.58.03-.44-.04-.88-.04-1.33,0-9.1,0-18.19,0-27.29,0-.4,0-.8,0-1.22h-5.12c0,.06,0,.12-.01.18l-.17-.1-16.99,29.46s-.03,0-.05,0v.09l-.04.08.04.03v4.81h17.2v6.99c.07.12.11.25.12.39,0,.2-.1.43-.23.57s-.36.23-.57.23h-1.43s-.03,0-.04,0c-.06.01-.1.02-.14.02-.54-.08-.65.19-.63.68.04.78,0,1.56.01,2.34,0,.88.01.89.86.98.19.02.39.04.58.04,2.72,0,5.43,0,8.15,0,.49,0,.98,0,1.49,0v-4.12c-.27.07-.47.07-.62.03h-1.67c-.45,0-.78-.37-.8-.8,0-.14.04-.26.1-.37,0-2.25,0-4.45.02-6.64,0-.11.27-.31.41-.31,1.15-.03,2.31-.03,3.46-.03.72,0,1.44,0,2.17,0v-4.04c-.18-.01-.32-.02-.46-.03ZM21.68,44.32s-.04.06-.05.09l.05-.09ZM35.02,48.5c-.19.01-.36.03-.53.03-3.34,0-6.67,0-10.01,0-.45,0-.59-.13-.56-.57,0-.08,0-.17,0-.25l10.84-19.46c.23.05.29.21.29.49.01,3.71.04,7.42.05,11.13,0,2.34.01,4.69,0,7.03,0,.51-.05,1.02-.09,1.58Z"/>
  <path class="cls-2" d="M33.04,98.48c.37,2.91,1.02,5.73,2.79,8.38h-7.44c1.42-2.63,2.78-5.27,2.35-8.84-1.39,2.11-2.89,3.63-5.06,4.21-2.21.59-4.33.34-6.29-.89-3.03-1.89-4.33-5.56-3.18-8.99,1.23-3.7,4.41-5.4,9.7-5.1-.82-2.02-1.87-3.94-1.4-6.21.45-2.16,1.51-3.89,3.32-5.14,2.79-1.92,6.51-1.75,9.15.39,3.08,2.49,3.52,5.75,1.46,10.9,5.23-.13,8.34,1.58,9.52,5.23,1.15,3.58-.42,7.49-3.72,9.24-3.3,1.75-7.39.87-9.75-2.11-.36-.45-.67-.95-1-1.42-.14-.25-.28-.5-.42-.75-.3.36-.18.73-.03,1.11Z"/>
  <path class="cls-2" d="M328.7,48.59c-1.67-.02-3.33-.06-5-.05-.44,0-.66-.09-.62-.58.03-.44-.04-.88-.04-1.33,0-9.1,0-18.19,0-27.29,0-.4,0-.8,0-1.22h-5.12c0,.06,0,.12-.01.18l-.17-.1-16.99,29.46s-.03,0-.05,0v.09l-.04.08.04.03v4.81h17.2v6.99c.07.12.11.25.12.39,0,.2-.1.43-.23.57s-.36.23-.57.23h-1.43s-.03,0-.04,0c-.06.01-.1.02-.14.02-.54-.08-.65.19-.63.68.04.78,0,1.56.01,2.34,0,.88.01.89.86.98.19.02.39.04.58.04,2.72,0,5.43,0,8.15,0,.49,0,.98,0,1.49,0v-4.12c-.27.07-.47.07-.62.03h-1.67c-.45,0-.78-.37-.8-.8,0-.14.04-.26.1-.37,0-2.25,0-4.45.02-6.64,0-.11.27-.31.41-.31,1.15-.03,2.31-.03,3.46-.03.72,0,1.44,0,2.17,0v-4.04c-.18-.01-.32-.02-.46-.03ZM304.54,44.32s-.04.06-.05.09l.05-.09ZM317.88,48.5c-.19.01-.36.03-.53.03-3.34,0-6.67,0-10.01,0-.45,0-.59-.13-.56-.57,0-.08,0-.17,0-.25l10.84-19.46c.23.05.29.21.29.49.01,3.71.04,7.42.05,11.13,0,2.34.01,4.69,0,7.03,0,.51-.05,1.02-.09,1.58Z"/>
  <path class="cls-2" d="M315.9,98.48c.37,2.91,1.02,5.73,2.79,8.38h-7.44c1.42-2.63,2.78-5.27,2.35-8.84-1.39,2.11-2.89,3.63-5.06,4.21-2.21.59-4.33.34-6.29-.89-3.03-1.89-4.33-5.56-3.18-8.99,1.23-3.7,4.41-5.4,9.7-5.1-.82-2.02-1.87-3.94-1.4-6.21.45-2.16,1.51-3.89,3.32-5.14,2.79-1.92,6.51-1.75,9.15.39,3.08,2.49,3.52,5.75,1.46,10.9,5.23-.13,8.34,1.58,9.52,5.23,1.15,3.58-.42,7.49-3.72,9.24-3.3,1.75-7.39.87-9.75-2.11-.36-.45-.67-.95-1-1.42-.14-.25-.28-.5-.42-.75-.3.36-.18.73-.03,1.11Z"/>
  <path class="cls-2" d="M113.94,206.99c1.03,8.2,2.87,16.15,7.85,23.6h-20.97c3.99-7.4,7.83-14.83,6.62-24.89-3.91,5.94-8.15,10.22-14.26,11.85-6.22,1.66-12.18.96-17.72-2.49-8.53-5.31-12.19-15.65-8.97-25.33,3.47-10.42,12.43-15.2,27.31-14.35-2.31-5.7-5.27-11.1-3.93-17.5,1.27-6.09,4.24-10.96,9.36-14.48,7.86-5.4,18.32-4.93,25.78,1.09,8.67,7.01,9.9,16.18,4.11,30.69,14.74-.36,23.5,4.45,26.8,14.72,3.25,10.09-1.18,21.1-10.46,26.02-9.3,4.93-20.82,2.45-27.45-5.93-1.01-1.28-1.88-2.67-2.81-4.01-.39-.7-.78-1.41-1.18-2.11-.84,1.02-.49,2.07-.08,3.11Z"/>
  <path class="cls-2" d="M244.75,206.99c1.03,8.2,2.87,16.15,7.85,23.6h-20.97c3.99-7.4,7.83-14.83,6.62-24.89-3.91,5.94-8.15,10.22-14.26,11.85-6.22,1.66-12.18.96-17.72-2.49-8.53-5.31-12.19-15.65-8.97-25.33,3.47-10.42,12.43-15.2,27.31-14.35-2.31-5.7-5.27-11.1-3.93-17.5,1.27-6.09,4.24-10.96,9.36-14.48,7.86-5.4,18.32-4.93,25.78,1.09,8.67,7.01,9.9,16.18,4.11,30.69,14.74-.36,23.5,4.45,26.8,14.72,3.25,10.09-1.18,21.1-10.46,26.02-9.3,4.93-20.82,2.45-27.45-5.93-1.01-1.28-1.88-2.67-2.81-4.01-.39-.7-.78-1.41-1.18-2.11-.84,1.02-.49,2.07-.08,3.11Z"/>
  <path class="cls-2" d="M239.41,286.91c-1.03-8.2-2.87-16.15-7.85-23.6h20.97c-3.99,7.4-7.83,14.83-6.62,24.89,3.91-5.94,8.15-10.22,14.26-11.85,6.22-1.66,12.18-.96,17.72,2.49,8.53,5.31,12.19,15.65,8.97,25.33-3.47,10.42-12.43,15.2-27.31,14.35,2.31,5.7,5.27,11.1,3.93,17.5-1.27,6.09-4.24,10.96-9.36,14.48-7.86,5.4-18.32,4.93-25.78-1.09-8.67-7.01-9.9-16.18-4.11-30.69-14.74.36-23.5-4.45-26.8-14.72-3.25-10.09,1.18-21.1,10.46-26.02,9.3-4.93,20.82-2.45,27.45,5.93,1.01,1.28,1.88,2.67,2.81,4.01.39.7.78,1.41,1.18,2.11.84-1.02.49-2.07.08-3.11Z"/>
  <path class="cls-2" d="M108.6,286.91c-1.03-8.2-2.87-16.15-7.85-23.6h20.97c-3.99,7.4-7.83,14.83-6.62,24.89,3.91-5.94,8.15-10.22,14.26-11.85,6.22-1.66,12.18-.96,17.72,2.49,8.53,5.31,12.19,15.65,8.97,25.33-3.47,10.42-12.43,15.2-27.31,14.35,2.31,5.7,5.27,11.1,3.93,17.5-1.27,6.09-4.24,10.96-9.36,14.48-7.86,5.4-18.32,4.93-25.78-1.09-8.67-7.01-9.9-16.18-4.11-30.69-14.74.36-23.5-4.45-26.8-14.72-3.25-10.09,1.18-21.1,10.46-26.02,9.3-4.93,20.82-2.45,27.45,5.93,1.01,1.28,1.88,2.67,2.81,4.01.39.7.78,1.41,1.18,2.11.84-1.02.49-2.07.08-3.11Z"/>
  <g>
    <path class="cls-2" d="M225.8,437.42c-.37,0-3.26.61-4.25,3.3l-6.56,17.85c-.17.44-.58.85-1.16.85s-1.02-.41-1.19-.85l-6.73-16.73c-1.46-3.64-4.15-4.42-4.56-4.42s-.68-.37-.68-.95.31-.85.71-.85h9.89c.41,0,.71.27.71.85s-.27.95-.68.95-1.33.85-.27,3.47l.71,1.8h7.38l.88-2.45c.75-2.11-.31-2.82-.68-2.82-.41,0-.68-.37-.68-.95s.31-.85.71-.85h6.39c.41,0,.71.27.71.85s-.27.95-.68.95ZM212.4,444.25l3.2,8.02,2.96-8.02h-6.15Z"/>
    <path class="cls-2" d="M191.9,436.23c2.72,1.36,3.81-.61,7.72-.61h.03c.37,0,.65.27.65.82s-.24.88-.61.88c-.41,0-2.24,1.05-2.24,3.57v12.37c0,1.09.65,2.28,1.8,2.28.54,0,1.02.31,1.02.95,0,1.36-4.11,3.26-5.85,3.26-1.19,0-1.94-.44-1.94-1.7v-6.49c-1.36,1.63-3.54,2.18-5.17,2.18-5,0-9.01-3.67-9.01-9.21s3.84-9.25,9.65-9.25c1.39,0,2.79.27,3.94.95h0ZM187.96,436.64c-3.13,0-4.56,3.64-4.56,7.89s1.77,7.85,4.9,7.85c1.36,0,4.18-1.16,4.18-4.93v-2.92c0-4.25-1.43-7.89-4.52-7.89h0Z"/>
    <path class="cls-2" d="M176.12,444.52c0,5.54-3.84,9.21-9.62,9.21s-9.65-3.67-9.65-9.21,3.84-9.25,9.65-9.25,9.62,3.67,9.62,9.25ZM166.5,436.64c-3.13,0-4.56,3.64-4.56,7.89s1.43,7.85,4.56,7.85,4.52-3.57,4.52-7.85-1.43-7.89-4.52-7.89Z"/>
    <path class="cls-2" d="M152.7,447.24c0,1.09.65,2.28,1.8,2.28.54,0,1.02.31,1.02.95,0,1.36-4.11,3.26-5.85,3.26-1.19,0-1.94-.44-1.94-1.7v-10.17c0-1.16-.31-3.94-3.43-3.94-1.67,0-3.03,1.5-3.74,2.55v6.77c0,1.09.65,2.28,1.8,2.28.54,0,1.02.31,1.02.95,0,1.36-4.11,3.26-5.85,3.26-1.19,0-1.94-.44-1.94-1.7v-9.93c0-1.09-.65-2.28-1.8-2.28-.54,0-1.02-.31-1.02-.95,0-1.36,4.11-3.26,5.85-3.26,1.19,0,1.94.44,1.94,1.7v1.26c.85-1.05,2.89-3.26,5.81-3.26,4.59,0,6.32,2.72,6.32,5.68v6.26Z"/>
    <path class="cls-2" d="M130.02,441.53l.07,9.21c0,.99.17,1.29.95,1.29h.34c.34,0,.68.24.68.68s-.34.68-.68.68c-3.23,0-3.6,4.08-5.3,4.08-.88,0-1.22-.37-1.22-1.22v-2.86h-1.33c-.34,0-.68-.24-.68-.68s.34-.68.68-.68h1.33v-11.08c0-2.04-.24-2.65-.88-2.65-.85,0-.78.37-1.16.37-.24,0-.41-.17-.41-.48,0-1.09,1.39-2.92,3.67-2.92,2.07,0,3.94.99,3.94,4.22v2.04Z"/>
  </g>
</svg>