<?xml version="1.0" encoding="UTF-8"?>
<svg id="Layer_2" data-name="Layer 2" xmlns="http://www.w3.org/2000/svg" viewBox="0 0 631.12 799.35">
  <defs>
    <style>
      .cls-1 {
        stroke-width: 5px;
      }

      .cls-1, .cls-2 {
        fill: none;
        stroke: #000;
        stroke-miterlimit: 10;
      }

      .cls-2 {
        stroke-width: 4.77px;
      }
    </style>
  </defs>
  <g id="Layer_1-2" data-name="Layer 1">
    <path class="cls-1" d="M628.62,753.84V44.79c-23.5,0-42.59-18.88-42.97-42.29H45.28c-.81,22.98-19.63,41.37-42.78,41.47v709.06c23.66.1,42.82,19.31,42.82,43,0,.27-.02.54-.02.82h540.33c0-23.75,19.24-43,42.99-43.01Z"/>
    <path class="cls-2" d="M576.18,18.85H54.81c-3.07,18.45-17.88,32.91-36.49,35.48v689.88c18.89,2.6,33.86,17.46,36.63,36.29h521.37c3.07-18.45,17.88-32.91,36.49-35.48V55.14c-18.89-2.6-33.86-17.46-36.63-36.29Z"/>
  </g>
</svg>