<?xml version="1.0" encoding="UTF-8"?>
<svg id="Layer_2" data-name="Layer 2" xmlns="http://www.w3.org/2000/svg" viewBox="0 0 797.35 629.12">
  <defs>
    <style>
      .cls-1 {
        fill: none;
        stroke: #000;
        stroke-miterlimit: 10;
        stroke-width: 3px;
      }
    </style>
  </defs>
  <g id="Layer_1-2" data-name="Layer 1">
    <path class="cls-1" d="M44.51,627.62h709.05c0-23.5,18.88-42.59,42.29-42.97V44.28c-22.98-.81-41.37-19.63-41.47-42.78H45.32c-.1,23.66-19.31,42.82-43,42.82-.27,0-.54-.02-.82-.02v540.33c23.75,0,43,19.24,43.01,42.99Z"/>
    <path class="cls-1" d="M779.5,575.18V53.81c-18.45-3.07-32.91-17.88-35.48-36.49H54.14c-2.6,18.89-17.46,33.86-36.29,36.63v521.37c18.45,3.07,32.91,17.88,35.48,36.49h689.88c2.6-18.89,17.46-33.86,36.29-36.63Z"/>
  </g>
</svg>