<?xml version="1.0" encoding="UTF-8"?>
<svg id="Layer_2" data-name="Layer 2" xmlns="http://www.w3.org/2000/svg" viewBox="0 0 319.64 320.17">
  <defs>
    <style>
      .cls-1 {
        fill: #000;
        stroke-width: 0px;
      }
    </style>
  </defs>
  <g id="Layer_1-2" data-name="Layer 1">
    <g>
      <path class="cls-1" d="M129.68,71.05c6.27.33,10.95-2.38,15.15-6.62,16.85-14.46,39.89-9.23,60.19-12.29,2.63-.18,5.32.21,6.05-2.97,8.86-17.89-11.59-48.81-37.18-44.3-9.81,1.97-19.05,16.58-12.44,24.9,9.81,2.81,11.38-13.84,20.62-11.65,6.01,1.13,8.99,8.46,5.74,13.8-19.88,26.02-51.77-9.45-21.17-28.54,24.96-13.16,53.49,14.5,50.55,40.06.33,2.55-1.82,6.73.07,8.34,32.49-2.02,64.75-1.73,97.24-2.46,31.76,6.61-93.86,5.18-100.37,6.98-12.27,23.61-26.58,24.51-48.39,34.96-23.87,15.67-45.22,2.42-63.52-13.97-5.72-1.06-11.95-1.16-19.35-1.54-.15.05-.23,0-.28.23,1.17,1.82,2.07,3.33,3.54,4.81,21.76,15.59,70.64,91.35,97.06,60.46,14.53-17.59-13.85-47.96-28.78-25.34-1.02,1.09-1.34,6.85.36,6.57,24.37-18.53,28.72,8.06,13.34,15.48-11.44,4.05-22.63-8.13-19.65-19.24,3.62-17.65,29.35-20.07,37.75-5.19,15.95,22.34-5.46,46.53-29.96,38.52,7.9,26.16-19.26,48.54-41.87,31.11-16.3-11.54-3.74-41.71,16.14-32.27,18.11,8.22,1.95,37.78-10.78,19.08-2.2-4.1.41-10.41-1.53-13.83-8.63,6.46-8.79,19,.39,24.74,18.21,13.43,45-10.38,30.51-29.08-20.93-21.87-42.76-42.84-64.11-64.29-7.72-8.86-3.94,11.09-2.79,14.16,17.49,22.39,23.08,55.33,1.57,77.22-5.68,13.46-11.5,25.18-25.83,32.21-2.73,32.74.09,67.89-.9,101.45.49,3.18-.29,6.61-3.87,7.62-1.31-34.42,0-67.54-.43-101.98-.29-1.36.78-4.28-1.26-4.24C24.99,217.47-1.78,200.58.09,172.83c.53-25.3,31.84-31.38,35.48-4.03,1.73,10.09-11.59,29.45-20.1,17.25-4.36-10.7,18.24-20.42,6.43-29.74-9.84-2.44-18.7,9.55-17.37,18.79-.85,23.14,27.86,42.87,46.43,30.94,1.42-18.49-4.6-38.72,7.33-54.51,2.55-4.11,5.82-8.08,7.71-12.54-1.52-.57-3.59.73-5.27.11-47-3.72-30.01-60.84,12.16-43.12.62.16,1.55.52,1.56-.41-.74-5.79,1.51-13.68-.87-18.86-16.55-3.28-59.28,6.74-64.69-13.65,5.21-19.69,32.59-9.47,45.99-5.48-10.23-18-38.16-3.99-45.23-37.6-3.51-20.41,25.21-13.38,31.54-1.95,4.99,7.6,6.99,16.91,9.3,25.62-.28,1.49,5.39,7.82,5.82,5.06-12.85-51.04,21.71-39.05,20.56,7.02.61,20.62-.57,13.17,21.46,16.43-5.77-16.67-5.66-29.73,5.12-35.48,21.29-12.1,43.58,14.04,26.21,34.28l.03.08ZM76.63,108c-1.36-2.1-2.65-4.79-4.67-6.29-7.9-5.46-18.91-6.12-27.21-1.12-9.33,5.93-10.24,19.78-1.99,27.54,5.43,5.71,14.87,8.26,22.8,5.21,5.51-2.33,7.13-8.56,8.48-13.9.85-3.52,1.77-7.35,2.63-11.28l-.03-.15ZM83.37,172.41c14.02-18.22,13.02-45.21-.93-60.52-.26-.29-.42-.35-.61-.11-.46,1.46-.73,2.98-1.09,4.47-1.49,6.64-2.76,13.41-5.45,19.69-3.08,7.43-8.68,13.95-13.5,21.97.01.14.18.17.47.13,12.03-2.57,17.83,3.44,21.02,14.34l.08.02ZM98.53,55.35c.06,9.31,5.25,16.7,12.24,16.67,11.69-.13,20.37-6.48,20.54-15.94.6-10.13-8.06-19.09-18.45-17.86-8.91.82-14.43,7.83-14.34,16.94v.19ZM152.88,64.4c-12.33,9.39-24,15.16-38.07,15.51-.62.03-.3.27-.2.5,12.87,15.31,35.64,16.96,51.3,5.53.37-.31,1.24-.66.51-1.02-8.07-3.69-14.81-8.79-13.49-20.46l-.06-.05ZM208.04,56.8c-13.54.65-25.36,1.55-36.55,2.17-.4.02-.48.24-.34.6,2.6,6.8,4.96,12.95,7.72,20.15.1.26.25.45.45.49,11.91-1.99,20.9-10.51,28.75-23.34l-.04-.08ZM58.06,205.29c9.24-4.72,15.53-11.45,17.48-20.43-5.82-1.41-11.72-2-17.06-3.05-.38-.07-.57.08-.57.47.06,7.15-.12,14.75.06,22.97l.08.04ZM69.7,179.6c5.33-.18,8.96-2.44,8.3-7.58-.49-5.11-4.06-10.24-9.48-10.18-5.33.09-10.97,5.54-10.01,10.3.95,4.89,6.24,7.59,11,7.46h.2ZM171.03,79.77c.77-2.91,1.46-6.86.63-9.62-1.28-4.36-7.9-7.85-11.9-4.53-5.12,3.65-1.36,10.47,3.43,12.4,2.2.89,5.31,1.48,7.77,1.8l.07-.05Z"/>
      <path class="cls-1" d="M188.17,173.93c1.72,2.04,4.15,3.77,5.95,5.68,3.08,3.1,5.5,6.92,7.27,10.96,2.43,4.93-.73,11.1-6.29,11.53-7.03,0-13.76-9.95-17.63-15.18-.55-.67-.95-1.63-1.65-2.13-.13-.05-.27-.01-.42.08-.51.43-.95.99-1.29,1.57-1.42,2.57-2.69,6.27-5.97,5.4-3.36-1.09-6.02-4.93-6.01-8.41.03-6.24,1.09-12.6,2.37-18.71.46-1.94,2.66-3.79,4.61-4.2,8.14-.07,16.37.43,24.43,1.48,3.05.39,6.17,3.3,6.52,6.31.18,4.95-8.48,4.53-11.87,5.53l-.04.09ZM195.99,196.67c.77-13.73-11.23-18.2-19.82-24.4,3.95,10,8.18,20.75,19.73,24.48l.09-.07ZM182.4,166.93c3.33.46,6.73.93,10.06,1.39.45.03.77.27.85-.28.04-.54.28-1.21.21-1.71-1.72-.46-3.63-.62-5.41-.98-1.85-.26-3.78-.75-5.61-.9-.19.67-.08,1.71-.16,2.41l.06.07ZM166.88,172.69c.04,4.52-.07,9.11.04,13.57,3.59-5.73,2.43-7.73-.02-13.59l-.02.02Z"/>
    </g>
  </g>
</svg>