<?xml version="1.0" encoding="UTF-8"?>
<svg id="Layer_2" data-name="Layer 2" xmlns="http://www.w3.org/2000/svg" viewBox="0 0 313.21 311.45">
  <defs>
    <style>
      .cls-1 {
        fill: #000;
        stroke-width: 0px;
      }
    </style>
  </defs>
  <g id="Layer_1-2" data-name="Layer 1">
    <g>
      <path class="cls-1" d="M118.96,111.09c33.53,1.32,63.43,28.31,65.31,61.01.11,2.45.43,5.91-1.16,7.66-1.33,1.44-4.26,1.53-6.36,1.55-30.57.53-55.27-14.14-60.82-47.13-.95-5.66-1.73-11.38-2.59-16.94-3.98-2.9-48.75,1.88-50.56,8.2-7.23,29.96-17.98,58.49-32.07,85.9-4.08,8.45-7.4,17.23-11.28,25.77-2.38,4.16-1.25,8.58,3.09,10.6,5.17,2.63,10.08,5.88,15.19,8.01,11.91-9.87,24.25-10.6,37.52-4.08,40.29,20.16-6.64,81.33-47.57,51.95-15.66-11.46-22.36-33.14-17.75-51.62.67-2.43,1.4-5.28.86-7.72-.32-1.85-1.33-3.68-2.47-5.22C1.9,230-.6,219.78.12,209.01c4.04-36.46,20.39-67.36,53.3-85.8,2.15-1.22,4.53-2.45,5.7-4.61.54-.92.79-2.22.86-3.33.91-10.7,2.21-21.43,2.38-32.13.01-3.75-1.73-7.25-3.49-10.49-1.69-3.58-4.61-6.07-9.05-4.25-.74.33-1.73.62-1.82,1.47,0,3.93.22,8.3-.12,12.52-.31,4.91-.46,9.94-1.83,14.59-2.2,8.7-15.23,9.72-19.7,2.54-12.41-19.44,6.85-43.02,28.64-38.29,12.14,5.65,13.6,24.09,12.24,35.89-.69,6.49-1.85,12.95-2.44,19.5,15.97-1.35,31.9-4.38,47.54-6.24.54-.06.82-.35.84-.9,1.01-14.59,2.01-29.12,3.04-43.97.04-.47-.1-.72-.57-.66-14.82,4.06-31.25,5.42-43.26-5.42-12.87-10.63-6.3-28.56,8.06-33.13,22.94-9.11,36.21,22.53,12.01,22.52-5.37-.22-10.85-1.77-16.12-.19-1.1,11.43,16.75,13.5,25,12.87,5.12-.35,10.27-1.38,15.33-2.34,2.04-.41,3.58-2.25,4.51-4.02,7.1-14.12,18.77-24.8,30.87-34.65C170.85,4.52,193.04-3.93,217.78,1.79c11.52,2.71,21.69,10.91,34.02,10.11,23.72-1.96,49.16,5.38,58.82,29.68,7.07,16.15-.82,35.6-18.41,40.73-15.85,6.08-38.95.51-46.05-16.78-3.02-7.87-1.85-16.86,2.96-23.94,1.39-2.08,3.02-3.89,4.84-6.2.29-.4.25-.8-.03-1.19-5.24-6.81-9.52-18.51-19.83-16.47-9.15,2.84-17.76,7.28-26.76,10.57-28.36,10.33-53.19,28.4-83.38,34.22-.56.08-.9.41-1.04.93-4.58,15.65-5.44,31.28-4.08,47.55l.11.1ZM56.35,126.74c-29.12,13.79-47.95,47.89-51.39,79.12-1.38,11.82.97,22.79,8.43,32.71,15.43-35.33,36.73-71,43.04-111.79l-.07-.05ZM43.34,257.94c10.43,7.08,23.23,13.5,26.48,26.84,1.96,7.92-4.27,13.71-12.19,13.08-11.81-.53-22.43-13.03-23.38-26.8-.22-3.39.17-6.8.37-10.23.06-.62-.01-1.13-.57-1.42-5.49-3.11-11.12-6.29-17.94-10.15-.45-.25-.76-.27-.91.22-.35,1.61-.69,3.17-1,4.62-4.73,21.25,6.5,46.55,28.57,52.25,18.64,3.94,38.7-9.71,42.15-25,2.81-10.92-.61-20.49-11.06-25.49-9.61-5.03-22.24-6.79-30.51,1.95v.12ZM247.01,16.46c3.82,5.63,7.7,10.41,11.21,15.3.29.45.79.57,1.29.44,2.95-.62,5.52-1.33,8.42-1.63,11.57-1.18,23.13,7.61,24.6,18.77,1.46,8.66-5.04,16.1-14.07,14.37-7.28-1.27-12.53-6.12-15.98-12.4-1.8-3.18-3.48-6.45-5.28-9.73-.14-.2-.3-.29-.49-.24-5.37,4.41-7.78,11.02-7.46,16.91,1.34,20.36,29.67,26.29,45.31,18.42,12.34-5.88,17.39-20.81,12.12-33.21-9.61-22.94-34.93-30.49-59.63-27.1l-.04.09ZM125.4,56.83c7.72-.9,14.5-3.17,21.43-5.79,28.92-12.05,56.12-27.73,85.9-37.73.5-.22.28-.49-.07-.74-10.05-7.02-20.61-8.4-31.66-7.96-11.61.46-22.83,3.64-32.68,9.68-16.98,10.92-33.06,24.67-42.96,42.45l.03.09ZM118.89,117.13c-.66,38.98,23.85,63.26,59.59,58.46,5.66-27.28-28.68-61.45-59.5-58.57l-.08.11ZM40.28,262.92c-3.29,12.73,2.92,25.58,13.19,29.48,3.85,1.54,8.11,1.95,11.1-1.65,2.54-2.98.8-6.51-.85-9.37-5.1-8.93-13.41-14.48-23.34-18.52l-.1.06ZM261.65,37.74c1.85,7.55,5.38,14.44,11.84,19.21,3.7,2.89,9.77,4,12.97-.08,3.16-3.71,1.92-8.34-.25-12.14-4.77-8.83-13.43-11.42-24.49-7.11l-.08.11Z"/>
      <path class="cls-1" d="M102.92,90.62c.34-7.64-7.12-12.7-13.95-10.06-4.56,1.69-8.31,6.25-8.38,11.19-.11,6.47,4.42,12.08,10.11,11.82,6.43-.28,12.02-6.43,12.22-12.78v-.17Z"/>
      <path class="cls-1" d="M170.89,168.79c-2.18-18.67-25.76-41.66-46.89-46.16-.42-.08-.54.14-.51.56.91,10.88,8.57,17.31,14.86,24.51,12.62,13.95,23.39,21.63,32.48,21.16l.05-.06Z"/>
    </g>
  </g>
</svg>