<?xml version="1.0" encoding="UTF-8"?>
<svg id="Layer_2" data-name="Layer 2" xmlns="http://www.w3.org/2000/svg" viewBox="0 0 594.46 592.84">
  <defs>
    <style>
      .cls-1 {
        fill: #000;
        stroke-width: 0px;
      }
    </style>
  </defs>
  <g id="Layer_1-2" data-name="Layer 1">
    <g>
      <path class="cls-1" d="M172.91,178.53c-7.56,25.47-30.15,43.58-56.54,30.55-5.39-2.2-11.33-6.61-17.2-6.31-7.7-.04-10.34,15.22-14.84,7.62-4.02-8-1.32-17.81,5.08-23.47.43-.42.6-.86.25-1.36-4.07-5.63-11.5-8.21-12.71-15.83,1.04-3.18,6.12-2.96,9.01-2.74,6.47.45,12.55,5.22,18.6,5.69,6-6.52,13.51-13.57,20.84-6.86.73.88-.79,1.99-1.38,2.61-9.34,5.81-11.78,11.94-6.39,21.61,9.91,20.18,37.91,19.39,46.36-1.6,9.3-21.77-9.28-4.82-38.6-30.97-14.67-12.77-22.02-32.08-25.61-55.16-34.93,1.26-61.82,28.74-74.23,59.32.02,3.21,2.5,6.26,2.74,9.3,1.98,7.57-12.04,9.77-6.78,17.6,2.91,3.68,4.76,7.51,2.43,11.88-7.85,11.26,6.69,15.4,3.05,27.46.6,8.52,9.85,13.47,9.58,22.53,4.78,2.77,5.59,7.83,7.42,12.57,7.04,11.76,14.27,23.65,23.97,33.41,11.14,10.74,25.53,19.64,41.63,18.76,2.18-7.07,5.02-13.02,9.55-16.33,7.11-5.62,16.01-6.39,25.13-6.26,12.84-17.11-2.03-48.23-22.93-54.83-16.33-6.81-22.94,17.58-8.71,22.98,3.77-.45,1.43-6.49,3.54-8.64,6.43-1.52,12.48,5.62,12.18,11.69-.28,9.61-10.99,18.47-20.8,15.81-7.83-1.64-12.4-7.32-17.6-13.45-1.93-1.63-.06,14.13-1.97,12.19-12.15-9.44-13.87-26.16-6.02-39.56,5.95-10.64,18.11-14.3,29.45-11.6,27,5.74,49.15,36.44,39.94,62.6-.12,1.41-1.12,3.76.46,4.58,43.92,20.68,31.02,72.58-13.22,75.15-1.75.65,2.68,7.15,2.88,8.71,12.47,23.78,14.03,54.23-12.8,67.58-2.48,1.29-4.95,3.36-5.83,6.11-17.07,52.63-92.19,45.43-88.85,100.44.15,13.77,4.12,26.71,17.72,33.26,1.65.81,2.56,2.5,3.45,4.06.18.46-.26.76-.64.94-9.4,4.31-17.92,2.18-25.92-3.11-14.38-9.32-15.32-22.49-10.3-37.02-5.12-4.94-13.17-7.24-11.66-16.05.48-1.61,2.46-1.38,3.78-1.2,10.6,3.68,18.52-2.1,23.25-10.47,5.01-8.72,4.69-19.36,10.06-28.06,1.32-5.36,7.69-8.54,6.98-14.61.24-8.78,9.73-5.31,13.86-9.37,2.3-2.07,2.54-7.8,5.17-9.8,7.71-4.31,15.27,5.32,20.2-6.11,3.42-7.93,10.87-5.09,17.42-4.89,8.17-.32,13.25-4.79,14.94-11.24,1.22-15.36,2.14-31.83-3.54-46.4-2.98,28.46-4.85,35.69-13.93,39.78-4.07-2.39-3.31-8.58-2.38-12.72,2.5-10.72,7.84-43.37,2.2-50.83-4.1,28.98-22.97,57.53-55.68,50.62-27.33-4.39-39.09-46.33-9.66-56.38,28.76-10.67,38.7,45.44,6.62,36.83-10.17-2.7-13.75-20.1.67-17.88,10.25,2.57,10.89-6.72,5.04-12.32-9.62-8.01-23.74,2.6-24.75,13.49-4.32,28.1,31.6,41.87,52.1,26.06,14.22-9.95,29.55-42.72,13.98-56.45-18.54-13.2-25.33-33.49-30.55-54.61-7.25-10.83-14.6-21.68-22.76-31.81-5.53-5.28-6.73-6.59-7.72-14.07-2.36-3.58-8.23-4.67-7.89-9.62,2.28-12.11-5.2-12.17-9.27-19.88.04-5.84,6.56-12.81-.17-17.52-2.39-2.15-6.04-4.43-6.04-7.72-.04-3.32,6.22-8.36,7.01-12.26-.49-11.05-15.47-17.72,3.87-24.7,18.29-32.63,40.16-59.52,80.24-63.49,2.07-.2,1.55-3.51,2.2-4.67,6.68-35.16,28.28-58.03,59.62-73.75,3.41-3.92,6.51-9.99,11.18-9.47,8.42,1.08,12.88,9.24,20.29-1.28,10.27-10.24,13.24,8.69,22.97,6.45,3.11-1.08,6.76-2.6,10.04-1.24,1.06.33,1.51.92,2.02,1.79,4.88,8.05,12.58,8.43,21.31,8.09,2.48,7.2,7.1,9.17,13.95,11.17,11.93,8.9,22.97,18.98,34.73,28.11,2.63,2.22,5.89,3.68,9.3,4.14,18.21,2.98,32.54,12.34,44.44,26.11,14.4,13.93,43.92,1.03,55.67-13.34,21.47-24.71,6.56-69.07-29.87-50.15-5.96,3.59-13.85,12.2-8.47,18.94,2.92,3.48,6.35,4.14,12.08,2.1,2.02-.47,1.06-3,1.27-4.39.41-22.43,27.38-5.81,16.53,10.5-8.88,15.38-35.31,7.96-36.39-9.32-.72-28.18,44.03-36.72,55.85-11.91,12.76,28.18-9.94,60.62-38.91,66.13-5.16,1.21-10.09,1.59-16.8,2.97,21.72,5.76,40.85,1.72,59.39-5.74,3.93-1.9,9.83-.35,7.71,4.9-3.48,4.27-9.04,7.48-14.07,9.64-5.41,1.95-11.37,2.41-18.88,3.79-.66.13-.57.32.1.52,15.91,4.77,30.8,6.66,45.11,2.71,4.36-3.18,4.2-13.83,2.49-18.12-10.06-19.96,12.37-13.85,12.31-26.32-.65-17.17,8.47-7.43,15.51-16.34,3.14-7.86,5.17-10.22,13.27-8.69.4.11,1.16-.07,1.34-.64,4.08-8.2,6.24-6.11,14.05-7.03,3.27-4.14,6.17-4.03,11.19-4.61,13.87-2.78,20.81-12.42,20.33-26.75-.13-2.01.11-3.81.47-5.95.14-.77.06-1.93.91-1.66,3.65,2.11,7.02,3.3,9.75,6.04,1.97,2.48,4.69,4.44,7.27,5.16,10.77,1.25,21.86-2.02,31.74,4.86,9.85,6.02,15.01,20.06,9.74,30.57-2.08,5.04-6.8,3.83-8.61-.65-11.5-26.97-52.88-20.23-66.78.89-9.85,14.4-16.88,30.63-27.26,44.68-9.58,12.53-21.72,22.04-37.55,27.11-3.72.96-6.59,3.49-8.42,6.82-16.02,26.08-51.97,19.26-74.76,6.52.37,22.45-16.24,39.75-39.48,39.53-15.32.36-25.44-11.65-32.43-23.96-29.71,12.34-68.44-10.16-72.02-42.66-.89-9.3.64-18.86,7.96-25.08,9.98-8.15,23.24-11.04,35.3-5.62,2.46,1.43,4.19,4.51,5.97,6.71-.15,2.26-3.76,3.54-5.08,5.44,6.48,8.16,16.84,16.91,8.37,28.12-5.01,7.19-15.58,7.83-21.68,1.84-.37-.53.48-1.32.73-1.9,4.47-6.44,2.63-11.45-3.82-13.77-7.49-2.99-15.11,3.53-16.35,10.69-1.48,27.59,36.02,43.01,58.53,30.4.69-.3.81-.94.69-1.62-3.09-15.09,5.57-25.79,17.75-33.39-.71-19.11-11.91-35.02-24.23-48.36-15.61-17.23-36.34-27.09-56.68-36.96-3.86-1.23-8.41,2.19-12,.7-3.13-.91-4.7-6.05-8.01-6.89-4.05-1.35-7.02,2.73-10.76,3.48-5.18,1.93-10.22-5.74-14.71-4.91-5.55,3.02-8.72,14.1-17.43,9.53-25.04-7.93-55.86,35.36-61.26,56.97-1.03,3.73-1.43,7.66-2.09,11.4-.13.67.2,1.04.95,1.3,28.05,8.43,44.52,16.5,54.19,29.5,8.76,10.07,10,26.64,13.68,44.69,15.19.36,30.88-11.42,33.06-26.58,1.06-24.9-24.94-38.47-40.49-15.74-.53.42-.81-.08-1.01-.61-3.75-10.13,2.76-15.52,7.8-21.24.32-.4.27-.8-.03-1.22-4.71-6.04-8.03-12.41-7.64-19.96.22-3.54,1.02-9.87,6.03-8.54,6.38,1.33,10.67,6.79,15.59,10.76.5.37.88.06,1.25-.4,5.67-7.79,11.63-11.91,19.35-7.46,8.65,4.11-5.22,7.96-3.66,16.05.67,6.75,6.49,12.55,8.44,19.1,13.45,35.13-9.77,53.43-40.73,63.64l-.12.11ZM133.59,364c21.12.84,36.88-9.34,39.76-24.8,3.49-18.86-6.23-35.38-24.92-40.05-.41-.08-.71.06-.91.41-6.12,12.76-16.81,19.53-32.02,20.94-.64.04-.91.36-.86.94,1.21,16.68,10.87,29.24,18.8,42.5l.15.07ZM167.81,170.12c6.63-33.36-26.95-70.3-61.06-66.64-4.29,33.92,33.26,70.1,60.97,66.73l.09-.09ZM319.16,115.39c-1.69,12.81-4.61,24.7-15.99,31.66-.54.31-.66.77-.47,1.32,5.4,18,23.37,27,40.95,19.54,13.33-5.19,22.3-18.59,20.08-33.02-.29-1.74-.68-3.76-2.33-4.67-11.49-7.59-23.08-15.96-37.56-15.83-1.51-.02-3.16.34-4.57.89l-.12.11ZM515.51,42.98c-5.85,3.82-14.54,2.5-18.85,9.06-.27.43-.63.71-1.14.75-5.22.06-9.01,2.25-10.95,7.19-.21.58-.62.91-1.24.99-7.67,1.27-11.03,6.53-13.18,13.5-.2.69-.4,1.36-.96,1.78-5.23,3.41-12.33,2.21-9.12,11.24,2.8,9.43,2.34,12.53-5.09,16.64-1.16.74-2.64,1.36-3.75,2.24-.94,3.09-1.37,6.36-2.35,10.68-.02.21,0,.37.09.46,15.02-1.87,28.43-13.75,37.19-25.04,11.05-15.67,19.71-32.95,29.39-49.45l-.03-.03ZM362.85,109.71c.41,2.24,1.56,4.85,1.63,6.19.21,4.28,1.6,8.36,3.8,11.18,3.09,4.12,7.69,6.76,12.33,8.94,12.95,6.18,26.13,8.29,39.85,4.74,6.71-1.68,13.18-4.81,17.08-10.76.81-1.28,1.85-2.9,2.24-4.34-26.92,2.77-51.55-4.8-76.87-16l-.06.05ZM112.09,364.6c11.97,24.26,20.31,47.79,14.53,73.92-.15.62.1.75.61.6,29.5-9.73,18.17-50.57,4.3-69-1.22-1.01-2.89-1.6-4.38-2.03-4.19-1.14-8.98-2.35-14.99-3.56l-.06.06ZM46.03,510.96c14.24-8.28,28.31-16.87,42.13-25.51,13.74-8.01,23.11-16.95,28.25-31.59.19-.47.15-.78-.36-.8-3.74.16-6.49.92-8.25,3.94-.54.89-.93,1.99-1.26,3.01-2.19,6.89-6.38,7.55-13,4.79-4.92-1.99-9-1.69-11.88,4.2-1.03,1.98-2.33,3.88-4.2,4.82-3.01,1.68-7.02-.14-10.27.89-.33.11-.48.24-.62.62-1.7,6.11-7.71,8.79-11.69,13-2.5,2.65-3.48,6.19-5.91,8.96-2.54,4-5.66,8.55-3.06,13.62l.11.05ZM361.65,124.63c-1.86-17.15-10.17-22.06-23.04-28.9-9.26-5.66-18.01-12.06-27.12-18.02-1.09-.74-2.28-1.57-3.51-2.38-.41-.26-.47-.09-.31.37,4.28,11.33,7.74,22.27,12.37,33.63,14.63-.49,27.59,6.74,41.54,15.36l.07-.05ZM109.7,321.58c-9.83-3.12-18.97-5.48-29.19-8.53-.6-.19-.67,0-.34.51,4.45,6.98,8.33,13.04,12.19,19.13,3.16,5,6.53,9.97,9.55,15.08,4.83,10.38,12.98,13.93,24.53,15.06.6.09.78-.09.48-.63-7.56-13.32-15.52-25.28-17.12-40.51l-.09-.11ZM142.18,297.95c-14.93-1.73-24.04,3.58-26.56,16.03,11.88,2.2,20.77-3.27,26.63-15.93l-.06-.1ZM301.33,142.48c9.16-6.19,12.48-15.26,11.97-25.19-11.15,5.13-14.38,12.21-12.07,25.14l.09.05ZM95.09,345.19c-7.25-11.2-14.52-22.59-22.68-34.87.28,12.89,8.71,26.23,22.64,34.88l.04-.02ZM344.13,91.95c-7.19-9.18-16.82-15.49-28.47-19.1,4.78,6.74,17.99,15.65,28.45,19.14l.02-.04ZM175,15.11c-.18-.55-.36-1.1-.54-1.66-1.72.54-3.45,1.07-5.17,1.61.29.59.58,1.18.86,1.76l4.84-1.72ZM201.96,12.32c0-.46-.01-.92-.02-1.39h-5.47c0,.46.02.92.03,1.39h5.46Z"/>
      <path class="cls-1" d="M86.91,82.87c-6.63-10.06-15.09-18.98-22.46-28.54-12.71-15.71-23.23-33.57-40.12-45.25C18.63,5.25,12.41,1.59,5.66.03c-10.34-.76-3.96,12.3-.87,16.88,20.87,25.12,48.62,43.28,73.88,63.64,2.03,1.47,3.93,3.5,6.44,4,.32-.03.59-.32.86-.58.32-.35.74-.58.92-.99v-.12Z"/>
      <path class="cls-1" d="M285.48,35.95c.15,10.14,7.53,17.21,15.85,21.64,11.96,6.86,25.1,9.91,38.59,6.37,3.71-1.26,9.2-3.77,9.87-8.03.34-6.26-4.49-5.32-8.94-5.08-11.05-.64-22.05-1.14-33.12-2-.86-.08-1.79-.32-2.6-.62-1.15-.46-2.12-.86-2.81-1.27-.02-.05.1-.08.31-.11,7.72-.66,16.49-.85,24.86-2.46,3.8-.78,6.86-3.58,9.77-6.26.62-.57,1.06-.97,1.26-1.66.45-1.59.36-4.21-.68-5.55-.87-.82-3.33-.98-4.98-1.14-14.83,5.81-29.76,9.02-45.54,5.4-.63-.09-1.33.17-1.78.62l-.07.14Z"/>
      <path class="cls-1" d="M89.25,75.58c.4-.79.7-2.02.43-2.95-4.21-13.12-8.25-26.41-13.02-39.36-2.66-7.02-6.2-13.82-9.89-20.31-.54-.87-1.19-1.7-1.92-2.49-4.09-4.73-14.19-10.02-16.33-.92-.66,4.04.41,8.07,1.47,12,6.99,20.52,22.26,36.52,35.93,52.78.71,1.04,2.02,1.33,3.22,1.32l.11-.07Z"/>
      <path class="cls-1" d="M80.04,86.43c-2.32-2.4-5.03-5.14-7.6-7.17-15.11-11.27-29.55-24.12-47.23-31.24-9-2.86-20.19-.37-14.52,11.33,1.44,2.39,4.05,3.45,6.18,5.18,4.11,2.88,8.36,5.61,12.83,7.72,14.42,6.17,29.8,9.93,44.78,14.6,1.38.54,2.58.05,4.14-.07.05,0,.72-.09.98-.11l.44-.14v-.08Z"/>
      <path class="cls-1" d="M47.87,284.62c-2.51,1.76-4.34,3.6-6.86,5.63-.32.34-.45.73-.29,1.22,4.15,14.82-7.23,28.75-5.74,44.06.07.97,1.11,1.1,1.98,1.23,3.85.76,6.95-2.08,7.68-5.67,1.78-7.41,2.56-15.13,3.4-22.69.31-3.12-.5-5.71-.83-9,8.54,13.84,4.11,33.6,7.66,47.91.12.35.45.61.97.74,3.09.67,5.27.03,6.72-1.26,2.29-2.06,2.62-5.37,3.23-8.31,3.31-19.72-9.41-36.77-17.8-53.83l-.11-.02Z"/>
      <path class="cls-1" d="M77.84,93.65c-9.46-3.41-19.41-5.61-29.17-8.11-9.99-2.47-21.28-5.65-28.91,3.86-6.11,7.67.78,13.66,8.64,14.84,16.98,3.29,32.94-3.91,48.76-8.22.42-.12.67-.41.66-.9.03-.47.16-.93.09-1.37l-.07-.1Z"/>
      <path class="cls-1" d="M97.29,75.66c2.98-16.49,13.6-38.25,5.38-54.26-7.16-11.83-16.9-.65-15.95,9.24,1.1,13.22,3.06,26.37,6.53,39.18.48,1.86.93,3.77,1.41,5.61.12.35.46.42.88.4.56-.03,1.13.05,1.66-.08l.1-.08Z"/>
      <path class="cls-1" d="M37.24,158.43c3.44-2.07,6.84-4.85,10.46-6.52,9.6-3.83,19.72-6.33,29.66-9.24,2.65-.8,5.66-1.48,7.95-2.75,1.77-1.03,3.44-2.93,5.05-5.93.07-.29.02-.58-.12-.85-1.46-2.38-3.43-3.64-5.56-4.18-2.16-.54-4.55-.33-6.75.17-7.72,2.03-15.49,4.69-22.55,8.41-7.41,3.93-14.21,9.16-21,14.12-2.15,1.67-3.76,3.89-5.58,5.91-.56.55-.24,1.15.17,1.7.17.27.34.52.59.61,2.33-.1,4.68-1.03,7.02-1.44.08-.01.24-.04.32-.06.22-.02.23.06.29.07h.04Z"/>
      <path class="cls-1" d="M158.36,30.16c-.46-.01-1.44.15-1.98.2-.86.09-1.2.29-1.7.89-11.76,13.11-23.92,33.17-21.17,51.49.63,1.67,2.57,3.34,4.18,4.54.19.01.38-.14.57-.33,1.45-1.37,3.32-2.69,4.23-4.45,1.93-17.42,5.97-34.43,15.75-49.3.4-.77.26-2.08.22-2.99l-.11-.05Z"/>
      <path class="cls-1" d="M37.27,158.3c-2.41,1.7-5.36,3.26-7.58,5.16.08.47.84.95,1.17,1.36.71.55.9,1.94,2.03,1.76,10.11,0,20.23-.06,30.34-.15,4.39.07,10.36.56,13.09-3.54,1.06-1.98-1.49-4.63-3.16-5.58-6.99-3.62-14.99-1.61-22.44-.68-4.4.65-8.88,1.28-13.2,1.83-.28.02-.22-.13-.22-.16h-.02Z"/>
      <path class="cls-1" d="M163.67,75.02c.46-.29,1.07-1.08,1.52-1.49.71-.73,1-1.22.96-2.15.14-13.78.1-27.6.1-43.44,0-.49-.2-.47-.52-.14-8.22,8.25-8.82,17.36-9.17,26.28-.56,7.62-.78,16.69,6.97,20.98l.15-.02Z"/>
    </g>
  </g>
</svg>