<?xml version="1.0" encoding="UTF-8"?>
<svg id="Layer_2" data-name="Layer 2" xmlns="http://www.w3.org/2000/svg" viewBox="0 0 338.54 334.68">
  <defs>
    <style>
      .cls-1 {
        fill: #000;
        stroke-width: 0px;
      }
    </style>
  </defs>
  <g id="Layer_1-2" data-name="Layer 1">
    <g>
      <path class="cls-1" d="M95.66,65.31c-1.15-5.77-1.58-11.75-3.04-17.49-4.32-17.38-18.51-25.02-36.18-19.67-.29.09-.54.2-.67.34-.35.35.18,1.03.67,1.34,17.19,5.27,29,16.75,36.7,32.42.55,1.53,2.53,2.06,2.83,3.66,1.02,7.32,2.01,14.7,3.11,22.59.1.62.52.87,1.15.86,15.02.33,28.68-2.6,41.46-10.21.47-.27.8-.65.89-1.2.59-10.79,4.21-19.4,11.77-26.29,2.49-2.28,5.52-4.32,8.73-6.11,2.11-1.31,3.13-4.05,3.28-6.4,1.39-17.69-14.32-32.54-31.88-30.38-6.68.7-12.51,4.28-14.45,11.02-.09,3.17,4.44,5.33,6.45,5.07,3.94-.51,7.12-3.74,10.97-4.71,5.87-2.06,11.24-.96,15.32,4.84.32.43.39.95.07,1.39-2.91,3.73-5.68,7.5-8.83,11.08-6.26,7.13-16.26,8.64-23.34,2.77-24.69-22.88,7.66-51.29,33.54-35.81,12.19,6.02,19.56,19.54,21.24,33.38.49,1.29-.04,4.63,1.87,4.52,24.16-1.27,41.68,16.12,61.63,26.69,6.23,3.77,12.75,6.89,19.84,8.57.58.2,1.05.05,1.41-.53,9.41-18.54,24.74-31.22,45.19-35.11,7.33-1.49,14.76-.68,21.62,2.7,10.95,4.92,15.41,17.85,7.68,27-15.04,16.45-38.68,15.17-59.17,16.83-3.03.28-5.94.02-9.04.09-.37.05-.63.24-.71.6-.2,3.07-.34,6.09-.43,9.15.02.55.58.42.94.27,9.2-3.74,17.57-6.31,26.6-4.2,11.84,2.41,17.25,10.08,14.37,20.97-1.83,6.41-8.27,10.61-14.4,12.66-11.59,3.99-23.59.22-31.27-9.86-1.16-1.26-2.22-3.04-3.66-3.99-1.84,2.79-2.5,6.56-3.9,9.54-1.18,3.04-2.32,6.26-3.56,9.28-.36.49-.69-.07-.98-.43-5.15-7.73-2.92-14.12,1.44-18.97,4.78-5.76,5.4-11.62,5.18-18.19-.07-1.74-.16-3.54-.29-5.31-.07-.56-.45-.71-1.06-.63-10.68,1.8-15.27,6.06-17.13,15.65-.65,2.34.16,6.66-3.3,6.62-5.73-.92-7.3-8.76-5.82-13.31,2.12-7.5,9.22-11.44,14.58-16.76-14.73-9.41-29.84-18.99-45.51-26.98-6.95-3-14.31-4.37-21.85-2.93-.61.1-1.09.41-1.37.95-3.65,7.27-6.37,14.17-11.38,20.18-2.93,3.8-6.72,7.16-9.56,11.02-.06.26.04.52.24.77,5.45,6.07,10.43,13.19,19.17,13.27,8.05.45,19.06-4.72,18.83-13.52-.36-1.12-1.45-4.08-3.08-3.3-3.7,2.66-6.67,5.81-11.03,6.92-13.78,1.81-15.25-14.88-5.96-21.91,13.89-10.55,33.65,2.74,29.28,20.08-2.52,11.49-12.91,19.72-24.14,20.64-8.35,1.01-17.53-3.02-23.53-9.43-2.72-2.43-4.85-5.65-7.72-7.74-15.45,3.01-30.59,6.89-44.97,9.98-.67.12-1.03.52-1.17,1.18-3.25,13.2-6.48,26.34-9.75,39.6-.13.49-.13.96.17,1.36,4.08,4.2,9.03,8.27,12.53,13.16,14.2,18.48-4.27,48.36-27.03,41.48-14.73-4.9-16.42-22.59-5.72-33.19,4.6-1.26,10.43-2.86,14.64.22,12.15,10.04-6.16,21.08-2.31,22.28,6.4,3.28,11.64-.63,14.36-7.21,5.08-11.4.52-21.65-12.77-28.09-.63-.3-1.17-.43-1.68.04-3.82,4-7.7,8.14-11.6,12.24-5.37,3.06-11.73,4.57-17.36,7.1-.47.24-.7.73-.78,1.24-2.89,12.65,2.64,23.06,8.81,33.25,6.64,11.57,13.41,23.22,20.46,34.89.23.18.49.07.78-.23,3.03-3.51,5.36-6.6,8.04-9.21,4.91-4.88,11.28-7,18.38-4.4,2.47.89,4.03,3.03,3.13,5.77-.18.43-.16.55-.62.93-13.83,3.04-21.3,7.6-21.06,19.01,0,.54.25.87.78.97,7.23,1,14.31.73,20.45-3.23,4.96-4.43,10.23-5.1,17.08-5.7,1.63.16,3.29,2,4.75,2.87.35.29.41.55-.05.76-6.59,2.5-12.19,4.56-18.7,7.04-.72.32-.06.8.3,1.11,16.87,9.64,18.84,27.99,9.57,41.99-7,11.05-26.34,9.36-28.68-4.68-2.75-8.85-1.27-17.38,1.57-25.94.41-1.49.93-3.14,1.26-4.64.03-.29-.06-.48-.28-.53-2.78.16-5.54.68-8.32.97-.77.09-1.57.1-1.53,1.1.11,2.66.28,5.15.4,7.49.54,21.14-.19,47.13-18.37,61.17-17.06,10.18-29.79-8.97-28.39-24.76,1.02-22.14,14.22-39.04,33.2-49.66.98-.83,3.02-1.17,3.31-2.51-5.36-16.38-15.57-30.33-24.47-44.91-7.67-11.3-11.51-24.07-12.1-37.67-.14-.53-.66-.7-1.16-.74-17.87-.25-35.06-12.48-39.38-29.17-7.61-27.51,23.56-48.14,41.07-22.66,5.36,9.95-1.57,19-10.21,24.83-1.63.82-6.5,6.06-7.81,4.51-3.6-2.46-4.85-5.72-4.66-9.37.26-3.56,1.5-7.2,2.92-10.55,1.8-3.8,4.35-8.64.09-11.89-.58-.52-1.32-1.02-2.24-.73-7.87,2.71-10.15,6.17-11.34,13.06-2.93,16.54,9.69,33.11,30.38,32.92,2.05.1,4.08-.85,5.55-2.38,7.24-12.97,17.72-20.88,32.75-21.51.73-.02,1.28-.32,1.63-.94,7.01-11.63,9.84-24.08,10.14-37.31-.21-1.59-3.25-1.87-4.5-2.31-13.76-1.71-11.8-4.31-7.86,5.27,2.65,8.15-.02,17.84-6.5,22.76-3.28,2.64-7.5,4.61-11.44,1.94-7.55-6.51,5.51-15.24-9.15-25.25-11.77-7.45-25.19-14.84-29.36-29.06-9.31-25.91,15.83-50.6,40.24-54.13,11.03-1.8,22.18.95,30.39,8.42,12.15,9.36,13.91,32.87,34.45,29.09,4.48-1.31,8.22,1.7,7.39,6.41-1.54,11.28-16.21,17.18-25.65,13.49-5.14-2.26-8.52-6.59-11.69-11.52l-.08-.19ZM43.91,38.1c-9.01,23.14,15.48,50.77,44.38,50.5,4.82-24.85-19.13-52.31-44.27-50.58l-.11.08ZM269.67,80.52c18,1.73,35.47.75,51.18-7.37,3.39-1.95,7.39-4.14,9.37-7.56,3.32-5.51-.74-11.48-6.26-13.49-20.64-7.67-45.72,7.26-54.34,28.34l.06.09ZM80.48,264.74c-19.84,10.08-31.53,27.75-29.91,48.74,1.04,5.23,2.89,12.14,8.57,13.7,7.52,1.93,12.6-6.35,15.34-12.23,6.74-15.49,7.83-32.1,6.09-50.17l-.09-.05ZM107.94,261.94c-6.38,8.01-8.66,16.96-6.47,26.69.84,4.16,3.84,7.69,8.38,7.76,3.86.22,6.81-2.45,8.7-5.55,6.68-10.52,2.22-23.58-10.47-28.93l-.14.03ZM265.74,108.04c5.67,12.75,18.57,17.06,29.13,10.3,3.12-1.89,5.53-4.96,5.23-8.81-.08-4.57-3.65-7.5-7.84-8.22-9.58-1.96-18.6.06-26.49,6.58l-.03.14ZM32.82,43.88c-8.32,9.34-7.56,19.27-4.51,28.57,1.81,5.77,4.77,10.22,10.57,12.93,4.52,2.23,11.44,3.7,16.99,4.64,1.42.18,3.21.65,4.57.66-16.49-12.07-27.48-25.7-27.56-46.79h-.07Z"/>
      <path class="cls-1" d="M135.11,129.85c-1.15-12.64-14.36-27.01-27.5-27.38-6.02-.16-6.85,5.06-4.96,9.8,3.89,11.09,11.24,19,21.84,23.86,5.52,2.76,11.19,1.24,10.63-6.11v-.17Z"/>
    </g>
  </g>
</svg>