<?xml version="1.0" encoding="UTF-8"?>
<svg id="Layer_2" data-name="Layer 2" xmlns="http://www.w3.org/2000/svg" viewBox="0 0 298.46 300.79">
  <defs>
    <style>
      .cls-1 {
        fill: #000;
        stroke-width: 0px;
      }
    </style>
  </defs>
  <g id="Layer_1-2" data-name="Layer 1">
    <g>
      <path class="cls-1" d="M157.28,71.59c12.31-1.21,25.22,0,34.91,8.53,6.89,5.22,10.68,14.79,5.17,22.3-13.37,15.64-41.18,5.95-53.41-6.79-2.39-2.3-4.3-5-6.58-7.81-.47-.64-.98-.55-1.49-.06-8.05,7.42-12.76,15.36-13.53,25.37,23.56,1.86,44.14,7.94,58.46,28.37.5.74.82.48,1.1-.15,4.37-11.82,11.5-21.31,25.39-19.55,13.71.95,20.87,16.18,12.89,27.05-1.5,2.22-3.56,3.95-5.56,5.74-5.85,5.38-10.08,12.32-14.73,18.68-.39.38-.92.2-1.35-.08-3.92-2.46-4.52-5.99-4.71-9.84-.44-7.63,3.17-14.37,7.07-20.81,1.69-3.47,4.12-6.97,5.06-10.61-3.45-3.23-7.98-2.23-11.18.41-10.46,7.15-8.18,19.41-10.14,30.32-3.3,19.15-19.13,16.76-34.13,17.71-6.75,1.36-10.95,6.36-13.57,12.39-1.38,3.06-2.05,6.55.55,9.69.56.67,1.42,1.7,2.06,1.4,5.07-4.08,8.83-9.27,13.92-13.18,5.49-3.86,16.04-6.84,22.1-2.46,6.67,3.08-6.92,1.83-14.35,20.15-3.52,7.26-11.12,12.54-19.29,10.15-13.01-2.84-14.91-19.53-9.36-29.6,2.04-3.79,5.01-7.1,7.35-10.73.44-1.18,2.94-2.77,1.36-3.8-18.35-11.46-24.03-31.38-24.83-54.02,0-.83-.44-1.06-1.17-.92-11.14,1.74-19.44,6.51-25.52,13.45-.32.41-.28.82,0,1.25,6.02,8.31,12,15.55,16.79,23.56,7.15,11.39,6.06,31.55-7.63,37.46-12.36,4.12-20.23-10.31-22.35-21.16-2.81-11.23-2.35-22.47,2.37-33.24.73-1.76,1.88-4.02.16-5.46-.84-.58-3.05-1.86-3.65-.33-3.09,6.03-6.24,12.03-9.37,18.05-17.44,35.71-41.68,74.82-29.17,115.91,2.13,7.42,6.2,14.77,12.12,19.53,19.91,15.22,45.88,7.11,56.27-15.88,8.3-16.13-5.7-36.91-20.59-39.47-4.35-.79-9.82-.17-13.44,2.57-2.66,2.63-3.94,5.86-1.34,8.42,2.65,3.06,6.3,4.85,10.19,3.7,2.63-.45,4.95-.87,7.41-1.57.64-.14.97.43,1.09,1.02,2.89,8.83-3.57,14.21-11.3,16.24-17.92,4.07-32.09-13.41-26.61-30.24,2.71-9.17,10.97-14.8,20.46-15.91,28.16-3.9,51.1,27.99,39.95,54.21-9.95,24.14-38.45,38.28-61.57,22.75-6.87-4.54-11.77-11.69-14.76-19.35-9.36-23.02-6.31-48.13,2.12-70.99.65-2.18,1.59-4.5,2.06-6.66-.02-.22-.19-.35-.49-.39-6.28,0-11.57.99-17-.72-14.99-4.31-23.84-21.03-20.91-36.02,5.56-27.13,35.6-43.61,62.76-36.21,3.29.68,6.74,1.59,10.1,2.24.46.04.75-.2.91-.61,4.46-12.03,8.12-24.72,5.57-37.25-1.29-7.03-4.49-13.83-9.82-19.54-3.81-3.64-12.07-10.03-17.61-7.93-3.53,1.17-6.64,5.84-5.63,9.4,2.35,5.43,10.03,4.35,14.4,7.06,3.45,1.94,7.14,3.92,8.83,7.58,1.78,3.99.3,8.73-2.99,10.5-14.53,5-36.56-10.46-31.86-26.76,3.55-12.41,14.51-13.59,25.66-12.97,1.37-.38.79-4.09.82-5.1-.64-10.71,9-18.84,17.57-18.52,6.25.31,12.1,3.84,16.11,8.55,7.08,7.25,8.34,23.91-4.53,24.52-10.78-.11-10.45-19.1-20.25-18.95-.43.09-.79.34-1.05.7-1.89,3.41-2.57,6.57-1.95,9.44,3.86,10.8,17.15,14.98,27.4,17.08,3.68,1.25,31.47,2.61,31.13-.75.72-11.86.32-22.92,2.39-34.34,5.49-42.18,81.45-58.22,73.43-2.45.03.75-.64,2.35.57,1.97,4.5-1.55,8.94-3.27,13.32-4.88,28.23-12.94,61.22-7.92,77.17,19.57,22.92,40.86-31.99,69.58-65.33,47.87-13.45-8.54-17.57-27.39-9.57-41.08,9.48-18.94,38.1-17.12,45.92,2.27,4.03,9.45.21,17.63-10.18,21.66-.51.18-.96.15-1.13-.38-1.7-5.75-.65-13.2-7.52-16.23-3.15-.08-4.85,3.35-5.65,5.78-3.36,17.74,14.51,32.11,31.42,27.64,8.92-1.81,16.67-9.98,20.43-17.78,2.58-5.29,3.26-11.57,1.58-17.7-4.72-17.18-17.89-27.92-34.28-32.45-25.7-7.58-47.8,7.88-68.92,20.06-10.84,6.45-21.74,12.84-32.53,19.42l.02.04ZM133.31,72.28c18.06-3.37,34.14-11.06,50.5-21.13.44-.27.46-.49,0-.65-5.9-1.85-11.98-2.52-15.65-7.78-5.72-7.75-1.55-20.89,7.79-24.03,3.58-1.27,8.94-1.38,11.43,2.03,2.75,3.93,1.79,8.97-3.04,11.01-2.38,1.14-5.69,1.9-7.03,4.16-1.14,2.51.4,5.51,2.66,6.84,2.71,1.85,7.01,1.54,9.9.33,6.14-2.07,8.42-9.37,8.7-15.21.32-6-1.53-11.42-4.99-15.53-15.28-17.02-45.82-3.94-55.22,13.12-8,14.12-9.5,30.64-5.14,46.77l.11.07ZM71.68,131.62c-29.99-11.79-60.31,1.26-66.68,29-2.22,11.4,2.7,23.35,12.94,29.27,7.6,4.28,17.95,4.01,24.31-2.07,6.75-5.77,5.43-18.25-5-16.74-.86,1.97-.66,4.99-1.24,7.04-1.99,14-20.01,9.79-18.75-2.74,2.87-15.66,24.44-19.24,32.72-5.86.5.41,1.55,2.53,2.09,1.31,6.51-13.12,13.26-25.73,19.65-39.09l-.06-.11ZM122.01,118.51c-2.72,25.11,9.42,52.59,35.64,56.81,6.19,1,12.61-1.35,16.84-5.82,7.06-7.05,7.14-18.12,1.63-26.2-12.61-18.13-31.86-25.05-54.02-24.87l-.1.09ZM78.93,129.44c1.14.91,2.55,1.45,4.25,2.44.45.22.85.13,1.19-.24,8.59-9.32,19.4-15.11,32.02-17.52.58-.09.86-.43.93-1.01,1.62-11.6,7.25-20.68,14.53-28.63,1-1.21-.15-3.34-.69-4.3-1.3-2.19-4.08-2.29-6.38-1.79-14.45,2.44-28.55-.54-42.58-3.15.24,6.83,2.12,13.83,2.34,20.76.91,11.42-3.18,21.42-5.65,33.32l.04.13ZM140.42,85.03c9.72,12.99,23.86,21.71,40.65,20.84,5.98-.47,12.8-3.71,14.25-9.72.97-6.65-3.99-11.64-10.08-15.57-11.37-6.8-32.77-7.47-44.82,4.32v.13ZM85.19,138.4c-8.05,16.03-6.93,31.12-.49,45.74,2.25,5.05,7.4,7.9,13.05,6.54,5.53-1.36,7.13-7.07,7.74-12.03,2.55-16.08-7.41-29.67-20.2-40.28l-.11.03ZM135.31,76.85q2.81,2.23,5.7-1.05c-1.74.32-3.47.64-5.7,1.05Z"/>
      <path class="cls-1" d="M103.15,132.28c-1.78,1.88-4.22,4.42-3.11,7.19,1,2.35,4.21,4.4,6.67,3.56,2.51-.66,3.65-3.79,3.24-6.14-.62-3.01-4.03-4-6.69-4.64l-.11.03Z"/>
      <path class="cls-1" d="M131.77,102.8c5.2,4.4,5.23,6.81,10.75.85-4.28-7.16-4.86-4.4-10.74-.95v.09Z"/>
      <path class="cls-1" d="M164.5,165.68c.49-17.18-22.11-40.4-35.65-37.4,1.44,13.23,17.8,29.96,35.56,37.44l.08-.04Z"/>
      <path class="cls-1" d="M101.31,93.6c-1.01,1.41-2.42,2.95-3.47,4.24-.95,1.21-1.57,2.12-1.38,3.09.36,1.76,3.13,3.99,5.17,4.41,2.84.65,5.45-1.89,4.69-4.95-.69-2.42-3.43-4.61-4.91-6.79h-.1Z"/>
    </g>
  </g>
</svg>