<?xml version="1.0" encoding="UTF-8"?>
<svg id="Layer_2" data-name="Layer 2" xmlns="http://www.w3.org/2000/svg" viewBox="0 0 336.4 335.11">
  <defs>
    <style>
      .cls-1 {
        fill: #000;
        stroke-width: 0px;
      }
    </style>
  </defs>
  <g id="Layer_1-2" data-name="Layer 1">
    <path class="cls-1" d="M8.87,205.52c3.49-4.59,7.07-8.17,10.15-11.96.28-.38,0-.59-.36-.73-6.49-2.32-15.64-.48-18.62-8.23-.09-.35,0-.68.22-.97,6.54-7.19,16.15-2.92,24.45-5.63.47-.19.31-.51.04-.82-9.55-11.06-16.56-22.48-19.98-35.9-3.35-13.12-3.01-25.64,5.26-37.15.97-1.29,1.66-2.68,1.96-4.37-3.42-20.85-1.27-32.43,9.46-50.62,1.55-2.65,3.15-5.19,4.85-7.95.22-.38.31-.66-.13-.8-3.68-.92-7.73-1.14-12.53-2.62,2.29-1.99,4.47-3.04,6.56-4.52,5.07-2.28-5.37-4.18-3.37-11.58.05-.26.11-.49.2-.65.28-.34.3-.2.49-.19l.34.17c3.44,2.03,6.45,3.79,9.48,5.58.41.31.85.06.97-.4.96-2.33,1.83-4.48,2.71-6.59.08-.16.17-.28.31-.35.45-.11.48-.03.77.02l.48.16c5.2,1.84,1.81,7.7,4.58,10.6,1.2.65,2.61-1,3.68-1.45,14.96-11.64,31.69-17.05,50.71-14.73,3,.6,6.29-.9,8.57-2.72,26.56-20.87,53.22-9.25,77.14,9.31.19.07.29,0,.3-.22-.49-3.64-1.5-6.74-1.22-9.26.95-7.63,4.86-10.2,11.15-5.02,12.6,17.25,1.87,15.52,17.68,5.59,7.64-3.53,9.47.85,8.33,7.56-.78,3.28-2.72,6.38-4.57,10.38-.2.51.12.63.57.61,13.77-.46,26.72,2.51,38.79,8.61,14.12,6.36,25.05,18.93,37.91,27.84,13.17,9.05,40.09,9.63,43.43-9.85,1.27-10.45-9.1-20.92-19.93-20.23-3.6.15-6.9,2.82-9.26,6.54-.94,1.34-1.95,2.77-3.31,4.63-.29.34-.52.26-.67-.16-2.22-7.17.46-11.3,5.58-14.26,7.99-4.67,17.24-4.06,24.09.83,6.24,4.25,10.21,13.09,10.25,20.27.65,14.1-14.59,25.2-26.96,26.73-25.45,2.93-46.63-29.74-70.57-37.88-11.82-4.44-25.23-6.59-37.53-2.92-1.32.42-2.79.87-4.02,1.48-.24.17-.33.43-.3.75,2.47,14.18,8.65,28.91.13,42-3.72,6.89-12.56,9.46-19.03,4.69-12.87-8.16-10.45-22.77-6.98-35.12-.06-.16-.24-.21-.5-.17-5.04,1.09-9.04,3.14-13.28.14-2.34-1.69-.66-5.24.76-6.99,2.22-2.37,5.3-4.02,8.12-5.98.3-.24.23-.44-.09-.61-4.56-2.46-12.82-3.66-13.22-9.21.84-5.33,9.22-4.66,13.34-5.83-17.09-18.72-46.41-22.15-59.23-6.8,2.66,2.26,6.12,4.04,8.07,6.98,1.66,2.35,3.73,4.46,5.93,6.19,3.61,2.87,7.71,5,11.81,7.18,22.41,11.54,28.79,36.37,19.76,57.84.06.29.41.37.67.44,6.05,1.21,12.71,1.86,16.63,7.09,5.23,6.56-.44,17.03-8.65,16.6-2.21-.05-5.49-.76-7.15-2.24,3.42-2.12,7.62-3.49,11.36-5.42.21-.13.31-.29.26-.49-5.63-9.14-19.03-8.58-24.42.2-2.37,3.98-2.99,10.39-1.1,17.05.17.31.45.48.77.57,4.98,1.38,9.81,3.21,14.27,5.82,8.77,5.25,17.28,14.08,17.68,24.97.17,3.09-.84,6.44-4.17,7.28-12.31,2.35-27.33-5.89-32.54-17.31-2.25-4.38-3.44-9.33-5.7-13.66-10.17-3.01-27.64,6.14-26.91,17.42-.05,4.07,3.49,9.92,7.65,9.82,3.12-.73,6.78-4.46,7.4-8.09.21-.23.66-5.59,1.33-4.06,2.27,5.86,3.15,12.96-2.74,16.65-5,3.47-11.79,2.84-16.11-1.68-2.58-2.67-3.88-6.23-5.32-9.58-.46-.78-.52-2.04-1.39-2.37-26.11,7.17-46.81-6.42-57.52-29.68-1.51-2.4-2.64-5.4-4.47-7.47-4.63-3.7-10.04-6.52-15.05-9.67-.41-.23-.68-.06-.91.25-10.49,15.07-5.17,47.51,11.03,58.51.37-6.38-5.34-12.97-.35-19.13.33-.43.79-.66,1.31-.55,6.9,1.82,7.02,9.74,11.75,13.49.27.22.57.3.77-.02,1.75-3.93,3.76-13.33,9.64-9.45,4.06,3.77,3.19,10.23,3.1,15.07.02.22.12.38.32.45,4.8-.03,9.29-1.15,13.97-.83,10.31,1.04,25.69,6.64,23.62,19.49-.94,6.37-5.57,9.78-11.35,11.69-13.29,4.55-25.03-2.15-37.78-6.39-.49-.13-.7.14-.8.58-3.1,10.5-3.01,21.63.09,31.86,10.81,28.92,35.62,52.66,34.88,85.39.98,18.43-20.24,30.88-36.49,23.66-15.7-6.55-18.74-30.67-1.89-37.87,1.71-.47,4.13.25,5.92.62.15.11.08.27-.14.46-2.48,2.04-4.98,2.99-6.64,5.33-1.88,3.23-3.97,6.94-3.94,10.78.24,8.21,10.94,17.32,20.99,13.54,14.12-4.52,14.67-15.98,12.16-28.5-3.55-21.14-16.97-38.8-26.62-57.52-6.34-11.89-8.29-25.06-8.47-38.54-.11-.68-.02-1.56-.87-1.2-6.84,2.57-12.27,9.98-21.76,5.5l-.04-.12ZM127.3,67.91c-16.47-10.91-31.19,14.53-23.34,28.2,3.64,6.53,11.09,9.87,18.53,9.62,19.83-.72,31.74-22.23,23.73-41.11-3.74-9.64-11.21-16.89-20.7-21.12-.38-.17-.66.03-.84.31-2.82,6.76-6.89,13.72-15.25,13.98-12.24.51-15.85-8.88-19.69-18.13-.22-.4-.58-.54-1.04-.54-14.39.06-28.34-.18-42.66.22-6.26.07-9.83,1.67-9.5,8.53.23,14.12.99,28.15,1.54,42.37,0,.56.27.9.8,1.08,7.28,2.61,14.98,4.57,16.63,13.4,1.13,6.39-1.89,9.67-11.71,15.29-.54.33-.41.74-.24,1.18,6.18,15.93,17.37,25.7,31.55,27.83,15.03,2.96,29.55-5.92,30.57-21.9,1.14-12.11-10.12-22.82-21.88-23.68-9.8-.88-15.55,5.55-15.95,14.96,0,.28.04.44.16.4.05-.04.16-.11.21-.15,1.88-2.23,3.47-4.75,5.77-6.47,5.68-4.32,13.43-3.82,17.71.89,7.07,7.8,2.94,19.96-6.75,23.04-15.9,5.55-28.44-10.67-23.38-25.96,2.08-6.09,7.89-8.93,12.63-12.61-3-1.95-6.39-2.84-9.35-4.67-3.89-2.35-8.35-4.27-11.48-7.59-2.34-3.77-.24-6.43,3.69-7.03,4.04-.08,8.27,1.02,12.34,1.47.21-.01.28-.11.2-.28-6.09-8.37-11.72-15.63-16.98-23.03-1.78-2.88-6.19-8.38-3.3-11.56.85-.92,2.14-1.42,3.42-1.13,3.96,1.69,7.06,5.03,10.01,8.07,5.87,6.51,11.34,13.22,18.39,21.54.36.43.53.44.49-.1-.55-4.77-1.21-8.36-1.46-12.68-.1-2.01-.52-4.43.14-6.43.62-2.2,3.23-3.2,5.36-3.01,3.48.38,4.41,4.23,5.41,6.97.87,2.34,1.58,4.64,2.27,7.15.7,2.48,1.36,5.17,2.19,8.02.17.55.59.21.83-.04,3.1-3.39,5.62-6.55,9.25-9.2,9.5-7.38,26.75-7.1,31.72,5.38,6.23,12.36-3.44,30.13-18.2,26.04-9.28-2.33-15.27-15.72-7.69-22.91,4.35-4.26,9.5-3.62,15.84-4.56v-.07ZM46.78,184.57c9.11,6.2,19.01,9.96,30.24,7.27,4.46-.98,9.13-3.11,8.89-8.53,0-4.35-3.59-6.37-7.09-7.81-11.36-4.96-24.64-1.46-32.07,8.95l.02.12ZM189.23,47.03c-9.71,6.69-14.15,17.66-11.78,27.74.35,1.48.53,3.26,1.68,4.36,2.11,1.81,4.67,4.03,7.28,4.06,2.24-.29,4.56-3.01,5.29-5.16,3.72-10.46,2.92-21.03-2.36-30.97l-.11-.02ZM29.35,55.53c-8.61,11.45-13.96,23.8-9.42,38.74.13.43.39.6.81.46,1.55-.49,2.96-.95,4.37-1.39,1.32-.53,3-.74,4.19-1.48.37-12.18.08-24.34.1-36.31h-.05ZM130.48,113.82c-6.31-.48-12.39-.6-19.02-.98-.4-.02-.61.12-.57.53.56,5.14,1.14,10.47,1.79,16.4.04.42.23.63.65.59,5.05-.48,10.06-.95,15.45-1.46.42-.04.64-.25.67-.67.34-4.89.89-9.53,1.11-14.32l-.07-.08ZM54.75,30.71c10.7-.16,21.59.36,32.27-.17,3.53-.68,4.34-4.64,3.96-7.73-12.26-3.67-25.38,1.74-36.24,7.86v.04ZM142.22,139.31c1.72,13.99,9.1,21.72,22.95,23.18-1.41-12.93-11.62-18.78-22.88-23.24l-.07.06ZM100.22,39.54c.48,2.49,1.36,5.69,2.71,7.7,2.17,3.7,8.19,3.07,10.71.61,1.24-1.23,1.99-3.08,2.01-5.38-.04-.21-.18-.38-.38-.51-2.76-1.72-4.3-2.6-6.27-2.91-2.54-.38-6.02.09-8.73.43l-.05.07ZM39.71,111.53c6.05.59,9.77-2.33,7.88-7.66-1.29-3.09-6.22-3.17-9.41-3.91-.17.01-.23.14-.21.35.6,3.94.97,7.38,1.62,11.14l.11.08ZM108.25,29.25c-2.38-1.27-4.83-2.91-7.26-4.03-.35,1.07-.55,2.38-.76,3.43-.02.31-.1.45.05.53,2.45.94,5.12,1.86,7.64,2.46.24-.6.23-1.67.36-2.29l-.04-.09ZM30.76,107.13c-.34-1.31-.18-3.06-.81-4.25-1-1.96-4.2-1.31-5.91-.6,1.11,1.7,2.48,3.27,3.66,4.89.38.43.73,1.09,1.14,1.4.61-.27,1.34-1.01,1.88-1.36l.03-.08Z"/>
  </g>
</svg>