<?xml version="1.0" encoding="UTF-8"?>
<svg id="Layer_2" data-name="Layer 2" xmlns="http://www.w3.org/2000/svg" viewBox="0 0 302.46 303">
  <defs>
    <style>
      .cls-1 {
        fill: #000;
        stroke-width: 0px;
      }
    </style>
  </defs>
  <g id="Layer_1-2" data-name="Layer 1">
    <path class="cls-1" d="M72.35,81.3c.44-.63.68-1.84-.16-2.19-5.99-2.84-11.92-5.74-18.02-8.44-5.84-2.66-15.95-6.15-17.34-11.02-.15-.33.02-.48.36-.52,3.28-.05,6.48,0,9.6-.02,1.07-.27,7.16.79,5.75-.97-5.6-11.1-22.47-9.02-28.2-19.04,1.95-1.25,7.71-2.04,7.37-3.6-1.47-3.45-5.44-5.66-5.17-10.61.04-.57.3-.79.79-.48,16.02,10.45,11.73,13.03,15.62.37.24-.51.61-.33.98,0,7.85,6.34,5.04,21.57,14.85,25,.25-5.05-1.93-9.46,1.5-13.07.45-.44.85-1.28,1.51-1.3,1.26.48,2.67,1.39,3.55,2.25,4.44,8.25,7.13,17.63,11.35,25.9.32.47,1.6,3.99,1.46,2.14-.99-21.94,7.3-42.94,23.48-57.18,25.7-19.69,60.85-2.55,74.86,23.25.39.51.75.37,1.17-.21,16.19-23.1,42.11-13.94,62.44-3.02,1.47.4,5.49,3.9,6.5,2.26,10.26-16.08,25.36-28.17,44.36-17.75,18.74,9.19,13.13,33.75-6.27,37.41-11.41,3.08-22.17-2.17-32.63-5.93-5.43,10.39-2.94,24.67,2.53,34.16,2.76,4.23,5.2,9.89,10.47,11.32,1.99.51,7.17.28,7.73-2.14-1.55-10.86-11.73-23.98.44-34.81,5.19,9.37,9.67,18.08,10.31,28.09,1.06,13.21-9.97,19.79-21.11,14.82-11.64-4.14-17.19-16.65-20.16-27.61-1.94-9.75-.53-19.6-.62-29.59-.03-.36-.14-.65-.4-.87-3.28-1.84-6.97-3.85-10.5-5.49-10-5.2-21.63-8.12-32.88-6.32-18.28,3.82-19.01,29.85-3.55,37.6,8.92,6.08,24.91-4.25,14.43-13.37-1.95-1.65-4.17-2.85-6.37-4.31-.38-.31-1.19-.56-1-1.01,1.27-.52,2.78-.96,4.02-1.2,15.06,2.15,17.14,22.06,2.39,26.59-12.37,4.15-21.82-4.07-30.37-11.51-5.27,6.41-10.64,13.06-18.36,16.63-26.24,15.09-59.59-19.56-32.51-40.07,12.78-9.95,35.53,3.24,26.82,19.64-3.87,6.86-15.74,10.66-18.5.79,2.85-.27,6.19.67,8.93-.3,6.36-1.9,4.69-11.62.22-14.4-5.91-4.19-15.39-1.65-18.92,4.68-5.44,8.88-.59,20.83,8.75,24.8,15.05,7.74,33.85-4.99,36.72-19.67,1.87-21.55-21.07-40.64-41.52-41.72-29.61-2.41-48.14,37.97-38.62,62.42,7.02,17.01,20.3,29.57,32.6,43.01.39.45.75.51.99-.23.85-2.82,1.42-5.43,2.56-7.95,4.57-11.82,16.7-19.79,29.43-15.91,10.74,3.28,23.02,15.55,18.68,27.34-6.27,15.14-31.78,12.64-34.47-3.33-1.73-9.88,8.79-14.35,14.68-5.85,2.85,3.07,5.22,8.03,9.8,8.32,3.52-.24,5.5-4.02,4.04-7.16-3.18-9.56-14.87-17.11-24.62-13.41-10.83,3.38-19.24,22.15-7.91,29.85,11.57,6.2,24.21,11.33,34.12,20.13,10.08,9.76,15.94,23.78,17.14,38.4-1.59,11.15-15.68,3.79-22.08,1.17-17.84-8.18-28.24-24.28-35.07-41.9-2.15-4.58-3.28-10.22-5.96-14.45-7.79,1.9-16.07,3.13-22.34,8.44-6.96,6.08-9.68,18.47-3.3,26,4.06,4.69,7.96,5.6,13.68,3.33.4-.19.17-.59-.02-.82-3.58-4.44-9.06-7.41-10.17-12.91-.14-5.96,6.56-10.05,11.71-7.68,6.51,2.4,11.17,12.11,9.68,19.4-2.5,13.82-21.28,14.18-29.69,5.59-12.86-12.25-5.38-37.08,11.02-42.73,4.37-1.77,8.58-2.45,13.11-3.52.51-.19,1.48-.12,1.37-.75-28.63-35.28-79.54-55.15-105.51-10.21-19.09,34.28,17.12,75.28,49.83,49.14,13.83-11.39,8.69-36.8-10.15-38.3-25.72-2.51-29.91,25.76-7.38,25.99,9.28-1.61,6.89-8.73,9.57-15.19,7.57,4.6,2.76,16.42-3.66,19.66-19.26,9.09-37.57-16.7-21.42-31.37,6.36-6.23,15.39-8.95,24.17-7.06,23.07,3.77,32.38,35.48,16.04,50.8-13.19,13.71-19.42,6.77-5.16,15.23,11.57,8.18,12.25,27.57-1.09,33.96-10.11,5.54-22.76-3.83-21.02-15.12.19-2.94,1.38-3.4,3.92-6.26.23-.28.68-.69.72-.18.08,3.25-.68,6.26.07,7.69,2.17,3.93,5.84,9.64,10.82,7.27,10.76-3.42,10.5-17.65.59-22.97-19.72-9.61-41.19,10.13-35.15,29.61,2.65,9.44,7.58,17.69,13.34,25.45.26.4.62.58,1.05.62,15.75-4.78,32.58-4.98,47.14,2.91,18.1,7.39,18.69,37.65-4.04,37.33-8.73-1.75-16.61-7.2-25.72-4.74-1.08.38-1.69-.71-2.11-1.67-1.43-3.25-.06-5.77,2.12-8.05,9.86-10.64,21.03-1.75,29.22,5.61.55.54,1.19.24,1.64-.25,10.46-10.85,2.5-19.53-8.47-23.34-10.77-4.38-22.17-4.42-34.07-.67-.59.12-.92.61-.76,1.18,4.98,15.14,9.78,30.34-1.06,44.33-6.49,8.85-20.81,10.42-28.17,1.93-11.59-14.63-1.88-34.92,10.26-45.76,1.74-1.63,3.59-3.12,5.39-4.64.41-.33.59-.73.38-1.2-5.48-9.17-10.83-18.34-13.7-28.67-5.18-18.96,5.83-28.06,19.78-36.99-56.29-14.17-42.11-85.57,3.26-98.53,10.65-2.54,21.48-2.22,32.21-.23l.11-.06ZM181.67,183.82c-4.11-26.64-22.79-39.87-44.97-48.9.7,21.73,22.93,46.08,44.91,48.98l.06-.08ZM253.27,35.71c9.75,5.98,18.61,8.59,28.05,7.7,12.08-1.15,18.58-10.65,11.84-19.35-6.13-8.33-18.89-11.16-26.4-3.82-4.68,4.24-8.78,9.6-13.51,15.35l.02.12ZM35.48,254.45c-10.84,6.96-17.55,16.25-17.75,29.09-.26,5.89,3.33,12.11,9.33,13.27,5.13.85,10.45-3.43,12.19-8.28,4.53-11.38,4.42-23.03-3.64-34.05l-.13-.03Z"/>
  </g>
</svg>