<?xml version="1.0" encoding="UTF-8"?>
<svg id="Layer_2" data-name="Layer 2" xmlns="http://www.w3.org/2000/svg" viewBox="0 0 102.1 68.62">
  <defs>
    <style>
      .cls-1 {
        fill: #000;
        stroke-width: 0px;
      }
    </style>
  </defs>
  <g id="Layer_1-2" data-name="Layer 1">
    <g>
      <path class="cls-1" d="M0,32.6c0-.24,0-.47,0-.71.05-.34.1-.68.15-1.03.09-.66.28-1.26.88-1.66.19-.12.31-.29.31-.53,0-.05.06-.14.11-.15.32-.09.46-.34.59-.61.09-.19.18-.41.34-.53.36-.29.61-.65.84-1.04.16-.27.3-.56.51-.79.73-.8,1.22-1.76,1.8-2.67.95-1.47,1.89-2.96,2.89-4.4.73-1.03,1.58-1.98,2.33-2.99,1.4-1.88,2.93-3.63,4.53-5.33,1.03-1.1,2.1-2.16,2.97-3.39.74-1.05,1.65-1.91,2.71-2.62.39-.26.8-.41,1.27-.36.46.05.91.11,1.36.19,1.49.28,2.98.56,4.47.86,1.16.24,2.19.81,3.26,1.28.11.05.22.09.33.12.51.14,1.03.24,1.53.42,1.04.4,2.05.86,3.1,1.25.44.16.92.21,1.38.31.18.04.38.05.55.11,1.08.4,2.16.81,3.24,1.21.15.06.31.12.46.18.46.2.92.42,1.39.59.47.17.95.28,1.42.44.38.13.75.29,1.13.44.47.18.95.25,1.43.02.12-.06.19,0,.29.06.24.16.49.35.76.41.55.12,1.11.2,1.66.34.56.15,1.13-.05,1.69-.12.31-.04.62-.07.9-.26,1.11-.74,2.23-1.47,3.35-2.2,1.32-.88,2.66-1.74,3.96-2.66,1.31-.93,2.75-1.62,4.13-2.41,1.67-.95,3.45-1.72,5.17-2.59.43-.22.81-.51,1.22-.77.1-.06.19-.15.29-.2.98-.46,2-.81,3.09-.84,1.21-.03,2.29.45,3.26,1.14.81.58,1.59,1.2,2.37,1.82.31.25.59.53.85.82.31.35.58.73.89,1.08,1.3,1.41,2.6,2.81,3.91,4.21.43.46.92.81,1.49,1.08.3.14.61.31.87.52,3.04,2.34,5.87,4.93,8.81,7.4.65.55,1.11,1.22,1.51,1.97,1.11,2.11,1.55,4.36,1.54,6.72,0,.88.12,1.74.34,2.6.26,1.03.52,2.07.7,3.12.11.65.06,1.32.09,1.99.02.38,0,.78.12,1.12.15.43.26.86.26,1.31,0,.16,0,.33.07.47.21.47.15.94.1,1.42-.01.13-.04.27-.04.4,0,.07.02.16.06.21.21.24.27.53.33.82.05.25.12.5.18.76.05.22.14.44.14.65,0,1.14.12,2.27.42,3.38.03.11.05.24.04.35-.1.97-.21,1.95-.31,2.92-.03.31-.12.58-.34.81-.23.25-.44.52-.65.78-.49.58-1.01,1.12-1.7,1.45-.36.17-.67.41-.94.7-.35.37-.76.66-1.2.92-1.4.8-2.87,1.49-4.22,2.4-1.05.7-2.17,1.3-3.25,1.95-.2.12-.37.28-.53.46-.23.26-.48.42-.84.39-.15-.01-.33.02-.46.1-.72.44-1.42.91-2.14,1.36-.24.15-.49.31-.76.39-.69.2-1.29.55-1.83,1.02-.16.14-.34.26-.51.38-2.33,1.57-4.67,3.14-7.01,4.71-.12.08-.26.16-.4.19-.65.14-1.07.52-1.26,1.15-.04.13-.12.19-.26.17-.37-.05-.72.03-1.06.18-.19.09-.39.18-.58.26-.66.3-1.34.5-2.08.47-.49-.02-.98.05-1.46.08h-.85c-.08-.02-.15-.04-.23-.05-1.2-.22-2.3-.57-2.98-1.73-.72-1.24-1.78-2.18-2.94-3.01-.36-.26-.71-.53-.91-.95-.03-.06-.1-.1-.15-.14-.61-.41-1.25-.8-1.84-1.24-.52-.39-.97-.89-1.59-1.15-.03-.01-.05-.04-.07-.06-.7-.77-1.55-1.41-2.09-2.32-.19-.31-.48-.51-.84-.62-.12-.04-.28-.15-.31-.25-.1-.36-.34-.59-.64-.79-.1-.07-.18-.18-.26-.27-.27-.32-.6-.54-1.02-.6-.28-.04-.57-.04-.85-.06-.28-.02-.56-.03-.86-.05.01-.21.03-.38.04-.55-.25-.08-.26-.05-.33.15-.08.21-.18.45-.35.56-.67.47-1.12,1.11-1.52,1.8-.07.12-.09.28-.11.42-.03.26.04.57-.07.79-.27.56-.63,1.08-1.09,1.51-.25.24-.52.48-.7.77-.52.87-1.19,1.61-1.81,2.4-.89,1.15-1.91,2.14-3.18,2.88-.28.16-.55.25-.87.14-.31-.11-.49,0-.69.26-.12.16-.27.35-.45.39-1.3.36-2.61.48-3.89-.02-.75-.29-1.45-.7-2.18-1.05-.15-.07-.31-.13-.47-.15-1.28-.16-2.5-.5-3.7-.97-1.04-.41-2.06-.89-3.2-.98-.05,0-.11-.03-.16-.05-.33-.11-.67-.2-.99-.32-.74-.28-1.47-.57-2.21-.85-.26-.1-.5-.23-.76-.32-.49-.16-.97-.33-1.38-.67-.06-.05-.16-.07-.24-.09-.45-.12-.92-.19-1.34-.37-.88-.39-1.75-.81-2.6-1.27-.62-.33-1.25-.54-1.95-.61-.43-.04-.88-.08-1.22-.39-.35-.33-.78-.49-1.24-.6-.54-.13-1.06-.31-1.59-.48-.38-.12-.69-.37-.89-.71-.3-.51-.61-1.02-.85-1.56-.32-.73-.6-1.48-.55-2.31,0-.1-.03-.2-.08-.29-.14-.25-.15-.49-.05-.75.03-.08.07-.17.1-.26-.42-.18-.59-.52-.73-.9-.21-.6-.42-1.21-.66-1.8-.34-.81-.62-1.64-.73-2.52-.08-.63-.23-1.23-.68-1.71-.06-.06-.08-.15-.11-.23-.37-1.05-.75-2.1-1.11-3.15-.05-.13-.05-.29-.04-.44.02-.2.15-.27.34-.22.15.03.29.09.38.12-.03-.22-.09-.47-.1-.71,0-.26.03-.52.05-.78-.24-.03-.32.06-.37.22-.06.2-.13.39-.19.59-.05.17-.15.28-.34.26-.19-.01-.23-.15-.28-.3-.08-.26-.17-.52-.29-.77-.19-.42-.42-.83-.6-1.26-.3-.69-.61-1.39-.88-2.1-.24-.61-.46-1.23-.64-1.86C.19,33.67.11,33.13,0,32.6ZM48.36,46.99s.05.07.07.1c.12.11.26.21.37.33.32.32.67.57,1.15.58.07,0,.17.11.21.19.17.37.31.74.47,1.11.03.07.12.17.18.17.19.02.38.02.56-.02.3-.07.59-.09.88.05.21.1.37.03.49-.16.13-.21.24-.43.38-.63.12-.17.25-.36.43-.46.86-.53,1.75-1.02,2.61-1.54,1.18-.72,2.35-1.46,3.53-2.18.85-.51,1.73-1,2.49-1.64.05-.05.12-.08.18-.11,1.17-.47,2.19-1.18,3.21-1.91.63-.45,1.28-.87,1.94-1.28.34-.21.72-.37,1.05-.59,1.31-.85,2.64-1.68,4.05-2.36.08-.04.17-.09.23-.16.52-.58,1.19-.92,1.86-1.28,1.05-.56,2.1-1.14,3.11-1.77.58-.36,1.04-.89,1.25-1.56.15-.49.24-1,.32-1.5.03-.17-.05-.36-.1-.54-.04-.16-.14-.31-.15-.47-.05-.6-.04-1.21-.13-1.8-.17-1.13-.36-2.26-.62-3.38-.59-2.54-1.29-5.05-1.84-7.6-.65-3.03-1.51-6-2.05-9.06-.14-.82-.53-1.59-.81-2.38-.03-.07-.07-.14-.12-.2-.21-.27-.42-.53-.64-.79-.04-.04-.14-.06-.2-.05-.28,0-.55.03-.83.03-.55,0-1.09.08-1.47.48-.57.59-1.31.9-1.96,1.34-.69.46-1.47.8-2.18,1.24-1.14.69-2.29,1.35-3.37,2.12-2.53,1.81-5.26,3.3-7.85,5.01-1.62,1.07-3.28,2.09-4.95,3.09-1.19.71-2.29,1.52-3.26,2.51-.25.26-.57.46-.79.75-.91,1.18-1.3,2.48-.91,3.97.34,1.31.57,2.64.52,4.01,0,.16.03.33.06.49.39,1.96.88,3.9,1.42,5.82.04.16,0,.34.01.5,0,.1,0,.22.05.29.27.33.27.7.28,1.1,0,.25.11.5.17.75.03.11.09.22.09.33,0,.63-.05,1.27.32,1.81-.22.16-.52.26-.62.46-.1.21-.02.52-.02.79.28.04.54.06.81.11.33.06.41.24.27.54-.03.06-.01.16.03.21.18.22.16.33-.08.46-.07.04-.15.08-.25.14.16.1.3.18.44.27.24.17.36.4.32.69-.02.16-.09.33.13.41.02,0,.03.07.04.1.02.27.05.54.05.8,0,.15-.02.33-.09.46-.11.21-.13.41-.08.64.1.43-.03.78-.42,1.02-.08.05-.16.09-.25.14ZM46.59,15.36c-.15-.36-.39-.52-.7-.61-.36-.1-.71-.21-1.05-.35-.48-.19-.94-.45-1.44-.59-1.54-.41-3.09-.8-4.64-1.16-1.36-.32-2.61-.89-3.87-1.47-.4-.18-.83-.3-1.25-.42-.85-.23-1.71-.44-2.57-.66-.57-.15-1.14-.32-1.72-.45-.42-.09-.85-.08-1.26-.18-1.49-.36-2.97-.75-4.45-1.14-.28-.07-.56-.05-.79.13-1.32,1.01-2.52,2.13-3.58,3.42-.4.49-.82.96-1.23,1.44-.05.06-.1.12-.13.2-.14.47-.43.84-.75,1.2-.5.55-1,1.1-1.48,1.67-.19.22-.32.49-.48.73-.11.15-.2.34-.34.44-.25.18-.42.4-.55.67-.13.28-.25.57-.42.82-.15.22-.35.43-.56.59-.32.23-.56.5-.71.87-.08.2-.2.43-.38.53-.75.43-1.21,1.09-1.57,1.85-.06.11-.15.23-.26.3-.5.29-.74.75-.87,1.3-.06.25-.16.5-.31.7-.45.6-.94,1.17-1.42,1.75-.29.35-.54.71-.71,1.14-.2.51-.52.92-1.05,1.14-.41.17-.57.49-.58.92,0,.45.06.86.52,1.08.61.29,1.2.6,1.82.85,2.63,1.03,5.27,2.04,7.92,3.05.63.24,1.26.47,1.91.64.87.24,1.75.41,2.62.64,1.24.33,2.48.7,3.72,1.04.85.23,1.7.44,2.55.65.15.04.31.03.47.03.24,0,.48-.02.72,0,.89.05,1.77-.12,2.62-.34,1.18-.31,2.36-.69,3.36-1.43.36-.26.66-.6,1.04-.82.54-.32.94-.76,1.3-1.26.2-.27.41-.54.64-.79.43-.46.89-.9,1.31-1.37.87-1,1.66-2.08,2.68-2.94.32-.27.54-.62.65-1.03.02-.07.06-.13.1-.18.26-.35.42-.73.35-1.17-.08-.52-.18-1.04-.31-1.56-.27-1.04-.39-2.08-.25-3.15.14-1.07.48-2.01,1.27-2.79.49-.49.92-1.05,1.36-1.58.55-.66,1.17-1.24,1.91-1.7.29-.18.56-.41.85-.62ZM70.01,64.45s0,.03,0,.05c.23-.03.46-.03.68-.08,1.07-.28,2.1-.71,3-1.31,2.65-1.77,5.25-3.61,7.87-5.42.3-.21.6-.41.92-.58,1.37-.74,2.76-1.47,4.13-2.22,1.35-.74,2.69-1.5,4.05-2.24,2.1-1.13,4.14-2.35,5.93-3.94.13-.12.27-.25.36-.4.2-.34.44-.63.77-.85.36-.25.42-.69.16-1.05-.09-.12-.2-.22-.32-.32-.76-.67-1.51-1.34-2.27-2.01-.08-.07-.17-.15-.25-.22-1.38-1.11-2.77-2.21-4.15-3.32-.61-.49-1.23-.97-1.94-1.32-.25-.12-.49-.26-.71-.42-1.4-1-2.85-1.91-4.4-2.65-.39-.19-.76-.43-1.1-.69-.51-.39-.89-.45-1.46-.15-.12.06-.24.14-.37.15-.5.04-.9.28-1.26.59-.66.58-1.37,1.07-2.17,1.44-.68.31-1.3.71-1.89,1.17-.24.2-.53.34-.81.49-.22.12-.46.2-.67.33-1.01.61-2.01,1.24-3.01,1.86-.08.05-.14.12-.22.18-.23.16-.45.33-.69.47-.21.13-.45.23-.66.36-.22.13-.42.3-.64.44-.37.23-.75.44-1.12.67-.68.42-1.35.86-2.02,1.29-.09.06-.16.13-.24.19-.15.09-.3.22-.46.26-.68.17-1.37.32-2.06.47-.31.07-.54.25-.62.56-.17.66-.59,1.09-1.15,1.45-.81.51-1.6,1.05-2.4,1.57-.16.1-.34.17-.5.28-.35.23-.7.48-1.05.72-.3.2-.58.43-.9.6-.27.15-.5.32-.68.57-.2.27-.41.54-.64.79-.26.28-.55.52-.82.79-.37.38-.35.67.05,1.02.05.04.1.08.15.12,1.18.89,2.36,1.78,3.53,2.68.26.2.49.44.73.67.17.16.31.34.49.47,1.5,1.04,2.93,2.16,4.21,3.46.87.87,1.88,1.57,2.86,2.29.3.22.67.35,1.01.53.57.29,1.19.35,1.82.33.3,0,.59-.05.89-.08ZM33.87,52.78c-.2.38-.15.62.1.96.28.37.3.6.06,1-.06.1-.11.2-.19.27-.63.61-.97,1.39-1.26,2.2-.14.38-.33.76-.59,1.07-.35.42-.57.86-.57,1.41,0,.34-.16.47-.51.48-.66,0-1.25-.21-1.82-.54-1.12-.64-2.29-1.09-3.6-1.14-.56-.02-1.1-.19-1.46-.68-.06-.08-.11-.21-.09-.29.13-.5.05-.96-.12-1.44-.34-1.01-.77-1.95-1.59-2.67-.18-.16-.33-.37-.46-.57-.32-.5-.28-.91.12-1.33.43-.45.54-.97.48-1.57-.07-.67-.11-1.34-.12-2.01-.01-.69.43-1.12,1.12-1.15.49-.02.92-.16,1.25-.53.15-.18.28-.38.4-.59.26-.48.62-.86,1.1-1.11.08-.04.23-.05.29,0,.37.3.73.6,1.07.93.34.33.63.71.97,1.04.28.27.64.44,1.04.48.24.03.42-.04.58-.24.3-.4.47-.81.25-1.32-.1-.22-.04-.44.14-.67.29.26.66.47.83.78.38.7.48,1.44.02,2.19-.17.27-.28.58-.36.89-.21.81-.57,1.52-1.17,2.11-.17.17-.38.32-.6.41-.74.31-1.41.15-1.98-.4-.23-.22-.48-.37-.79-.41-.21.47-.21.52-.1.96.05.19.1.38.12.58.12.93.22,1.85.34,2.78.08.59.39,1,.98,1.18.42.13.84.27,1.26.41.57.19.78.13,1.14-.35.66-.89,1.33-1.77,1.98-2.66.44-.6.88-1.2,1.6-1.52-.02-.1-.04-.17-.06-.25-.19-.77-.5-1.5-.55-2.3,0-.08-.05-.15-.08-.22-.1-.26-.21-.52-.3-.79-.09-.25-.13-.53-.24-.77-.17-.38-.25-.76-.18-1.17.05-.3-.06-.55-.3-.76-.16-.14-.31-.29-.43-.47-.47-.71-1.08-1.25-1.85-1.62-.79-.37-1.56-.76-2.35-1.13-.28-.13-.57-.23-.86-.33-.43-.16-.87-.29-1.29-.47-.56-.23-1.11-.5-1.67-.73-.56-.24-1.12-.31-1.63.13-.08-.09-.14-.16-.2-.22-.41-.44-.83-.87-1.39-1.14-.32-.15-.65-.24-1.03-.17.17.45.37.86.75,1.15.63.47.82,1.11.72,1.85-.09.64-.2,1.28-.32,1.92-.21,1.12-.77,1.67-1.9,1.79-1.22.13-2.28-.19-3.04-1.25-.52-.73-1.1-1.41-1.63-2.13-.17-.23-.39-.31-.65-.31-.25,0-.35.12-.27.36.04.12.11.23.16.34.1.22.15.42,0,.65-.16.24-.13.43.05.65.08.09.17.17.26.25.28.25.38.56.33.94-.02.15,0,.31.04.46.06.25.16.5.23.75.09.29.2.56.44.77.06.05.09.15.11.23.13.51.26,1.01.37,1.52.03.15.11.23.25.23.17,0,.36.02.51-.05.42-.21.83-.44,1.22-.71.29-.2.58-.25.89-.1.3.14.33.41.33.7-.02.65-.17,1.27-.52,1.83-.32.52-.69,1.02-1.05,1.52-.37.51-.68.58-1.27.34-.07-.03-.15-.06-.22-.09-.86-.36-1.7-.77-2.45-1.33-.36-.27-.54-.6-.56-1.05,0-.23-.03-.46-.06-.69-.13-.99-.48-1.88-1.24-2.56-.28-.25-.53-.54-.8-.81-.12-.12-.12-.22-.05-.37.28-.61.53-1.24.6-1.91.04-.39.09-.79-.15-1.15-.45-.66-1.22-.85-1.91-.45-.05.03-.11.06-.17.09-.17.09-.34.08-.49-.03-.44-.32-.74-.73-.68-1.3.03-.3.08-.63.22-.89.42-.79.88-1.55,1.33-2.32.09-.15.21-.13.33,0,.49.53.99,1.05,1.49,1.57.06.06.12.13.2.16.51.16,1.03.31,1.54.46.24.07.42-.03.6-.19.13-.12.29-.2.45-.27.12-.05.26-.06.39-.09.2-.06.33-.19.34-.41.02-.19.03-.38.04-.57.02-.28.17-.42.45-.45.52-.06.87.29,1,.82.09.36.27.63.55.85.32.26.65.53.94.83.37.39.7.81,1.06,1.21.1.11.24.19.38.29.13-.2.23-.36.33-.52.14-.22.1-.42-.05-.63-.16-.25-.28-.52-.41-.79-.07-.16-.1-.34-.19-.48-.24-.39-.37-.78,0-1.15-1.38-.54-2.74-1.08-4.1-1.61-.21-.08-.44-.15-.66-.18-1.15-.12-2.2-.58-3.26-.98-.84-.32-1.65-.65-2.54-.78-.66-.1-1.29-.36-1.98-.33-.65.02-.72.05-.91.67-.04.13-.07.25-.11.4.34.06.54.27.5.58-.08.56.11,1.04.33,1.54.18.42.27.87.41,1.31.12.38.16.76.04,1.14-.02.06-.01.14.02.2.57,1.33,1.1,2.68,2.01,3.83.43.55.68,1.14.8,1.82.11.6.22,1.19.51,1.74.15.28.28.58.37.89.12.42.32.76.62,1.07.26.26.48.58.65.92.19.39.29.83.46,1.24.25.6.52,1.19.8,1.77.24.49.6.87,1.14,1.05.09.03.18.09.23.16.2.29.49.37.81.44.57.12,1.16.21,1.7.41,1.15.42,2.29.87,3.47,1.19.85.23,1.66.6,2.5.88.47.16.95.31,1.42.47.87.3,1.71.65,2.57.97.64.24,1.26.5,1.86.83.51.27,1.06.49,1.61.68.65.23,1.31.4,1.97.59.23.06.46.13.69.15.37.03.73.07,1.08.23.17.08.36.11.55.13.64.06,1.24.25,1.81.53.15.07.3.14.46.18.27.07.52.02.72-.19.05-.05.1-.13.09-.18-.09-.65-.12-1.32-.31-1.94-.39-1.24-.91-2.44-1.32-3.68-.32-.98-.53-2-.82-2.99-.11-.38-.3-.73-.45-1.1ZM98.47,42.88c-.03-.14-.05-.27-.08-.39-.19-.71-.33-1.43-.37-2.17-.02-.42-.08-.86-.23-1.25-.14-.36-.15-.7-.12-1.06.02-.26.07-.52.06-.78,0-.17-.05-.35-.11-.52-.09-.27-.23-.52-.3-.79-.11-.41-.2-.83-.26-1.25-.15-.91-.47-1.78-.53-2.72-.12-1.64-.43-3.26-.66-4.88-.15-1.03-.31-2.06-.46-3.09-.07-.45-.14-.91-.18-1.36-.06-.79-.47-1.37-1.04-1.88-1.15-1.04-2.31-2.07-3.46-3.1-.16-.15-.34-.29-.53-.41-1.31-.85-2.51-1.85-3.69-2.87-.26-.22-.54-.41-.82-.61-1.15-.82-2.31-1.63-3.46-2.46-.5-.36-.9-.86-1.48-1.13-.18-.08-.31-.26-.45-.42-.15-.17-.29-.36-.42-.54-.27-.38-.61-.61-1.11-.52-.08.01-.16.01-.24,0-.25-.05-.33.09-.33.3,0,.64-.05,1.29.04,1.91.16,1.1.4,2.19.61,3.28.2,1.05.37,2.12.62,3.16.3,1.29.72,2.56,1,3.85.42,1.98.97,3.92,1.48,5.88.16.63.32,1.28.37,1.92.05.62.19,1.19.51,1.73.23.39.47.77.67,1.17.54,1.06,1.35,1.86,2.39,2.43.54.3,1.07.61,1.48,1.09.05.06.13.11.2.16,1.19.78,2.36,1.59,3.68,2.15.18.08.34.23.47.38.25.28.51.53.84.72.31.18.62.4.85.67.69.77,1.48,1.37,2.4,1.82.36.17.65.46.98.7.2.14.41.28.61.42.12.09.26.17.32.29.15.31.13.32.46.25.07-.02.14-.04.23-.06ZM44.92,36.52c-.04-.1-.09-.23-.13-.35-.16-.48-.33-.96-.46-1.44-.17-.6-.29-1.21-.46-1.81-.11-.39-.25-.77-.41-1.14-.16-.37-.42-.45-.76-.25-.17.1-.32.23-.45.38-.25.29-.46.62-.73.9-1.2,1.23-2.42,2.44-3.61,3.67-.32.33-.61.7-.87,1.08-.4.58-.76,1.2-1.15,1.79-.24.36-.44.73-.52,1.16-.15.82-.29,1.63-.46,2.44-.15.69-.08,1.35.13,2.01.07.21.11.43.13.65.04.44.18.83.39,1.21.34.6.54,1.24.64,1.92.07.52.09,1.06.4,1.5.35.51.45,1.06.51,1.65.03.31.1.64.26.89.28.43.48.88.58,1.39.22,1.11.49,2.2.94,3.24.49,1.12,1.01,2.23,1.28,3.43.15.64.69.79,1.19.34.25-.22.43-.52.62-.8.25-.36.47-.75.74-1.1.66-.85,1.33-1.69,2.01-2.52.22-.27.47-.52.7-.77.28-.3.57-.59.84-.9.36-.41.67-.87,1.08-1.23.46-.4.8-.86,1.05-1.41.16-.35.17-.68.01-1.03-.22-.49-.38-.99-.35-1.53,0-.08-.02-.16-.05-.23-.19-.41-.22-.85-.2-1.3.02-.35.02-.7.02-1.04.02-1.18-.26-2.28-.85-3.3-.15-.27-.33-.35-.62-.36-.41-.01-.81-.08-1.22-.13-.22-.03-.35-.16-.37-.39-.01-.13-.07-.25-.11-.39-.2.11-.36.21-.57.32-.38-.59-.76-1.18-1.14-1.77-.02-.04-.05-.09-.05-.13.02-.49-.17-.95-.2-1.42-.05-.79.33-1.45.76-2.07.03-.04.09-.05.14-.08.2-.13.42-.25.6-.4.25-.21.47-.44.72-.7ZM32.32,42.69c.07-.04.08-.05.09-.06.77-.88,1.18-1.93,1.44-3.05.01-.06-.05-.16-.11-.2-.21-.15-.43-.06-.65,0-.31.1-.63.19-.96.23-.47.06-.95.07-1.42.1-.17.01-.34.04-.39.24-.1.45.22,1.13.65,1.32.37.17.63.43.84.77.14.22.33.42.49.63ZM5.65,44.25c.06.21.07.36-.11.49-.2.15-.18.34-.06.65.09.24.25.13.39.13.02,0,.04,0,.07.01-.05.06-.1.11-.14.17-.12.18-.05.56.12.6.28.07.57.11.87.16-.03-.36-.09-.69-.33-.92-.49-.47-.47-1.12-.71-1.69.08-.04.13-.07.18-.09.16-.09.23-.3.12-.46-.05-.07-.23-.1-.32-.07-.31.14-.61.32-.88.46.04.55.33.71.8.56ZM3.07,37.43c-.17-.09-.29-.19-.42-.23-.16-.05-.29.05-.35.21-.06.16-.02.28.11.39.15.12.23,0,.32-.08.11-.08.2-.17.34-.29ZM8.16,51.79c-.03.4.11.71.39.98.17-.43.05-.7-.39-.98ZM3.37,38.23c-.19.03-.38.07-.42.28-.01.07.05.2.11.22.1.03.25.04.32-.02.17-.14.05-.31,0-.48ZM10.22,56.29c.11.12.19.23.3.32.04.03.19,0,.19-.02.01-.13.02-.26-.01-.39,0-.02-.18-.01-.27,0-.06,0-.11.04-.2.08ZM9.4,55.42c.19.26.25.26.55.01-.29-.27-.35-.27-.55-.01ZM7.17,48.25s.05-.04.07-.06c-.06-.14-.11-.28-.17-.42-.03,0-.06,0-.09,0-.05.11-.15.24-.12.31.04.08.2.11.31.16ZM50.98,53.54c-.09.18-.16.31-.22.46-.02.04,0,.09.02.14.06-.01.13,0,.16-.03.15-.15.12-.33.04-.56ZM49.45,53.78c.13-.12.25-.22.38-.34-.33-.1-.43-.01-.38.34ZM5.19,42.13c-.15.11-.22.23-.07.4.24-.13.26-.22.07-.4ZM3.98,41.48s.03.03.04.04c.09-.07.18-.14.29-.22-.06-.08-.11-.15-.18-.26-.06.18-.1.31-.14.44Z"/>
      <path class="cls-1" d="M72.33,22.21c1.66.04,2.68.77,3.02,2.03.06.22.11.46.09.68-.03.22-.15.43-.25.64-.11.24-.27.46-.37.7-.11.26-.15.55-.26.81-.42,1.02-1.24,1.6-2.27,1.87-.5.13-1,.24-1.51.32-.2.03-.45-.01-.63-.1-.54-.26-1.06-.57-1.58-.86-.22-.12-.37-.3-.43-.54-.12-.47-.24-.95-.35-1.43-.07-.29-.02-.56.13-.82.09-.17.19-.33.27-.5.41-.91,1.12-1.55,1.93-2.07.31-.2.69-.31,1.05-.42.46-.14.93-.24,1.17-.3Z"/>
      <path class="cls-1" d="M51.27,20.7c1.06-.15,2.01.11,2.8.85.56.51.82,1.15.77,1.91-.02.28-.03.56-.08.82-.15.67-.56,1.14-1.16,1.47-.79.43-1.56.88-2.32,1.36-.53.34-1.08.56-1.72.49-1.07-.12-1.87-.63-2.31-1.64-.11-.25-.2-.5-.27-.76-.03-.12-.03-.28.01-.39.19-.43.38-.87.62-1.28.21-.34.48-.64.73-.95.14-.18.3-.34.43-.53.37-.55.87-.96,1.44-1.28.09-.05.21-.07.32-.08.24-.01.49,0,.73,0Z"/>
      <path class="cls-1" d="M58.49,36.13c-.08.97-.31,1.81-.97,2.5-.34.35-.62.75-.95,1.12-.48.55-1.14.8-1.8,1.07-.04.01-.08.03-.11.02-.67-.14-1.37-.15-1.93-.65-.18-.16-.41-.26-.62-.39-.85-.5-1.17-1.23-.94-2.19.1-.39.21-.78.35-1.16.06-.17.18-.33.31-.46.23-.23.5-.42.73-.64.24-.23.47-.47.67-.73.31-.41.66-.69,1.2-.7.15,0,.3-.08.45-.14.25-.1.5-.11.76-.01.2.07.41.12.62.16.32.06.6.16.83.41.35.39.72.76,1.07,1.14.24.26.33.46.33.65Z"/>
      <path class="cls-1" d="M61.47,15.02c.08.01.18,0,.26.03.63.28,1.19.64,1.45,1.31.06.16.06.36.03.53-.08.43-.22.85-.29,1.29-.16,1-.64,1.8-1.49,2.35-.78.51-1.59.98-2.52,1.18-1.02.22-1.91-.05-2.67-.74-.49-.44-.63-1.01-.42-1.62.35-1,.73-1.99,1.61-2.68.17-.13.31-.29.47-.44.45-.43.97-.72,1.59-.83.57-.1,1.13-.23,1.69-.35.09-.02.19-.02.29-.03Z"/>
      <path class="cls-1" d="M64.94,13.67c.01-.91.33-1.64.72-2.36.27-.5.63-.82,1.18-.98.57-.17,1.13-.39,1.7-.59.4-.14.82-.23,1.23-.11.23.06.49.15.66.3.69.64,1.28,1.35,1.55,2.28.31,1.07.06,2.02-.83,2.62-.68.45-1.41.84-2.15,1.18-.59.27-1.23.17-1.87.05-.6-.11-1.01-.44-1.37-.9-.11-.14-.22-.27-.35-.39-.35-.33-.48-.73-.46-1.12Z"/>
      <path class="cls-1" d="M66.95,30.83c0,.82-.38,1.4-.99,1.84-.87.63-1.75,1.24-2.62,1.88-.23.17-.46.21-.73.16-.92-.15-1.72-.57-2.47-1.1-.1-.07-.19-.19-.21-.3-.08-.36-.19-.73-.06-1.11.08-.25.12-.52.16-.79.07-.43.24-.83.53-1.15.39-.43.8-.86,1.24-1.23.7-.58,1.51-.79,2.42-.57.43.1.87.15,1.3.26.2.05.42.16.57.3.53.5.85,1.11.87,1.81Z"/>
      <path class="cls-1" d="M57.34,14.27c1.21-1.04,2.52-1.95,3.95-2.67.02.02.04.04.06.05-.07.11-.11.25-.2.32-.41.35-.83.67-1.32.91-.76.38-1.48.85-2.21,1.28-.08.05-.16.1-.23.15l-.05-.05Z"/>
      <path class="cls-1" d="M47.44,29.06c-.06.07-.13.2-.21.22-.08.01-.25-.07-.28-.15-.1-.27-.17-.56-.22-.84-.02-.15.12-.19.22-.1.13.11.25.26.34.41.07.13.1.28.16.47Z"/>
      <path class="cls-1" d="M63.71,10.07c.15-.15.28-.33.45-.45.23-.16.5-.27.75-.39.04-.02.1.01.15.02-.02.04-.03.1-.06.12-.41.25-.83.5-1.24.75-.02-.02-.03-.04-.05-.06Z"/>
      <path class="cls-1" d="M62.61,14.12h-1.07c.34-.43.64-.43,1.07,0Z"/>
      <path class="cls-1" d="M26.14,27.68c-1.03-.08-1.9-.45-2.56-1.25-.51-.62-.73-1.34-.56-2.12.17-.78.38-1.55.62-2.31.16-.52.48-.96.87-1.34.17-.17.31-.36.49-.52.2-.19.4-.39.64-.52.95-.49,1.97-.8,3.04-.82.7-.01,1.4.13,2.09.23.34.05.58.28.73.59.21.43.42.87.61,1.31.19.43.16.88.05,1.33-.16.62-.43,1.18-.81,1.7-.33.45-.63.91-.94,1.36-.04.06-.1.13-.15.18-.3.31-.6.61-.89.91-.18.19-.38.31-.63.39-.39.13-.76.31-1.12.5-.47.25-.96.35-1.46.36Z"/>
      <path class="cls-1" d="M65.09,55.77c-.68.02-1.4-.21-2.04-.72-.48-.39-.59-.87-.6-1.46-.03-1.66.92-2.74,2.13-3.63.68-.5,1.46-.89,2.22-1.25.71-.33,1.44-.24,2.06.24.7.53,1.21,1.2,1.11,2.13-.05.44-.21.87-.39,1.28-.51,1.13-1.31,2.03-2.28,2.78-.59.46-1.26.64-2.2.64Z"/>
      <path class="cls-1" d="M69.15,59.8c.25-1.28.51-2.67,1.56-3.75.26-.27.49-.59.76-.84.18-.17.42-.31.65-.39.4-.14.82-.23,1.23-.34.17-.04.34-.09.51-.12.37-.07.68.05.96.3.26.23.53.45.82.63.56.35.85.95.76,1.61-.08.53-.17,1.04-.52,1.48-.05.06-.07.16-.09.24-.08.59-.39,1.03-.87,1.35-.69.45-1.35.97-2.19,1.14-.14.03-.27.13-.4.2-.18.1-.35.22-.53.31-.4.2-.77.16-1.13-.11-.35-.26-.71-.51-1.08-.76-.3-.2-.45-.48-.44-.96Z"/>
      <path class="cls-1" d="M91.02,47.74c-.09.27-.15.57-.29.81-.29.5-.62.99-.95,1.47-.27.38-.66.63-1.06.86-.66.38-1.3.77-1.95,1.16-.43.26-.86.28-1.31.05-.82-.41-1.68-1.86-1.3-3,.09-.28.25-.5.45-.71.47-.47.91-.97,1.36-1.45.28-.3.54-.63.86-.88.75-.57,1.78-.82,2.74-.11.35.26.69.53,1,.83.26.25.39.57.44.96Z"/>
      <path class="cls-1" d="M76.7,43.66c.03-.32.03-.65.1-.97.15-.75.62-1.31,1.24-1.72.37-.24.78-.41,1.18-.6.05-.03.13-.05.18-.03.45.12.85,0,1.27-.14.32-.1.65-.21.98-.23.56-.05,1,.2,1.29.68.16.25.32.52.39.81.05.23,0,.51-.09.73-.21.55-.45,1.09-.69,1.63-.06.13-.14.28-.25.37-.62.53-1.29.99-2.1,1.19-.1.02-.2.04-.3.05-.3.01-.59.05-.86.2-.27.14-.57.11-.85,0-.36-.15-.72-.33-1.07-.5-.05-.02-.08-.09-.11-.14-.2-.41-.34-.84-.3-1.3Z"/>
      <path class="cls-1" d="M72.45,62.85c-.35.41-.8.69-1.25.98-.61.4-1.23.13-1.86.03.38-.51,1.61-.92,3.1-1Z"/>
      <path class="cls-1" d="M19.49,48.06c.32.27.42.58.34.93-.15.66-.53,1.19-.94,1.7-.09.11-.21.11-.23-.06-.02-.23-.06-.48,0-.7.14-.46.33-.9.51-1.35.07-.18.2-.34.31-.53Z"/>
      <path class="cls-1" d="M21.37,53.83c-.32.12-.56.07-.77-.08-.2-.16-.38-.35-.56-.54-.11-.13.02-.36.22-.39.26-.04.5.04.65.25.17.23.29.49.45.77Z"/>
      <path class="cls-1" d="M19.62,56.27c-.74.26-1.5-.08-1.79-.79.71.02,1.28.31,1.79.79Z"/>
      <path class="cls-1" d="M10.7,48.98c.13.05.26.1.47.18-.15.1-.24.16-.34.23-.07-.12-.14-.24-.22-.35.03-.02.06-.04.08-.06Z"/>
      <path class="cls-1" d="M29.05,45.13c.16.22.13.4.04.57-.02.03-.08.05-.12.07-.01-.04-.05-.08-.04-.12.03-.16.07-.32.12-.53Z"/>
      <path class="cls-1" d="M30.33,53.73s-.09-.07-.15-.11c.1-.11.18-.21.27-.31.15.12.15.13-.12.42Z"/>
      <path class="cls-1" d="M17.33,47.1c.14-.29.25-.23.4,0h-.4Z"/>
      <path class="cls-1" d="M90.88,27.08c.42.39.31.81.1,1.26-.16.35-.24.75-.35,1.13-.04.12-.07.24-.1.35-1.02.05-2.01-.61-2.35-1.54-.06-.16-.13-.32-.21-.48-.33-.64-.67-1.27-1.01-1.9-.22-.42-.21-.85-.12-1.29q.17-.89.89-1.46c.16-.13.32-.26.49-.37.32-.21.65-.23.97,0,.22.16.45.32.67.49.44.35.71.79.79,1.35.04.26.14.52.22.77.06.18.14.35.21.53.17.42.17.82-.23,1.16Z"/>
      <path class="cls-1" d="M81.56,15.46c.06-.4.1-.79.19-1.16.15-.64.75-.93,1.39-.78,1.49.34,2.07,1.44,2.35,2.78.12.57.17,1.16.17,1.74,0,.98-.83,1.95-1.79,2.16-.34.07-.64.02-.85-.3-.1-.16-.23-.3-.35-.45-.34-.42-.53-.9-.6-1.44-.07-.53-.23-1.05-.34-1.57-.07-.32-.12-.65-.18-.97Z"/>
      <path class="cls-1" d="M84.18,28.38c0-.84-.01-1.69,0-2.53.01-.47.27-.64.73-.54.51.11.91.4,1.2.83.25.37.5.74.68,1.14.36.77.69,1.56.99,2.36.1.26.1.58.04.85-.13.66-.32,1.3-.48,1.95-.11.44-.37.58-.8.37-.5-.25-.99-.53-1.47-.81-.08-.04-.13-.13-.18-.21-.05-.09-.08-.19-.12-.28q-.66-1.49-.6-3.12Z"/>
      <path class="cls-1" d="M91.19,23.51c.04-.61.05-1.23.11-1.84.07-.71.64-1.16,1.29-1.04.12.02.26.06.35.14.43.39.88.77,1.26,1.21.38.43.51.99.55,1.56.02.34.07.68.13,1.01.18.92,0,1.79-.34,2.64-.15.38-.6.56-1.05.39-.29-.11-.56-.32-.8-.52-.17-.15-.28-.36-.39-.56-.24-.42-.47-.84-.69-1.27-.29-.54-.38-1.12-.42-1.72Z"/>
      <path class="cls-1" d="M96.53,36.84c-.07.34-.14.82-.26,1.28-.08.31-.3.44-.62.45-1.21.04-2.26-.7-2.73-1.97-.41-1.09-.43-2.21-.09-3.33.19-.64.77-.79,1.34-.91.46-.1.83.08,1.12.45.6.78.92,1.67,1.08,2.62.07.41.1.83.17,1.39Z"/>
      <path class="cls-1" d="M90.64,18.58c-.12.01-.19.02-.25.02-.37.01-.53-.21-.41-.56.04-.12.12-.14.2-.03.14.18.28.35.46.56Z"/>
      <path class="cls-1" d="M43.95,50.3c.44.13.47.51.59.85.05.15.1.3.18.44.31.6.24,1.19-.07,1.76-.17.31-.33.64-.52,1.01-.4,0-.76.25-1.09.58-.2.2-.47.19-.72.13-.21-.05-.43-.12-.62-.23-.84-.5-1.56-1.13-1.96-2.06-.14-.31-.32-.6-.43-.92-.09-.27-.1-.57-.13-.86-.04-.35-.07-.71-.1-1.06-.05-.54.01-1.08.2-1.59.24-.67,1.03-1.17,1.85-1.11.53.04,1.06.18,1.56.34.19.06.35.28.48.46.27.39.5.8.77,1.19.25.35.29.69,0,1.07Z"/>
    </g>
  </g>
</svg>