<?xml version="1.0" encoding="UTF-8"?>
<svg id="Layer_2" data-name="Layer 2" xmlns="http://www.w3.org/2000/svg" viewBox="0 0 123.12 123.5">
  <defs>
    <style>
      .cls-1 {
        fill: #000;
        stroke-width: 0px;
      }
    </style>
  </defs>
  <g id="Layer_1-2" data-name="Layer 1">
    <g>
      <path class="cls-1" d="M123.12,36.47v49.66c-.07.43-.15.86-.2,1.29-.26,2.43-.38,4.88-.79,7.28-1.31,7.75-4.62,14.46-10.57,19.74-6.45,5.72-14.21,8-22.6,8.57-2.91.2-5.83.33-8.75.49h-37.12c-.75-.07-1.51-.17-2.26-.19-4.94-.13-9.87-.32-14.7-1.5-10.15-2.49-17.71-8.27-22.2-17.79-2.8-5.92-3.64-12.29-3.71-18.76C.07,71.96-.04,58.67.01,45.38c.02-6.05.09-12.14,1.39-18.1C3.72,16.71,9.49,8.78,19.37,4.1,25.21,1.32,31.49.5,37.87.35c17.02-.4,34.05-.6,51.07.22,4.96.24,9.81,1.2,14.35,3.26,11.3,5.12,17.24,14.19,19.09,26.2.33,2.13.49,4.29.73,6.43ZM61.62,112.59c0-.06,0-.13,0-.19,3.25,0,6.51.1,9.76-.02,7.02-.25,14.09-.17,21.03-1.04,9.49-1.2,15.9-6.68,18.23-16.12.93-3.78,1.25-7.78,1.32-11.69.21-12.45.26-24.91.18-37.36-.03-4.97-.27-9.97-.89-14.9-1.25-9.95-7.43-16.68-17.28-18.65-4.22-.84-8.61-1.09-12.92-1.16-11.49-.17-22.98-.2-34.46-.06-5.49.07-11.04.2-16.44,1.07-9.27,1.49-15.44,6.99-17.53,16.27-.93,4.15-1.2,8.51-1.29,12.78-.23,10-.29,20.01-.18,30.01.07,6.86.26,13.74.92,20.57.66,6.83,3.85,12.46,9.85,16.17,3.99,2.47,8.47,3.46,13.09,3.63,8.87.32,17.74.47,26.62.69Z"/>
      <path class="cls-1" d="M61.57,93.5c-17.56-.11-31.77-14.4-31.64-31.81.13-17.57,14.42-31.75,31.84-31.59,17.61.16,31.75,14.44,31.56,31.86-.2,17.57-14.37,31.66-31.76,31.55ZM41.1,61.8c0,11.38,9.15,20.52,20.52,20.53,11.38,0,20.53-9.11,20.56-20.49.03-11.42-9.15-20.61-20.58-20.59-11.37.02-20.5,9.18-20.5,20.55Z"/>
      <path class="cls-1" d="M101.97,28.87c-.02,4.13-3.34,7.4-7.47,7.36-4.04-.04-7.31-3.37-7.3-7.43.01-4.07,3.29-7.33,7.37-7.34,4.15,0,7.42,3.27,7.4,7.41Z"/>
    </g>
  </g>
</svg>