<?xml version="1.0" encoding="UTF-8"?>
<svg id="Layer_2" data-name="Layer 2" xmlns="http://www.w3.org/2000/svg" viewBox="0 0 119.11 119.09">
  <defs>
    <style>
      .cls-1 {
        fill: #000;
        stroke-width: 0px;
      }
    </style>
  </defs>
  <g id="Layer_1-2" data-name="Layer 1">
    <g>
      <path class="cls-1" d="M88.62,47.45c2.95,0,5.86.4,8.72,1.3,6.36,2.01,10.1,6.51,11.98,12.75,1.25,4.17,1.7,8.47,1.73,12.79.08,11.97.05,23.94.06,35.91,0,.22-.04.44-.07.71h-19.25c0-.46,0-.9,0-1.34,0-10.27.02-20.53-.04-30.8-.01-2.15-.21-4.32-.59-6.43-1.03-5.64-4.37-8.01-9.2-8.01-.67,0-1.36.04-2.08.13-5.38.65-8.34,3.82-9.16,9.66-.3,2.13-.44,4.3-.45,6.45-.05,9.7-.02,19.4-.02,29.09,0,.45,0,.89,0,1.43h-19.23v-62.07h18.42v8.32c1.34-1.57,2.46-3.14,3.84-4.44,3.39-3.21,7.54-4.88,12.15-5.31,1.06-.1,2.13-.15,3.18-.15M88.62,39.45c-1.28,0-2.6.06-3.92.18-3.83.35-7.35,1.34-10.52,2.94-1.33-.98-2.96-1.55-4.74-1.55h-18.42c-4.42,0-8,3.58-8,8v62.07c0,4.42,3.58,8,8,8h19.23c4.42,0,8-3.58,8-8v-1.43c0-2.57,0-5.14,0-7.71,0-7-.01-14.24.02-21.34,0-1.89.13-3.69.37-5.37.37-2.62.87-2.68,2.21-2.84.41-.05.78-.07,1.12-.07.49,0,.78.05.92.09.09.17.27.57.41,1.36.3,1.62.45,3.32.46,5.05.05,7.55.04,15.24.04,22.67,0,2.69,0,5.39,0,8.08v.9s0,.44,0,.44c0,4.42,3.58,8,8,8h19.25c4.12,0,7.57-3.13,7.96-7.23v-.07c.04-.28.1-.79.1-1.42,0-3.21,0-6.42,0-9.63,0-8.63,0-17.54-.06-26.33-.04-5.61-.72-10.53-2.07-15.04-2.74-9.12-8.7-15.37-17.23-18.07-3.51-1.11-7.26-1.68-11.13-1.68h0Z"/>
      <path class="cls-1" d="M28.79,49.02v62.03H9.64v-62.03h19.15M28.79,41.02H9.64c-4.42,0-8,3.58-8,8v62.03c0,4.42,3.58,8,8,8h19.15c4.42,0,8-3.58,8-8v-62.03c0-4.42-3.58-8-8-8h0Z"/>
      <path class="cls-1" d="M19.2,8c6.12,0,11.12,5,11.14,11.16.02,6.18-4.99,11.28-11.09,11.31-.02,0-.03,0-.05,0-6.12,0-11.2-5.13-11.19-11.3,0-6.09,5.02-11.13,11.12-11.17.03,0,.05,0,.08,0M19.2,0h-.14C8.57.07.02,8.67,0,19.16c0,5.14,2.01,9.99,5.67,13.66,3.64,3.64,8.44,5.65,13.52,5.65h.08c10.55-.05,19.1-8.72,19.06-19.33-.03-10.55-8.62-19.13-19.14-19.13h0Z"/>
    </g>
  </g>
</svg>