<?xml version="1.0" encoding="UTF-8"?>
<svg id="Layer_2" data-name="Layer 2" xmlns="http://www.w3.org/2000/svg" viewBox="0 0 1035.54 43.95">
  <defs>
    <style>
      .cls-1 {
        fill: #000;
        stroke-width: 0px;
      }
    </style>
  </defs>
  <g id="Layer_1-2" data-name="Layer 1">
    <g>
      <path class="cls-1" d="M693.04,43.6c-.98-5.23-1.99-10.53-2.97-15.83-.73-3.92-1.36-7.87-2.14-11.78-.33-1.66-1.02-3.18-3.39-3.5-.1,1.06-.26,2-.26,2.95-.02,8.58-.09,17.16.04,25.74.03,2.26-.7,2.86-2.86,2.77-3.82-.16-7.66-.11-11.49-.02-1.79.04-2.54-.51-2.54-2.4.05-12.99.05-25.99,0-38.98,0-1.81.59-2.52,2.45-2.5,7.08.08,14.16-.04,21.24.07,6.05.1,11.09,4.47,12.1,10.32,1.02,5.9,1.91,11.83,3,17.71.15.83,1.12,1.52,1.71,2.27.7-.75,1.87-1.41,2.03-2.26,1.09-5.8,1.91-11.65,2.91-17.47,1.05-6.12,5.96-10.47,12.1-10.57,7.08-.11,14.16,0,21.24-.07,1.59-.01,2.22.47,2.21,2.13-.05,13.16-.05,26.32,0,39.48,0,1.76-.62,2.31-2.34,2.26-4-.1-8-.13-11.99.01-2.06.07-2.56-.76-2.54-2.63.06-8.58.03-17.16.01-25.74,0-.95-.18-1.89-.29-2.95-2.27.29-2.78,1.75-3.08,3.33-1.61,8.67-3.22,17.33-4.76,26.01-.22,1.25-.57,1.95-1.99,1.94-9.16-.05-18.32-.04-27.49-.06-.24,0-.47-.12-.93-.24Z"/>
      <path class="cls-1" d="M813.82,21.6c.36.18.72.36,1.09.52,5.17,2.29,7.9,6.15,7.52,10.64-.41,4.91-3.94,8.88-9.3,10.12-2.41.56-4.92.95-7.39.96-16.16.08-32.32,0-48.48.09-2.25.01-3.03-.59-3.01-2.94.1-12.74.09-25.49.01-38.23-.01-2.07.65-2.73,2.72-2.73,15.33.07,30.66-.11,45.98.17,3.44.06,7.17,1.01,10.23,2.59,6.64,3.43,7.37,11.67,1.85,16.75-.52.48-1.4.58-2.11.86.3.4.6.8.9,1.2ZM786.58,26.78c-4.32,0-8.65.08-12.97-.03-2.15-.06-2.44,1.04-2.43,2.79.01,1.7.21,2.89,2.38,2.87,8.48-.07,16.96-.01,25.44-.04,1.86,0,3.66-.47,3.68-2.78.01-2.31-1.73-2.78-3.63-2.79-4.16-.02-8.32,0-12.47,0ZM784.73,17.22c3.83,0,7.66-.02,11.49,0,1.71.01,3.13-.57,3.19-2.4.06-1.84-1.28-2.49-3.04-2.48-7.66.03-15.32.05-22.99-.02-1.79-.02-2.27.68-2.27,2.37,0,1.74.42,2.61,2.37,2.55,3.74-.11,7.49-.03,11.24-.04Z"/>
      <path class="cls-1" d="M862.18,43.89c-8.58,0-17.16.02-25.74,0-6.35-.02-9.87-3.55-9.89-9.9-.03-8.08-.04-16.16,0-24.24.03-6.03,3.62-9.64,9.64-9.65,17.49-.03,34.99.01,52.48-.05,1.99,0,2.89.43,2.73,2.61-.18,2.49-.18,5.01,0,7.49.17,2.39-.84,2.94-3.05,2.93-13.33-.08-26.66-.04-39.99-.03-.92,0-1.83.02-2.75.06-1.74.06-2.22,1.14-2.21,2.68,0,1.78,1.24,1.69,2.43,1.69,10.41,0,20.83,0,31.24,0,4,0,8,.07,12-.03,1.76-.04,2.28.64,2.32,2.33.19,6.78.24,6.78-6.61,6.78-12.75,0-25.49-.01-38.24.02-1.38,0-3.2-.55-3.15,1.97.04,2.28,1.52,2.45,3.23,2.45,13.66,0,27.32,0,40.99,0q3.75,0,3.75,3.87c0,2-.14,4.01.04,5.99.22,2.35-.5,3.16-2.99,3.12-8.74-.15-17.49-.06-26.24-.06Z"/>
      <path class="cls-1" d="M108.78,43.89c-8.5,0-16.99.01-25.49,0-6.57-.01-10.08-3.47-10.11-9.95-.03-8.08-.04-16.16,0-24.24.03-6,3.66-9.61,9.69-9.62,17.49-.03,34.99.02,52.48-.05,2.05,0,2.83.56,2.69,2.67-.16,2.49-.16,5,0,7.49.14,2.21-.7,2.88-2.87,2.86-13.33-.08-26.66-.04-39.98-.03-.92,0-1.83.03-2.75.04-1.84.01-2.43,1.07-2.4,2.76.03,1.8,1.31,1.63,2.47,1.63,14.08,0,28.15,0,42.23,0,3.25,0,3.25.01,3.26,3.34q.02,5.74-5.62,5.74c-13.08,0-26.16,0-39.23.02-1.39,0-3.19-.52-3.12,1.99.06,2.28,1.54,2.43,3.24,2.43,13.83,0,27.66.05,41.48-.05,2.45-.02,3.53.56,3.29,3.19-.21,2.4-.15,4.83-.01,7.24.12,1.95-.52,2.6-2.52,2.58-8.91-.1-17.83-.04-26.74-.04Z"/>
      <path class="cls-1" d="M999.65,43.89c-8.83,0-17.66-.06-26.49.04-2.01.02-2.64-.63-2.54-2.57.13-2.58.14-5.17,0-7.74-.11-2.13.78-2.69,2.79-2.68,13.58.06,27.15.06,40.73,0,1.75,0,4.36.73,4.27-2.31-.08-2.82-2.57-2.06-4.24-2.07-10.91-.06-21.82-.02-32.73-.04-7.51,0-10.76-3.29-10.78-10.84,0-2.33-.05-4.67.05-7,.2-4.82,3.84-8.56,8.65-8.57,17.99-.07,35.98-.02,53.97-.06,1.59,0,2.25.51,2.19,2.17-.1,2.66-.14,5.34.01,7.99.13,2.25-.81,2.85-2.92,2.84-13.41-.07-26.82-.03-40.23-.03-1,0-2.13-.21-2.96.18-.79.37-1.75,1.42-1.74,2.14.01.7,1.1,1.83,1.87,1.97,1.69.31,3.48.13,5.23.13,9.83,0,19.66,0,29.49,0,7.78,0,11.22,3.49,11.23,11.34,0,2,.06,4-.03,6-.22,5.31-4.01,9.04-9.33,9.08-8.83.06-17.66.02-26.49.02h0Z"/>
      <path class="cls-1" d="M914.39,43.87c-5.34,0-10.25-.01-15.16,0-1.58,0-1.66-1.03-1.66-2.2,0-3.17,0-6.33,0-9.5,0-9.67.06-19.33-.05-29-.03-2.33.56-3.19,3.05-3.17,17.83.1,35.66.04,53.49.06,7.3,0,11.57,4.33,11.64,11.68.02,2.33.07,4.67-.02,7-.23,5.9-4.01,9.97-9.85,10.73-.55.07-1.09.23-2.01.42,4.52,4.63,8.82,9.04,13.46,13.79-1.23.08-2.01.18-2.79.18-4.83.01-9.67-.11-14.5.06-2.29.08-3.9-.66-5.46-2.29-3.46-3.61-7.03-7.11-10.7-10.5-.93-.86-2.41-1.5-3.67-1.55-4.49-.18-9-.02-13.49-.1-1.71-.03-2.37.53-2.32,2.3.1,3.9.03,7.8.03,12.07ZM931.36,17.23c4.66,0,9.33,0,13.99,0,1.75,0,3.57-.1,3.62-2.4.05-2.33-1.72-2.47-3.51-2.47-9.5.02-18.99.04-28.49-.02-1.87-.01-2.66.46-2.65,2.51,0,2.16,1.04,2.43,2.79,2.41,4.75-.07,9.5-.02,14.24-.02Z"/>
      <path class="cls-1" d="M56.15,29.9c4.6,4.78,8.84,9.19,13.21,13.73-.6.08-1.21.24-1.82.24-5.42.02-10.83.1-16.25-.06-1.18-.03-2.57-.67-3.45-1.49-3.96-3.69-7.73-7.59-11.66-11.31-.77-.73-1.96-1.4-2.97-1.43-4.74-.15-9.5-.03-14.25-.09-1.61-.02-2.21.54-2.17,2.18.09,3.33-.03,6.67.05,10,.03,1.54-.37,2.27-2.09,2.23-4.16-.1-8.33-.09-12.5,0C.45,43.95,0,43.14,0,41.51.04,28.51.05,15.51,0,2.51,0,.67.62.03,2.46.04c18.33.05,36.66,0,54.99.06,5.72.02,10.05,3.9,10.57,9.6.31,3.39.31,6.85-.02,10.23-.52,5.3-4.34,8.86-9.66,9.55-.56.07-1.1.21-2.21.42ZM33.38,17.23c4.9,0,9.8,0,14.71,0,1.72,0,3.31-.31,3.35-2.43.03-2.14-1.53-2.45-3.28-2.45-9.64.02-19.28.04-28.91-.02-1.83-.01-2.5.53-2.46,2.41.03,1.77.47,2.56,2.39,2.52,4.73-.1,9.47-.03,14.21-.03Z"/>
      <path class="cls-1" d="M381.4.07c7.42,0,14.83-.03,22.25,0,7.09.04,11.47,4.21,11.55,11.25.12,10.08.01,20.17.06,30.25,0,1.7-.53,2.38-2.3,2.34-4.08-.1-8.17-.09-12.25,0-1.67.04-2.18-.65-2.15-2.22.07-3.25-.04-6.5.04-9.75.04-1.64-.43-2.45-2.24-2.44-10.08.05-20.17.04-30.25,0-1.4,0-1.93.52-1.91,1.91.05,3.33-.07,6.67.04,10,.06,1.79-.44,2.56-2.37,2.5-4.08-.12-8.17-.1-12.25,0-1.68.04-2.36-.44-2.35-2.24.07-10.17-.03-20.33.07-30.5.06-6.57,4.7-11.05,11.31-11.1,7.58-.05,15.17-.01,22.75-.01ZM381.12,17.23c4.66,0,9.32.06,13.98-.04,1.01-.02,2.01-.6,3.01-.92-.69-1.06-1.24-2.28-2.13-3.12-.58-.54-1.68-.73-2.55-.74-8.07-.05-16.15-.14-24.22.07-1.42.04-3.1,1.12-4.13,2.22-1.42,1.52-.82,2.49,1.3,2.51,4.91.04,9.82.01,14.73.02Z"/>
      <path class="cls-1" d="M627.84.07c7.41,0,14.82-.03,22.23,0,7.03.04,11.42,4.25,11.5,11.3.12,10.07.01,20.15.06,30.22,0,1.69-.52,2.37-2.3,2.33-4.08-.11-8.16-.09-12.24,0-1.65.03-2.2-.62-2.17-2.2.07-3.33-.04-6.66.04-9.99.04-1.63-.63-2.21-2.21-2.21-10.07.03-20.15.04-30.22,0-1.58,0-1.98.7-1.96,2.13.06,3.41-.04,6.83.04,10.24.03,1.53-.57,2.05-2.05,2.03-4.33-.06-8.66-.05-12.99,0-1.38.02-1.92-.47-1.92-1.88.05-10.57-.09-21.15.11-31.72.11-5.72,4.86-10.12,10.6-10.19,7.82-.1,15.65-.02,23.48-.02h0ZM627.4,17.23c4.75,0,9.5.05,14.24-.04.95-.02,1.89-.54,2.83-.84-.6-1.03-1.06-2.18-1.85-3.04-.5-.54-1.48-.86-2.25-.87-8.41-.06-16.82-.13-25.23.04-1.21.02-2.51,1.09-3.55,1.94-.51.42-.5,1.47-.72,2.23.68.19,1.36.54,2.05.55,4.83.05,9.66.03,14.49.03Z"/>
      <path class="cls-1" d="M178.09.07c7.41,0,14.83-.03,22.24,0,7.06.04,11.41,4.23,11.48,11.3.11,10,0,19.99.07,29.99.02,1.97-.64,2.62-2.6,2.56-3.83-.13-7.67-.15-11.49,0-2.18.09-2.71-.78-2.63-2.76.12-2.99-.05-6,.06-8.99.07-1.88-.49-2.7-2.52-2.68-9.91.07-19.83.06-29.74,0-1.65,0-2.19.6-2.15,2.2.08,3.33-.03,6.66.04,10,.03,1.58-.51,2.25-2.16,2.22-4.25-.07-8.5-.07-12.74,0-1.53.02-2.02-.58-2.01-2.06.05-10.41-.07-20.83.09-31.24.09-6.01,4.79-10.45,10.83-10.51,7.75-.08,15.49-.02,23.24-.02h0ZM194.77,17c-.48-3.21-1.82-4.58-4.66-4.6-8.08-.07-16.16-.09-24.23.05-1.27.02-2.69.79-3.74,1.6-.63.49-.68,1.72-1,2.63.77.18,1.54.53,2.31.53,9.66.04,19.32.03,28.98.02.72,0,1.44-.13,2.33-.22Z"/>
      <path class="cls-1" d="M234.54,12.53c0,1.28,0,2.26,0,3.24,0,8.58-.05,17.16.03,25.74.02,1.86-.56,2.47-2.43,2.41-4.08-.12-8.16-.08-12.24-.02-1.59.02-2.23-.53-2.23-2.17.04-13.16.04-26.32,0-39.48,0-1.62.59-2.22,2.19-2.21,7.16.05,14.33-.08,21.49.08,6.41.14,11.05,5.09,12.19,12.37.81,5.17,1.77,10.33,2.89,15.45.2.93,1.49,1.62,2.28,2.41.46-.93,1.31-1.85,1.32-2.78.11-8.24.13-16.49.02-24.74-.03-2.19.64-2.93,2.84-2.83,3.82.16,7.66.1,11.49.02,1.67-.03,2.4.45,2.39,2.25-.05,13.16-.05,26.32,0,39.48,0,1.65-.65,2.15-2.23,2.14-6.91-.06-13.83.03-20.74-.05-6.19-.08-11.2-4.24-12.39-10.32-1.1-5.63-2.02-11.3-3.03-16.95-.35-1.93-.9-3.72-3.84-4.06Z"/>
      <path class="cls-1" d="M299.47,12.54c0,1.18,0,2.15,0,3.12,0,8.58-.06,17.16.04,25.74.02,1.98-.6,2.6-2.56,2.53-3.99-.13-8-.1-11.99-.02-1.72.04-2.34-.57-2.33-2.31.05-13.08.05-26.15,0-39.23,0-1.74.62-2.34,2.33-2.33,6.41.06,12.83.01,19.24.03,8.17.02,12.96,4.24,14.26,12.35.83,5.17,1.77,10.33,2.88,15.45.21.95,1.44,1.67,2.2,2.5.49-.9,1.4-1.79,1.42-2.69.11-8.16.17-16.33,0-24.48-.05-2.6.8-3.3,3.28-3.18,3.74.19,7.49.1,11.24.03,1.6-.03,2.22.53,2.21,2.17-.04,13.16-.05,26.32,0,39.48,0,1.81-.74,2.24-2.4,2.23-6.83-.07-13.66.03-20.49-.06-6.63-.08-11.59-4.63-12.65-11.2-.9-5.58-1.92-11.15-2.98-16.7-.34-1.77-1.17-3.25-3.72-3.41Z"/>
      <path class="cls-1" d="M515.15.23c0,4.05-.02,7.86,0,11.68.01,1.63-1.08,1.62-2.2,1.62-4.16,0-8.33,0-12.49,0-9.83,0-19.65,0-29.48,0-3.27,0-3.81.53-3.84,3.75-.03,3.08-.02,6.16,0,9.24.02,3.43.5,3.92,3.91,3.92,13.57.01,27.15,0,40.72,0q3.39,0,3.39,3.41c0,2.58-.09,5.17.03,7.74.08,1.74-.53,2.32-2.28,2.3-7.08-.08-14.16-.03-21.24-.03-10.33,0-20.65,0-30.98,0-6.92,0-10.34-3.37-10.36-10.2-.02-7.91-.03-15.82,0-23.73.03-6.34,3.57-9.87,9.94-9.87,17.32-.02,34.64-.01,51.97,0,.89,0,1.78.1,2.9.16Z"/>
      <path class="cls-1" d="M587.48,22.17c0,6.42-.04,12.83.03,19.25.02,1.8-.53,2.55-2.43,2.5-4.08-.1-8.17-.1-12.25,0-1.78.05-2.32-.62-2.28-2.33.09-3.66-.04-7.33.05-11,.05-1.85-.7-2.54-2.49-2.53-9.5.03-19,.04-28.49,0-1.86,0-2.47.77-2.42,2.57.09,3.75-.02,7.5.04,11.25.03,1.51-.52,2.06-2.04,2.04-4.25-.07-8.5-.06-12.75,0-1.48.02-2.11-.53-2.11-2.04.03-13.25.03-26.49,0-39.74,0-1.5.59-2.08,2.08-2.07,4.25.04,8.5.07,12.75-.02,1.73-.04,2.1.73,2.07,2.26-.07,3.75.03,7.5-.04,11.25-.03,1.71.63,2.4,2.34,2.39,9.58-.04,19.16-.03,28.74,0,1.73,0,2.34-.78,2.31-2.45-.06-3.75.04-7.5-.04-11.25-.03-1.62.52-2.22,2.16-2.19,4.16.08,8.33.08,12.5,0,1.77-.03,2.3.7,2.28,2.38-.06,6.58-.03,13.16-.02,19.75Z"/>
    </g>
  </g>
</svg>