<?xml version="1.0" encoding="UTF-8"?>
<svg id="Layer_2" data-name="Layer 2" xmlns="http://www.w3.org/2000/svg" viewBox="0 0 793.44 101.18">
  <defs>
    <style>
      .cls-1 {
        fill: #000;
        stroke-width: 0px;
      }
    </style>
  </defs>
  <g id="Layer_1-2" data-name="Layer 1">
    <g>
      <path class="cls-1" d="M526.85,31.4c.16,3.19.29,5.86.42,8.52.21.1.41.2.62.3,4.1-5.84,9.29-9.56,16.67-8.96,7.36.59,12.16,4.73,15.28,11.67.75-1,1.39-1.64,1.79-2.4,3.41-6.5,8.9-9.58,16.09-9.23,7.83.38,13.01,4.7,15.53,12,.74,2.14.69,4.6.7,6.92.06,12.51.03,25.01.04,37.52,0,1.25-.03,2.52.16,3.74.92,6.05,7.2,8.98,12.21,5.77,2.21-1.42,2.69-3.71,3.1-6.01.19-1.06.13-2.16.13-3.24,0-23.68,0-47.36,0-71.04,0-.67.02-1.34-.05-2-.29-3.04-1.76-4.45-4.79-4.66-.73-.05-1.46-.14-2.2-.21-.1-.24-.19-.48-.29-.72.91-.41,1.79-1.07,2.73-1.2,5.07-.67,9.13-2.82,11.82-7.32.24-.41.92-.55,1.4-.82.24.47.69.93.7,1.41.06,3.58.05,7.17.05,10.75,0,9.84-.05,19.68.05,29.51.02,1.68.72,3.34,1.02,5.03.17.97.43,2.02.22,2.93-1.81,7.82-1.18,15.77-1.28,23.67-.05,4.17-.15,8.35.14,12.5.31,4.5,1.67,8.69,5.61,11.48,5.19,3.67,12.31,2.33,15.82-2.95,4.03-6.08,4.81-13.07,5.19-20.05.46-8.5.5-17.05-1.41-25.39-.88-3.84-2.17-7.76-4.11-11.15-3.87-6.75-11.86-6.35-15.78.55-1.3,2.28-2.29,4.73-3.52,7.31-1.03-2.66.62-4.66,1.66-6.59,5.78-10.65,17.47-9.51,24.25-1.71,4.76,5.47,7,12.09,7.99,19.06,1.24,8.79,1.29,17.62-1.14,26.29-1.77,6.32-4.65,11.97-10.39,15.61-5.19,3.29-10.82,3.2-16.63,2.05-4.29-.85-8.64-1.86-12.98-1.92-3.4-.05-6.82,1.25-10.23,1.95-.72.15-1.53.57-2.15.39-7.29-2.19-14.7-.88-22.06-.88-1.14,0-2.28-.14-3.42-.22v-.79c.58-.16,1.15-.39,1.75-.48,4.89-.7,7.03-2.99,7.06-7.98.07-10.67.05-21.34.04-32.02,0-3.83.15-7.69-.15-11.5-.35-4.58-2.13-8.64-6.25-11.07-5.14-3.03-11.81-1.07-14.97,4.63-1.44,2.6-2.57,5.75-2.62,8.67-.27,13.75-.17,27.51-.1,41.27.02,5.03,2.3,7.35,7.39,8.01.54.07,1.05.26,1.66,1.04-.75.18-1.51.51-2.26.52-7.66.04-15.32.04-22.98.01-.72,0-1.44-.26-2.16-.4,0-.27,0-.54,0-.8.73-.14,1.46-.32,2.2-.42,4.02-.54,6.68-3.06,6.71-7.1.11-14.59.19-29.18-.12-43.76-.06-2.89-1.39-6.09-3.02-8.55-4.31-6.53-13.19-5.91-18.02.99-1.9,2.72-2.88,5.76-2.87,9.12.02,13.76-.03,27.51.02,41.27.02,5.25,1.99,7.34,7.2,8.08.55.08,1.09.28,1.71,1.03-.86.18-1.71.51-2.57.51-7.49.05-14.98.04-22.48.04-.42,0-.99.15-1.22-.06-3.17-2.97-6.45-.7-9.26.29-4.91,1.73-8.45,0-7.87-5.37.07-.61-.17-1.26-.31-2.18-.81.43-1.37.74-2.39,1.28.64-1.8,1.29-3.12,1.57-4.52.5-2.51,1.05-5.06,1.1-7.6.15-7.33.06-14.67.04-22.01,0-.95-.17-1.9-.32-3.45-2.54,1.75-4.61,3.2-6.7,4.61-5.2,3.5-10.41,7.05-13.54,12.67-3.67,6.61-4.59,13.51-.97,20.51,2.06,3.99,5.75,5.59,10.25,4.65.78-.16,1.59-.18,2.4,0-5.16,2.84-10.53,3.05-15.79.56-4.98-2.36-7.97-6.42-8.61-12.01-.74-6.5,1.42-12.04,6.67-15.76,6.55-4.64,13.43-8.85,20.37-12.91,4.47-2.62,7.25-5.84,6.18-11.26-.64-3.23-1.23-6.54-2.46-9.57-1.32-3.24-4.14-4.94-7.78-4.8-3.52.13-5.49,2.45-7,5.28-.94,1.76-1.63,3.65-2.62,5.37-1.42,2.47-2.74,2.93-4.56,1.86-3.12-1.83-3.81-3.51-2.59-6.01,1.96-4.02,5.59-5.9,9.55-7.03,6.66-1.9,13.33-2.21,19.49,1.76,4.67,3.01,7.18,7.45,7.25,12.95.16,13.42.08,26.85.11,40.27,0,1.5-.04,3.01.11,4.5.37,3.56,2.26,4.85,5.81,4.41.81-.1,1.7.66,2.58.94.79.25,1.93.81,2.37.49,1.47-1.07,3.18-2.25,3.9-3.8.84-1.8.99-4.03,1-6.08.08-13.09.04-26.18.04-39.27,0-.58,0-1.17-.05-1.75-.27-3.34-1.47-4.49-4.78-4.89-.76-.09-1.47-.69-2.2-1.05.66-.37,1.29-.97,1.98-1.06,5.13-.64,9.35-2.71,12.15-7.26.31-.49,1.09-.69,2.02-1.25Z"/>
      <path class="cls-1" d="M247.91,98.77c.6-.14,1.18-.33,1.79-.41,4.75-.66,7.09-3.16,7.12-8.04.08-12.01.13-24.01,0-36.02-.04-3.71-.36-7.48-1.14-11.1-1.11-5.16-5.36-8.66-9.89-8.81-4.62-.16-10.13,3.47-11.59,8.03-.8,2.49-1.39,5.17-1.41,7.77-.14,13.01.04,26.01-.11,39.02-.06,5.68,2.2,9.06,7.92,9.27.31.01.61.21,1.03.98-.91.16-1.82.47-2.72.46-5.5-.06-10.99-.26-16.49-.25-1.62,0-3.23.56-4.85.81-.73.12-1.54.33-2.22.14-7.06-1.97-14.21-.81-21.33-.74-1.12.01-2.23,0-3.35,0-.03-.37-.06-.74-.09-1.1.73-.15,1.45-.34,2.19-.44,4.16-.58,6.7-3.12,6.73-7.35.08-14.42.21-28.85-.09-43.27-.11-5.11-2.04-9.83-7.17-12.29-4.83-2.31-10.53-.47-13.92,4.48-1.87,2.74-2.88,5.76-2.87,9.12.03,13.76-.03,27.51.03,41.27.02,5.28,1.89,7.26,7.19,8.09.53.08,1.04.31,1.59,1.04-.79.18-1.59.5-2.38.5-7.49.04-14.98.03-22.48.03-.5,0-1.19.17-1.46-.09-3.31-3.05-6.52-.4-9.51.44-5.03,1.4-7.26.13-7.44-5.16-.03-.84-.25-1.68-.46-3-1.26,1.38-2.15,2.34-3.5,3.81,1.21-2.84,2.28-4.93,2.98-7.14.56-1.8.91-3.74.94-5.62.1-8,.06-16.01.05-24.01,0-.72-.14-1.44-.23-2.28-.53.04-.93-.05-1.14.11-5.05,3.78-10.43,7.2-15.03,11.47-6.76,6.27-8.93,14.26-6.25,23.25,1.3,4.38,5.21,8.53,11.46,7.01.75-.18,1.56-.15,2.91-.27-7.07,4.37-16.89,2.71-21.7-3.23-5.15-6.37-4.57-15.88,1.47-22.09,5.06-5.2,11.43-8.5,17.67-12.01,2.81-1.58,5.55-3.32,8.2-5.16,1.88-1.31,2.68-3.25,2.67-5.62-.02-4.37-.35-8.66-2.5-12.59-1.74-3.19-4.37-5.03-8.11-4.74-3.46.27-5.42,2.6-6.85,5.49-.88,1.79-1.61,3.67-2.65,5.35-.91,1.48-2.07,2.97-4.23,1.78-3.06-1.68-3.99-3.61-2.9-5.95,1.94-4.15,5.63-6.11,9.68-7.25,6.66-1.87,13.34-2.21,19.49,1.78,4.65,3.02,7.18,7.45,7.24,12.96.15,13.34.08,26.68.11,40.02,0,1.58-.05,3.18.12,4.75.37,3.55,2.3,4.94,5.81,4.33,1.05-.18,2.08-.66,2.59.98.13.41,1.58.75,2.29.58,3.11-.77,4.23-3.27,4.73-6.11.21-1.22.21-2.49.21-3.74.01-13.17.02-26.35,0-39.52,0-4.94-.67-5.67-5.43-6.51-.54-.1-1-.64-1.5-.97.55-.38,1.08-1.04,1.66-1.08,3.63-.25,6.78-1.58,9.51-3.92.99-.85,1.75-1.97,2.66-2.92.48-.49,1.06-.88,1.59-1.32.29.68.76,1.35.84,2.05.14,1.32,0,2.67.07,4,.04.77.25,1.54.31,1.88,3.15-2.46,5.9-5.57,9.35-7.12,8.47-3.78,18.58-.1,22.32,9.14,1,2.46,1.35,5.33,1.38,8.02.14,13.34.08,26.68.07,40.02,0,2.78.54,5.43,2.89,7.12,3.8,2.74,10,1.33,10.98-3.76.32-1.62.57-3.29.57-4.93.05-13.17.03-26.35.03-39.52,0-5.07-.48-5.6-5.49-6.71-.51-.11-.9-.74-1.35-1.13.52-.32,1.03-.89,1.57-.92,3.62-.24,6.78-1.59,9.5-3.92.99-.85,1.75-1.97,2.65-2.93.51-.55,1.07-1.04,2.21-2.14.21,3.59.37,6.38.51,8.86,3.17-2.5,5.9-5.38,9.22-7.13,8.12-4.29,19.73.59,22.63,9.32.87,2.62,1.27,5.52,1.3,8.29.14,12.84.16,25.68.02,38.52-.06,5.59,2.11,9.61,8.14,9.66.29,0,.57.25.93.93-.76.18-1.51.52-2.27.53-7.58.04-15.15.04-22.73,0-.78,0-1.55-.32-2.33-.49.01-.22.03-.45.04-.67Z"/>
      <path class="cls-1" d="M33.73,49.32c2.51,2.89,5.28,5.43,7.25,8.49,3.73,5.81,5.19,12.53,6.71,19.19,1.22,5.35,2.47,10.68,3.73,16.02.75,3.19,2.35,5.67,5.68,6.67.21.06.37.3.54.47.05.05.04.16.1.43-3.27.98-6-.28-8.56-2.04-3.94-2.71-6.31-6.72-7.82-11.03-2.59-7.44-4.6-15.08-6.99-22.59-1.16-3.63-2.51-7.22-4.04-10.71-1.51-3.45-4.41-4.82-8.12-4.5-2.62.22-3.78,1.32-3.85,3.96-.11,4.17-.07,8.34-.08,12.5,0,7.84.12,15.67-.03,23.51-.1,5.12,2.38,8.59,7.65,8.74.39.01.78.21,1.29.92-.82.2-1.64.56-2.47.57-7.49.05-14.98.04-22.47.02-.74,0-1.47-.22-2.21-.34-.02-.24-.03-.48-.05-.72.55-.17,1.08-.43,1.64-.51,4.78-.69,6.86-2.88,7.22-7.71.08-1.08.07-2.17.07-3.25,0-23.84,0-47.68,0-71.53,0-1.25.02-2.51-.13-3.75-.55-4.47-2.54-6.44-7-7.11-.59-.09-1.17-.3-1.75-.46,0-.22,0-.45-.01-.67.64-.14,1.29-.42,1.93-.41,9.58.14,19.18-.05,28.73.6,8.2.56,15.06,4.1,18.68,12.11,5.34,11.8,1.79,28.12-13.92,32.51-.68.19-1.34.47-1.71.61ZM18.31,26.6s.01,0,.02,0c0,5.74-.06,11.49.03,17.23.05,3.01,1.16,4,4.15,4.06,1.83.03,3.66-.07,5.49-.03,5.89.12,10.2-4.37,11.86-9.05,2.43-6.8,2.25-13.79,1.02-20.7-.82-4.63-2.79-9.22-7.55-11.06-3.07-1.18-6.63-1.32-9.99-1.5-3.81-.21-4.98,1.05-5.02,4.82-.06,5.41-.02,10.82-.02,16.23Z"/>
      <path class="cls-1" d="M402.53,9.17c3.06-1,6.38-1.56,9.12-3.14,2.62-1.51,4.64-4.09,7.54-5.96,0,6.71-.02,13.43,0,20.14.03,6.63-.12,13.26.48,19.91,2.8-3.25,5.41-6.28,9.27-7.72,8.81-3.29,18.68.29,22.27,9.5.97,2.48,1.3,5.34,1.33,8.02.14,13.33.03,26.67.1,40,.03,5.49,2.08,7.69,7.45,8.46.52.08,1.01.3,1.52.46-.02.22-.05.44-.07.66h-27.2c-.02-.26-.05-.53-.07-.79.67-.13,1.33-.29,2-.38,4.42-.56,6.91-3.15,6.99-7.65.11-6.58.06-13.17.06-19.75,0-7.17.15-14.34-.09-21.5-.09-2.77-.59-5.74-1.76-8.21-4.07-8.55-13.73-9.33-19.2-1.5-1.63,2.33-2.85,5.47-2.91,8.27-.29,14.33-.19,28.66-.13,43,.02,4.37,2.3,6.72,6.62,7.31.72.1,1.43.26,2.23,1.01-.76.21-1.52.59-2.29.59-7.57.04-15.14.03-22.72,0-.72,0-1.44-.26-2.17-.4,0-.23,0-.46,0-.7.56-.16,1.12-.39,1.7-.47,4.42-.63,6.3-2.4,7.01-6.8.2-1.23.19-2.49.19-3.74.01-23.58,0-47.17,0-70.75,0-.83.03-1.68-.09-2.5-.38-2.76-1.85-4.08-4.63-4.28-.81-.06-1.61-.16-2.41-.24-.06-.29-.12-.58-.18-.88Z"/>
      <path class="cls-1" d="M396.56,31.82c-.25-.95-.64-1.88-.74-2.84-.65-5.89-1.54-11.72-4.17-17.12-2.82-5.78-9.89-8.93-16.16-7.59-7.66,1.64-11.96,6.85-14.78,13.56-4.64,11.04-5.33,22.75-5.39,34.54-.04,8.7.73,17.32,2.82,25.76,1.59,6.42,4.06,12.51,9.2,17.09,7.82,6.96,21.33,5.11,24.94-4.76,1.47-4.03,2.18-8.34,3.13-12.55.33-1.45.27-2.99.52-4.47.12-.72.55-1.39.84-2.08.24.03.48.05.72.08.12.82.34,1.65.34,2.47.03,5.75-.09,11.51.06,17.26.07,2.68-.97,4.7-3.22,5.71-3.15,1.41-6.43,2.8-9.8,3.43-10.95,2.06-20.91.35-28.42-8.87-3.68-4.52-5.98-9.7-7.67-15.25-3.62-11.95-3.87-24.16-2.55-36.38,1.17-10.85,3.94-21.31,11.79-29.57,4.79-5.04,10.69-7.75,17.74-7.83,6.48-.07,12.77.65,18.57,3.85,2.49,1.38,3.65,3.34,3.56,6.3-.17,5.5-.04,11-.06,16.5,0,.86-.15,1.73-.23,2.59-.35.05-.7.1-1.05.16Z"/>
      <path class="cls-1" d="M305.79,56.24c-7.62,5.7-15.94,9.58-20.42,17.72-3.59,6.51-4.36,13.42-.72,20.3,2.02,3.83,5.77,5.46,10.08,4.55.81-.17,1.66-.18,2.51-.09-8.22,4.94-20.65,1.79-23.82-8.61-1.95-6.4-.82-13.14,5.64-18.14,5.88-4.55,12.46-8.17,18.75-12.19.91-.58,1.89-1.04,2.83-1.58,3.92-2.26,6.44-5.33,5.46-10.18-.69-3.39-1.22-6.87-2.44-10.08-1.24-3.27-4.06-5-7.69-4.92-3.63.08-5.66,2.44-7.18,5.38-.88,1.69-1.56,3.5-2.5,5.15-1.42,2.51-2.76,3.04-4.53,2.06-3.14-1.75-3.89-3.63-2.64-6.19,1.98-4.03,5.65-5.86,9.59-6.97,6.75-1.89,13.52-2.16,19.69,1.99,4.43,2.98,6.87,7.3,6.93,12.62.16,13.59.08,27.17.11,40.76,0,1.5-.04,3.02.16,4.49.46,3.27,2.36,4.57,5.61,4.04.7-.12,1.42-.16,2.12-.23.11.19.21.39.32.58-.52.46-.97,1.17-1.58,1.34-3.35.97-6.72,1.88-10.12,2.67-3.6.83-5.61-.8-5.79-4.49-.06-1.12-.17-2.24-.28-3.74-.92.58-1.47.92-2.53,1.59.7-1.98,1.35-3.39,1.69-4.86.48-2.09,1-4.23,1.04-6.36.13-7.92.07-15.84.05-23.76,0-.71-.17-1.43-.36-2.85Z"/>
      <path class="cls-1" d="M753.23,71.52c.09.95.13,1.9.29,2.84.93,5.48,1.43,11.09,2.97,16.39,1.85,6.38,6.44,8.64,14.63,8.63,6.05,0,10.69-2.99,11.67-7.23,1.18-5.1.83-10.27-3.23-13.94-4.78-4.33-10.13-8.02-15.24-11.97-4.41-3.41-9.02-6.66-10.95-12.26-3.28-9.51.34-18.96,10.28-21.69,7.19-1.98,14.51-1.74,21.32,2.1,2.93,1.65,4.51,3.82,4.35,7.42-.24,5.57-.04,11.16-.11,16.75,0,.67-.59,1.33-.91,1.99-.35-.65-.89-1.26-1.01-1.95-1.01-5.8-1.61-11.69-2.97-17.4-2.26-9.45-14.33-10.07-19.36-6.26-1.66,1.26-2.95,3.69-3.37,5.79-1.93,9.54,3.4,15.54,10.61,20.48,5.14,3.52,10.51,6.75,15.31,10.68,7.7,6.31,7.84,17.61.65,23.89-1.29,1.12-2.84,2.06-4.43,2.7-8.97,3.57-17.97,3.66-26.91-.13-3.54-1.5-5.48-4-5.32-8.11.2-5.33.02-10.66.08-16,0-.95.36-1.9.55-2.86.36.05.72.09,1.09.14Z"/>
      <path class="cls-1" d="M104.55,82.24c-.84,1.88-1.49,3.88-2.55,5.63-5.54,9.18-13.36,14.28-24.42,12.9-7.66-.96-13.4-5.18-17.55-11.54-5.17-7.92-6.46-16.79-6.03-26.05.37-7.89,2.43-15.15,6.91-21.8,8.05-11.95,25.55-13.57,35.62-3.16,4.04,4.18,6.6,9.15,8.17,14.65,1.15,4.05.05,5.45-4.09,5.45-10.58.02-21.17,0-31.75.01-3.71,0-5.13,1.35-5.26,5.09-.26,7.62.18,15.2,2.76,22.44,2.3,6.46,5.94,11.71,13.35,13.12,7.25,1.38,12.66-1.89,17.12-6.97,2.21-2.52,3.67-5.71,5.48-8.58.38-.6.84-1.15,1.26-1.72.32.17.64.35.97.52ZM80.01,56.78c3.83,0,7.65.04,11.48-.01,3-.04,4.38-1.81,3.78-4.72-.25-1.22-.51-2.45-.89-3.63-1.61-5.03-3.58-9.86-7.97-13.19-3.39-2.57-7.11-3.35-10.92-1.13-7.07,4.12-9.33,11.14-10.53,18.58-.49,3.06.67,4.05,3.82,4.09,3.74.05,7.48.01,11.23.01Z"/>
      <path class="cls-1" d="M710.53,82.26c-.74,1.69-1.36,3.44-2.24,5.05-5.08,9.29-13.94,15.28-25.55,13.37-7.17-1.18-12.66-5.26-16.62-11.3-5.14-7.83-6.51-16.6-6.13-25.76.33-7.95,2.28-15.33,6.83-22.06,8.21-12.15,25.46-13.81,35.73-3.3,4.07,4.16,6.59,9.14,8.17,14.64,1.15,4.04.05,5.43-4.09,5.44-10.58.02-21.15,0-31.73.01-3.72,0-5.15,1.35-5.28,5.07-.26,7.62.17,15.19,2.75,22.43,2.33,6.54,6.03,11.85,13.56,13.19,7.25,1.29,12.61-2.06,17.03-7.15,2.15-2.47,3.57-5.57,5.33-8.37.39-.61.81-1.21,1.22-1.81.34.19.69.38,1.03.57ZM686,56.77c3.91,0,7.82.05,11.73-.02,2.72-.05,4.07-1.77,3.59-4.45-.23-1.31-.55-2.61-.95-3.87-1.6-5.03-3.58-9.85-7.95-13.21-4.08-3.15-8.86-3.2-12.82.04-5.47,4.48-7.72,10.68-8.65,17.4-.43,3.08.68,4.06,3.82,4.1,3.74.05,7.49.01,11.23,0Z"/>
      <path class="cls-1" d="M727.92,31.48c.2,3.13.36,5.77.51,8.04,3.35-2.43,6.28-4.98,9.6-6.85,3.19-1.8,6.88-1.81,10.45-.82,2.41.67,3.12,2.57,2.4,5.71-.55,2.38-2.22,2.8-4.2,2.29-1.67-.44-3.38-1-4.84-1.89-5.21-3.16-10.25.09-12.07,4.08-.91,1.98-1.46,4.3-1.49,6.48-.15,13.34.02,26.67-.16,40.01-.09,7.1,2.92,8.73,9.07,9.73,1.12.18,2.26.24,3.4.36.04.25.08.51.13.76-.82.19-1.64.56-2.46.56-8.74.04-17.48.03-26.22,0-.71,0-1.41-.3-2.12-.47.01-.2.02-.41.03-.61.5-.16.98-.4,1.5-.48,5.06-.78,7.09-2.94,7.33-8.13.15-3.16.07-6.33.07-9.5,0-10.75.01-21.51,0-32.26,0-4.88-.77-5.73-5.47-6.49-.56-.09-1.06-.59-1.58-.9.53-.4,1.02-1.09,1.59-1.14,5.43-.57,9.86-2.73,12.73-7.59.23-.38.94-.48,1.82-.9Z"/>
    </g>
  </g>
</svg>