<?xml version="1.0" encoding="UTF-8"?>
<svg id="Layer_2" data-name="Layer 2" xmlns="http://www.w3.org/2000/svg" viewBox="0 0 139.07 604.72">
  <defs>
    <style>
      .cls-1 {
        fill: #000;
      }

      .cls-1, .cls-2 {
        stroke-width: 0px;
      }

      .cls-2 {
        fill: #fff;
      }
    </style>
  </defs>
  <g id="Layer_1-2" data-name="Layer 1">
    <g id="BLACK">
      <path class="cls-2" d="M122.31,573.53c.37-.39.61-.83.98-1,1.54-.68,2.47-2.03,3.66-3.1,1.03-.93,1.49-2.14,1.91-3.42.61-1.85.29-3.75.45-5.62.33-3.91.67-7.83.97-11.75.18-2.32.16-4.66.44-6.97.63-5.16,1.37-10.31,2.09-15.46.82-5.88,1.67-11.76,2.46-17.64.16-1.19.51-2.24,1.22-3.21.38-.52.82-1.13.89-1.74.4-3.69.73-7.39,1.01-11.09.18-2.42.25-4.86.35-7.28.12-2.83.32-5.65.32-8.48,0-2.71-.23-5.43-.29-8.14-.13-5.44-.18-10.88-.33-16.31-.04-1.54-.3-3.08-.46-4.62-.06-.6-.16-1.21-.21-1.81-.27-3.87-.51-7.75-.78-11.62-.17-2.37-.38-4.74-.57-7.11-.2-2.54-.38-5.08-.59-7.62-.23-2.75-.43-5.51-.76-8.25s.06-5.57-1.1-8.21c-.17-.39-.16-.87-.18-1.32-.13-2.88-.24-5.76-.38-8.64-.12-2.49-.23-4.98-.43-7.47-.24-3.14-.57-6.28-.85-9.42-.31-3.53-.61-7.05-.92-10.58-.06-.66-.06-1.35-.25-1.97-1.1-3.46-1.05-7.09-1.56-10.62-.41-2.82-.12-5.71-.53-8.59-.4-2.78-.19-5.65-.29-8.48-.04-1.04-.29-2.08-.32-3.12-.11-3.9.2-7.79-.76-11.69-.64-2.6-.69-5.39-.71-8.09-.02-4.26,0-8.51-.8-12.72-.12-.65-.31-1.3-.34-1.95-.21-4.49-.32-8.98-.59-13.46-.1-1.57-.51-3.13-.86-4.67-.35-1.55-.69-3.12-1.23-4.61-.67-1.85-.79-3.9-2.1-5.53-.38-.48-.47-1.23-.59-1.88-.57-3.19-.38-6.53-1.77-9.57-.07-.14-.03-.33-.05-.49-.36-3.41-.71-6.83-1.07-10.24-.11-1.05-.05-2.16-.4-3.12-1.24-3.47-1.76-7.08-2.35-10.68-.44-2.67-.72-5.36-1.19-8.02-.42-2.38-1.26-4.65-1.58-7.07-.39-2.91-1.09-5.77-1.62-8.66-.67-3.71-1.3-7.42-1.95-11.14-.28-1.63-.52-3.27-.86-4.89-.53-2.48-1.14-4.95-1.72-7.42-.04-.16-.1-.32-.14-.48-.39-1.53-.82-3.06-1.15-4.61-.53-2.54-.92-5.11-1.48-7.64-.73-3.3-1.57-6.57-2.34-9.86-.32-1.4-.38-2.89-.9-4.2-1.29-3.23-2.23-6.56-3.29-9.86-.18-.58-.58-1.09-.73-1.67-.51-2.08-.97-4.17-1.43-6.26-.39-1.78-1-3.54-1.09-5.34-.12-2.52-.6-4.93-1.26-7.33-.5-1.8-.93-3.63-1.54-5.4-.37-1.09-1.14-2.04-1.51-3.12-.9-2.66-1.73-5.33-2.41-8.07-.76-3.06-1.47-6.21-3.3-8.98-1.46-2.21-2.67-4.58-4.73-6.34-.29-.25-.5-.59-.74-.9-1.41-1.84-2.8-3.7-4.23-5.53-2.34-3.01-4.74-5.97-7.05-9-1.14-1.49-2.13-3.09-3.19-4.64-1.66-2.41-3.43-4.75-4.94-7.24-1.89-3.12-3.88-6.15-6-9.11-.84-1.17-1.88-2.26-2.41-3.56-.65-1.61-1.5-3.06-2.39-4.52-.26-.42-.62-.85-.68-1.31-.3-2.2-1.53-4.03-2.5-5.9-.89-1.74-1.47-3.56-2.19-5.34-.49-1.22-.51-2.64-1.05-3.82-.69-1.48-.97-3.04-1.34-4.59-.43-1.77-.72-3.58-1.29-5.31-.87-2.65-1.5-5.33-1.8-8.1-.09-.86-.37-1.66-.58-2.46-.5-1.93-1.1-3.84-1.5-5.78-.49-2.44-.81-4.92-1.23-7.38-.17-1-.4-1.98-.67-3.29-1.01,1.24-1.84,2.2-2.61,3.21-1.24,1.63-2.46,3.28-3.66,4.94-1.75,2.41-3.59,4.77-5.18,7.29-1.08,1.71-1.81,3.64-2.65,5.49-1.5,3.32-2.65,6.8-4.54,9.94-.14.23-.18.52-.28.78-.34.92-.51,1.98-1.07,2.74-.85,1.14-1.52,2.29-1.69,3.71-.03.26-.19.51-.3.76-.78,1.74-1.68,3.43-2.31,5.22-.6,1.71-.88,3.52-1.34,5.27s-.98,3.49-1.46,5.24c-.49,1.76-.94,3.52-1.49,5.26-.24.77-.86,1.46-1,2.23-.29,1.62-.38,3.28-.53,4.93-.1,1.11-.1,2.22-.24,3.32-.09.7-.42,1.38-.51,2.08-.19,1.47-.27,2.96-.43,4.43-.1.93-.26,1.85-.38,2.78-.31,2.41-.78,4.81-.88,7.23-.31,7.88.26,15.75.63,23.62,0,.28.09.55.12.82.32,3.24,1.48,6.34,1.56,9.62,0,.16.05.33.09.49.8,3.56,1.6,7.12,2.4,10.67.05.22.07.44.13.65.6,2.16,1.24,4.31,1.81,6.48.53,2.03.8,4.16,1.53,6.11,1.33,3.56,2.49,7.17,3.61,10.8.5,1.62,1.11,3.21,1.73,4.79.56,1.44.35,3.08,1.21,4.45.37.6.61,1.31.77,2,.52,2.14.96,4.29,1.47,6.44.19.79.48,1.56.68,2.34.5,1.92.92,3.85,1.47,5.75.37,1.26,1.01,2.44,1.39,3.69.57,1.84,1.03,3.72,1.51,5.58.31,1.17.49,2.38.88,3.53.85,2.5,1.83,4.95,2.68,7.44.53,1.57,1.06,3.16,1.36,4.78.45,2.44.18,4.99.98,7.39.06.19.02.44-.03.65-.67,2.64-.16,5.57-1.92,7.95-.12.16-.08.43-.15.64-.56,1.72-1.13,3.43-1.69,5.15-.29.88-.42,1.85-.87,2.64-.47.83-.59,1.65-.58,2.55,0,1.39-.07,2.78.02,4.17.26,3.95.16,7.95,2.05,11.65,1.11,2.18,2.22,4.31,3.99,6.04.99.97,1.94,1.99,2.96,2.93,1.41,1.29,2.62,2.68,3.02,4.63.05.26.27.48.39.73.87,1.91,1.77,3.8,2.59,5.73.39.92.52,1.91.13,2.92-.17.45-.13.98-.2,1.47-.47,2.93-.11,6-1.51,8.78-.29.57-.32,1.28-.4,1.94-.21,1.75-.37,3.51-.56,5.27-.42,3.82-.57,7.61.56,11.36.33,1.11.37,2.3.7,3.41.89,3.01,2.84,5.59,3.65,8.64,1.07,1.02,1.49,2.38,2.09,3.68.67,1.45,1.24,2.92,1.81,4.41.47,1.23,1.01,2.49,1.81,3.52,1.62,2.11,2,4.63,2.68,7.05.18.64.18,1.28.74,1.76.2.17.38.43.45.68.5,1.62,1,3.24,1.43,4.89.61,2.35,1.15,4.73,1.73,7.09.83,3.38,1.43,6.84,2.56,10.12,1.4,4.06,2.05,8.24,2.31,12.45.19,3.07-.13,6.16.59,9.21.38,1.61.43,3.3.71,4.93.47,2.73,1.06,5.42,1.06,8.22,0,1.93.14,3.89.54,5.78.6,2.82,1.27,5.6,1.29,8.5.01,2.15-.24,4.34.56,6.43.1.25.08.55.08.83-.01,4.55.04,9.1-.05,13.65-.11,5.65-.34,11.31-.5,16.96-.03,1.22.09,2.45.01,3.66-.23,3.42-.56,6.84-.81,10.27-.32,4.42-.62,8.85-.9,13.27-.33,5.24-.62,10.47-1.23,15.69-.29,2.47-.67,4.93-.52,7.43.12,2-.47,3.9-.88,5.83-.33,1.55-1.04,3.02-1.04,4.65,0,1-.03,2-.09,3-.04.6-.07,1.23-.27,1.79-.68,1.91-1.51,3.78-1.41,5.89.02.32-.1.65-.18.97-.35,1.38-.73,2.76-1.08,4.14-.16.64-.23,1.3-.42,1.93-.91,3-1.76,6.03-2.8,8.99-1,2.86-.97,5.87-1.49,8.79-.15.81-.3,1.62-.53,2.42-.54,1.91-1.09,3.81-1.92,5.64-.69,1.52-.9,3.26-1.3,4.91-.36,1.44-.7,2.89-1.04,4.33-.25,1.07-.5,2.13-.72,3.21-.1.49-.07,1-.2,1.48-.93,3.34-1.05,6.78-1.1,10.21-.05,3.33.14,6.66.16,9.99.02,2.77.96,5.16,2.68,7.31,2.56,3.2,5.81,5.6,9.14,7.88.8.55,1.87.69,2.69,1.22,2.11,1.34,4.51,1.94,6.83,2.74,1.5.52,3.03.94,4.56,1.4,1.2.36,2.4.92,3.62,1.01,3.7.28,7.42.38,11.13.54.61.03,1.24-.04,1.83.07,3.72.68,7.38.2,11.05-.4,1.41-.23,2.83-.43,4.26-.49,2.27-.09,4.55-.04,6.72-.88.4-.15.88-.08,1.32-.16.91-.17,1.83-.33,2.73-.56,1.48-.38,2.95-.82,4.42-1.22,1.12-.3,2.18-.63,2.99-1.61,1.13-1.37,2.33-2.68,3.6-3.91.83-.8,1.4-1.73,1.68-2.8.41-1.54.82-3.12.96-4.7.45-4.85-.45-9.49-2.28-14.13Z"/>
      <path class="cls-1" d="M122.31,573.53c1.84,4.64,2.73,9.28,2.29,14.1-.14,1.58-.55,3.16-.96,4.7-.28,1.06-.85,1.99-1.68,2.8-1.27,1.23-2.47,2.55-3.6,3.91-.8.97-1.86,1.3-2.99,1.61-1.48.4-2.94.84-4.42,1.22-.9.23-1.81.4-2.73.56-.43.08-.92.01-1.32.16-2.18.84-4.45.8-6.72.88-1.42.05-2.85.26-4.26.49-3.67.59-7.33,1.08-11.05.4-.59-.11-1.22-.04-1.83-.07-3.71-.16-7.42-.26-11.13-.54-1.23-.09-2.42-.65-3.62-1.01-1.52-.45-3.06-.87-4.56-1.4-2.32-.81-4.71-1.4-6.83-2.74-.82-.52-1.89-.67-2.69-1.22-3.33-2.29-6.58-4.68-9.14-7.88-1.72-2.15-2.66-4.54-2.68-7.31-.02-3.33-.2-6.66-.16-9.99.05-3.43.17-6.87,1.1-10.21.13-.48.1-.99.2-1.48.22-1.07.47-2.14.72-3.21.34-1.44.68-2.89,1.04-4.33.41-1.65.61-3.39,1.3-4.91.83-1.83,1.38-3.73,1.92-5.64.22-.79.38-1.61.53-2.42.53-2.92.49-5.93,1.49-8.79,1.04-2.96,1.89-5.98,2.8-8.99.19-.63.26-1.29.42-1.93.35-1.38.72-2.76,1.08-4.14.08-.32.2-.65.18-.97-.1-2.11.73-3.97,1.41-5.89.2-.56.23-1.19.27-1.79.06-1,.09-2,.09-3,0-1.63.71-3.09,1.04-4.65.41-1.93,1-3.83.88-5.83-.15-2.5.22-4.97.52-7.43.62-5.21.91-10.45,1.23-15.69.28-4.43.57-8.85.9-13.27.25-3.42.57-6.84.81-10.27.08-1.22-.04-2.44-.01-3.66.16-5.65.39-11.31.5-16.96.09-4.55.04-9.1.05-13.65,0-.28.01-.58-.08-.83-.8-2.09-.55-4.27-.56-6.43-.02-2.9-.69-5.69-1.29-8.5-.4-1.88-.54-3.85-.54-5.78,0-2.8-.58-5.5-1.06-8.22-.29-1.64-.34-3.32-.71-4.93-.71-3.05-.4-6.14-.59-9.21-.26-4.21-.91-8.39-2.31-12.45-1.13-3.28-1.73-6.74-2.56-10.12-.58-2.36-1.12-4.74-1.73-7.09-.43-1.64-.93-3.26-1.43-4.89-.08-.25-.25-.51-.45-.68-.56-.47-.56-1.12-.74-1.76-.68-2.42-1.06-4.95-2.68-7.05-.79-1.03-1.34-2.29-1.81-3.52-.56-1.49-1.14-2.96-1.81-4.41-.6-1.3-1.02-2.66-2.09-3.68-.8-3.06-2.76-5.63-3.65-8.64-.33-1.11-.36-2.3-.7-3.41-1.13-3.75-.98-7.54-.56-11.36.19-1.75.35-3.51.56-5.27.08-.66.11-1.37.4-1.94,1.4-2.78,1.04-5.85,1.51-8.78.08-.49.03-1.02.2-1.47.39-1.01.25-2-.13-2.92-.81-1.93-1.72-3.82-2.59-5.73-.11-.25-.33-.47-.39-.73-.4-1.94-1.61-3.34-3.02-4.63-1.02-.94-1.97-1.96-2.96-2.93-1.77-1.73-2.88-3.85-3.99-6.04-1.89-3.71-1.79-7.7-2.05-11.65-.09-1.38,0-2.78-.02-4.17,0-.9.12-1.72.58-2.55.45-.79.58-1.76.87-2.64.56-1.72,1.13-3.43,1.69-5.15.07-.21.03-.48.15-.64,1.75-2.38,1.25-5.31,1.92-7.95.05-.21.1-.46.03-.65-.8-2.4-.53-4.95-.98-7.39-.3-1.62-.83-3.21-1.36-4.78-.85-2.5-1.83-4.95-2.68-7.44-.39-1.14-.57-2.35-.88-3.53-.49-1.87-.95-3.74-1.51-5.58-.39-1.26-1.02-2.44-1.39-3.69-.56-1.9-.98-3.83-1.47-5.75-.2-.79-.5-1.55-.68-2.34-.5-2.14-.95-4.3-1.47-6.44-.17-.69-.4-1.41-.77-2-.86-1.37-.65-3.01-1.21-4.45-.62-1.58-1.23-3.17-1.73-4.79-1.12-3.63-2.28-7.24-3.61-10.8-.73-1.96-1-4.08-1.53-6.11-.57-2.17-1.21-4.32-1.81-6.48-.06-.21-.08-.44-.13-.65-.8-3.56-1.6-7.12-2.4-10.67-.04-.16-.08-.33-.09-.49-.08-3.28-1.25-6.38-1.56-9.62-.03-.28-.11-.55-.12-.82-.37-7.87-.94-15.74-.63-23.62.09-2.42.57-4.82.88-7.23.12-.93.28-1.85.38-2.78.16-1.48.24-2.96.43-4.43.09-.7.42-1.38.51-2.08.14-1.1.14-2.21.24-3.32.15-1.65.24-3.31.53-4.93.14-.78.76-1.46,1-2.23.55-1.74,1-3.51,1.49-5.26s1-3.49,1.46-5.24c.46-1.76.74-3.57,1.34-5.27.62-1.79,1.53-3.48,2.31-5.22.11-.25.27-.5.3-.76.17-1.42.84-2.57,1.69-3.71.57-.76.73-1.81,1.07-2.74.1-.26.14-.55.28-.78,1.89-3.14,3.04-6.62,4.54-9.94.84-1.85,1.58-3.78,2.65-5.49,1.59-2.52,3.43-4.88,5.18-7.29,1.2-1.66,2.42-3.31,3.66-4.94.77-1.01,1.6-1.97,2.61-3.21.27,1.31.5,2.3.67,3.29.42,2.46.74,4.94,1.23,7.38.39,1.95.99,3.86,1.5,5.78.21.8.49,1.6.58,2.42.3,2.77.93,5.45,1.8,8.1.56,1.73.86,3.54,1.29,5.31.37,1.55.65,3.1,1.34,4.59.55,1.18.56,2.6,1.05,3.82.72,1.78,1.3,3.6,2.19,5.34.96,1.87,2.19,3.71,2.5,5.9.06.46.43.88.68,1.31.89,1.46,1.74,2.92,2.39,4.52.53,1.3,1.57,2.39,2.41,3.56,2.12,2.96,4.11,6,6,9.11,1.51,2.5,3.29,4.83,4.94,7.24,1.06,1.55,2.06,3.15,3.19,4.64,2.31,3.03,4.71,5.99,7.05,9,1.43,1.83,2.82,3.69,4.23,5.53.24.31.45.65.74.9,2.06,1.76,3.26,4.13,4.73,6.34,1.83,2.77,2.54,5.92,3.3,8.98.68,2.74,1.52,5.41,2.41,8.07.37,1.09,1.14,2.04,1.51,3.12.61,1.77,1.04,3.59,1.54,5.4.66,2.4,1.14,4.82,1.26,7.33.09,1.79.69,3.56,1.09,5.34.46,2.09.92,4.18,1.43,6.26.14.58.54,1.09.73,1.67,1.05,3.3,2,6.63,3.29,9.86.52,1.31.57,2.81.9,4.2.76,3.29,1.61,6.56,2.34,9.86.56,2.53.95,5.1,1.48,7.64.32,1.55.76,3.07,1.15,4.61.04.16.1.32.14.48.58,2.47,1.19,4.94,1.72,7.42.35,1.62.58,3.26.86,4.89.65,3.71,1.28,7.43,1.95,11.14.52,2.89,1.23,5.75,1.62,8.66.32,2.42,1.16,4.7,1.58,7.07.47,2.66.75,5.36,1.19,8.02.59,3.6,1.11,7.21,2.35,10.68.35.97.29,2.08.4,3.12.36,3.41.72,6.83,1.07,10.24.02.17-.02.35.05.49,1.39,3.04,1.2,6.38,1.77,9.57.12.65.2,1.4.59,1.88,1.32,1.63,1.43,3.68,2.1,5.53.54,1.49.88,3.06,1.23,4.61.35,1.55.76,3.1.86,4.67.27,4.48.39,8.97.59,13.46.03.66.22,1.3.34,1.95.81,4.21.78,8.46.8,12.72,0,2.71.07,5.49.71,8.09.96,3.89.65,7.78.76,11.69.03,1.04.28,2.08.32,3.12.1,2.83-.11,5.7.29,8.48.42,2.87.12,5.77.53,8.59.51,3.54.46,7.17,1.56,10.62.2.62.2,1.31.25,1.97.31,3.53.6,7.05.92,10.58.28,3.14.61,6.28.85,9.42.19,2.49.3,4.98.43,7.47.14,2.88.25,5.76.38,8.64.02.44,0,.93.18,1.32,1.16,2.63.78,5.47,1.1,8.21.33,2.74.53,5.5.76,8.25.21,2.54.39,5.08.59,7.62.19,2.37.4,4.74.57,7.11.27,3.87.52,7.75.78,11.62.04.61.14,1.21.21,1.81.16,1.54.42,3.08.46,4.62.15,5.44.2,10.88.33,16.31.06,2.71.3,5.43.29,8.14,0,2.83-.2,5.65-.32,8.48-.1,2.43-.17,4.86-.35,7.28-.28,3.7-.61,7.4-1.01,11.09-.07.61-.5,1.22-.89,1.74-.71.97-1.06,2.03-1.22,3.21-.79,5.88-1.65,11.76-2.46,17.64-.72,5.15-1.46,10.3-2.09,15.46-.28,2.31-.26,4.65-.44,6.97-.3,3.92-.63,7.83-.97,11.75-.16,1.87.15,3.77-.45,5.62-.42,1.28-.88,2.49-1.91,3.42-1.19,1.07-2.12,2.43-3.66,3.1-.38.24-.62.69-.99,1.07ZM40.36,223.03c.56-.09,1.18-.23,1.81-.3,2.06-.23,4.15-.3,6.18-.68,2.22-.41,4.43-.77,6.67-1.07,2.82-.38,5.68-.6,8.48-1.21,3.94-.85,7.9-1.56,11.85-2.36,1.65-.34,3.27-.81,4.92-1.13,1.29-.25,2.6-.38,3.9-.51.28-.03.58.13.88.2-.19.28-.32.69-.58.81-.7.31-1.52.37-2.17.75-1.87,1.08-3.87,1.74-5.96,2.17-2.42.5-4.85.9-7.26,1.42-1.49.32-2.94.88-4.44,1.15-1.78.32-3.53.65-5.19,1.42-1.08.5-2.27.95-3.43,1.01-1.03.05-1.91.25-2.83.68-1.22.56-2.49,1.1-3.8,1.4-2.03.47-4.11.7-6.16,1.11-1.61.33-3.27.6-4.5,1.88-.61.63-1.16,1.33-1.84,1.89-1.58,1.32-2.59,2.88-2.32,5.02.26,2.02.28,4.16.99,6.02.92,2.45,2.37,4.71,4.08,6.74.18.21.36.43.59.58,1.8,1.23,3.35,2.64,3.93,4.86.15.55.45,1.08.77,1.56,2.72,4.13,4.09,8.72,4.76,13.58.26,1.88.75,3.73,1.16,5.75.6-.32,1.12-.52,1.55-.84.65-.47,1.17-1.28,1.87-1.46,1.4-.36,2.48-1.32,3.8-1.77,1.93-.65,3.79-1.47,5.86-1.66,1.25-.11,2.47-.55,3.69-.85,1.27-.31,2.53-.69,3.82-.93,1.28-.24,2.6-.32,3.89-.53.76-.12,1.49-.42,2.25-.5,2.79-.31,5.59-.45,8.37-.86,2.06-.3,4.14-.56,6.14-1.28,1.51-.55,3.14-.16,4.73-.14,3.29.04,6.4.74,9.59,1.7-.02-.36-.02-.68-.07-1-.47-2.78-.96-5.56-1.41-8.35-.38-2.35-.67-4.71-1.08-7.06-.47-2.66-1.03-5.3-1.58-7.94-.27-1.29-.68-2.55-.89-3.85-.36-2.16-.54-4.36-.91-6.52-1.19-6.86-2.33-13.74-3.68-20.57-1.25-6.34-2.2-12.75-3.86-19.02-1.03-3.89-1.61-7.9-2.42-11.85-.98-4.81-2.03-9.62-2.97-14.44-.33-1.73-.84-3.41-1.15-5.15-.47-2.64-1.46-5.18-2.27-7.76-.3-.93-.75-1.82-1.09-2.74-.17-.46-.21-.96-.33-1.44-.44-1.75-.63-3.63-1.4-5.23-1.23-2.56-1.92-5.26-2.76-7.93-.53-1.68-.73-3.48-1.39-5.09-.62-1.52-.88-3.02-1.02-4.62-.1-1.13-.46-2.26-.87-3.34-.99-2.63-2.06-5.24-3.13-7.84-.48-1.16-.96-2.35-1.6-3.42-1.06-1.75-2.29-3.38-3.37-5.11-.92-1.48-1.73-3.03-2.61-4.53-.16-.28-.43-.51-.64-.76-.45-.56-.92-1.1-1.34-1.68-.51-.71-.98-1.46-1.47-2.18-1.03-1.5-2.26-2.89-3.06-4.5-1.59-3.2-4.12-5.72-5.94-8.75-.84-1.4-2.08-2.55-3.03-3.89-1.78-2.5-3.48-5.06-5.2-7.59-.55-.81-1.13-1.61-1.59-2.47-.67-1.26-1.18-2.61-1.87-3.86-.77-1.4-1.55-2.81-2.53-4.06-.57-.73-.97-1.44-1.21-2.31-.36-1.32-.73-2.65-1.22-3.92-.65-1.68-1.48-3.3-2.13-4.98-.75-1.96-1.35-3.98-2.07-5.95-1.05-2.87-1.82-5.81-2.19-8.84-.27-2.24-.38-4.5-.57-6.75-.03-.39-.14-.78-.29-1.53-.81,1.89-1.8,3.19-2.08,4.91-.25,1.5-.98,2.91-1.46,4.37-.41,1.25-.55,2.63-1.17,3.76-1.43,2.63-1.84,5.57-2.75,8.36-.45,1.4-.4,2.94-1.15,4.27-.34.61-.68,1.25-.86,1.92-.64,2.38-1.24,4.78-1.77,7.18-.21.96-.03,2.03-.36,2.93-.77,2.09-.67,4.3-1.21,6.42-.57,2.23-1.05,4.49-1.57,6.74-.05.21-.06.44-.1.66-.93,4.69-.62,9.46-1.05,14.19-.34,3.79.79,7.55.4,11.35-.02.2.15.41.19.63.1.59.21,1.19.25,1.79.08,1.15.06,2.31.19,3.45.15,1.31.63,2.61.61,3.91-.05,2.8.73,5.43,1.35,8.09.82,3.55,1.87,7.05,2.81,10.58.11.42.15.86.21,1.29.1.7.04,1.45.3,2.08,1.42,3.46,2.92,6.89,4.39,10.33.17.41.41.79.54,1.21.53,1.68,1.44,3.28,1.29,5.11-.08.99.07,1.84.72,2.64.29.35.35.91.47,1.39.29,1.24.3,2.6.86,3.69,1.03,2,1.65,4.12,2.35,6.23.36,1.1.69,2.22,1.1,3.3,1,2.62,2.09,5.21,3.03,7.86.73,2.06,1.36,4.17,1.91,6.28.56,2.13,1.14,4.28,1.38,6.46.29,2.61.62,5.15,1.85,7.51.25.48.33,1.05.47,1.59.34,1.32.69,2.63,1.01,3.96.69,2.84,1.42,5.68,1.03,8.65-.12.93-.25,1.86-.35,2.8-.21,2.38-.43,4.8-.67,7.31ZM114.34,347.24c0-1.58.21-2.88-.04-4.08-.84-4.02-.9-8.1-1-12.16-.12-5.24.07-10.49-.14-15.73-.19-4.76-.3-9.51-.09-14.27.02-.49,0-1.03-.18-1.47-.93-2.18-.65-4.56-1.22-6.79-.52-2.01-.03-4.13-.77-6.17-.64-1.79-.81-3.76-1.17-5.65-.31-1.62-.93-3.08-2.17-4.2-1.19-1.07-2.43-2.1-3.64-3.14-.97-.84-2.14-1.11-3.38-1.14-.39-.01-.86.11-1.14-.06-1.3-.8-2.69-.44-4.04-.43-1.75.02-3.52-.02-5.23.47-.68.19-1.34.62-2.02.65-1.74.09-3.5-.1-5.23.04-1.95.16-4.02-.29-5.79.98-.18.13-.54,0-.8.04-1.83.25-3.68.03-5.54.36-1.51.26-2.78,1.4-4.4,1.07-2.03,1.06-4.57.99-6.27,2.82-.19.2-.63.16-.94.26-1.53.5-3.31.37-4.49,1.76-.43.5-.94.94-1.34,1.45-1.37,1.73-2.72,3.48-4.06,5.23-.23.3-.49.64-.53.99-.19,1.59-.31,3.19-.45,4.79-.02.27-.13.59-.03.8,1.17,2.49,1.22,5.43,3.07,7.64.1.12.17.29.21.45.74,3.05,2.39,5.73,3.55,8.61.84,2.08,1.59,4.19,2.28,6.32.54,1.67.89,3.41,1.4,5.09.41,1.38.87,2.75,1.45,4.06.27.61.85,1.09,1.3,1.62,1.73-.48,3.16,1.35,4.93.65.08-.03.2.08.31.1.91.19,1.82.43,2.74.55,1.64.22,3.3.3,4.93.55,1.69.25,3.34.74,5.03.93,2.6.3,5.14,1,7.46,2.03,2.84,1.26,5.91,1.74,8.73,3.01,1.68.75,3.56.87,5.16,2.04,1.71,1.25,3.73,2.1,5.6,3.13.29.16.6.31.84.53,1.67,1.53,3.3,3.08,4.98,4.6.56.54,1.25,1,2.13,1.67ZM124.56,500.23c-.11-.07-.22-.13-.34-.2-.12.1-.27.18-.37.3-1.99,2.53-3.92,5.11-5.99,7.57-1.74,2.08-3.5,4.18-5.49,6-2.39,2.18-5.04,4.06-7.58,6.07-1.96,1.55-3.7,3.42-6.1,4.38-.15.06-.28.17-.41.27-1.99,1.55-3.95,3.14-5.99,4.63-1.11.81-2.32,1.49-3.54,2.14-1.49.8-3.02,1.52-4.54,2.27-1.18.58-2.33,1.23-3.55,1.68-1.33.5-2.74.76-4.08,1.22-1.63.56-3.15,1.43-4.96,1.44-.87,0-1.74.3-2.6.29-1.38-.01-2.76-.17-4.14-.25-1.38-.09-1.7.14-1.99,1.58-.38,1.9-.68,3.81-1.05,5.71-.36,1.84-.78,3.68-1.17,5.52-.14.64-.23,1.29-.42,1.91-.94,3.04-1.91,6.07-2.86,9.11-.23.73-.41,1.47-.59,2.21-.09.37-.17.75-.22,1.14-.28,2.34-.55,4.67-.82,7.01-.2,1.7-.47,3.39-.54,5.1-.03.66.22,1.48.64,1.98,1.48,1.78,3.11,3.44,5.13,4.61.76.44,1.64.67,2.45,1.01,2.49,1.06,4.87,2.37,7.61,2.77,1.52.22,3.05.57,4.52,1.03,2.36.74,4.73.98,7.19.62.69-.1,1.43.1,2.14.17.93.1,1.87.33,2.79.3,2.52-.07,5.04-.24,7.56-.37.17-.01.33-.03.5-.05,2.23-.33,4.45-.76,6.7-.96,1.43-.13,2.72-.54,3.87-1.28.9-.58,1.74-1.37,2.37-2.23.38-.52.19-1.41.47-2.04.76-1.76.42-3.53,0-5.21-.59-2.34-1.35-4.64-1.82-7.02-.49-2.5-1.16-4.96-1.78-7.43-.24-.96-.63-1.89-.83-2.86-.47-2.27-.97-4.53-1.26-6.82-.21-1.66-.05-3.36-.17-5.03-.29-4.07.9-7.89,1.91-11.73.46-1.74,1.33-3.37,1.59-5.2.12-.81.28-1.73.74-2.35,1.33-1.8,2.11-3.83,3.01-5.84.99-2.2,1.97-4.43,3.54-6.34.73-.89,1.27-1.95,1.88-2.94,2.02-3.32,4-6.66,6.04-9.96.61-.98,1.36-1.87,2.02-2.82.2-.37.35-.75.53-1.11ZM122.44,514.62c-.96,1.6-1.94,2.82-2.46,4.21-.5,1.35-1.05,2.61-1.87,3.78-.72,1.03-1.4,2.12-1.92,3.26-.64,1.39-1.07,2.89-1.66,4.31-.88,2.14-1.87,4.23-2.7,6.38-.61,1.59-1.31,3.22-1.48,4.88-.33,3.18-.34,6.4-.4,9.6-.03,1.48.03,2.99.25,4.45.33,2.18.83,4.34,1.26,6.51.12.61.26,1.22.47,2.21,1.82-1.72,3.37-3.17,4.88-4.66.24-.24.33-.68.39-1.05.15-.96.22-1.93.36-2.9.32-2.33.8-4.65.95-6.99.15-2.41.07-4.82.47-7.22.34-2.04.04-4.18.88-6.16.12-.29.05-.66.08-.99.24-2.19.45-4.38.72-6.56.17-1.37.56-2.72.6-4.08.06-1.94.17-3.85.66-5.73.24-.95.32-1.94.52-3.25ZM117.04,407.81c1.1-1.54,1.38-3.39,1.13-5.48-.19-1.6-1.04-2.6-2.13-3.57-.12-.11-.22-.25-.32-.38-1.74-2.33-5.38-2.07-7.39.11-1.22,1.33-1.53,3.15-1.04,4.95.52,1.92,1.66,3.51,3.19,4.72,1.37,1.09,3.06.93,4.67.51.61-.14,1.16-.51,1.89-.86ZM87.25,376.44c.25.41.53.7.63,1.04.4,1.42,1.36,2.49,2.17,3.66.59.87,1.55,1.09,2.41,1.32.51.14,1.19-.34,1.79-.56.57-.2,1.14-.42,1.7-.64,1.39-.55,2.65-1.45,3.04-2.84.92-3.28-.78-6.72-4.33-7.29-1.03-.17-2.09-.06-3.14-.11-1.48-.07-2.43.72-2.99,1.96-.51,1.14-.88,2.35-1.28,3.46ZM91.78,477.16c-.14,3.44,2.54,6.43,4.9,6.58.43.03.89-.05,1.31-.16.69-.19,1.35-.49,2.04-.67,1.44-.38,2.19-1.44,2.65-2.73.46-1.3,1.27-2.65-.08-3.94-.03-.03-.04-.11-.03-.16.12-1.25-.8-1.92-1.56-2.59-1.5-1.34-3.41-1.97-5.23-1.14-2.4,1.1-4.12,2.97-4,4.81Z"/>
      <path class="cls-1" d="M66.48,111.83c.54.3,1.01.41,1.1.65.34.87.64,1.78.79,2.7.51,3.1.86,6.23,1.44,9.31.42,2.21,1.08,4.38,1.67,6.56.73,2.66,1.51,5.31,2.25,7.97.61,2.17,1.18,4.34,1.81,6.51.34,1.16.76,2.3,1.11,3.46.47,1.52.68,3.07.84,4.67.22,2.29.79,4.55,1.34,6.8.6,2.41,1.43,4.77,2.01,7.18.43,1.78.64,3.62.95,5.44-.1.04-.21.09-.31.13-.23-.19-.55-.34-.68-.59-1.38-2.57-2.72-5.15-4.08-7.72-.8-1.51-1.62-2.99-2.75-4.32-.68-.8-.9-1.99-1.32-3.01-.56-1.36-1.19-2.7-1.65-4.1-.79-2.41-1.49-4.85-2.19-7.29-.27-.95-.44-1.94-.67-2.91-.64-2.69-1.34-5.36-1.89-8.07-.31-1.51-.28-3.08-.57-4.59-.34-1.75-.41-3.49-.38-5.25.01-.49.01-.99.05-1.48.21-2.53.41-5.07.64-7.6.14-1.36.3-2.71.49-4.45Z"/>
      <g>
        <path class="cls-1" d="M50.64,243.95c1.63.07,2.98-.76,4.42-1.29.88-.32,1.04-.91.96-1.83-.28-3.42-.36-6.83.37-10.23.34-1.6,1.48-2.54,2.8-2.89,1.1-.29,2.43.08,3.25,1.23.45.63.94,1.22,1.38,1.85.77,1.07.34,2.26.2,3.38-.2,1.6-.68,3.08-1.78,4.37-1.25,1.46-2.36,3.04-3.47,4.61-.26.38-.38.93-.38,1.41.01,2.6.1,5.2.12,7.8,0,.63.24.99.74,1.36,3.51,2.63,7.49,3.95,11.81,4.37.7.07,1.41.14,2.11.12,1.63-.03,2.7-1.02,3.63-2.21.24-.3.39-.7.68-.93.27-.21.69-.37,1-.32.22.03.49.42.56.7.34,1.37-.51,2.37-1.31,3.23-.8.86-1.86,1.51-3.15,1.62-.99.08-1.96.29-2.94.47-1.98.37-3.7-.59-5.44-1.2-2.32-.81-4.7-1.57-6.83-2.88-.22-.13-.49-.17-.86-.29-.08.54-.15.97-.19,1.39-.25,2.49-1.76,4.06-3.8,5.26-1.4.83-4.19-.13-4.38-1.92-.06-.53-.37-1.04-.54-1.56-.76-2.33-.17-4.5,1.06-6.46.36-.57,1.39-.92,2.16-1,1.07-.12,2.18.1,3.49.19.44-2.42-.19-4.79-.58-7.43-.69.25-1.22.37-1.68.61-2.24,1.15-4.2.38-6.05-.9-.38-.26-.73-.76-.83-1.21-.51-2.15-.44-4.28.54-6.31.12-.24.32-.51.55-.61.32-.14.77-.28,1.03-.14.26.14.51.62.48.92-.09.77-.34,1.51-.53,2.27-.45,1.78-.06,3.29,1.4,4.45ZM58.63,239.84c1.79-2.24,3.46-4.32,3.42-7.21-.01-.98-.45-1.82-1.39-2.29-1.01-.5-1.48-.29-1.8.79-.82,2.79-.98,5.6-.23,8.71ZM56.38,255.6c-2.15-.64-2.85-.41-3.47,1.42-.36,1.06-.41,2.25-.49,3.38-.02.29.29.77.56.88.27.1.74-.08,1.01-.28.33-.26.56-.66.81-1.02.88-1.3,1.28-2.76,1.58-4.38Z"/>
        <path class="cls-1" d="M77.6,250.19c-1.4,2.15-3.45,2.84-5.55.7-.85.83-1.63,1.74-2.55,2.48-1.2.96-2.56,1.45-4.17,1.12-.82-.17-1.31-.46-1.33-1.37-.02-1.27-.09-2.53-.14-3.8-.01-.38,0-.76,0-1.32-.66.16-1.18.4-1.67.36-.43-.03-.83-.39-1.25-.6.2-.35.31-.81.6-1.04,1.12-.89,2.33-1.68,3.44-2.59.39-.32.61-.88.86-1.36.86-1.58,1.65-1.64,2.87-.09-.44.93-1,1.89-1.36,2.91-.54,1.56-.96,3.16-1.36,4.76-.09.34.07.77.19,1.13.25.75.76.91,1.41.47,2.61-1.79,3.86-4.28,3.77-7.45-.02-.71,0-1.42,0-2.17.31-.16.54-.32.79-.4.95-.29,1.25-.14,1.36.79.14,1.26.2,2.53.32,3.8.1,1.04.24,2.07.38,3.27,1.49-.54,2.08-1.59,2.38-2.84.32-1.33.72-2.61,1.29-3.87.73-1.59,2.19-2.45,3.15-3.77.09-.12.27-.18.43-.22,1.48-.44,4.08,1.07,4.24,2.62.15,1.42.05,2.87-.04,4.3-.02.29-.46.78-.69.76-.35-.02-.86-.32-.99-.63-.22-.54-.25-1.17-.29-1.77-.04-.69-.01-1.39-.01-2.45-1.21,1.08-2.43,1.41-3.26,2.58-1.08,1.52-.95,3.04-.59,4.58.12.52.96,1.03,1.57,1.24.75.26,1.55.05,2.03-.74.31-.5.62-1.01.93-1.5,1.51.85,1.74,1.51.92,2.78-.39.61-.4,1.56-1.42,1.69-1.03.12-2.05.43-3.08.43-.83,0-1.59-.41-2.07-1.21-.27-.49-.66-.96-1.11-1.58Z"/>
        <path class="cls-1" d="M90.12,224.87c1.34.04,1.78.39,1.92,1.74.26,2.52.33,5.05.1,7.59-.08.91,0,1.84,0,2.61,1.22-.16,2.35-.45,3.47-.4,1.77.07,2.71,1.77,1.91,3.35-.74,1.47-1.58,2.89-2.42,4.3-.44.74-.76,1.42-.18,2.27.62.91.97,1.92,1.14,3.06.13.88.77,1.68,1.16,2.44h1.81c.49-.97,1.05-1.88.25-3.03-.24-.34-.15-.91-.21-1.37,1.73-.24,1.92-.15,2.45,1.15.74,1.81.07,4.07-1.52,5.07-1.79,1.13-4.46.55-5.46-1.31-.52-.95-.84-2.02-1.12-3.07-.3-1.1-.69-1.51-2.09-1.6-.12,1.22-.24,2.45-.35,3.69-.06.71-.13,1.42-.14,2.14,0,.55-.11,1.09-.72,1.12-.58.02-1.19-.04-1.49-.77-.55-1.31-.3-2.56-.04-3.88.33-1.62.48-3.28.67-4.92.03-.3-.17-.63-.25-.94-.06-.2-.21-.45-.15-.61,1.1-2.81,1.11-5.81,1.39-8.73.2-2.02-.06-4.08-.09-6.12-.04-1.28-.03-2.53-.03-3.78ZM91.53,244.67c.8-.24,1.3-.67,2.75-3.13.47-.8,1.51-1.49,1.15-2.69-2.46-.09-3.77,1.79-3.9,5.82Z"/>
      </g>
      <path class="cls-2" d="M58.63,239.84c-.75-3.1-.59-5.91.23-8.7.32-1.09.79-1.29,1.8-.79.94.46,1.38,1.31,1.39,2.29.04,2.88-1.63,4.95-3.42,7.2Z"/>
      <path class="cls-2" d="M56.38,255.6c-.3,1.62-.7,3.08-1.58,4.38-.24.36-.47.76-.81,1.02-.27.21-.74.39-1.01.28-.27-.1-.59-.59-.56-.88.08-1.14.13-2.32.49-3.38.62-1.83,1.32-2.06,3.47-1.42Z"/>
      <path class="cls-2" d="M91.53,244.67c.12-4.03,1.43-5.91,3.9-5.82.36,1.2-.68,1.89-1.15,2.69-1.45,2.46-1.95,2.89-2.75,3.13Z"/>
    </g>
    <path class="cls-2" d="M114.34,347.24c-.88-.68-1.56-1.13-2.17-1.67-1.67-1.52-3.31-3.07-4.98-4.6-.24-.22-.55-.37-.84-.53-1.88-1.03-3.89-1.88-5.6-3.13-1.6-1.17-3.49-1.28-5.16-2.04-2.82-1.27-5.89-1.75-8.73-3.01-2.33-1.03-4.86-1.74-7.46-2.03-1.69-.19-3.35-.68-5.03-.93-1.63-.25-3.29-.33-4.93-.55-.92-.12-1.82-.36-2.74-.55-.11-.02-.23-.13-.31-.1-1.77.7-3.2-1.14-4.93-.65-.44-.54-1.03-1.01-1.3-1.62-.57-1.31-1.03-2.69-1.45-4.06-.51-1.69-.85-3.42-1.4-5.09-.69-2.13-1.45-4.24-2.28-6.32-1.16-2.88-2.81-5.55-3.55-8.61-.04-.16-.1-.33-.21-.45-1.85-2.22-1.9-5.15-3.07-7.64-.1-.22,0-.53.03-.8.14-1.6.26-3.2.45-4.79.04-.35.3-.7.53-.99,1.34-1.75,2.69-3.5,4.06-5.23.41-.52.92-.95,1.34-1.45,1.19-1.39,2.96-1.26,4.49-1.76.31-.1.76-.06.94-.26,1.7-1.83,4.24-1.76,6.27-2.82,1.62.33,2.9-.81,4.4-1.07,1.86-.32,3.7-.11,5.54-.36.27-.04.62.09.8-.04,1.78-1.27,3.85-.82,5.79-.98,1.73-.14,3.49.05,5.23-.04.68-.03,1.34-.46,2.02-.65,1.71-.49,3.48-.45,5.23-.47,1.36-.02,2.75-.38,4.04.43.28.18.76.05,1.14.06,1.24.03,2.41.3,3.38,1.14,1.22,1.05,2.45,2.07,3.64,3.14,1.24,1.12,1.86,2.58,2.17,4.2.36,1.89.53,3.86,1.17,5.65.74,2.05.25,4.16.77,6.17.58,2.24.29,4.62,1.22,6.79.19.44.21.98.18,1.47-.21,4.76-.1,9.51.09,14.27.2,5.24.02,10.49.14,15.73.09,4.07.16,8.14,1,12.16.29,1.21.08,2.5.08,4.08Z"/>
    <path class="cls-2" d="M124.56,500.23c-.18.36-.33.74-.55,1.06-.66.95-1.41,1.84-2.02,2.82-2.04,3.31-4.03,6.64-6.04,9.96-.6.99-1.14,2.05-1.88,2.94-1.57,1.91-2.55,4.14-3.54,6.34-.9,2.01-1.68,4.04-3.01,5.84-.46.63-.63,1.54-.74,2.35-.26,1.83-1.13,3.46-1.59,5.2-1.01,3.84-2.2,7.66-1.91,11.73.12,1.67-.04,3.38.17,5.03.29,2.29.79,4.56,1.26,6.82.2.97.59,1.9.83,2.86.62,2.47,1.29,4.93,1.78,7.43.47,2.38,1.23,4.68,1.82,7.02.43,1.68.76,3.46,0,5.21-.27.63-.09,1.53-.47,2.04-.63.86-1.47,1.65-2.37,2.23-1.15.74-2.45,1.16-3.87,1.28-2.24.2-4.46.63-6.7.96-.16.02-.33.04-.5.05-2.52.13-5.04.3-7.56.37-.93.03-1.86-.2-2.79-.3-.72-.08-1.45-.28-2.14-.17-2.46.37-4.82.13-7.19-.62-1.47-.46-2.99-.8-4.52-1.03-2.74-.4-5.12-1.71-7.61-2.77-.81-.35-1.69-.57-2.45-1.01-2.02-1.17-3.66-2.83-5.13-4.61-.42-.5-.67-1.32-.64-1.98.08-1.7.35-3.4.54-5.1.27-2.34.54-4.67.82-7.01.05-.38.12-.76.22-1.14.18-.74.36-1.48.59-2.21.95-3.04,1.92-6.07,2.86-9.11.19-.62.28-1.27.42-1.91.39-1.84.8-3.67,1.17-5.52.37-1.9.67-3.82,1.05-5.71.29-1.44.62-1.67,1.99-1.58,1.38.09,2.76.24,4.14.25.87.01,1.74-.29,2.6-.29,1.81,0,3.33-.88,4.96-1.44,1.34-.46,2.76-.72,4.08-1.22,1.22-.46,2.37-1.11,3.55-1.68,1.52-.74,3.05-1.46,4.54-2.27,1.21-.65,2.43-1.33,3.54-2.14,2.04-1.49,3.99-3.08,5.99-4.63.13-.1.26-.21.41-.27,2.4-.96,4.13-2.83,6.1-4.38,2.54-2.01,5.19-3.9,7.58-6.07,2-1.82,3.75-3.92,5.49-6,2.06-2.47,3.99-5.05,5.99-7.57.1-.12.24-.2.37-.3.14.12.25.18.36.25Z"/>
    <path class="cls-2" d="M117.04,407.81c-.73.35-1.28.72-1.88.87-1.61.42-3.3.57-4.67-.51-1.53-1.21-2.66-2.8-3.19-4.72-.49-1.81-.19-3.62,1.04-4.95,2-2.18,5.65-2.45,7.39-.11.1.13.2.27.32.38,1.08.97,1.93,1.97,2.13,3.57.24,2.08-.04,3.93-1.14,5.47Z"/>
    <path class="cls-2" d="M87.25,376.44c.41-1.11.77-2.31,1.29-3.45.56-1.24,1.51-2.03,2.99-1.96,1.05.05,2.12-.06,3.14.11,3.55.58,5.25,4.01,4.33,7.29-.39,1.39-1.65,2.3-3.04,2.84-.57.22-1.13.44-1.7.64-.6.22-1.28.69-1.79.56-.86-.23-1.81-.45-2.41-1.32-.8-1.18-1.76-2.25-2.17-3.66-.11-.35-.39-.64-.64-1.05Z"/>
    <path class="cls-2" d="M91.78,477.16c-.12-1.84,1.6-3.71,4-4.81,1.82-.83,3.72-.21,5.23,1.14.76.68,1.68,1.35,1.56,2.59,0,.05,0,.13.03.16,1.35,1.28.54,2.64.08,3.94-.46,1.28-1.21,2.34-2.65,2.73-.69.18-1.35.48-2.04.67-.42.12-.87.19-1.31.16-2.36-.15-5.04-3.14-4.9-6.58Z"/>
  </g>
</svg>