<?xml version="1.0" encoding="UTF-8"?>
<svg id="Layer_2" data-name="Layer 2" xmlns="http://www.w3.org/2000/svg" viewBox="0 0 615.09 119.23">
  <defs>
    <style>
      .cls-1 {
        fill: #000;
      }

      .cls-1, .cls-2 {
        stroke-width: 0px;
      }

      .cls-2 {
        fill: #fff;
      }
    </style>
  </defs>
  <g id="Layer_2-2" data-name="Layer 2">
    <g id="BLACK">
      <path class="cls-1" d="M582.66,28.85c-.36-.39-.78-.66-.92-1.04-.56-1.57-1.83-2.59-2.8-3.85-.84-1.09-2.01-1.63-3.24-2.14-1.79-.74-3.69-.56-5.53-.86-3.84-.61-7.69-1.24-11.55-1.82-2.28-.35-4.6-.5-6.86-.95-5.06-1-10.1-2.11-15.14-3.2-5.76-1.24-11.51-2.51-17.27-3.72-1.17-.25-2.18-.67-3.09-1.44-.49-.41-1.06-.89-1.66-1.01-3.62-.67-7.26-1.26-10.89-1.81-2.38-.36-4.79-.6-7.17-.88-2.79-.33-5.56-.73-8.36-.94s-5.39-.17-8.07-.31c-5.39-.27-10.77-.62-16.15-.87-1.53-.07-3.07.07-4.6.12-.6.02-1.21.07-1.81.08-3.85-.02-7.7-.06-11.55-.08-2.36,0-4.72.03-7.07.04-2.53.01-5.05,0-7.58.03-2.74.03-5.48.02-8.21.15s-5.5-.47-8.2.49c-.4.14-.87.09-1.32.08-2.86-.08-5.71-.18-8.57-.26-2.47-.06-4.94-.14-7.42-.12-3.12,0-6.25.1-9.38.15-3.51.05-7.02.09-10.53.14-.66.01-1.34-.04-1.97.1-3.5.83-7.09.52-10.62.77-2.82.2-5.66-.3-8.53-.1-2.78.19-5.6-.23-8.41-.33-1.03-.04-2.08.13-3.11.09-3.87-.18-7.69-.77-11.62-.1-2.62.44-5.38.29-8.05.11-4.21-.29-8.42-.62-12.64-.14-.65.07-1.31.21-1.95.19-4.46-.12-8.9-.34-13.36-.4-1.56-.02-3.13.28-4.68.51-1.56.23-3.14.45-4.65.88-1.88.53-3.91.5-5.62,1.67-.5.34-1.25.37-1.9.45-3.2.33-6.49-.1-9.59,1.05-.14.06-.33,0-.49.01-3.4.11-6.81.2-10.21.31-1.05.03-2.14-.11-3.11.17-3.52.97-7.13,1.22-10.73,1.54-2.67.24-5.35.32-8.02.59-2.38.24-4.69.91-7.11,1.05-2.91.17-5.79.66-8.68.97-3.72.39-7.43.74-11.16,1.11-1.63.16-3.27.28-4.9.49-2.49.34-4.98.77-7.46,1.16-.16.03-.32.08-.48.1-1.54.27-3.09.59-4.64.8-2.55.34-5.12.54-7.66.9-3.32.48-6.61,1.07-9.92,1.59-1.41.21-2.89.16-4.22.58-3.29,1.04-6.65,1.73-9.99,2.53-.59.14-1.12.49-1.71.6-2.09.35-4.2.65-6.3.96-1.79.26-3.57.73-5.36.69-2.5-.07-4.92.23-7.34.71-1.82.36-3.66.65-5.45,1.13-1.11.29-2.1.98-3.2,1.27-2.7.7-5.4,1.32-8.16,1.79-3.08.53-6.25,1-9.12,2.61-2.29,1.28-4.72,2.31-6.62,4.21-.27.27-.62.45-.94.67-1.92,1.26-3.86,2.5-5.78,3.78-3.15,2.09-6.25,4.25-9.42,6.31-1.56,1.02-3.21,1.88-4.82,2.82-2.5,1.47-4.95,3.04-7.52,4.36-3.22,1.64-6.37,3.39-9.45,5.27-1.22.75-2.37,1.69-3.7,2.12-1.64.53-3.14,1.26-4.65,2.03-.43.23-.89.55-1.35.58-2.2.14-4.1,1.22-6.02,2.04-1.79.75-3.63,1.19-5.44,1.78-1.24.4-2.65.31-3.85.76-1.51.57-3.08.74-4.64.99-1.78.3-3.59.45-5.35.89-2.68.67-5.38,1.09-8.14,1.19-.86.03-1.67.24-2.48.39-1.95.35-3.88.81-5.83,1.06-2.45.31-4.93.44-7.39.68-1,.09-1.99.25-3.3.42,1.15,1.09,2.04,1.98,2.98,2.82,1.52,1.35,3.06,2.67,4.62,3.98,2.26,1.91,4.45,3.9,6.83,5.66,1.61,1.19,3.47,2.06,5.24,3.02,3.17,1.73,6.53,3.12,9.5,5.22.22.16.5.22.75.33.89.4,1.92.65,2.63,1.26,1.07.92,2.15,1.67,3.55,1.94.25.05.49.23.73.35,1.66.9,3.27,1.91,4.99,2.67,1.65.72,3.42,1.13,5.11,1.71s3.38,1.22,5.08,1.83c1.7.61,3.41,1.19,5.09,1.86.74.29,1.38.96,2.13,1.15,1.58.41,3.22.62,4.84.88,1.09.18,2.19.26,3.27.48.69.14,1.33.52,2.02.66,1.44.3,2.91.48,4.35.75.91.17,1.81.39,2.72.58,2.36.48,4.7,1.12,7.09,1.4,7.77.88,15.6.89,23.41,1.1.28.02.55-.05.82-.06,3.23-.08,6.38-1,9.63-.84.16.01.33-.03.49-.05,3.58-.53,7.16-1.06,10.73-1.59.22-.03.44-.04.65-.08,2.18-.44,4.35-.91,6.54-1.32,2.05-.38,4.17-.49,6.15-1.07,3.62-1.05,7.27-1.94,10.95-2.78,1.64-.38,3.26-.86,4.86-1.36,1.47-.45,3.07-.12,4.49-.87.62-.32,1.34-.51,2.03-.62,2.15-.36,4.31-.64,6.48-.98.8-.13,1.58-.36,2.36-.5,1.94-.35,3.88-.63,5.79-1.03,1.27-.27,2.49-.82,3.75-1.1,1.86-.43,3.75-.75,5.63-1.09,1.18-.22,2.39-.31,3.56-.61,2.53-.66,5.03-1.45,7.55-2.11,1.59-.41,3.2-.82,4.83-1,2.45-.27,4.95.19,7.38-.43.19-.05.44.01.64.08,2.56.86,5.5.57,7.72,2.48.15.13.42.11.62.2,1.66.68,3.31,1.37,4.97,2.05.85.35,1.8.55,2.55,1.05.79.53,1.59.7,2.48.76,1.37.1,2.74.27,4.13.29,3.93.03,7.87.42,11.67-1.18,2.24-.94,4.43-1.88,6.27-3.5,1.03-.91,2.11-1.77,3.11-2.71,1.38-1.3,2.84-2.4,4.8-2.65.26-.03.49-.23.75-.33,1.95-.72,3.89-1.47,5.86-2.14.94-.32,1.93-.37,2.9.09.43.2.96.2,1.44.31,2.86.68,5.93.55,8.57,2.14.54.33,1.24.41,1.89.54,1.72.34,3.44.62,5.17.94,3.75.69,7.48,1.12,11.28.28,1.12-.25,2.3-.2,3.42-.44,3.04-.66,5.74-2.4,8.81-2.98,1.09-.98,2.46-1.3,3.79-1.8,1.48-.56,2.98-1.01,4.49-1.47,1.25-.37,2.54-.82,3.61-1.53,2.21-1.45,4.73-1.64,7.17-2.13.65-.13,1.28-.08,1.79-.6.18-.19.45-.34.71-.4,1.64-.38,3.28-.75,4.94-1.06,2.37-.43,4.76-.79,7.14-1.19,3.4-.57,6.87-.91,10.2-1.79,4.12-1.09,8.3-1.42,12.48-1.37,3.05.04,6.08.58,9.15.09,1.62-.26,3.3-.18,4.93-.34,2.73-.27,5.44-.65,8.21-.45,1.91.14,3.86.15,5.76-.11,2.83-.39,5.63-.85,8.5-.65,2.13.15,4.27.55,6.4-.08.25-.08.55-.04.83-.02,4.5.34,9,.63,13.5,1.05,5.58.52,11.16,1.16,16.74,1.74,1.2.12,2.43.09,3.62.26,3.37.48,6.72,1.05,10.1,1.55,4.35.64,8.71,1.26,13.06,1.86,5.16.71,10.31,1.38,15.43,2.36,2.42.47,4.83,1.02,7.31,1.06,1.99.03,3.82.75,5.7,1.3,1.51.44,2.91,1.25,4.52,1.37.99.07,1.98.18,2.96.31.59.08,1.21.16,1.75.4,1.84.81,3.63,1.77,5.72,1.83.32,0,.64.15.95.25,1.34.45,2.68.92,4.02,1.37.62.21,1.27.32,1.88.56,2.9,1.12,5.84,2.18,8.69,3.43,2.76,1.2,5.73,1.39,8.58,2.12.79.21,1.58.42,2.35.7,1.85.67,3.69,1.36,5.44,2.31,1.45.79,3.16,1.13,4.76,1.64,1.4.46,2.81.9,4.21,1.35,1.04.33,2.07.65,3.12.95.48.13.98.14,1.45.31,3.24,1.16,6.63,1.53,10.02,1.83,3.29.29,6.6.35,9.89.57,2.74.18,5.17-.57,7.43-2.12,3.35-2.3,5.96-5.34,8.46-8.46.6-.75.82-1.8,1.4-2.57,1.48-1.99,2.25-4.32,3.21-6.55.62-1.45,1.15-2.93,1.72-4.41.44-1.16,1.09-2.31,1.26-3.51.55-3.64.92-7.31,1.35-10.97.07-.6.05-1.23.2-1.8.94-3.63.74-7.28.41-10.96-.12-1.41-.22-2.83-.17-4.25.08-2.25.29-4.5-.38-6.71-.12-.41-.01-.88-.06-1.32-.1-.91-.19-1.83-.35-2.74-.27-1.49-.6-2.98-.88-4.46-.21-1.13-.46-2.2-1.37-3.07-1.27-1.22-2.48-2.5-3.6-3.85-.73-.88-1.61-1.51-2.65-1.87-1.49-.52-3.03-1.04-4.58-1.29-4.76-.8-9.42-.25-14.14,1.22h0Z"/>
      <g>
        <path class="cls-2" d="M115.71,117.22c-1.41-.04-2.84-.07-4.28-.1-6.31-.14-12.84-.28-19.27-1.01-1.77-.2-3.49-.59-5.16-.97-.7-.16-1.4-.32-2.1-.46-.38-.08-.76-.16-1.14-.25-.51-.12-1.03-.23-1.54-.32-.59-.11-1.19-.21-1.78-.3-.87-.14-1.74-.28-2.61-.46-.51-.1-.94-.27-1.33-.42-.26-.1-.51-.2-.69-.23-.56-.11-1.14-.19-1.76-.27-.48-.06-.95-.12-1.43-.2l-1.09-.17c-1.28-.2-2.6-.41-3.92-.75-.75-.19-1.33-.58-1.79-.88-.22-.14-.44-.29-.58-.34-1.15-.46-2.34-.88-3.49-1.29-.52-.18-1.03-.37-1.55-.55l-1.57-.57c-1.16-.42-2.32-.85-3.48-1.25-.58-.2-1.18-.38-1.77-.56-1.15-.35-2.33-.7-3.5-1.21-1.28-.55-2.47-1.23-3.63-1.89-.5-.29-1-.57-1.51-.85-.08-.04-.32-.18-.32-.18-1.87-.41-3.23-1.42-4.32-2.36-.23-.2-.72-.38-1.19-.56-.32-.12-.65-.25-.96-.38l-.15-.06c-.23-.08-.58-.21-.94-.47-1.88-1.33-3.95-2.37-6.14-3.46-1.06-.53-2.12-1.06-3.15-1.62-.42-.23-.84-.45-1.26-.67-1.4-.74-2.86-1.51-4.2-2.49-1.83-1.35-3.56-2.84-5.22-4.27-.57-.49-1.14-.98-1.72-1.47-1.6-1.35-3.17-2.7-4.65-4.01-.65-.57-1.27-1.17-1.96-1.84-.34-.32-.69-.66-1.07-1.02l-3.06-2.89,4.17-.54,1.13-.15c.82-.11,1.53-.21,2.24-.28.92-.09,1.84-.16,2.76-.24,1.51-.12,3.07-.25,4.57-.43,1.3-.16,2.59-.42,3.95-.7.59-.12,1.17-.24,1.76-.35.2-.04.4-.08.6-.12.64-.13,1.36-.28,2.13-.31,2.48-.08,5.01-.45,7.73-1.13,1.28-.31,2.54-.49,3.77-.66.58-.08,1.16-.16,1.73-.26l.84-.13c1.21-.18,2.35-.36,3.42-.76.86-.33,1.73-.43,2.49-.53.54-.07,1.06-.13,1.46-.26.58-.19,1.17-.36,1.75-.53,1.23-.36,2.4-.71,3.52-1.18.38-.16.75-.33,1.14-.5,1.58-.71,3.36-1.52,5.41-1.68.08-.04.17-.09.25-.14.16-.09.31-.17.47-.25,1.4-.72,3.08-1.55,4.91-2.14.69-.22,1.41-.71,2.19-1.22.36-.24.72-.48,1.08-.7,3.03-1.85,6.16-3.6,9.58-5.34,1.69-.86,3.29-1.82,4.98-2.84.81-.49,1.63-.98,2.45-1.46.52-.3,1.04-.59,1.56-.89,1.12-.63,2.17-1.22,3.18-1.88,1.86-1.21,3.7-2.46,5.55-3.71,1.28-.87,2.56-1.73,3.85-2.59,1.23-.83,2.48-1.64,3.73-2.45.69-.45,1.38-.89,2.06-1.34.09-.06.2-.13.3-.19.12-.07.28-.17.33-.22,1.66-1.68,3.62-2.71,5.5-3.71.52-.27,1.03-.55,1.54-.83,3.02-1.69,6.18-2.23,9.25-2.75l.52-.09c2.91-.5,5.68-1.17,8-1.76.37-.1.8-.3,1.26-.51.57-.26,1.21-.56,1.93-.75,1.37-.36,2.75-.62,4.09-.87.49-.09.98-.18,1.48-.28,2.59-.51,4.9-.76,7.05-.76.24,0,.49,0,.73,0h.18c1.02,0,2.11-.19,3.26-.4.52-.09,1.05-.19,1.57-.27,2.06-.3,4.18-.6,6.26-.95.09-.01.31-.11.47-.18.29-.13.66-.28,1.08-.39.78-.19,1.54-.36,2.31-.54,2.5-.58,5.1-1.18,7.56-1.96,1.05-.33,2.12-.42,3.07-.5.48-.04.96-.08,1.44-.15,1.41-.22,2.81-.45,4.2-.68,1.91-.32,3.83-.64,5.75-.92,1.43-.21,2.88-.36,4.28-.51,1.14-.12,2.27-.24,3.41-.39,1.04-.14,2.06-.33,3.14-.53.47-.09.94-.18,1.42-.26l.14-.03c.12-.03.24-.05.36-.08l1.98-.32c1.85-.3,3.69-.6,5.54-.85,1.2-.17,2.4-.27,3.56-.37.47-.04.95-.08,1.42-.13l3.89-.38c2.42-.24,4.84-.47,7.25-.73,1.06-.11,2.13-.25,3.19-.39,1.82-.24,3.69-.48,5.59-.59,1.23-.07,2.44-.29,3.73-.53,1.06-.19,2.16-.39,3.29-.51,1.48-.15,2.97-.24,4.42-.33,1.21-.08,2.42-.15,3.62-.26l.96-.08c3.28-.29,6.39-.56,9.42-1.39.78-.22,1.53-.25,2.17-.25.2,0,1.11.01,1.11.01h.3c3.4-.11,6.81-.22,10.21-.31.02,0,.13,0,.17,0,2.34-.79,4.6-.85,6.79-.9,1.04-.03,2.02-.05,2.98-.15l.29-.03c.25-.02.63-.06.75-.11,1.46-1.02,3.08-1.31,4.52-1.57.58-.1,1.13-.2,1.63-.34,1.54-.43,3.11-.67,4.62-.89l1.02-.15c1.33-.21,2.69-.42,4.12-.42h.14c2.94.04,5.9.15,8.77.25,1.54.05,3.08.11,4.62.16h0c.33,0,.66-.05,1.01-.1.22-.03.44-.06.66-.09,1.5-.18,3.1-.26,4.86-.26,2.5,0,5,.18,7.43.34l.71.05c1.21.09,2.62.18,3.99.18s2.53-.09,3.6-.27c1.33-.23,2.75-.34,4.34-.34s3.3.12,4.88.23c.94.07,1.88.14,2.82.18.09,0,.19,0,.28,0,.36,0,.73-.02,1.09-.05.45-.03.9-.05,1.34-.05.12,0,.25,0,.37,0,.98.04,1.95.11,2.92.18,1.35.1,2.62.2,3.89.2.46,0,.93-.01,1.39-.04.54-.04,1.09-.05,1.63-.05,1,0,1.98.05,2.93.1.93.05,1.81.1,2.68.1.43,0,.86-.01,1.29-.04,1.21-.08,2.42-.11,3.6-.13,2.35-.04,4.56-.08,6.7-.59.6-.14,1.17-.16,1.64-.16h.77s4.2-.04,4.2-.04c2.1-.03,4.21-.05,6.31-.08,1.12-.02,2.24-.04,3.36-.06,2.02-.04,4.03-.08,6.04-.09h.29c1.91,0,3.81.04,5.72.09l1.46.03c1.73.04,3.44.1,5.16.15l3.68.11c.1,0,.2,0,.3,0,0,0,.06,0,.08,0,1.68-.58,3.28-.66,4.49-.66.61,0,1.23.02,1.84.05.56.02,1.13.04,1.69.04.24,0,.48,0,.72-.01,2.25-.1,4.53-.12,6.73-.14h1.55c1.49-.03,2.98-.03,4.47-.03,1.04,0,2.08,0,3.12,0l2.42-.02c1.37-.01,2.75-.02,4.12-.02h.55c2.5.01,5,.03,7.51.05,0,0,4.06.03,4.06.03.4,0,.74-.02,1.08-.04l.62-.03c.49-.01.96-.04,1.42-.06.79-.04,1.58-.08,2.37-.08.33,0,.66,0,1,.02,2.99.14,5.98.31,8.97.48,2.4.14,4.79.27,7.19.39,1.11.06,2.22.08,3.32.11,1.57.04,3.19.08,4.8.2,2.03.15,4.07.41,6.04.65.8.1,1.6.2,2.4.29l1.52.17c1.87.21,3.81.43,5.72.71,3.92.59,7.5,1.19,10.96,1.82,1.19.23,2.11,1.03,2.61,1.47.57.48,1.25.79,2.18.99,3.36.71,6.71,1.44,10.07,2.17,2.4.52,4.8,1.04,7.2,1.56l2.24.49c4.22.91,8.58,1.86,12.87,2.71,1.28.25,2.58.41,3.96.57.94.11,1.88.22,2.81.36,3.86.58,7.71,1.2,11.57,1.82.54.09,1.11.13,1.72.17,1.3.1,2.77.21,4.24.8,1.43.59,2.92,1.29,4.07,2.76.26.34.55.65.83.97.71.8,1.51,1.69,2.05,2.88,3.15-.88,6.12-1.31,9.05-1.31,1.58,0,3.17.13,4.72.39,1.65.27,3.2.78,4.91,1.38,1.35.47,2.54,1.3,3.52,2.47,1.01,1.21,2.18,2.46,3.46,3.7,1.4,1.34,1.73,3.02,1.95,4.13.12.6.24,1.2.36,1.8.18.9.37,1.79.53,2.7.17.99.28,1.98.38,2.9.03.25.03.52.02.8,0,.07,0,.15,0,.22.66,2.24.57,4.4.47,6.49l-.03.79c-.05,1.22.03,2.48.17,4,.33,3.9.55,7.72-.47,11.64-.05.19-.07.48-.09.78-.02.26-.04.51-.07.77-.11.9-.21,1.82-.31,2.74-.31,2.71-.62,5.52-1.04,8.29-.16,1.11-.6,2.1-.98,2.98-.14.31-.27.63-.39.94l-.37.99c-.43,1.15-.87,2.34-1.38,3.5-.21.48-.41.98-.62,1.47-.75,1.83-1.52,3.72-2.82,5.47-.15.2-.3.53-.45.87-.25.55-.53,1.17-1,1.76-2.5,3.11-5.24,6.36-8.89,8.86-2.41,1.65-5.02,2.49-7.76,2.49-.31,0-.62-.01-.93-.03-1.38-.09-2.75-.16-4.13-.22-1.9-.09-3.86-.18-5.8-.35-3.58-.32-7.08-.71-10.52-1.95-.07-.02-.26-.06-.43-.08-.3-.05-.59-.1-.88-.18-1.03-.29-2.05-.61-3.08-.93l-.5-.16c-1.28-.4-2.56-.81-3.83-1.23-.45-.15-.91-.28-1.37-.41-1.23-.35-2.5-.71-3.72-1.38-1.56-.85-3.19-1.47-5.16-2.19-.69-.25-1.46-.46-2.18-.65-.93-.24-1.9-.42-2.92-.61-1.95-.36-3.97-.74-5.96-1.6-2.15-.94-4.4-1.79-6.58-2.62l-2.02-.77c-.28-.11-.58-.18-.87-.26-.31-.08-.62-.17-.92-.26-.9-.3-1.8-.61-2.69-.92l-1.57-.54c-.06-.02-.13-.05-.19-.07-2.18-.08-4.01-.91-5.63-1.64l-.78-.35c-.25-.11-.68-.17-1.1-.23l-.12-.02c-.94-.13-1.89-.23-2.83-.29-1.34-.1-2.51-.55-3.53-.94-.49-.19-.95-.37-1.4-.5-.4-.12-.79-.24-1.18-.36-1.39-.43-2.7-.84-3.99-.86-2.38-.03-4.64-.49-6.83-.93l-.84-.17c-4.64-.9-9.44-1.55-14.07-2.18l-1.23-.17c-4.12-.57-8.56-1.19-13.08-1.87-1.57-.23-3.14-.48-4.71-.73-1.79-.28-3.58-.56-5.38-.82-.59-.08-1.22-.11-1.88-.14-.55-.03-1.1-.05-1.65-.11-2.05-.21-4.08-.43-6.12-.65-3.48-.37-7.08-.76-10.61-1.09-3.12-.29-6.31-.52-9.4-.75-1.35-.1-2.71-.2-4.06-.3-.11,0-.18-.02-.24-.02-.91.26-1.92.39-3.05.39-.93,0-1.83-.08-2.69-.17-.41-.04-.82-.08-1.22-.1-.42-.03-.84-.04-1.25-.04-1.96,0-3.92.27-5.98.56l-.85.12c-1.1.15-2.29.23-3.54.23-.84,0-1.72-.03-2.64-.1-.5-.04-1-.05-1.51-.05-1.69,0-3.37.18-5.14.37l-1.21.13c-.76.08-1.51.11-2.24.13-.91.04-1.78.07-2.59.19-.96.15-1.98.22-3.12.22s-2.34-.08-3.46-.15c-1-.07-1.95-.13-2.9-.14h-.77c-4.18,0-7.83.42-11.17,1.31-2.43.64-4.91,1-7.3,1.36-1.03.15-2.05.3-3.07.47-.87.15-1.73.29-2.6.43-1.51.24-3.02.49-4.52.76-1.56.29-3.08.63-4.7,1h0c-.83.78-1.79.91-2.38.99-.11.01-.22.03-.33.05-.49.1-.99.19-1.48.28-1.83.32-3.56.63-4.98,1.57-1.33.87-2.84,1.39-4.14,1.78-1.3.38-2.83.85-4.37,1.42-.29.11-.58.21-.88.31-.92.32-1.72.59-2.27,1.1l-.42.38-.56.1c-1.4.26-2.76.82-4.21,1.41-1.43.59-2.91,1.2-4.54,1.55-.68.15-1.32.2-1.94.25-.53.04-1.03.09-1.46.18-1.56.35-3.16.52-4.89.52-2.66,0-5.24-.42-7.19-.78-.64-.12-1.28-.23-1.93-.35-1.09-.19-2.17-.39-3.26-.6l-.3-.06c-.66-.12-1.47-.27-2.24-.73-1.45-.87-3.19-1.12-5.03-1.38-.97-.14-1.97-.28-2.97-.52-.12-.03-.24-.04-.36-.06-.39-.05-.92-.13-1.46-.38-.21-.1-.41-.14-.64-.14s-.5.05-.79.14c-1.34.45-2.72.97-4.06,1.47-.58.22-1.15.43-1.73.65-.26.15-.63.35-1.13.43-1.24.16-2.3.78-3.74,2.13-.66.62-1.34,1.2-2.02,1.78-.38.33-.77.65-1.15.98-2.16,1.91-4.74,2.98-6.82,3.85-2.93,1.23-5.88,1.39-8.38,1.39-.77,0-1.54-.02-2.31-.03-.59-.01-1.18-.03-1.77-.03-.93,0-1.84-.09-2.72-.17-.5-.04-1-.09-1.5-.12-.96-.07-2.19-.25-3.46-1.08-.3-.2-.75-.35-1.22-.52-.34-.11-.67-.23-.99-.36l-4.86-2c-.31-.06-.81-.18-1.28-.58-1.04-.89-2.43-1.13-4.04-1.41-.93-.16-1.9-.33-2.87-.64-1.32.29-2.55.33-3.71.33h-1.69c-.57-.01-1.25,0-1.91.07-1.52.17-3.13.58-4.55.94-1.26.33-2.51.69-3.76,1.05-1.26.36-2.52.73-3.79,1.06-.83.22-1.64.33-2.42.44-.42.06-.85.12-1.27.2l-1.23.22c-1.49.27-2.91.53-4.32.84-.52.12-1.06.3-1.64.49-.68.22-1.38.46-2.13.62-1.33.29-2.68.51-3.97.73-.63.1-1.26.21-1.9.32-.33.06-.65.14-.98.21-.48.11-.96.22-1.44.3-.91.14-1.83.28-2.75.41-1.23.18-2.47.36-3.7.57-.64.11-1.11.24-1.43.41-1.19.63-2.4.73-3.37.81-.55.04-1.06.08-1.47.21-1.58.49-3.27,1-5,1.4-3.24.74-7.06,1.65-10.83,2.75-1.42.41-2.84.6-4.21.79-.72.1-1.44.19-2.14.32-1.39.26-2.77.54-4.15.83-.79.16-1.57.32-2.36.48-.18.04-.38.06-.57.08-.05,0-.1,0-.15.02l-10.75,1.6c-.19.03-.46.07-.77.07h-.12c-.23-.01-.45-.02-.67-.02-1.41,0-2.83.2-4.34.41-1.44.2-2.93.41-4.47.45-.04,0-.11.01-.17.02-.21.02-.42.04-.63.04h-.15ZM107.54,100.34c1.38,0,2.53.08,3.58.24.14-.04.3-.08.48-.1l.22-.02c.55-.05,1.11-.11,1.72-.11.55,0,1.03.02,1.52.04.46.02.92.04,1.37.04.17,0,.35,0,.52,0,.42-.02.88-.08,1.37-.15.67-.09,1.37-.19,2.12-.19.23,0,.46,0,.68.03.41.04.82.05,1.22.05,1.66,0,3.32-.28,5.08-.57.44-.07.88-.15,1.32-.21,2.37-.37,4.78-.85,7.11-1.31,1.16-.23,2.33-.46,3.5-.68.46-.08.88-.11,1.25-.13l.28-.02c.19-.01.4-.02.6-.02h.48c.34,0,.46-.02.51-.03,2.56-.84,5.16-1.73,7.67-2.6l2.84-.98c.14-.05.26-.1.38-.15.29-.12.64-.26,1.05-.36.4-.09.81-.22,1.21-.34,1.06-.32,2.27-.67,3.6-.67.37,0,.74.03,1.1.08.16.02.32.04.47.04.3,0,.5-.06.74-.23.67-.48,1.41-.58,1.95-.65l.26-.04c.5-.08.98-.12,1.46-.16.7-.05,1.37-.11,1.81-.29,1.88-.8,3.79-1.27,5.63-1.72l1.96-.48c.8-.19,1.56-.37,2.3-.59.98-.29,1.96-.6,2.94-.91,1.66-.52,3.38-1.06,5.1-1.53,2.02-.55,4.21-1.05,6.52-1.47l.28-.05c2.1-.39,4.27-.79,6.5-.87,2.63-.1,4.81-.24,6.84-1.12.6-.26,1.2-.35,1.67-.42.12-.02.25-.04.37-.06l1.02-.19c1-.18,2-.37,3.01-.53l.28-.05c1.89-.31,3.84-.64,5.86-.64,1.15,0,2.2.1,3.22.32l.68.14c.67.14,1.34.28,2.01.4,1.51.25,3.06.5,4.64.77-.01-.5-.02-1-.02-1.5-.01-1.34-.03-2.61-.17-3.86-.26-2.39-.45-4.6-.58-6.78-.05-.83-.09-1.67-.12-2.51-.09-2.01-.17-3.91-.44-5.8-.34-2.45-.63-4.92-.92-7.32-.18-1.53-.36-3.07-.56-4.6-.1-.74-.22-1.48-.35-2.22-.15-.89-.3-1.81-.41-2.74-.16-1.37-.2-2.72-.23-4.03-.02-.65.18-1.14.31-1.44l.05-.12.92-2.66,2.23,1.7.1.06c.35.22.99.62,1.29,1.44.17.48.26.92.33,1.3.05.29.11.59.18.72.95,1.97,1.57,4.15,1.9,6.67.15,1.11.27,2.22.4,3.34.15,1.31.29,2.62.48,3.93.08.61.22,1.23.35,1.88.18.85.37,1.73.47,2.66.2,1.89.38,3.34.91,4.74.43,1.13.91,2.64.88,4.22-.02.8.08,1.42.34,2.09.5,1.33.98,2.76,1.21,4.27.19,1.23.3,2.47.4,3.66.07.86.15,1.71.25,2.57l.04.29c.17,1.31.31,2.44,1,3.21.18.2.36.39.54.58.43.45.92.96,1.34,1.56,1.15,1.6,2.1,1.82,2.87,1.82h.19c.54-.03,1.09-.05,1.64-.06,1.42-.03,2.77-.06,3.91-.4,2.1-.62,4.24-1.71,6.37-3.25.11-.08.18-.13.24-.19,1.33-1.67,3.26-3.68,6.28-4.23.23-.04.56-.18.98-.42,4.14-2.31,8.93-3.61,14.64-3.97.87-.05,1.75-.17,2.66-.29-.32-.43-.64-.97-.76-1.63-.09-.51-.34-1.04-.63-1.66-.29-.61-.61-1.3-.81-2.08-.11-.42-.22-.83-.33-1.24-.45-1.61-.91-3.28-.94-5.15-.01-.7-.16-1.46-.33-2.27-.08-.38-.15-.76-.22-1.14-.07-.41-.14-.82-.22-1.23-.16-.88-.33-1.79-.44-2.73-.09-.78-.12-1.54-.15-2.28-.02-.55-.05-1.1-.09-1.65-.02-.28-.08-.55-.13-.82-.09-.46-.19-.98-.21-1.55-.04-1.08-.05-2.17-.07-3.26-.02-1.72-.04-3.35-.16-5l-.04-.52c-.13-1.84-.25-3.59-.71-5.25-.43-1.51-.21-2.93-.02-4.19.06-.4.12-.8.16-1.21.22-2.55.81-4.93,1.48-7l-.69.07c-1.86.18-3.73.36-5.59.52-1.02.09-2.05.16-3.07.23-1.32.09-2.64.19-3.97.32-2.37.24-4.8.56-7.14.87l-.76.1c-.5.07-1,.16-1.5.25-.79.14-1.6.29-2.46.36-1.07.1-2.16.15-3.24.21-1.12.06-2.19.11-3.25.21l-4.03.39c-5.43.52-11.04,1.07-16.53,1.74-1.91.23-3.82.44-5.73.64-4.36.47-8.88.95-13.23,1.76-2.67.5-5.39.8-8.02,1.08-1.33.15-2.66.29-3.99.46-1.84.24-3.68.48-5.52.73-3,.4-6,.8-9,1.16-.8.09-1.58.22-2.36.35-.92.15-1.87.31-2.85.41-1.82.19-3.62.64-5.53,1.13-.68.17-1.37.35-2.06.51-.44.11-.91.27-1.41.44-.43.14-.85.29-1.28.41-.46.13-.89.18-1.24.22-.14.02-.29.03-.43.05-.56.1-1.13.17-1.71.25-1.16.15-2.26.29-3.17.65-2.21.87-4.44,1.36-6.6,1.85-.57.13-1.15.26-1.72.39-.79.18-1.56.3-2.31.41-.96.14-1.86.28-2.66.54-1.99.65-3.85.75-5.24.77-.96.01-2.01.29-2.82.53-2.56.76-5.11,1.58-7.93,2.51l-.19.06c-1.09.36-2.12.7-3.03,1.16-.91.46-1.8.98-2.74,1.52-.84.48-1.67.97-2.53,1.42-.97.51-1.95.96-2.9,1.41-.61.28-1.22.57-1.82.87-.04.03-.1.08-.16.13-.12.09-.23.19-.35.27l-.55.38c-.44.31-.88.62-1.33.9-.49.3-1,.58-1.5.87-.27.15-.54.3-.81.46-.47.27-.94.57-1.41.87-1.09.7-2.22,1.42-3.51,1.94-1.7.69-3.25,1.69-4.89,2.75-1.28.83-2.61,1.69-4.05,2.41-.68.34-1.36.84-2.07,1.36-.59.43-1.2.88-1.87,1.28-1.98,1.2-4.01,2.37-5.98,3.49l-2.39,1.38c-.72.42-1.47.86-2.3,1.23-.65.29-1.32.54-1.99.78-.69.25-1.33.49-1.94.77-1.34.61-2.73,1.25-3.92,2.05-1.04.69-2.02,1.12-3.1,1.33-1.37.27-2.6.51-3.77.87-.8.25-1.6.53-2.45.84-.85.31-1.73.63-2.63.9-1.15.35-2.31.64-3.43.93-.88.22-1.77.45-2.64.7-3.24.92-6.28,1.44-9.29,1.59.42.2.84.4,1.27.58.38.16.78.28,1.18.41.87.28,1.87.6,2.78,1.19,1.47.94,3.15,1.52,4.93,2.13.92.31,1.86.64,2.8,1.02.39.16.85.28,1.35.4.98.25,2.08.53,3.14,1.24.46.3.95.61,1.39.77,2.46.86,4.71,1.6,6.89,2.25.23.07.56.11.92.15.64.07,1.43.17,2.21.52.95.43,2.02.65,3.16.87.94.19,1.92.38,2.91.72,1.48.5,3.02.97,4.51,1.42.67.2,1.33.41,1.99.61.06.02.11.02.16.04.13.03.26.05.39.09,2.73.75,5.5,1.05,8.43,1.36,1.75.19,3.56.38,5.35.68.88.14,1.86.21,3.1.21.68,0,1.36-.02,2.04-.04.72-.02,1.44-.04,2.15-.04ZM545.35,83.23c.96.26,1.92.51,2.88.75.88.22,1.76.45,2.64.69,1.21.33,2.42.69,3.62,1.05l1.78.52c.2.06.38.11.57.16.45.12.95.26,1.46.45,1.75.69,3.5,1.38,5.24,2.08,1.19.47,2.38.95,3.57,1.42.65.26,1.31.47,2.02.7.29.09.59.18.9.25,2.27.44,4.56.88,6.85,1.32.45.09.88.18,1.32.27,1.22.25,2.37.48,3.53.62,0,0,.01,0,.02,0,.29,0,.52-.08.59-.12,2.1-1.5,3.47-2.81,4.45-4.24.22-.32.41-.75.62-1.21.14-.31.28-.62.43-.92.28-.54.57-1.07.85-1.6.96-1.76,1.87-3.43,2.27-5.25.35-1.58.83-3.17,1.44-4.7.83-2.08,1.15-4.1,1-6.19-.05-.78.11-1.49.24-2.06.04-.18.08-.35.11-.53.06-.35.14-.68.22-1.02.12-.53.24-1.04.26-1.46.08-1.77.11-3.58.14-5.33l.04-2.14c0-.09,0-.2,0-.31-.05-.66-.1-1.32-.16-1.98-.14-1.57-.28-3.19-.3-4.83-.02-1.13-.26-2.11-.74-3-.36-.66-.86-1.3-1.43-1.81-.08-.01-.16-.02-.24-.04-.41-.07-.98-.16-1.54-.46-.51-.27-1.1-.4-1.83-.4-.66,0-1.37.11-2.04.22-.84.15-1.69.32-2.54.49-1.5.3-3.05.62-4.64.81-1.91.23-3.86.58-5.75.92l-1.63.29c-.38.07-.76.16-1.14.25-.58.14-1.18.29-1.83.37l-.88.12c-1.99.26-4.04.54-6.12.65-.25.01-.51.02-.76.02-.8,0-1.58-.06-2.33-.11-.7-.05-1.36-.1-2.01-.1-3.95-.01-7.49-1.25-10.92-2.44l-1.19-.41c-.76-.26-1.46-.58-2.14-.89-.92-.42-1.79-.81-2.66-1-1.05-.24-2.23-.55-3.15-1.35-1.23-1.05-2.68-1.82-4.22-2.64l-1.17-.63c-1.57-.85-3.18-1.72-4.69-2.86.73,1.05,1.42,2.11,2.1,3.14.52.8,1.04,1.6,1.58,2.38.34.5.71,1,1.07,1.49,1.15,1.56,2.34,3.18,3.02,5.24,0,0,.82,1.22,1.2,1.79,1,1.49,2.04,3.02,3.01,4.59.8,1.28,1.43,2.63,1.99,3.91.52,1.17,1,2.37,1.46,3.54l.47,1.18c.13.31.26.62.39.93.39.92.79,1.87,1.08,2.9.24.82.4,1.63.55,2.42.11.59.22,1.17.37,1.75.11.41.24.81.36,1.21.41,1.29.88,2.75.76,4.44-.02.27.01.61.05.96.05.5.1,1.06.05,1.67-.08.96-.22,1.89-.36,2.8-.07.43-.13.85-.19,1.28ZM295.52,78.83c1.13.21,2.25.39,3.38.58l1.07.17c.06,0,.12.02.19.04.99-.34,1.97-.53,2.92-.72,1.55-.31,2.89-.58,3.97-1.35.45-.33.95-.46,1.29-.52,1.8-.3,3.52-.96,5.35-1.67,1.02-.39,2.07-.8,3.15-1.15,2.04-.65,4.18-1.25,6.55-1.83.98-.24,1.96-.41,2.91-.58.76-.14,1.52-.27,2.27-.44,1.57-.34,2.8-.68,3.89-1.07.07-.03.21-.13.36-.24.11-.87.46-1.61.74-2.2.26-.54.42-.9.37-1.08-.12-.4-.18-.97.16-1.63.06-.22.12-.42.18-.61.18-.6.36-1.17.47-1.73.15-.71.27-1.41.39-2.12.15-.9.31-1.83.53-2.77.18-.79.4-1.56.62-2.3.26-.88.5-1.7.65-2.52.52-2.75,1.45-5.37,2.76-7.8.66-1.23,1.16-2.55,1.68-3.94.56-1.48,1.14-3,1.94-4.48.26-.48.47-1.05.69-1.64.43-1.15.92-2.46,1.94-3.65.83-.97,1.52-2.12,2.26-3.34.36-.59.72-1.19,1.09-1.76l.08-.12c.18-.29.44-.68.81-1.04.71-.67,1.42-1.33,2.13-1.98.47-.44.95-.88,1.42-1.32-1.53.17-3.17.25-5,.25-2.05,0-4.11-.1-6.11-.2l-.58-.03c-2.3-.12-4.61-.3-6.85-.47-2.85-.22-5.8-.45-8.69-.54-4.24-.14-9.26-.37-14.29-.97-.13-.01-.27-.03-.42-.03s-.2.01-.2.02c-1.57.54-3.16.57-4.56.6-.89.02-1.73.04-2.51.17-.57.1-1.18.15-1.9.15-.43,0-.87-.02-1.3-.04-.38-.02-.76-.03-1.14-.03-.67,0-1.18.06-1.63.18-1.48.41-2.96.53-4.39.65-.53.05-1.07.09-1.59.15-1.4.16-2.4.57-3.16,1.3-.79.75-1.56,1.54-2.33,2.32l-1.01,1.02c-.46.46-.71,1.09-.8,2.04,0,.06,0,.12,0,.18,0,.45,0,1.2-.5,1.9-.3.42-.32.96-.33,1.88,0,.35,0,.71-.03,1.05l-.03.53c-.1,1.47-.19,2.86.08,4.14.04.2.1.37.17.55.17.53.39,1.18.37,1.96-.02.85-.1,1.7-.18,2.51-.09.91-.17,1.76-.16,2.59,0,.59-.04,1.15-.08,1.7-.1,1.4-.14,2.3.33,3.07.46.74.33,1.5.28,1.83h0c.05.94,0,1.8-.05,2.64-.05.93-.1,1.82-.01,2.67.04.36.18.78.33,1.23.28.84.65,1.95.49,3.21.26.76.42,1.5.57,2.23.25,1.22.47,2.27,1.15,3,.6.66.65,1.44.67,1.81v.11c.13.48.2,1.04.26,1.54.12,1.01.21,1.6.6,1.99.24.24.46.49.68.74.2.22.39.45.6.64,1.61,1.48,3.23,2.94,4.86,4.38.06.05.12.11.18.16ZM484.47,43.22c-.15.06-.5.41-.71.62l-.2.2c-.59.57-1.5,1.7-1.03,2.97.69,1.87,1.87,3,2.61,3h.11s.11.01.11.01c.17.02.33.03.5.03,2.2,0,4.01-1.6,4.16-2.68.01-.09.02-.29-.05-.67-.05-.26-.13-.54-.21-.82-.11-.41-.23-.83-.3-1.25-.07-.4-.25-.87-1.35-1.35-.18-.08-.37-.17-.55-.26-.36-.17-.85-.41-1.05-.41,0,0-.06.03-.15.11-.43.36-.92.54-1.44.54h-.27l-.15-.04ZM385.79,39.26c-1.34,0-2.93.68-3.39,2.6-.12.48-.15,1.04-.19,1.64-.03.41-.06.83-.11,1.24-.05.39-.03.71.69,1.1.7.37,1.47.71,2.23,1.03,0,0,.02,0,.03.01.22-.11.48-.21.77-.27.79-.16,1.52-.62,2.36-1.14.27-.17.54-.34.82-.5.19-.11.32-.42.49-.88-.03-.07-.06-.15-.09-.22-.09-.25-.19-.49-.25-.72-.16-.58-.33-1.14-.5-1.69-.19-.6-.62-1.66-1.36-1.92-.5-.18-1.01-.27-1.51-.27ZM534.15,28.44c.67.5,1.28.9,1.88,1.23.68.38,1.42.7,2.2,1.05.63.28,1.27.56,1.88.88.86.43,1.71.88,2.57,1.33,1.15.6,2.33,1.23,3.5,1.78l.56.27c1.28.61,2.49,1.19,3.65,1.39,2.61.47,5.35.72,7.99.96l1.31.12c.91.09,1.78.13,2.58.13.5,0,1-.02,1.5-.05,1.48-.11,2.95-.31,4.5-.51.2-.03.39-.05.59-.08-.6-.74-1.19-1.44-1.78-2.14-.05-.01-.09-.02-.14-.03-.47-.11-.95-.2-1.43-.29-.46-.08-.92-.17-1.38-.27-.75-.16-1.5-.34-2.26-.52-1.53-.36-2.97-.7-4.43-.91-.74-.1-1.49-.18-2.24-.26-1.65-.17-3.35-.35-5.06-.77-.61-.15-1.27-.23-1.97-.32-1.33-.17-2.83-.36-4.29-1.06-.01,0-.03,0-.04,0-.19-.01-.37-.03-.55-.06l-2.13-.39c-1.46-.26-2.92-.53-4.37-.82-.56-.11-1.12-.26-1.67-.41-.33-.09-.66-.17-.97-.25ZM413.6,22.41c-.16,0-.31,0-.47.01-.83.04-1.43.36-2.39,1.28-.24.23-.48.38-.63.48l-.08.06c-.66.42-.88,1.09-.94,1.58-.12.94.22,1.97.89,2.68.68.72,1.56.88,2.17.88.26,0,.53-.03.81-.08,1.44-.28,2.72-1.02,3.81-2.2.36-.39.69-1.04.35-2.87-.04-.23-.17-.53-.31-.86-.02-.05-.05-.11-.07-.17-.82-.54-1.83-.8-3.14-.8Z"/>
        <path class="cls-1" d="M462.99,4c.3,0,.6,0,.9.02,5.39.25,10.78.6,16.15.87,2.68.14,5.39.1,8.07.31,2.8.21,5.57.61,8.36.94,2.4.28,4.79.52,7.17.88,3.64.55,7.27,1.14,10.89,1.81.6.11,1.17.58,1.66,1.01.91.77,1.93,1.2,3.09,1.44,5.76,1.21,11.51,2.49,17.27,3.72,5.04,1.09,10.08,2.2,15.14,3.2,2.26.45,4.58.6,6.86.94,3.86.58,7.7,1.2,11.55,1.82,1.84.29,3.74.13,5.53.86,1.24.51,2.4,1.05,3.24,2.14.97,1.26,2.25,2.27,2.8,3.85.21.39.64.66.99,1.06,3.26-1.02,6.48-1.59,9.72-1.59,1.46,0,2.92.12,4.39.36,1.55.25,3.09.78,4.58,1.29,1.03.35,1.91.99,2.65,1.87,1.12,1.35,2.34,2.63,3.6,3.85.9.86,1.15,1.93,1.37,3.07.29,1.49.62,2.97.88,4.46.16.91.26,1.82.35,2.74.05.43-.06.91.06,1.32.67,2.22.47,4.46.38,6.71-.05,1.41.05,2.84.17,4.25.32,3.67.53,7.33-.41,10.96-.15.58-.13,1.2-.2,1.8-.43,3.66-.8,7.32-1.35,10.97-.18,1.21-.82,2.35-1.26,3.51-.56,1.47-1.08,2.96-1.72,4.41-.97,2.24-1.73,4.56-3.21,6.55-.57.77-.8,1.82-1.4,2.57-2.51,3.13-5.11,6.17-8.46,8.46-2.03,1.39-4.21,2.14-6.63,2.14-.26,0-.53,0-.8-.03-3.29-.22-6.6-.29-9.89-.57-3.39-.3-6.78-.67-10.02-1.83-.47-.16-.97-.17-1.45-.31-1.04-.3-2.08-.62-3.12-.95-1.4-.44-2.81-.88-4.21-1.35-1.6-.53-3.31-.85-4.76-1.64-1.75-.95-3.59-1.64-5.44-2.31-.77-.28-1.56-.49-2.35-.7-2.85-.74-5.83-.92-8.58-2.12-2.85-1.25-5.78-2.31-8.69-3.43-.61-.23-1.26-.35-1.88-.56-1.34-.45-2.68-.91-4.02-1.37-.31-.1-.63-.25-.95-.25-2.09-.06-3.87-1.01-5.72-1.83-.54-.24-1.16-.31-1.75-.4-.98-.13-1.97-.24-2.96-.31-1.61-.12-3-.93-4.52-1.37-1.88-.55-3.71-1.27-5.7-1.3-2.48-.03-4.9-.58-7.31-1.06-5.11-.99-10.27-1.66-15.43-2.36-4.36-.6-8.71-1.21-13.06-1.86-3.36-.5-6.72-1.06-10.1-1.55-1.2-.17-2.42-.14-3.62-.26-5.58-.57-11.16-1.21-16.74-1.74-4.49-.42-9-.71-13.5-1.05-.15-.01-.3-.03-.45-.03-.13,0-.26.01-.38.04-.87.26-1.75.35-2.62.35-1.26,0-2.52-.18-3.78-.26-.47-.03-.93-.05-1.39-.05-2.39,0-4.74.37-7.11.7-1.07.15-2.17.21-3.26.21-.83,0-1.67-.04-2.49-.1-.55-.04-1.1-.06-1.65-.06-2.2,0-4.37.29-6.55.51-1.64.17-3.31.09-4.93.34-.94.15-1.88.2-2.82.2-2.11,0-4.22-.26-6.33-.29-.27,0-.53,0-.8,0-3.92,0-7.83.36-11.68,1.38-3.33.88-6.79,1.22-10.2,1.79-2.38.4-4.77.76-7.14,1.19-1.65.31-3.29.68-4.94,1.06-.25.06-.52.21-.71.4-.51.52-1.15.47-1.79.6-2.44.5-4.97.69-7.17,2.13-1.08.71-2.36,1.16-3.61,1.53-1.51.44-3.01.91-4.49,1.47-1.33.5-2.71.81-3.79,1.8-3.08.57-5.77,2.32-8.81,2.98-1.12.25-2.3.19-3.42.44-1.49.33-2.97.47-4.45.47-2.28,0-4.55-.32-6.83-.74-1.72-.32-3.45-.6-5.17-.94-.65-.13-1.35-.21-1.89-.54-2.65-1.59-5.71-1.46-8.57-2.14-.48-.11-1.01-.1-1.44-.31-.49-.23-.99-.33-1.48-.33-.48,0-.96.09-1.42.25-1.97.66-3.9,1.42-5.86,2.14-.26.09-.49.29-.75.33-1.95.25-3.42,1.35-4.8,2.65-1,.94-2.08,1.81-3.11,2.71-1.84,1.62-4.02,2.57-6.27,3.5-2.49,1.05-5.04,1.24-7.61,1.24-1.35,0-2.71-.05-4.06-.06-1.37-.01-2.75-.2-4.13-.29-.89-.07-1.69-.24-2.48-.76-.75-.5-1.7-.7-2.55-1.05-1.66-.68-3.31-1.37-4.97-2.05-.2-.08-.47-.06-.62-.2-2.23-1.9-5.16-1.62-7.72-2.48-.15-.05-.32-.1-.48-.1-.06,0-.11,0-.16.02-1.18.3-2.37.35-3.56.35-.56,0-1.13-.01-1.69-.01-.71,0-1.42.02-2.13.09-1.62.18-3.24.59-4.83,1-2.53.66-5.03,1.45-7.55,2.11-1.16.3-2.37.39-3.56.61-1.89.35-3.77.67-5.63,1.09-1.27.29-2.49.83-3.75,1.1-1.92.41-3.86.69-5.79,1.03-.8.14-1.57.38-2.36.5-2.15.34-4.32.63-6.48.98-.69.12-1.42.29-2.03.62-1.42.75-3.02.42-4.49.87-1.61.5-3.23.98-4.86,1.36-3.67.84-7.33,1.73-10.95,2.78-1.99.58-4.11.69-6.15,1.07-2.19.41-4.36.88-6.54,1.32-.21.04-.44.05-.65.08-3.58.53-7.16,1.06-10.73,1.59-.16.03-.32.05-.48.05,0,0,0,0-.01,0-.26-.01-.52-.02-.77-.02-2.98,0-5.89.79-8.86.86-.26,0-.51.06-.76.06-.02,0-.04,0-.06,0-7.81-.21-15.64-.22-23.41-1.1-2.39-.27-4.73-.92-7.09-1.4-.91-.19-1.81-.41-2.72-.58-1.45-.27-2.91-.45-4.35-.75-.69-.14-1.33-.52-2.02-.66-1.08-.22-2.18-.3-3.27-.48-1.62-.27-3.26-.48-4.84-.88-.76-.2-1.39-.86-2.13-1.15-1.68-.67-3.4-1.25-5.09-1.86-1.69-.61-3.38-1.24-5.08-1.83-1.71-.58-3.48-.99-5.11-1.71-1.72-.74-3.33-1.77-4.99-2.67-.24-.13-.47-.3-.73-.35-1.39-.27-2.48-1.02-3.55-1.94-.71-.62-1.74-.85-2.63-1.26-.25-.12-.53-.18-.75-.33-2.97-2.1-6.32-3.49-9.5-5.22-1.77-.97-3.62-1.84-5.24-3.02-2.38-1.76-4.58-3.75-6.83-5.66-1.55-1.31-3.1-2.64-4.62-3.98-.94-.84-1.83-1.73-2.98-2.82,1.32-.17,2.31-.33,3.3-.42,2.46-.24,4.94-.37,7.39-.68,1.96-.24,3.89-.7,5.83-1.06.81-.15,1.62-.37,2.44-.4,2.76-.09,5.46-.52,8.14-1.19,1.75-.43,3.56-.59,5.35-.89,1.56-.25,3.11-.42,4.64-.99,1.21-.46,2.61-.36,3.85-.76,1.81-.58,3.66-1.02,5.44-1.78,1.92-.81,3.83-1.89,6.02-2.04.46-.03.9-.36,1.35-.58,1.51-.77,3.02-1.51,4.65-2.03,1.32-.43,2.48-1.38,3.7-2.12,3.08-1.88,6.23-3.63,9.45-5.27,2.58-1.31,5.02-2.9,7.52-4.36,1.61-.93,3.27-1.81,4.82-2.82,3.17-2.06,6.27-4.22,9.42-6.31,1.91-1.28,3.86-2.52,5.78-3.78.32-.21.68-.4.94-.67,1.89-1.91,4.32-2.92,6.62-4.21,2.87-1.61,6.04-2.08,9.12-2.61,2.76-.47,5.46-1.11,8.16-1.79,1.11-.29,2.1-.98,3.2-1.27,1.8-.47,3.63-.77,5.45-1.13,2.2-.43,4.41-.72,6.66-.72.23,0,.45,0,.68,0,.08,0,.15,0,.23,0,1.7,0,3.42-.44,5.13-.69,2.1-.3,4.2-.6,6.3-.96.58-.1,1.12-.45,1.71-.6,3.34-.8,6.7-1.49,9.99-2.53,1.33-.42,2.82-.36,4.22-.58,3.31-.51,6.61-1.11,9.92-1.59,2.54-.37,5.11-.57,7.66-.9,1.56-.2,3.09-.53,4.64-.8.16-.03.32-.08.48-.1,2.49-.39,4.97-.82,7.46-1.16,1.63-.23,3.27-.34,4.9-.49,3.72-.37,7.44-.72,11.16-1.11,2.9-.3,5.78-.8,8.68-.97,2.42-.14,4.73-.8,7.11-1.05,2.67-.27,5.36-.35,8.02-.59,3.6-.32,7.21-.57,10.73-1.54.52-.15,1.07-.17,1.63-.17.37,0,.74.01,1.11.01.12,0,.25,0,.37,0,3.4-.11,6.81-.21,10.21-.31.01,0,.02,0,.03,0,.1,0,.19.02.28.02.06,0,.12,0,.17-.03,3.11-1.15,6.4-.72,9.59-1.05.65-.07,1.4-.1,1.9-.45,1.71-1.19,3.74-1.15,5.62-1.67,1.51-.43,3.09-.65,4.65-.88,1.52-.23,3.04-.51,4.56-.51.04,0,.08,0,.12,0,4.45.06,8.9.27,13.36.4.04,0,.08,0,.12,0,.61,0,1.22-.13,1.83-.2,1.55-.18,3.1-.25,4.64-.25,2.67,0,5.33.2,8,.39,1.36.1,2.75.19,4.12.19s2.64-.08,3.93-.3c1.34-.23,2.67-.31,4-.31,2.54,0,5.07.3,7.62.41.12,0,.25,0,.37,0,.81,0,1.62-.1,2.43-.1.1,0,.2,0,.3,0,2.29.09,4.6.38,6.88.38.51,0,1.02-.01,1.53-.05.5-.04,1-.05,1.5-.05,1.88,0,3.75.2,5.6.2.48,0,.96-.01,1.44-.05,3.54-.25,7.12.07,10.62-.77.38-.09.78-.11,1.18-.11.25,0,.51,0,.76,0,0,0,.02,0,.02,0,3.51-.05,7.02-.08,10.53-.14,3.13-.05,6.26-.14,9.38-.15.09,0,.18,0,.28,0,2.38,0,4.76.07,7.14.12,2.86.07,5.71.17,8.57.26.2,0,.41.02.62.02.25,0,.49-.02.7-.1,1.27-.45,2.56-.56,3.86-.56,1.18,0,2.36.09,3.53.09.27,0,.54,0,.81-.02,2.73-.13,5.48-.12,8.21-.15,2.53-.02,5.05-.01,7.58-.03,2.2-.01,4.39-.04,6.59-.04.16,0,.32,0,.49,0,3.85.02,7.7.05,11.55.08.03,0,.05,0,.08,0,.58,0,1.15-.05,1.73-.08,1.23-.04,2.47-.14,3.7-.14M302.62,18.96c-.81,0-1.62-.07-2.44-.07-.72,0-1.45.05-2.17.26-1.82.5-3.78.53-5.67.74-1.62.19-3.11.69-4.31,1.84-1.15,1.1-2.25,2.25-3.37,3.37-.9.9-1.25,2.04-1.37,3.26-.04.38.05.86-.14,1.12-.89,1.23-.63,2.63-.72,3.96-.11,1.73-.28,3.48.08,5.21.14.69.52,1.37.5,2.05-.04,1.73-.35,3.45-.34,5.18.02,1.94-.58,3.95.55,5.8.12.19-.04.53-.02.79.11,1.83-.24,3.64-.05,5.51.15,1.51,1.18,2.85.74,4.43.9,2.09.64,4.59,2.33,6.41.18.2.11.63.19.95.38,1.55.12,3.3,1.41,4.57.46.46.86,1,1.34,1.43,1.61,1.48,3.24,2.94,4.88,4.4.28.25.6.53.94.6,1.56.3,3.13.54,4.7.8.2.03.43.12.63.12.06,0,.11,0,.16-.03,2.55-.97,5.46-.81,7.78-2.48.13-.09.3-.15.46-.17,3.07-.51,5.84-1.94,8.78-2.88,2.12-.68,4.26-1.27,6.42-1.79,1.69-.41,3.44-.63,5.14-1.01,1.39-.3,2.78-.66,4.12-1.14.62-.22,1.14-.76,1.7-1.17-.35-1.75,1.57-3.03,1-4.83-.02-.08.09-.19.12-.3.25-.89.56-1.77.74-2.67.34-1.61.54-3.24.9-4.84.37-1.65.98-3.25,1.29-4.91.49-2.55,1.36-5.01,2.55-7.23,1.45-2.72,2.15-5.72,3.62-8.41.86-1.61,1.12-3.46,2.39-4.95,1.36-1.6,2.35-3.54,3.51-5.31.18-.28.35-.57.59-.79,1.64-1.54,3.29-3.04,4.91-4.59.57-.51,1.08-1.16,1.81-1.98-1.25-.09-2.31-.3-3.3-.3-.25,0-.49.01-.74.05-1.84.24-3.67.33-5.51.33-2.2,0-4.4-.12-6.59-.23-5.19-.26-10.37-.84-15.57-1.01-4.72-.16-9.43-.4-14.12-.95-.21-.02-.43-.04-.65-.04-.28,0-.57.03-.82.11-2.22.76-4.56.31-6.8.71-.51.09-1.03.12-1.55.12M412.15,31.38c.39,0,.79-.04,1.19-.12,1.94-.37,3.59-1.38,4.9-2.81,1.18-1.28,1.14-2.96.85-4.58-.09-.61-.42-1.18-.71-1.93-1.31-1.09-2.93-1.53-4.78-1.53-.18,0-.37,0-.56.01-1.6.07-2.65.84-3.69,1.85-.12.11-.26.2-.4.29-2.43,1.55-2.44,5.17-.43,7.32.96,1.02,2.25,1.51,3.63,1.51M581.81,95.5c.59,0,1.26-.18,1.7-.51,1.87-1.33,3.63-2.82,4.93-4.74.49-.72.78-1.57,1.18-2.35,1.23-2.39,2.7-4.64,3.3-7.32.33-1.49.79-2.97,1.35-4.39.9-2.28,1.32-4.61,1.14-7.07-.05-.69.2-1.41.32-2.1.17-.91.46-1.83.5-2.74.12-2.5.13-5,.19-7.5,0-.17,0-.33-.01-.5-.16-2.23-.43-4.46-.46-6.7-.02-1.42-.34-2.73-.98-3.92-.51-.93-1.23-1.82-2.03-2.51-.49-.41-1.38-.29-1.98-.61-.91-.47-1.84-.63-2.77-.63-.8,0-1.6.12-2.38.25-2.36.41-4.69,1-7.08,1.29-2.51.3-4.99.78-7.48,1.22-.97.17-1.92.48-2.89.61-2.28.3-4.55.63-6.84.75-.22.01-.44.02-.66.02-1.44,0-2.89-.21-4.33-.22-4.05-.01-7.74-1.47-11.46-2.75-1.69-.58-3.24-1.56-5.03-1.95-.79-.18-1.69-.4-2.27-.9-1.68-1.45-3.63-2.37-5.56-3.4-2.1-1.14-4.24-2.27-6.01-3.96-.83-.79-1.84-1.4-2.77-2.07-3.14-2.24-6.29-4.44-9.41-6.7-.92-.67-1.75-1.48-2.64-2.2-.35-.22-.72-.4-1.06-.61-.08.1-.14.21-.22.32.09.13.16.28.27.39,2.36,2.15,4.77,4.25,7.05,6.48,1.93,1.87,3.88,3.77,5.53,5.87,1.98,2.52,3.65,5.28,5.45,7.94,1.39,2.05,3.11,3.91,3.89,6.35.05.15.15.29.24.43,1.39,2.08,2.82,4.14,4.14,6.26.72,1.16,1.3,2.4,1.86,3.66.68,1.53,1.28,3.1,1.91,4.66.49,1.21,1.05,2.39,1.4,3.63.4,1.35.55,2.77.91,4.12.43,1.65,1.18,3.22,1.06,5.01-.06.86.17,1.74.1,2.59-.11,1.36-.37,2.72-.55,4.08-.19,1.36.01,1.69,1.42,2.08,1.85.51,3.72.95,5.57,1.46,1.79.49,3.58,1.04,5.37,1.56.62.19,1.26.32,1.86.56,2.94,1.15,5.86,2.33,8.8,3.49.71.28,1.42.51,2.14.75.36.12.73.22,1.11.3,2.29.45,4.58.89,6.87,1.32,1.67.32,3.32.71,5,.91.1.01.2.02.3.02M40.63,81.83c-.52,0-1.05,0-1.57,0-.48,0-.97,0-1.45,0-.39,0-.78.08-1.53.17,1.81.94,3.02,2.01,4.7,2.42,1.47.36,2.81,1.18,4.22,1.76,1.21.5,2.56.74,3.63,1.43,2.5,1.61,5.37,2.23,8.07,3.33,1.35.55,2.88.61,4.14,1.45.58.38,1.19.76,1.84.99,2.31.81,4.64,1.58,6.97,2.28.93.28,2.01.18,2.87.57,2.01.91,4.2.98,6.26,1.67,2.16.73,4.36,1.37,6.55,2.05.2.06.43.09.65.15,4.57,1.26,9.31,1.31,13.96,2.08,1.14.19,2.28.24,3.43.24,1.4,0,2.8-.08,4.19-.08,1.21,0,2.42.06,3.63.27.02,0,.04,0,.06,0,.18,0,.38-.13.58-.15.57-.05,1.15-.12,1.73-.12.02,0,.04,0,.06,0,.94,0,1.88.08,2.82.08.2,0,.4,0,.6-.01,1.14-.05,2.28-.34,3.41-.34.17,0,.34,0,.5.02.47.04.94.06,1.4.06,2.27,0,4.48-.46,6.7-.81,3.57-.55,7.11-1.33,10.67-2.01.42-.08.86-.09,1.29-.11.15-.01.31-.01.47-.01s.32,0,.48,0c.39,0,.78-.02,1.14-.13,3.53-1.15,7.03-2.38,10.54-3.59.42-.14.81-.35,1.24-.45,1.45-.34,2.86-.96,4.36-.96.26,0,.52.02.79.06.27.04.53.07.78.07.66,0,1.27-.16,1.88-.58.37-.26.93-.28,1.41-.36,1.25-.2,2.59-.11,3.71-.58,2.05-.87,4.2-1.33,6.33-1.87,1.11-.28,2.25-.52,3.34-.85,2.66-.8,5.31-1.69,8-2.42,2.09-.57,4.22-1.04,6.35-1.43,2.15-.4,4.32-.81,6.49-.89,2.6-.1,5.14-.24,7.56-1.28.49-.21,1.06-.25,1.61-.35,1.33-.24,2.65-.49,3.99-.71,1.93-.32,3.87-.66,5.81-.66.94,0,1.87.08,2.82.27.91.19,1.82.38,2.74.55,2.34.38,4.72.78,7.18,1.2-.05-.56-.14-1.18-.16-1.81-.08-2.05,0-4.13-.22-6.16-.24-2.23-.44-4.44-.57-6.67-.17-2.82-.18-5.66-.58-8.48-.55-3.96-.96-7.93-1.47-11.89-.22-1.66-.56-3.29-.76-4.95-.15-1.29-.19-2.6-.22-3.89,0-.28.17-.56.26-.86.26.21.66.37.76.63.26.71.25,1.53.58,2.2.93,1.93,1.44,3.95,1.71,6.05.32,2.43.54,4.86.87,7.28.21,1.5.66,2.97.81,4.48.19,1.78.38,3.54,1.02,5.24.42,1.1.77,2.31.75,3.47-.03,1.02.11,1.91.47,2.85.46,1.25.91,2.54,1.11,3.86.32,2.04.39,4.12.65,6.17.21,1.62.35,3.28,1.53,4.59.58.65,1.23,1.24,1.73,1.96,1.14,1.58,2.53,2.67,4.51,2.67.1,0,.19,0,.29,0,2.02-.11,4.13.03,6.03-.54,2.49-.73,4.83-2,6.96-3.54.22-.16.45-.32.62-.54,1.35-1.69,2.86-3.12,5.09-3.53.55-.11,1.1-.37,1.6-.65,4.28-2.39,8.92-3.41,13.78-3.71,1.88-.12,3.74-.47,5.77-.73-.27-.62-.43-1.15-.72-1.59-.42-.68-1.18-1.25-1.31-1.96-.25-1.41-1.12-2.55-1.47-3.89-.5-1.96-1.18-3.86-1.21-5.92-.02-1.24-.36-2.48-.57-3.71-.21-1.28-.5-2.55-.64-3.85-.14-1.28-.13-2.59-.24-3.89-.06-.76-.31-1.5-.33-2.26-.1-2.78-.04-5.56-.24-8.34-.15-2.06-.25-4.14-.82-6.17-.43-1.53.07-3.12.21-4.69.28-3.25,1.2-6.28,2.38-9.36-.24,0-.45-.02-.67-.02-.11,0-.22,0-.33.01-2.78.26-5.57.54-8.36.78-2.35.2-4.71.32-7.06.55-2.67.27-5.32.63-7.97.98-1.3.17-2.57.49-3.87.6-2.16.2-4.35.22-6.51.42-6.87.68-13.76,1.3-20.61,2.13-6.36.77-12.77,1.24-19.09,2.43-3.92.73-7.93,1.01-11.9,1.53-4.83.62-9.66,1.3-14.5,1.88-1.74.2-3.43.58-5.18.76-2.65.27-5.23,1.07-7.84,1.68-.94.23-1.85.61-2.79.88-.47.13-.96.14-1.45.22-1.76.31-3.64.36-5.27,1-2.62,1.03-5.34,1.51-8.04,2.15-1.7.4-3.5.47-5.14,1-1.55.5-3.05.65-4.64.67-1.12.02-2.27.29-3.37.62-2.67.79-5.33,1.65-7.98,2.52-1.18.39-2.39.78-3.5,1.33-1.81.92-3.51,2.02-5.3,2.96-1.53.8-3.12,1.49-4.67,2.25-.29.14-.54.39-.8.58-.59.4-1.16.83-1.76,1.2-.74.45-1.52.86-2.26,1.29-1.56.91-3.02,2.02-4.67,2.7-3.28,1.34-5.96,3.66-9.09,5.23-1.45.73-2.67,1.87-4.07,2.71-2.6,1.58-5.26,3.07-7.89,4.59-.84.48-1.68,1-2.56,1.39-1.3.57-2.67.98-3.95,1.57-1.44.66-2.89,1.33-4.2,2.21-.76.51-1.5.85-2.37,1.03-1.33.26-2.67.53-3.97.92-1.71.52-3.37,1.22-5.08,1.74-1.99.6-4.04,1.04-6.04,1.61-2.92.83-5.88,1.38-8.9,1.52-1.23.06-2.46.07-3.69.07M562.27,39.57c.55,0,1.11-.02,1.65-.06,2.18-.17,4.35-.5,6.53-.77.61-.07,1.23-.17,2.22-.3-1.57-1.93-2.89-3.56-4.25-5.17-.22-.26-.65-.38-1.01-.46-.94-.22-1.89-.36-2.84-.57-2.28-.49-4.54-1.13-6.84-1.45-2.37-.32-4.76-.42-7.11-.99-1.99-.49-4.13-.35-6.03-1.32-.28-.14-.65-.1-.97-.15-2.15-.4-4.3-.77-6.44-1.19-1.34-.27-2.65-.75-3.99-.89-1.91-.2-3.8-.45-5.62-1.07-.92-.31-1.9-.46-3.18-.75h0c1.51,1.07,2.65,2.12,3.98,2.74,1.3.59,2.5,1.23,3.6,2.13.97.79,1.99,1.54,3.08,2.14,1.33.73,2.78,1.27,4.14,1.96,2.05,1.03,4.05,2.16,6.11,3.14,1.53.72,3.09,1.53,4.72,1.82,3.12.56,6.3.8,9.47,1.1.91.09,1.84.14,2.77.14M385.17,49.11c.42-.22.73-.47,1.07-.55,1.43-.29,2.56-1.16,3.78-1.88.9-.52,1.19-1.45,1.48-2.29.18-.49-.25-1.2-.42-1.81-.16-.58-.33-1.16-.51-1.73-.44-1.42-1.24-2.73-2.59-3.21-.73-.26-1.47-.39-2.19-.39-2.45,0-4.7,1.46-5.33,4.14-.24,1.01-.21,2.06-.34,3.1-.18,1.46.53,2.46,1.72,3.1,1.09.59,2.26,1.04,3.33,1.52M484.89,41.26s-.04,0-.06,0c-.13-.02-.25-.03-.37-.03-1.01,0-1.66.76-2.31,1.39-1.43,1.39-2.2,3.23-1.51,5.09.91,2.45,2.64,4.29,4.46,4.31h0c.24.03.49.04.73.04,3.1,0,5.84-2.25,6.14-4.41.06-.42.02-.88-.06-1.31-.14-.7-.39-1.37-.51-2.07-.27-1.45-1.26-2.27-2.51-2.82-.79-.35-1.59-.83-2.42-.83-.48,0-.98.17-1.49.62-.02.02-.06.03-.1.03M462.99,0c-.85,0-1.67.04-2.46.08-.45.02-.91.05-1.36.06h-.03s-.03,0-.03,0c-.22,0-.44.02-.65.03-.3.02-.6.04-.9.04h0s-.05,0-.05,0l-3.94-.03c-2.54-.02-5.08-.04-7.62-.05h-.5c-1.42,0-2.84.01-4.26.02-.78,0-1.57.01-2.35.02-1,0-2.01,0-3.01,0-1.53,0-3.05,0-4.58.02h-1.55c-2.22.03-4.52.05-6.81.15-.2,0-.41.01-.62.01-.54,0-1.08-.02-1.61-.04-.62-.02-1.25-.05-1.91-.05-1.29,0-2.98.08-4.79.65h-.27c-1.14-.04-2.28-.08-3.42-.12-1.72-.05-3.45-.11-5.17-.15l-1.49-.03c-1.88-.04-3.82-.09-5.75-.09h-.29c-2.04,0-4.11.05-6.1.09-1.11.02-2.22.05-3.33.06-2.12.04-4.23.06-6.34.08-1.38.02-2.77.03-4.15.05h-.33c-.15,0-.29,0-.44,0-.56,0-1.31.03-2.13.22-1.91.46-4.02.49-6.26.53-1.2.02-2.43.04-3.69.13-.36.03-.74.04-1.16.04-.82,0-1.67-.05-2.57-.09-.98-.05-1.98-.11-3.03-.11-.63,0-1.22.02-1.78.06-.38.03-.79.04-1.24.04-1.19,0-2.43-.09-3.74-.19-.97-.07-1.97-.15-2.99-.19-.16,0-.31,0-.46,0-.53,0-1.03.03-1.47.06-.35.02-.69.04-.97.04-.07,0-.13,0-.2,0-.91-.04-1.81-.11-2.77-.18-1.62-.12-3.3-.24-5.02-.24s-3.23.12-4.67.36c-.95.16-2.02.24-3.26.24s-2.61-.08-3.83-.17l-.73-.05c-2.46-.17-5-.35-7.56-.35-1.84,0-3.51.09-5.11.28-.21.02-.45.06-.7.09-.25.04-.54.08-.67.08-1.54-.05-3.08-.1-4.62-.15-2.88-.1-5.86-.21-8.8-.25h-.18c-1.58,0-3.09.23-4.43.44l-.72.11-.29.04c-1.57.23-3.19.47-4.85.94-.41.12-.91.21-1.44.3-1.43.26-3.19.57-4.92,1.64-.06,0-.13.01-.19.02l-.32.03c-.86.09-1.81.11-2.8.14-2.16.06-4.59.12-7.07.91-3.36.1-6.74.2-10.1.31-.08,0-.16,0-.24,0-.16,0-.32,0-.49,0-.21,0-.42,0-.63,0-.72,0-1.69.04-2.71.32-2.85.79-5.86,1.05-9.06,1.33l-.96.08c-1.17.11-2.34.18-3.57.26-1.46.09-2.98.19-4.5.34-1.21.12-2.35.33-3.45.53-1.22.22-2.38.44-3.48.5-1.97.12-3.88.36-5.73.6-1.08.14-2.11.27-3.14.38-2.44.26-4.87.5-7.31.73-1.28.13-2.56.25-3.83.38-.46.04-.93.09-1.4.13-1.18.1-2.41.21-3.66.39-1.86.26-3.74.56-5.55.85-.66.11-1.32.21-1.98.32h-.03s-.03,0-.03,0c-.16.03-.31.06-.47.1h-.05c-.48.1-.95.18-1.42.27-1.05.2-2.05.38-3.03.51-1.11.15-2.21.26-3.37.39-1.42.15-2.88.31-4.35.52-1.94.28-3.89.61-5.77.92-1.4.23-2.79.46-4.19.68-.39.06-.84.1-1.31.14-1.05.09-2.24.19-3.5.58-2.4.76-4.83,1.32-7.41,1.92-.77.18-1.54.36-2.31.54-.62.15-1.09.35-1.43.5-.05.02-.11.05-.16.07-2.01.34-4.06.63-6.05.92-.56.08-1.11.18-1.65.28-1.06.19-2.07.37-2.91.37h-.14c-.25,0-.51-.01-.78-.01-2.29,0-4.72.26-7.43.79-.49.1-.98.19-1.46.28-1.37.26-2.79.52-4.24.91-.89.23-1.65.59-2.26.87-.35.17-.72.34-.92.39-2.13.54-4.97,1.23-7.83,1.72l-.52.09c-3.08.52-6.57,1.12-9.88,2.97-.51.28-1.01.55-1.51.81-1.88.99-4,2.11-5.86,3.94-.03.02-.07.04-.1.06-.12.07-.24.15-.35.23-.67.44-1.36.89-2.05,1.33-1.25.81-2.51,1.63-3.75,2.46-1.28.85-2.56,1.72-3.84,2.59-1.81,1.23-3.68,2.5-5.53,3.7-.95.62-1.98,1.2-3.07,1.81-.53.3-1.05.59-1.57.9-.83.48-1.65.98-2.48,1.48-1.66,1-3.23,1.95-4.85,2.77-3.42,1.74-6.68,3.57-9.72,5.42-.39.24-.77.49-1.15.75-.62.42-1.27.85-1.69.98-1.96.63-3.72,1.5-5.21,2.27-.14.07-.27.14-.41.22-2.22.27-4.09,1.12-5.62,1.81-.37.17-.73.33-1.09.48-1.01.43-2.13.76-3.31,1.1-.6.18-1.2.35-1.8.55-.22.07-.67.13-1.1.18-.83.1-1.87.23-2.95.65-.85.32-1.85.47-3,.65-.29.04-.57.09-.86.13-.58.1-1.14.17-1.71.25-1.27.18-2.59.36-3.95.7-2.6.65-4.99,1-7.33,1.08-.95.03-1.79.21-2.47.35-.19.04-.37.08-.55.11-.6.11-1.19.23-1.78.35-1.33.27-2.58.52-3.81.67-1.46.18-2.93.3-4.49.43-.93.07-1.86.15-2.79.24-.76.07-1.5.18-2.29.28-.36.05-.74.1-1.15.15l-8.35,1.09,6.12,5.79c.38.36.73.7,1.07,1.02.68.66,1.33,1.27,2.01,1.88,1.48,1.31,3.06,2.67,4.7,4.05.56.48,1.13.96,1.69,1.45,1.7,1.46,3.45,2.97,5.33,4.36,1.48,1.08,2.99,1.88,4.46,2.66.41.22.83.44,1.23.66,1.08.59,2.17,1.13,3.22,1.66,2.12,1.06,4.12,2.06,5.89,3.31.56.4,1.1.6,1.39.71h.04c.38.19.74.32,1.05.44.22.08.52.2.66.27,1.15.99,2.7,2.14,4.81,2.67.05.03.09.05.14.07.47.25.96.53,1.45.81,1.21.69,2.45,1.4,3.84,2,1.25.55,2.5.92,3.7,1.29.6.18,1.16.35,1.7.54,1.14.39,2.27.81,3.47,1.24.51.19,1.03.38,1.54.56.51.18,1.02.37,1.53.55,1.18.42,2.29.81,3.38,1.24.1.05.19.12.28.18.53.35,1.32.88,2.4,1.15,1.4.36,2.77.57,4.09.78.36.06.73.11,1.09.17.51.08,1.01.15,1.51.21.58.07,1.13.14,1.61.24.03.01.22.08.36.14.41.16.98.38,1.65.52.92.19,1.82.33,2.69.47.58.09,1.16.19,1.74.29.5.09.98.2,1.47.31.39.09.78.17,1.17.25.69.14,1.38.3,2.07.45,1.72.39,3.5.79,5.38,1,6.5.74,13.07.88,19.42,1.03,1.44.03,2.88.06,4.32.1.03,0,.1,0,.17,0,.35,0,.65-.03.84-.05h.08c1.6-.05,3.14-.26,4.63-.47,1.43-.2,2.79-.39,4.06-.39.19,0,.38,0,.57.01h.06s.07,0,.07,0h.03s.05,0,.05,0c.43,0,.8-.05,1.11-.1,3.43-.51,6.87-1.02,10.31-1.53l.37-.06h0s.07,0,.07,0c.19-.02.47-.04.81-.11.77-.15,1.56-.32,2.36-.48,1.35-.28,2.74-.57,4.1-.82.64-.12,1.32-.21,2.04-.31,1.45-.2,2.94-.4,4.5-.85,3.73-1.09,7.51-1.99,10.72-2.72,1.8-.41,3.53-.94,5.15-1.44.19-.06.64-.09,1.03-.13,1.1-.09,2.6-.21,4.15-1.03.02,0,.21-.1.83-.21,1.19-.2,2.44-.38,3.65-.56.93-.14,1.85-.27,2.78-.42.57-.09,1.11-.21,1.58-.33.28-.07.57-.14.85-.19.63-.11,1.25-.22,1.88-.32,1.32-.22,2.69-.45,4.07-.74.86-.19,1.64-.45,2.34-.67.53-.18,1.03-.34,1.47-.44,1.35-.31,2.74-.56,4.22-.82l1.24-.23c.4-.07.8-.13,1.19-.19.8-.11,1.71-.24,2.65-.49,1.29-.34,2.58-.71,3.82-1.07,1.28-.37,2.49-.72,3.72-1.04,1.34-.35,2.87-.74,4.26-.89.56-.06,1.17-.07,1.68-.07h0c.27,0,.54,0,.81,0,.29,0,.59,0,.88,0,1.13,0,2.34-.04,3.61-.27.91.25,1.81.41,2.62.55,1.52.26,2.49.45,3.09.97.73.64,1.53.87,1.99.97.74.3,1.47.6,2.19.9.83.34,1.66.69,2.49,1.03.39.16.76.29,1.1.4.27.09.64.22.76.28,1.68,1.1,3.31,1.33,4.39,1.41h.03s.03,0,.03,0c.48.03.97.07,1.45.12.92.08,1.87.17,2.88.18.59,0,1.17.02,1.75.03.78.02,1.57.03,2.35.03,2.7,0,5.9-.18,9.16-1.55,2.2-.92,4.95-2.07,7.36-4.19.37-.32.74-.64,1.12-.96.68-.58,1.39-1.18,2.08-1.83,1.12-1.06,1.84-1.51,2.58-1.6h.05s.05-.01.05-.01c.79-.12,1.38-.42,1.7-.6.52-.19,1.05-.39,1.57-.59,1.38-.52,2.68-1.01,4-1.45.03,0,.05-.02.07-.02.78.33,1.48.43,1.9.49.06,0,.13.02.19.03,1.07.25,2.11.4,3.12.55,1.71.24,3.18.46,4.29,1.12,1.07.65,2.17.85,2.9.98l.27.05c1.09.21,2.18.41,3.27.6.65.12,1.3.23,1.95.35,2.03.38,4.73.81,7.55.81,1.88,0,3.62-.18,5.32-.56.31-.07.75-.11,1.2-.15.65-.05,1.39-.12,2.2-.29,1.8-.39,3.43-1.06,4.88-1.66,1.34-.55,2.61-1.07,3.81-1.29l1.12-.21.84-.76c.26-.23.9-.45,1.59-.69.31-.11.62-.21.92-.33,1.48-.55,2.96-1.01,4.22-1.38,1.46-.44,3.14-1.01,4.68-2.03,1.08-.72,2.54-.97,4.23-1.27.51-.09,1.03-.18,1.54-.29.07-.01.14-.02.2-.03.63-.09,1.84-.26,3.01-1.13,1.43-.32,2.79-.63,4.16-.88,1.45-.26,2.97-.51,4.43-.75.88-.14,1.77-.29,2.65-.43,1-.17,2.01-.32,3.02-.47,2.46-.36,4.99-.73,7.53-1.4,3.18-.84,6.66-1.25,10.66-1.25.25,0,.5,0,.75,0,.9.01,1.82.07,2.79.14,1.15.08,2.35.15,3.59.15s2.37-.08,3.43-.25c.69-.11,1.5-.14,2.35-.17.75-.03,1.54-.06,2.36-.14.41-.04.82-.09,1.23-.13,1.72-.18,3.34-.36,4.92-.36.48,0,.92.02,1.36.05.97.07,1.9.11,2.79.11,1.33,0,2.61-.08,3.8-.24l.85-.12c2-.28,3.88-.54,5.71-.54.39,0,.77.01,1.13.04.38.03.78.06,1.17.1.91.09,1.86.17,2.88.17,1.17,0,2.24-.12,3.24-.37,1.32.1,2.65.2,3.97.29,3.08.22,6.26.45,9.36.74,3.5.33,7.07.71,10.53,1.08,2.06.22,4.12.44,6.17.65.64.06,1.22.09,1.78.12.61.03,1.19.05,1.7.12,1.77.26,3.59.54,5.35.82,1.57.25,3.15.5,4.72.73,4.65.69,9.23,1.33,13.1,1.87l1.29.18c4.59.62,9.35,1.26,13.92,2.15l.82.16c2.28.46,4.64.93,7.2.97,1,.01,2.13.36,3.43.77.4.13.81.25,1.21.37.37.11.79.27,1.24.44,1.1.42,2.47.95,4.11,1.07.9.07,1.82.16,2.72.28h.09c.2.04.5.08.63.11.24.11.48.21.71.32,1.64.74,3.65,1.66,6.08,1.81.06.02.13.05.19.07l1.29.44c.9.31,1.81.62,2.71.92.35.12.7.21,1.05.3.26.07.51.14.66.19.68.26,1.36.52,2.04.78,2.25.85,4.38,1.66,6.48,2.58,2.2.96,4.43,1.37,6.39,1.74.99.18,1.92.36,2.79.58.66.17,1.37.37,2,.59,1.87.68,3.43,1.27,4.88,2.06,1.41.77,2.85,1.18,4.12,1.54.44.12.88.25,1.31.39,1.27.42,2.56.83,3.84,1.23l.41.13c1.06.33,2.14.67,3.23.98.45.13.83.19,1.12.23.06,0,.12.02.18.03,3.62,1.29,7.37,1.7,10.91,2.02,1.99.17,3.97.27,5.89.36,1.35.06,2.74.13,4.09.22.36.02.72.04,1.07.04,3.15,0,6.14-.96,8.89-2.84,3.88-2.66,6.73-6.03,9.32-9.26.63-.79,1-1.6,1.26-2.19.08-.19.2-.45.25-.53,1.43-1.93,2.29-4.03,3.05-5.88.2-.48.39-.96.6-1.44.53-1.21.98-2.42,1.42-3.6.12-.33.25-.66.37-.99.1-.27.23-.56.35-.85.41-.94.92-2.11,1.12-3.49.42-2.8.74-5.63,1.05-8.36.1-.91.21-1.82.31-2.73.03-.27.05-.56.07-.86,0-.15.02-.35.03-.43,1.09-4.22.87-8.22.52-12.28-.1-1.17-.21-2.52-.16-3.75l.03-.78c.09-2.06.2-4.37-.46-6.83,0-.25.01-.61-.03-1.01-.09-.91-.2-1.94-.39-3-.17-.93-.35-1.85-.54-2.73-.12-.59-.24-1.19-.36-1.78-.25-1.29-.67-3.43-2.54-5.21-1.22-1.18-2.33-2.37-3.3-3.52-1.23-1.46-2.71-2.5-4.41-3.08-1.79-.62-3.43-1.16-5.24-1.46-1.65-.27-3.35-.41-5.04-.41-2.64,0-5.3.32-8.07.99-.5-.74-1.05-1.35-1.54-1.89-.28-.31-.54-.6-.74-.86-1.45-1.87-3.28-2.73-4.88-3.39-1.78-.72-3.49-.85-4.86-.95-.56-.04-1.1-.08-1.55-.15-3.17-.51-7.36-1.18-11.59-1.82-.98-.15-1.94-.26-2.88-.37-1.34-.16-2.6-.31-3.81-.54-4.25-.84-8.58-1.78-12.77-2.69l-2.3-.5c-2.4-.51-4.8-1.04-7.2-1.56-3.3-.72-6.72-1.46-10.09-2.17-.75-.16-1.09-.38-1.31-.57-.56-.49-1.8-1.57-3.5-1.89-3.51-.65-7.12-1.24-11.05-1.84-1.95-.29-3.9-.51-5.78-.72l-1.53-.17c-.78-.09-1.57-.19-2.36-.29-2-.25-4.07-.51-6.17-.66-1.65-.13-3.3-.17-4.89-.21-1.13-.03-2.2-.05-3.27-.11-2.39-.12-4.78-.25-7.16-.39-2.95-.17-6-.34-9.02-.48-.36-.02-.72-.02-1.08-.02h0ZM302.62,22.96c.84,0,1.56-.06,2.26-.19.61-.11,1.38-.13,2.19-.14,1.46-.03,3.09-.07,4.85-.61.02,0,.04,0,.06,0,5.09.6,10.16.83,14.44.98,2.84.1,5.77.32,8.6.54,2.25.17,4.58.35,6.9.47l.61.03c1.91.1,3.89.19,5.88.2-.34.38-.57.74-.73,1.01l-.07.1c-.4.62-.77,1.23-1.13,1.82-.69,1.15-1.35,2.23-2.07,3.08-1.25,1.47-1.82,3.01-2.29,4.25-.21.55-.39,1.03-.58,1.4-.86,1.59-1.46,3.18-2.05,4.72-.5,1.33-.98,2.59-1.57,3.7-1.4,2.62-2.39,5.43-2.96,8.37-.14.74-.37,1.52-.61,2.35-.23.77-.46,1.57-.65,2.44-.22.97-.39,1.93-.54,2.86-.12.71-.24,1.38-.37,2.03-.1.47-.26,1-.43,1.56-.05.16-.1.32-.15.48-.41.89-.42,1.71-.34,2.31-.04.08-.08.17-.12.25-.21.43-.47.99-.68,1.65-.83.26-1.78.51-2.92.76-.71.16-1.44.29-2.2.43-.98.17-1.99.36-3.03.61-2.42.59-4.6,1.2-6.69,1.87-1.14.36-2.22.78-3.26,1.18-1.73.67-3.36,1.3-4.95,1.56-.8.14-1.53.44-2.13.87-.74.53-1.88.76-3.2,1.02-.83.17-1.73.35-2.67.63l-.78-.13c-.97-.15-1.9-.3-2.81-.47-1.31-1.17-2.97-2.65-4.6-4.15-.12-.11-.29-.3-.46-.49-.19-.22-.41-.47-.66-.73-.05-.21-.1-.63-.14-.92-.06-.49-.12-1.03-.25-1.62-.04-.56-.16-1.82-1.17-2.94-.33-.36-.5-1.16-.69-2.08-.13-.64-.28-1.33-.5-2.05.08-1.49-.33-2.73-.62-3.62-.09-.27-.22-.65-.23-.79-.07-.71-.03-1.52.02-2.37.04-.8.09-1.7.06-2.65.08-.62.15-1.8-.58-2.99-.15-.25-.09-1.11-.03-1.87.04-.56.09-1.19.08-1.86,0-.72.07-1.53.15-2.38.08-.85.17-1.73.19-2.67.03-1.1-.27-2.01-.47-2.62-.04-.11-.08-.21-.1-.32-.21-1.02-.13-2.28-.04-3.6l.04-.54c.03-.41.03-.81.03-1.16,0-.28,0-.66.03-.85.8-1.2.8-2.42.8-2.96v-.06c.04-.38.12-.66.21-.75.35-.35.69-.7,1.03-1.04.78-.79,1.52-1.54,2.28-2.27.29-.27.78-.61,2-.75.5-.06,1.02-.1,1.53-.14,1.45-.12,3.1-.26,4.75-.72.28-.08.63-.11,1.11-.11.35,0,.7.02,1.06.03.46.02.92.04,1.39.04h0ZM412.15,27.38c-.48,0-.65-.18-.72-.25-.43-.46-.4-1.09-.32-1.22l.08-.04c.19-.12.54-.35.9-.69l.02-.02.02-.02c.73-.71.91-.71,1.08-.72.13,0,.26,0,.38,0,.71,0,1.21.1,1.56.23.13.72.11,1.04.09,1.16-.78.83-1.68,1.35-2.67,1.54-.15.03-.3.04-.43.04h0ZM113.9,54.97c.54-.26,1.06-.5,1.58-.75.97-.45,1.97-.92,2.98-1.45.91-.48,1.77-.98,2.61-1.46.92-.53,1.78-1.03,2.65-1.48.76-.38,1.72-.7,2.74-1.03l.2-.07c2.8-.92,5.33-1.74,7.86-2.48.7-.21,1.58-.44,2.3-.45,1.53-.02,3.57-.14,5.82-.87.65-.21,1.48-.34,2.35-.47.79-.12,1.61-.24,2.47-.45.56-.13,1.13-.26,1.69-.38,2.24-.5,4.55-1.01,6.9-1.94.68-.27,1.66-.39,2.7-.53.58-.07,1.18-.15,1.8-.26.1-.02.2-.02.3-.04.4-.04.95-.1,1.57-.28.49-.14.94-.29,1.37-.44.46-.16.89-.31,1.26-.39.67-.16,1.37-.33,2.06-.51,1.84-.47,3.57-.9,5.24-1.08,1.04-.11,2.03-.27,2.98-.43.78-.13,1.52-.25,2.25-.34,3.02-.36,6.06-.77,9-1.16,1.85-.25,3.7-.49,5.55-.73,1.31-.17,2.65-.32,3.96-.46,2.67-.29,5.42-.59,8.17-1.1,4.28-.8,8.75-1.28,13.08-1.74,1.88-.2,3.83-.41,5.76-.64,5.46-.67,11.06-1.21,16.47-1.73,1.35-.13,2.7-.26,4.05-.39,1.01-.1,2.05-.15,3.16-.21,1.08-.05,2.2-.11,3.33-.21.93-.08,1.82-.24,2.62-.38.5-.09.97-.17,1.42-.23l.76-.1c2.33-.31,4.73-.63,7.08-.87,1.28-.13,2.55-.22,3.91-.31,1.03-.07,2.07-.15,3.1-.23,1.13-.1,2.26-.2,3.4-.31-.34,1.43-.62,2.96-.75,4.56-.03.31-.08.68-.14,1.07-.21,1.39-.48,3.11.07,5.05.41,1.46.52,3.1.64,4.84l.04.52c.12,1.6.14,3.2.16,4.89.01,1.08.03,2.19.07,3.31.02.71.14,1.34.24,1.84.04.23.09.47.1.6.04.51.07,1.03.09,1.58.03.77.07,1.57.16,2.42.11,1.01.29,1.95.46,2.87.07.4.15.8.21,1.19.07.41.15.81.23,1.21.14.71.28,1.39.29,1.9.04,2.14.56,4.01,1.02,5.66.11.4.22.79.32,1.19.25.98.64,1.79.94,2.44.12.26.24.52.33.74-5.98.39-11.02,1.76-15.4,4.21-.27.15-.4.21-.44.22-3.5.67-5.72,2.85-7.26,4.75l-.03.02c-1.92,1.39-3.85,2.38-5.72,2.92-.9.27-2.12.3-3.4.33-.57.01-1.15.03-1.71.06h-.07c-.2,0-.54,0-1.26-1-.49-.7-1.03-1.27-1.51-1.77-.16-.17-.33-.34-.49-.52-.28-.31-.4-1.24-.51-2.14l-.04-.3c-.1-.79-.17-1.61-.24-2.47-.11-1.23-.22-2.5-.42-3.8-.25-1.67-.78-3.22-1.31-4.64-.17-.45-.23-.82-.22-1.35.04-1.96-.55-3.78-1-4.98-.45-1.18-.61-2.5-.79-4.24-.11-1.03-.32-2.01-.5-2.87-.13-.62-.26-1.21-.33-1.74-.18-1.28-.32-2.55-.47-3.89-.13-1.12-.25-2.24-.4-3.36-.35-2.7-1.01-5.05-2.03-7.17-.02-.09-.05-.23-.07-.34-.08-.41-.18-.97-.4-1.57v-.03s-.02-.03-.02-.03c-.54-1.44-1.63-2.13-2.09-2.42h-.01s-4.48-3.56-4.48-3.56l-1.71,5.48v.02c-.17.38-.5,1.18-.47,2.24.04,1.36.07,2.77.24,4.23.12.98.27,1.92.43,2.83.13.75.25,1.46.34,2.16.19,1.52.37,3.05.55,4.59.28,2.4.58,4.88.92,7.34.26,1.8.34,3.65.42,5.61.04.85.07,1.7.12,2.55.13,2.21.32,4.45.59,6.87.1.88.13,1.81.14,2.78-.77-.13-1.53-.25-2.28-.38-.65-.12-1.3-.25-1.95-.39l-.68-.14c-1.15-.24-2.34-.36-3.62-.36-2.18,0-4.22.34-6.18.67l-.28.05c-1,.16-2,.35-3,.53l-1.04.19c-.11.02-.21.03-.31.05-.56.08-1.32.2-2.16.56-1.72.74-3.71.87-6.13.96-2.38.09-4.63.5-6.81.91l-.26.05c-2.36.43-4.6.94-6.68,1.5-1.77.48-3.51,1.03-5.19,1.55-.97.3-1.93.6-2.9.89-.68.2-1.41.38-2.18.56-.33.08-.65.16-.98.24-.34.09-.67.17-1,.25-1.92.47-3.91.96-5.94,1.82-.17.06-.78.11-1.18.14-.47.04-1.01.08-1.58.17h-.03s-.03,0-.03,0c-.06.01-.13.02-.19.03-.57.08-1.59.22-2.59.84-.45-.07-.92-.11-1.39-.11-1.62,0-3.03.42-4.17.76-.4.12-.78.23-1.11.31-.55.13-1.01.31-1.34.45-.08.03-.15.07-.23.09-.99.34-1.94.67-2.89.99-2.44.84-4.96,1.71-7.44,2.53,0,0-.02,0-.02,0-.02,0-.04,0-.07,0h-.2s-.27,0-.27,0c-.25,0-.49,0-.74.02h-.24c-.41.04-.93.06-1.51.17-1.19.22-2.37.46-3.54.69-2.42.48-4.7.94-7.02,1.29-.45.07-.89.14-1.34.22-1.67.28-3.25.54-4.75.54-.36,0-.7-.02-1.03-.05-.29-.03-.58-.04-.87-.04-.89,0-1.69.11-2.39.21-.44.06-.85.12-1.18.13-.15,0-.29,0-.44,0-.43,0-.86-.02-1.29-.03-.5-.02-1.01-.04-1.51-.04h-.07c-.71,0-1.36.06-1.93.12l-.18.02c-.14.01-.27.03-.39.06-1.04-.14-2.17-.2-3.5-.2-.73,0-1.47.02-2.21.04-.66.02-1.33.04-1.99.04-1.13,0-2.01-.06-2.78-.19-1.85-.31-3.68-.5-5.46-.69-2.85-.3-5.53-.59-8.08-1.29h-.03s-.03-.02-.03-.02c-.17-.04-.34-.08-.5-.11h-.04c-.66-.21-1.3-.41-1.94-.6-1.54-.47-2.99-.91-4.45-1.4-1.11-.37-2.2-.59-3.15-.78-1.07-.21-1.99-.4-2.73-.73-1.07-.48-2.07-.6-2.81-.68-.21-.02-.49-.06-.59-.08-2.11-.63-4.34-1.36-6.78-2.22-.24-.08-.72-.4-.96-.56-1.33-.88-2.66-1.22-3.74-1.5-.43-.11-.83-.21-1.1-.32-.98-.4-1.95-.74-2.9-1.06-1.29-.44-2.53-.87-3.61-1.42.87-.2,1.75-.42,2.64-.67.84-.24,1.69-.45,2.58-.68,1.14-.29,2.32-.59,3.51-.95.97-.29,1.88-.62,2.75-.94.82-.3,1.59-.58,2.34-.8,1.07-.32,2.25-.56,3.57-.82,1.35-.27,2.57-.78,3.83-1.63,1.07-.71,2.38-1.31,3.64-1.89.55-.25,1.16-.48,1.81-.72.67-.25,1.37-.51,2.09-.82.93-.41,1.76-.9,2.5-1.33l.45-.26c.66-.38,1.31-.75,1.97-1.13,1.97-1.13,4-2.29,5.99-3.5.74-.44,1.41-.94,2-1.37.64-.47,1.25-.92,1.79-1.19,1.54-.78,2.91-1.66,4.24-2.52,1.56-1.01,3.04-1.96,4.56-2.58,1.45-.59,2.72-1.4,3.83-2.11.47-.3.92-.58,1.35-.84.25-.14.52-.29.79-.44.5-.28,1.02-.57,1.55-.89.54-.33,1.02-.67,1.44-.97.16-.12.33-.23.5-.35l.04-.02.04-.03c.14-.1.29-.22.43-.33h0ZM561.07,35.54c-.38-.02-.78-.05-1.19-.09l-1.3-.12c-2.73-.25-5.31-.48-7.83-.93-.76-.13-1.65-.52-2.59-.97.56.07,1.08.14,1.52.25,1.85.45,3.61.64,5.33.82.76.08,1.48.16,2.19.25,1.25.17,2.53.47,3.88.79h0ZM384.16,44.29c.02-.23.03-.46.05-.67.03-.5.06-.98.14-1.29.21-.9.9-1.08,1.44-1.08.22,0,.44.03.66.1.07.11.19.34.3.7.16.51.32,1.05.46,1.58v.03s.02.03.02.03c0,0,0,.01,0,.02-.04.02-.08.05-.11.07-.65.41-1.26.79-1.68.87-.12.02-.23.05-.33.08-.33-.14-.65-.29-.95-.44h0ZM535.96,46.98c-.74-2.08-1.9-3.74-2.98-5.21.81.46,1.55.94,2.19,1.49,1.37,1.18,3.08,1.57,4,1.77.69.15,1.43.49,2.28.87.69.31,1.47.67,2.32.96.4.14.79.27,1.18.41,3.58,1.25,7.29,2.54,11.57,2.56.57,0,1.2.05,1.86.1.79.06,1.6.12,2.48.12.29,0,.58,0,.87-.02,2.15-.11,4.25-.39,6.27-.66l.88-.12c.76-.1,1.44-.27,2.04-.41.37-.09.71-.17,1.01-.22.55-.1,1.09-.19,1.63-.29,1.95-.35,3.79-.68,5.64-.9,1.67-.2,3.26-.53,4.8-.84.86-.17,1.67-.34,2.49-.48.57-.1,1.18-.19,1.69-.19s.76.1.92.18c.62.33,1.24.49,1.72.58.25.28.47.59.64.91.32.59.48,1.27.5,2.08.03,1.7.17,3.36.31,4.96.06.64.11,1.27.16,1.91,0,.07,0,.13,0,.2-.02.69-.03,1.41-.04,2.13-.03,1.73-.06,3.52-.14,5.25-.01.26-.11.69-.21,1.11-.08.36-.17.73-.23,1.09-.03.18-.07.32-.1.46-.15.66-.36,1.57-.28,2.64.13,1.78-.16,3.52-.87,5.31-.65,1.63-1.16,3.32-1.54,5.01-.34,1.54-1.18,3.09-2.08,4.72-.29.54-.59,1.08-.87,1.63-.18.35-.33.69-.48,1.03-.16.36-.32.72-.44.9-.78,1.15-1.89,2.22-3.57,3.46-.96-.13-1.94-.33-2.97-.54-.45-.09-.89-.18-1.34-.27-2.3-.44-4.58-.88-6.87-1.32-.15-.03-.37-.09-.65-.18-.67-.22-1.31-.42-1.89-.65-1.21-.48-2.42-.96-3.62-1.44-1.73-.69-3.47-1.38-5.2-2.06-.61-.24-1.17-.39-1.66-.52-.17-.05-.35-.09-.52-.14-.62-.18-1.21-.35-1.8-.53-1.19-.35-2.43-.72-3.66-1.06-.89-.24-1.78-.47-2.67-.7-.39-.1-.76-.19-1.14-.29.12-.79.23-1.6.3-2.45.07-.77,0-1.46-.05-2.01-.02-.22-.05-.51-.04-.61.14-2.09-.41-3.82-.85-5.21-.13-.4-.24-.77-.33-1.11-.13-.49-.23-1.03-.34-1.61-.15-.8-.32-1.7-.6-2.62-.32-1.12-.76-2.17-1.15-3.1-.13-.3-.25-.6-.38-.9-.16-.4-.32-.8-.48-1.2-.47-1.17-.95-2.38-1.49-3.59-.58-1.32-1.25-2.75-2.12-4.14-.99-1.59-2.04-3.14-3.05-4.64-.35-.52-.71-1.05-1.06-1.58h0ZM485.17,45.25c.54-.04,1.07-.17,1.55-.41.19.09.38.18.57.26.1.04.17.08.23.11.09.44.2.84.3,1.19.07.24.13.46.17.64-.28.37-1.13.99-2.14.99-.09,0-.18,0-.27-.02h-.12c-.21-.19-.68-.72-1.06-1.73,0-.07.1-.39.54-.82l.23-.23s0,0,0,0h0Z"/>
      </g>
      <path class="cls-2" d="M121.94,50.3c.34-.51.48-.97.72-1.04.89-.27,1.81-.5,2.73-.58,3.1-.28,6.22-.39,9.31-.74,2.22-.25,4.41-.75,6.61-1.17,2.68-.53,5.36-1.1,8.05-1.64,2.19-.44,4.38-.85,6.57-1.31,1.17-.25,2.33-.58,3.5-.84,1.54-.35,3.09-.45,4.68-.49,2.28-.05,4.56-.45,6.82-.83,2.43-.42,4.82-1.07,7.25-1.46,1.79-.3,3.63-.37,5.45-.54.03.1.07.21.11.32-.2.21-.38.52-.63.63-2.64,1.18-5.29,2.31-7.93,3.47-1.55.68-3.08,1.38-4.47,2.4-.84.61-2.03.74-3.07,1.09-1.39.45-2.76.98-4.18,1.33-2.44.61-4.91,1.12-7.37,1.63-.96.2-1.95.29-2.93.45-2.71.44-5.4.93-8.12,1.28-1.52.2-3.07.05-4.58.23-1.76.21-3.48.15-5.22,0-.48-.05-.98-.08-1.46-.16-2.49-.39-4.98-.78-7.47-1.19-1.33-.24-2.66-.49-4.37-.81h0Z"/>
      <g>
        <path class="cls-2" d="M251.45,75.63c.19-1.61-.53-3-.95-4.47-.25-.89-.82-1.1-1.74-1.08-3.4.03-6.78-.14-10.09-1.11-1.56-.45-2.4-1.65-2.65-2.98-.21-1.11.26-2.4,1.45-3.12.66-.4,1.28-.84,1.93-1.23,1.11-.68,2.26-.17,3.36.05,1.57.31,3,.9,4.19,2.08,1.35,1.34,2.83,2.56,4.31,3.77.36.28.89.44,1.37.48,2.57.18,5.15.28,7.72.45.62.05,1-.16,1.4-.63,2.86-3.28,4.45-7.12,5.19-11.36.12-.69.24-1.38.27-2.08.09-1.61-.81-2.74-1.92-3.75-.28-.26-.66-.44-.87-.74-.19-.28-.32-.71-.24-1.01.05-.22.45-.45.73-.5,1.38-.24,2.31.68,3.1,1.53.79.85,1.36,1.95,1.37,3.23,0,.98.14,1.96.25,2.94.22,1.99-.85,3.62-1.58,5.29-.97,2.24-1.9,4.53-3.35,6.54-.14.21-.2.47-.35.83.53.12.95.22,1.36.29,2.44.43,3.89,2.04,4.92,4.14.72,1.45-.44,4.13-2.22,4.19-.53.02-1.06.29-1.58.42-2.36.58-4.46-.16-6.31-1.52-.54-.4-.81-1.44-.83-2.21-.04-1.07.26-2.15.44-3.44-2.36-.61-4.75-.16-7.39.03.2.7.28,1.23.48,1.71.97,2.3.07,4.18-1.33,5.92-.28.36-.81.67-1.26.73-2.16.35-4.27.12-6.2-1-.23-.14-.48-.35-.56-.59-.12-.33-.22-.78-.06-1.03s.65-.46.95-.41c.75.15,1.47.45,2.21.69,1.73.58,3.25.3,4.5-1.06h0ZM247.97,67.43c-2.08-1.93-4.02-3.74-6.88-3.91-.97-.06-1.83.31-2.37,1.21-.57.96-.4,1.44.65,1.84,2.7,1.02,5.47,1.38,8.6.86ZM263.4,70.8c-.79,2.08-.61,2.79,1.15,3.54,1.02.43,2.2.57,3.31.73.29.04.78-.23.91-.49.12-.26-.02-.74-.2-1.02-.23-.35-.61-.6-.95-.88-1.22-.97-2.64-1.47-4.22-1.88h0Z"/>
        <path class="cls-2" d="M259.6,49.42c2.02,1.54,2.56,3.62.29,5.54.76.9,1.6,1.74,2.27,2.7.86,1.26,1.25,2.64.8,4.21-.23.8-.55,1.26-1.45,1.22-1.26-.07-2.51-.1-3.77-.14-.38-.02-.75-.06-1.31-.1.11.66.31,1.2.23,1.68-.06.42-.45.79-.68,1.19-.33-.22-.78-.37-.98-.67-.8-1.17-1.49-2.43-2.31-3.59-.29-.41-.83-.67-1.28-.95-1.5-.97-1.5-1.75.12-2.85.89.5,1.8,1.13,2.78,1.56,1.5.65,3.06,1.18,4.61,1.69.33.11.77-.01,1.13-.11.76-.19.96-.69.57-1.36-1.58-2.71-3.95-4.13-7.09-4.27-.7-.03-1.4-.1-2.15-.16-.14-.32-.28-.56-.34-.81-.22-.96-.05-1.25.88-1.29,1.26-.05,2.52-.01,3.78-.04,1.04-.02,2.06-.09,3.26-.14-.43-1.51-1.42-2.17-2.63-2.56-1.29-.41-2.53-.9-3.73-1.56-1.52-.84-2.26-2.35-3.5-3.39-.11-.1-.16-.28-.19-.44-.33-1.5,1.36-3.96,2.9-4,1.42-.04,2.84.16,4.25.35.29.04.74.51.7.74-.05.34-.38.83-.7.93-.55.18-1.18.16-1.77.16-.69-.01-1.38-.09-2.42-.17.98,1.28,1.22,2.51,2.31,3.41,1.42,1.18,2.94,1.16,4.49.92.52-.08,1.09-.87,1.34-1.46.31-.72.16-1.53-.58-2.06-.47-.34-.95-.69-1.42-1.03.95-1.43,1.62-1.61,2.82-.71.57.43,1.51.51,1.57,1.53.04,1.03.28,2.06.2,3.08-.06.82-.52,1.54-1.35,1.96-.5.23-1,.58-1.64.98h0Z"/>
        <path class="cls-2" d="M235.47,35.19c.14-1.32.52-1.73,1.86-1.77,2.51-.07,5.02.04,7.51.46.89.15,1.82.13,2.58.19-.07-1.22-.27-2.36-.14-3.46.2-1.75,1.95-2.55,3.45-1.64,1.4.84,2.74,1.77,4.08,2.71.7.49,1.35.86,2.23.34.95-.55,1.97-.82,3.11-.9.88-.06,1.72-.64,2.5-.97l.13-1.79c-.92-.56-1.78-1.18-2.98-.47-.35.21-.91.08-1.37.11-.11-1.73,0-1.91,1.32-2.34,1.84-.6,4.03.23,4.9,1.87.99,1.85.22,4.45-1.69,5.3-.98.44-2.06.68-3.12.88-1.11.22-1.54.57-1.74,1.95,1.2.21,2.41.42,3.62.62.7.11,1.39.23,2.11.29.54.04,1.07.19,1.06.79-.02.58-.13,1.17-.87,1.42-1.34.45-2.55.11-3.84-.24-1.58-.44-3.21-.71-4.82-1.02-.29-.05-.64.12-.95.18-.2.04-.46.17-.61.1-2.7-1.29-5.66-1.52-8.53-2.01-1.98-.35-4.04-.24-6.06-.36-1.27-.05-2.5-.16-3.74-.25h0ZM255.16,35.24c-.18-.81-.57-1.33-2.89-2.95-.76-.52-1.36-1.6-2.58-1.33-.27,2.43,1.49,3.86,5.47,4.28Z"/>
      </g>
      <path class="cls-1" d="M247.97,67.43c-3.12.51-5.89.15-8.59-.86-1.05-.4-1.22-.88-.65-1.84.52-.9,1.4-1.27,2.37-1.21,2.85.17,4.78,1.97,6.87,3.91Z"/>
      <path class="cls-1" d="M263.4,70.8c1.58.42,2.99.92,4.22,1.88.34.26.72.52.95.88.19.28.33.76.2,1.02-.12.26-.63.54-.91.49-1.12-.16-2.29-.3-3.31-.73-1.76-.75-1.94-1.46-1.15-3.54h0Z"/>
      <path class="cls-1" d="M255.16,35.24c-3.98-.41-5.74-1.85-5.47-4.28,1.21-.27,1.82.81,2.58,1.33,2.33,1.61,2.72,2.14,2.89,2.95Z"/>
    </g>
  </g>
</svg>