<?xml version="1.0" encoding="UTF-8"?>
<svg id="Layer_1" data-name="Layer 1" xmlns="http://www.w3.org/2000/svg" viewBox="0 0 347.21 483.16">
  <defs>
    <style>
      .cls-1 {
        fill: #ed2024;
      }
    </style>
  </defs>
  <path class="cls-1" d="M31.56,73.6c.39.44.71.76.99,1.12,4.08,5.2,8.13,10.44,12.27,15.59.88,1.09.58,1.79-.14,2.69-4,5.03-8,10.06-11.92,15.15-1.11,1.44-1.77,1.15-2.74-.11-3.92-5.1-7.88-10.16-11.89-15.18-.7-.88-.91-1.48-.15-2.43,4.18-5.25,8.31-10.54,12.46-15.81.28-.35.67-.62,1.11-1.02Z"/>
  <g>
    <path class="cls-1" d="M131.99,237.83c5.19.35,9.26-2.94,9.34-7.88.1-5.89-4.8-8.99-10.26-7.53l.08,28.71c-.11,4.64.79,5.38,3.54,5.2v1.01h-10.1v-1.01c2.75.21,3.67-.78,3.54-5.2,0-.48,0-23.49-.02-23.96-.1-5.83-2.65-5-3.52-5.18v-1.01h3.12c1.72,0,3.44-.09,5.16-.22,3.79-.3,12.21-.01,12.21,8.41,0,6.36-6.57,9.57-13.15,9.32l.06-.66Z"/>
    <path class="cls-1" d="M165.97,251.4l.63-.04c-.79,2.33-1.65,4.62-2.62,5.63-.56.66-1.26,1.02-1.98,1.02-1.14,0-2.07-.88-2.32-2.19-.38-1.58-.33-7.16-.29-11.22.02-1.82.03-3.4,0-4.25.06-1.45-.14-3.27-.87-4.04-.23-.24-.5-.36-.81-.36-.39,0-.83.2-1.32.58-3.19,2.54-4.53,13.17-4.99,18.24v2.58s-3.21,0-3.21,0c0-.58,0-2.99,0-6.28,0-9.74.02-27.88,0-28.29,0-.01.03-.53-.33-.92-.25-.27-.62-.4-1.11-.4-.45,0-.99.12-1.62.35l-.22-.93,6.53-2.21-.06,26.43v3.68c.78-6.53,3.68-15.8,7.72-15.8.64,0,1.29.24,1.94.71,1.71,1.25,1.66,4.54,1.63,6.12,0,.22,0,.41,0,.55l-.03,11.5c-.04,1.76.13,2.85.5,3.23.1.1.22.16.35.16.79,0,1.8-1.92,2.47-3.85h0Z"/>
    <path class="cls-1" d="M183.71,255.68c-1.64,1.53-3.52,2.33-5.45,2.33-4.13,0-7.99-3.66-8.97-8.52-1.17-4.27-.22-9.64,2.31-13.04,1.73-2.33,4.06-3.6,6.73-3.67,4.49.02,7.77,4.29,8.69,8.5,1.13,4.73.54,11.02-3.3,14.41ZM182.97,251c.94-3.81.95-7.73.03-11.65-.76-3.28-2.56-5.21-4.93-5.3h0c-1.25.06-2.31.69-3.17,1.88-2.59,3.59-2.71,11.64-1.66,15.39.74,3.26,2.75,5.45,5,5.45,2.22,0,3.99-2.16,4.73-5.77h0Z"/>
    <path class="cls-1" d="M199.58,251.26l.66-.04c-.78,2.37-1.57,4.79-2.53,5.77-.57.65-1.29,1-2.09,1-1.43,0-2.67-1.09-2.93-2.6-.46-1.79-.38-9.23-.33-14.67.03-2.5.05-4.67,0-5.64v-.06h-3.37l-.02-.94c3.9-.72,5.22-2.55,5.82-8.07h.85v7.43h3.5l.02,1.59h-3.48l-.06,16.18c.02.48.02.95.02,1.39,0,1.06-.01,1.97.35,2.52.17.25.45.4.76.4.22,0,.44-.08.61-.22.2-.16.41-.39.62-.69.27-.37.79-1.46,1.59-3.33h0Z"/>
    <path class="cls-1" d="M217.62,255.68c-1.64,1.53-3.52,2.33-5.45,2.33-4.13,0-7.99-3.66-8.97-8.52-1.17-4.27-.22-9.64,2.31-13.04,1.73-2.33,4.05-3.6,6.72-3.67,4.49.02,7.77,4.29,8.7,8.5,1.13,4.73.54,11.02-3.3,14.41ZM216.91,239.35c-.76-3.28-2.56-5.21-4.93-5.3h0c-1.25.06-2.31.69-3.17,1.88-2.59,3.59-2.71,11.64-1.66,15.39.74,3.26,2.75,5.45,5,5.45,2.22,0,3.99-2.16,4.73-5.77.94-3.81.95-7.73.03-11.65Z"/>
  </g>
  <path class="cls-1" d="M301.15,433.15c1.67.02,3.33.06,5,.05.44,0,.66.09.62.58-.03.44.04.88.04,1.33,0,9.1,0,18.19,0,27.29,0,.4,0,.8,0,1.22h5.12c0-.06,0-.12.01-.18l.17.1,16.99-29.46s.03,0,.05,0v-.09l.04-.08-.04-.03v-4.81h-17.2v-6.99c-.07-.12-.11-.25-.12-.39,0-.2.1-.43.23-.57s.36-.23.57-.23h1.43s.03,0,.04,0c.06-.01.1-.02.14-.02.54.08.65-.19.63-.68-.04-.78,0-1.56-.01-2.34,0-.88-.01-.89-.86-.98-.19-.02-.39-.04-.58-.04-2.72,0-5.43,0-8.15,0-.49,0-.98,0-1.49,0v4.12c.27-.07.47-.07.62-.03h1.67c.45,0,.78.37.8.8,0,.14-.04.26-.1.37,0,2.25,0,4.45-.02,6.64,0,.11-.27.31-.41.31-1.15.03-2.31.03-3.46.03-.72,0-1.44,0-2.17,0v4.04c.18.01.32.02.46.03ZM325.32,437.42s.04-.06.05-.09l-.05.09ZM311.97,433.23c.19-.01.36-.03.53-.03,3.34,0,6.67,0,10.01,0,.45,0,.59.13.56.57,0,.08,0,.17,0,.25l-10.84,19.46c-.23-.05-.29-.21-.29-.49-.01-3.71-.04-7.42-.05-11.13,0-2.34-.01-4.69,0-7.03,0-.51.05-1.02.09-1.58Z"/>
  <path class="cls-1" d="M17.64,433.15c1.67.02,3.33.06,5,.05.44,0,.66.09.62.58-.03.44.04.88.04,1.33,0,9.1,0,18.19,0,27.29,0,.4,0,.8,0,1.22h5.12c0-.06,0-.12.01-.18l.17.1,16.99-29.46s.03,0,.05,0v-.09l.04-.08-.04-.03v-4.81h-17.2v-6.99c-.07-.12-.11-.25-.12-.39,0-.2.1-.43.23-.57s.36-.23.57-.23h1.43s.03,0,.04,0c.06-.01.1-.02.14-.02.54.08.65-.19.63-.68-.04-.78,0-1.56-.01-2.34,0-.88-.01-.89-.86-.98-.19-.02-.39-.04-.58-.04-2.72,0-5.43,0-8.15,0-.49,0-.98,0-1.49,0v4.12c.27-.07.47-.07.62-.03h1.67c.45,0,.78.37.8.8,0,.14-.04.26-.1.37,0,2.25,0,4.45-.02,6.64,0,.11-.27.31-.41.31-1.15.03-2.31.03-3.46.03-.72,0-1.44,0-2.17,0v4.04c.18.01.32.02.46.03ZM41.81,437.42s.04-.06.05-.09l-.05.09ZM28.47,433.23c.19-.01.36-.03.53-.03,3.34,0,6.67,0,10.01,0,.45,0,.59.13.56.57,0,.08,0,.17,0,.25l-10.84,19.46c-.23-.05-.29-.21-.29-.49-.01-3.71-.04-7.42-.05-11.13,0-2.34-.01-4.69,0-7.03,0-.51.05-1.02.09-1.58Z"/>
  <path class="cls-1" d="M45.22,50.01c-1.67-.02-3.33-.06-5-.05-.44,0-.66-.09-.62-.58.03-.44-.04-.88-.04-1.33,0-9.1,0-18.19,0-27.29,0-.4,0-.8,0-1.22h-5.12c0,.06,0,.12-.01.18l-.17-.1-16.99,29.46s-.03,0-.05,0v.09l-.04.08.04.03v4.81h17.2v6.99c.07.12.11.25.12.39,0,.2-.1.43-.23.57s-.36.23-.57.23h-1.43s-.03,0-.04,0c-.06.01-.1.02-.14.02-.54-.08-.65.19-.63.68.04.78,0,1.56.01,2.34,0,.88.01.89.86.98.19.02.39.04.58.04,2.72,0,5.43,0,8.15,0,.49,0,.98,0,1.49,0v-4.12c-.27.07-.47.07-.62.03h-1.67c-.45,0-.78-.37-.8-.8,0-.14.04-.26.1-.37,0-2.25,0-4.45.02-6.64,0-.11.27-.31.41-.31,1.15-.03,2.31-.03,3.46-.03.72,0,1.44,0,2.17,0v-4.04c-.18-.01-.32-.02-.46-.03ZM21.06,45.75s-.04.06-.05.09l.05-.09ZM34.4,49.93c-.19.01-.36.03-.53.03-3.34,0-6.67,0-10.01,0-.45,0-.59-.13-.56-.57,0-.08,0-.17,0-.25l10.84-19.46c.23.05.29.21.29.49.01,3.71.04,7.42.05,11.13,0,2.34.01,4.69,0,7.03,0,.51-.05,1.02-.09,1.58Z"/>
  <path class="cls-1" d="M328.73,50.01c-1.67-.02-3.33-.06-5-.05-.44,0-.66-.09-.62-.58.03-.44-.04-.88-.04-1.33,0-9.1,0-18.19,0-27.29,0-.4,0-.8,0-1.22h-5.12c0,.06,0,.12-.01.18l-.17-.1-16.99,29.46s-.03,0-.05,0v.09l-.04.08.04.03v4.81h17.2v6.99c.07.12.11.25.12.39,0,.2-.1.43-.23.57s-.36.23-.57.23h-1.43s-.03,0-.04,0c-.06.01-.1.02-.14.02-.54-.08-.65.19-.63.68.04.78,0,1.56.01,2.34,0,.88.01.89.86.98.19.02.39.04.58.04,2.72,0,5.43,0,8.15,0,.49,0,.98,0,1.49,0v-4.12c-.27.07-.47.07-.62.03h-1.67c-.45,0-.78-.37-.8-.8,0-.14.04-.26.1-.37,0-2.25,0-4.45.02-6.64,0-.11.27-.31.41-.31,1.15-.03,2.31-.03,3.46-.03.72,0,1.44,0,2.17,0v-4.04c-.18-.01-.32-.02-.46-.03ZM304.57,45.75s-.04.06-.05.09l.05-.09ZM317.91,49.93c-.19.01-.36.03-.53.03-3.34,0-6.67,0-10.01,0-.45,0-.59-.13-.56-.57,0-.08,0-.17,0-.25l10.84-19.46c.23.05.29.21.29.49.01,3.71.04,7.42.05,11.13,0,2.34.01,4.69,0,7.03,0,.51-.05,1.02-.09,1.58Z"/>
  <path class="cls-1" d="M315.07,73.03c.39.44.71.76.99,1.12,4.08,5.2,8.13,10.44,12.27,15.59.88,1.09.58,1.79-.14,2.69-4,5.03-8,10.06-11.92,15.15-1.11,1.44-1.77,1.15-2.74-.11-3.92-5.1-7.88-10.16-11.89-15.18-.7-.88-.91-1.48-.15-2.43,4.18-5.25,8.31-10.54,12.46-15.81.28-.35.67-.62,1.11-1.02Z"/>
  <path class="cls-1" d="M315.07,375.35c.39.44.71.76.99,1.12,4.08,5.2,8.13,10.44,12.27,15.59.88,1.09.58,1.79-.14,2.69-4,5.03-8,10.06-11.92,15.15-1.11,1.44-1.77,1.15-2.74-.11-3.92-5.1-7.88-10.16-11.89-15.18-.7-.88-.91-1.48-.15-2.43,4.18-5.25,8.31-10.54,12.46-15.81.28-.35.67-.62,1.11-1.02Z"/>
  <path class="cls-1" d="M31.56,375.61c.39.44.71.76.99,1.12,4.08,5.2,8.13,10.44,12.27,15.59.88,1.09.58,1.79-.14,2.69-4,5.03-8,10.06-11.92,15.15-1.11,1.44-1.77,1.15-2.74-.11-3.92-5.1-7.88-10.16-11.89-15.18-.7-.88-.91-1.48-.15-2.43,4.18-5.25,8.31-10.54,12.46-15.81.28-.35.67-.62,1.11-1.02Z"/>
  <path class="cls-1" d="M109.4,85.36c1.05,1.19,1.92,2.07,2.68,3.05,11.08,14.12,22.05,28.32,33.3,42.31,2.39,2.97,1.58,4.85-.37,7.3-10.84,13.65-21.7,27.3-32.34,41.11-3.01,3.91-4.81,3.13-7.45-.31-10.62-13.83-21.38-27.56-32.26-41.2-1.9-2.38-2.47-4.03-.42-6.61,11.34-14.24,22.54-28.6,33.82-42.89.75-.96,1.81-1.67,3.02-2.77Z"/>
  <path class="cls-1" d="M247.93,85.36c1.05,1.19,1.92,2.07,2.68,3.05,11.08,14.12,22.05,28.32,33.3,42.31,2.39,2.97,1.58,4.85-.37,7.3-10.84,13.65-21.7,27.3-32.34,41.11-3.01,3.91-4.81,3.13-7.45-.31-10.62-13.83-21.38-27.56-32.26-41.2-1.9-2.38-2.47-4.03-.42-6.61,11.34-14.24,22.54-28.6,33.82-42.89.75-.96,1.81-1.67,3.02-2.77Z"/>
  <path class="cls-1" d="M111.31,296.59c1.05,1.19,1.92,2.07,2.68,3.05,11.08,14.12,22.05,28.32,33.3,42.31,2.39,2.97,1.58,4.85-.37,7.3-10.84,13.65-21.7,27.3-32.34,41.11-3.01,3.91-4.81,3.13-7.45-.31-10.62-13.83-21.38-27.56-32.26-41.2-1.9-2.38-2.47-4.03-.42-6.61,11.34-14.24,22.54-28.6,33.82-42.89.75-.96,1.81-1.67,3.02-2.77Z"/>
  <path class="cls-1" d="M249.84,296.59c1.05,1.19,1.92,2.07,2.68,3.05,11.08,14.12,22.05,28.32,33.3,42.31,2.39,2.97,1.58,4.85-.37,7.3-10.84,13.65-21.7,27.3-32.34,41.11-3.01,3.91-4.81,3.13-7.45-.31-10.62-13.83-21.38-27.56-32.26-41.2-1.9-2.38-2.47-4.03-.42-6.61,11.34-14.24,22.54-28.6,33.82-42.89.75-.96,1.81-1.67,3.02-2.77Z"/>
</svg>