<?xml version="1.0" encoding="UTF-8"?>
<svg id="Layer_1" data-name="Layer 1" xmlns="http://www.w3.org/2000/svg" viewBox="0 0 347.21 483.16">
  <defs>
    <style>
      .cls-1, .cls-2 {
        fill: #ed2024;
      }

      .cls-2 {
        font-family: PalaceRegular, Palace;
        font-size: 52px;
      }

      .cls-3 {
        letter-spacing: -.02em;
      }
    </style>
  </defs>
  <path class="cls-1" d="M31.56,73.6c.39.44.71.76.99,1.12,4.08,5.2,8.13,10.44,12.27,15.59.88,1.09.58,1.79-.14,2.69-4,5.03-8,10.06-11.92,15.15-1.11,1.44-1.77,1.15-2.74-.11-3.92-5.1-7.88-10.16-11.89-15.18-.7-.88-.91-1.48-.15-2.43,4.18-5.25,8.31-10.54,12.46-15.81.28-.35.67-.62,1.11-1.02Z"/>
  <text class="cls-2" transform="translate(123.71 257.36)"><tspan x="0" y="0">Ph</tspan><tspan class="cls-3" x="43.52" y="0">o</tspan><tspan x="64.58" y="0">to</tspan></text>
  <path class="cls-1" d="M301.15,433.15c1.67.02,3.33.06,5,.05.44,0,.66.09.62.58-.03.44.04.88.04,1.33,0,9.1,0,18.19,0,27.29,0,.4,0,.8,0,1.22h5.12c0-.06,0-.12.01-.18l.17.1,16.99-29.46s.03,0,.05,0v-.09l.04-.08-.04-.03v-4.81h-17.2v-6.99c-.07-.12-.11-.25-.12-.39,0-.2.1-.43.23-.57s.36-.23.57-.23h1.43s.03,0,.04,0c.06-.01.1-.02.14-.02.54.08.65-.19.63-.68-.04-.78,0-1.56-.01-2.34,0-.88-.01-.89-.86-.98-.19-.02-.39-.04-.58-.04-2.72,0-5.43,0-8.15,0-.49,0-.98,0-1.49,0v4.12c.27-.07.47-.07.62-.03h1.67c.45,0,.78.37.8.8,0,.14-.04.26-.1.37,0,2.25,0,4.45-.02,6.64,0,.11-.27.31-.41.31-1.15.03-2.31.03-3.46.03-.72,0-1.44,0-2.17,0v4.04c.18.01.32.02.46.03ZM325.32,437.42s.04-.06.05-.09l-.05.09ZM311.97,433.23c.19-.01.36-.03.53-.03,3.34,0,6.67,0,10.01,0,.45,0,.59.13.56.57,0,.08,0,.17,0,.25l-10.84,19.46c-.23-.05-.29-.21-.29-.49-.01-3.71-.04-7.42-.05-11.13,0-2.34-.01-4.69,0-7.03,0-.51.05-1.02.09-1.58Z"/>
  <path class="cls-1" d="M17.64,433.15c1.67.02,3.33.06,5,.05.44,0,.66.09.62.58-.03.44.04.88.04,1.33,0,9.1,0,18.19,0,27.29,0,.4,0,.8,0,1.22h5.12c0-.06,0-.12.01-.18l.17.1,16.99-29.46s.03,0,.05,0v-.09l.04-.08-.04-.03v-4.81h-17.2v-6.99c-.07-.12-.11-.25-.12-.39,0-.2.1-.43.23-.57s.36-.23.57-.23h1.43s.03,0,.04,0c.06-.01.1-.02.14-.02.54.08.65-.19.63-.68-.04-.78,0-1.56-.01-2.34,0-.88-.01-.89-.86-.98-.19-.02-.39-.04-.58-.04-2.72,0-5.43,0-8.15,0-.49,0-.98,0-1.49,0v4.12c.27-.07.47-.07.62-.03h1.67c.45,0,.78.37.8.8,0,.14-.04.26-.1.37,0,2.25,0,4.45-.02,6.64,0,.11-.27.31-.41.31-1.15.03-2.31.03-3.46.03-.72,0-1.44,0-2.17,0v4.04c.18.01.32.02.46.03ZM41.81,437.42s.04-.06.05-.09l-.05.09ZM28.47,433.23c.19-.01.36-.03.53-.03,3.34,0,6.67,0,10.01,0,.45,0,.59.13.56.57,0,.08,0,.17,0,.25l-10.84,19.46c-.23-.05-.29-.21-.29-.49-.01-3.71-.04-7.42-.05-11.13,0-2.34-.01-4.69,0-7.03,0-.51.05-1.02.09-1.58Z"/>
  <path class="cls-1" d="M45.22,50.01c-1.67-.02-3.33-.06-5-.05-.44,0-.66-.09-.62-.58.03-.44-.04-.88-.04-1.33,0-9.1,0-18.19,0-27.29,0-.4,0-.8,0-1.22h-5.12c0,.06,0,.12-.01.18l-.17-.1-16.99,29.46s-.03,0-.05,0v.09l-.04.08.04.03v4.81h17.2v6.99c.07.12.11.25.12.39,0,.2-.1.43-.23.57s-.36.23-.57.23h-1.43s-.03,0-.04,0c-.06.01-.1.02-.14.02-.54-.08-.65.19-.63.68.04.78,0,1.56.01,2.34,0,.88.01.89.86.98.19.02.39.04.58.04,2.72,0,5.43,0,8.15,0,.49,0,.98,0,1.49,0v-4.12c-.27.07-.47.07-.62.03h-1.67c-.45,0-.78-.37-.8-.8,0-.14.04-.26.1-.37,0-2.25,0-4.45.02-6.64,0-.11.27-.31.41-.31,1.15-.03,2.31-.03,3.46-.03.72,0,1.44,0,2.17,0v-4.04c-.18-.01-.32-.02-.46-.03ZM21.06,45.75s-.04.06-.05.09l.05-.09ZM34.4,49.93c-.19.01-.36.03-.53.03-3.34,0-6.67,0-10.01,0-.45,0-.59-.13-.56-.57,0-.08,0-.17,0-.25l10.84-19.46c.23.05.29.21.29.49.01,3.71.04,7.42.05,11.13,0,2.34.01,4.69,0,7.03,0,.51-.05,1.02-.09,1.58Z"/>
  <path class="cls-1" d="M328.73,50.01c-1.67-.02-3.33-.06-5-.05-.44,0-.66-.09-.62-.58.03-.44-.04-.88-.04-1.33,0-9.1,0-18.19,0-27.29,0-.4,0-.8,0-1.22h-5.12c0,.06,0,.12-.01.18l-.17-.1-16.99,29.46s-.03,0-.05,0v.09l-.04.08.04.03v4.81h17.2v6.99c.07.12.11.25.12.39,0,.2-.1.43-.23.57s-.36.23-.57.23h-1.43s-.03,0-.04,0c-.06.01-.1.02-.14.02-.54-.08-.65.19-.63.68.04.78,0,1.56.01,2.34,0,.88.01.89.86.98.19.02.39.04.58.04,2.72,0,5.43,0,8.15,0,.49,0,.98,0,1.49,0v-4.12c-.27.07-.47.07-.62.03h-1.67c-.45,0-.78-.37-.8-.8,0-.14.04-.26.1-.37,0-2.25,0-4.45.02-6.64,0-.11.27-.31.41-.31,1.15-.03,2.31-.03,3.46-.03.72,0,1.44,0,2.17,0v-4.04c-.18-.01-.32-.02-.46-.03ZM304.57,45.75s-.04.06-.05.09l.05-.09ZM317.91,49.93c-.19.01-.36.03-.53.03-3.34,0-6.67,0-10.01,0-.45,0-.59-.13-.56-.57,0-.08,0-.17,0-.25l10.84-19.46c.23.05.29.21.29.49.01,3.71.04,7.42.05,11.13,0,2.34.01,4.69,0,7.03,0,.51-.05,1.02-.09,1.58Z"/>
  <path class="cls-1" d="M315.07,73.03c.39.44.71.76.99,1.12,4.08,5.2,8.13,10.44,12.27,15.59.88,1.09.58,1.79-.14,2.69-4,5.03-8,10.06-11.92,15.15-1.11,1.44-1.77,1.15-2.74-.11-3.92-5.1-7.88-10.16-11.89-15.18-.7-.88-.91-1.48-.15-2.43,4.18-5.25,8.31-10.54,12.46-15.81.28-.35.67-.62,1.11-1.02Z"/>
  <path class="cls-1" d="M315.07,375.35c.39.44.71.76.99,1.12,4.08,5.2,8.13,10.44,12.27,15.59.88,1.09.58,1.79-.14,2.69-4,5.03-8,10.06-11.92,15.15-1.11,1.44-1.77,1.15-2.74-.11-3.92-5.1-7.88-10.16-11.89-15.18-.7-.88-.91-1.48-.15-2.43,4.18-5.25,8.31-10.54,12.46-15.81.28-.35.67-.62,1.11-1.02Z"/>
  <path class="cls-1" d="M31.56,375.61c.39.44.71.76.99,1.12,4.08,5.2,8.13,10.44,12.27,15.59.88,1.09.58,1.79-.14,2.69-4,5.03-8,10.06-11.92,15.15-1.11,1.44-1.77,1.15-2.74-.11-3.92-5.1-7.88-10.16-11.89-15.18-.7-.88-.91-1.48-.15-2.43,4.18-5.25,8.31-10.54,12.46-15.81.28-.35.67-.62,1.11-1.02Z"/>
  <path class="cls-1" d="M109.4,85.36c1.05,1.19,1.92,2.07,2.68,3.05,11.08,14.12,22.05,28.32,33.3,42.31,2.39,2.97,1.58,4.85-.37,7.3-10.84,13.65-21.7,27.3-32.34,41.11-3.01,3.91-4.81,3.13-7.45-.31-10.62-13.83-21.38-27.56-32.26-41.2-1.9-2.38-2.47-4.03-.42-6.61,11.34-14.24,22.54-28.6,33.82-42.89.75-.96,1.81-1.67,3.02-2.77Z"/>
  <path class="cls-1" d="M247.93,85.36c1.05,1.19,1.92,2.07,2.68,3.05,11.08,14.12,22.05,28.32,33.3,42.31,2.39,2.97,1.58,4.85-.37,7.3-10.84,13.65-21.7,27.3-32.34,41.11-3.01,3.91-4.81,3.13-7.45-.31-10.62-13.83-21.38-27.56-32.26-41.2-1.9-2.38-2.47-4.03-.42-6.61,11.34-14.24,22.54-28.6,33.82-42.89.75-.96,1.81-1.67,3.02-2.77Z"/>
  <path class="cls-1" d="M111.31,296.59c1.05,1.19,1.92,2.07,2.68,3.05,11.08,14.12,22.05,28.32,33.3,42.31,2.39,2.97,1.58,4.85-.37,7.3-10.84,13.65-21.7,27.3-32.34,41.11-3.01,3.91-4.81,3.13-7.45-.31-10.62-13.83-21.38-27.56-32.26-41.2-1.9-2.38-2.47-4.03-.42-6.61,11.34-14.24,22.54-28.6,33.82-42.89.75-.96,1.81-1.67,3.02-2.77Z"/>
  <path class="cls-1" d="M249.84,296.59c1.05,1.19,1.92,2.07,2.68,3.05,11.08,14.12,22.05,28.32,33.3,42.31,2.39,2.97,1.58,4.85-.37,7.3-10.84,13.65-21.7,27.3-32.34,41.11-3.01,3.91-4.81,3.13-7.45-.31-10.62-13.83-21.38-27.56-32.26-41.2-1.9-2.38-2.47-4.03-.42-6.61,11.34-14.24,22.54-28.6,33.82-42.89.75-.96,1.81-1.67,3.02-2.77Z"/>
</svg>