<?xml version="1.0" encoding="UTF-8"?>
<svg id="Layer_1" data-name="Layer 1" xmlns="http://www.w3.org/2000/svg" viewBox="0 0 347.21 483.16">
  <path d="M22.84,72.87c2.92-.13,5.35,1.34,7.26,3.5,1.26,1.43,1.85,1.03,2.96-.06,3.95-3.89,8.7-4.55,12.85-1.94,3.72,2.34,5.26,6.6,4.03,10.99-1.05,3.77-3.49,6.65-6.11,9.38-3.45,3.6-7.44,6.6-11.43,9.58-1.06.79-1.79.78-2.84-.08-4.81-3.91-9.41-8.03-13.24-12.92-2.48-3.17-4.33-6.68-3.39-10.92,1.05-4.7,4.82-7.54,9.92-7.53Z"/>
  <path d="M305.94,72.87c2.92-.13,5.35,1.34,7.26,3.5,1.26,1.43,1.85,1.03,2.96-.06,3.95-3.89,8.7-4.55,12.85-1.94,3.72,2.34,5.26,6.6,4.03,10.99-1.05,3.77-3.49,6.65-6.11,9.38-3.45,3.6-7.44,6.6-11.43,9.58-1.06.79-1.79.78-2.84-.08-4.81-3.91-9.41-8.03-13.24-12.92-2.48-3.17-4.33-6.68-3.39-10.92,1.05-4.7,4.82-7.54,9.92-7.53Z"/>
  <path d="M98.21,162.59c6.3-.27,11.56,2.9,15.67,7.56,2.73,3.09,3.99,2.23,6.39-.13,8.53-8.4,18.8-9.83,27.74-4.19,8.03,5.06,11.36,14.26,8.71,23.73-2.28,8.15-7.54,14.36-13.19,20.26-7.46,7.78-16.06,14.25-24.68,20.68-2.29,1.71-3.86,1.69-6.14-.16-10.38-8.45-20.33-17.35-28.59-27.9-5.36-6.85-9.36-14.44-7.32-23.57,2.26-10.14,10.42-16.28,21.41-16.27Z"/>
  <path d="M203.49,162.59c6.3-.27,11.56,2.9,15.67,7.56,2.73,3.09,3.99,2.23,6.39-.13,8.53-8.4,18.8-9.83,27.74-4.19,8.03,5.06,11.36,14.26,8.71,23.73-2.28,8.15-7.54,14.36-13.19,20.26-7.46,7.78-16.06,14.25-24.68,20.68-2.29,1.71-3.86,1.69-6.14-.16-10.38-8.45-20.33-17.35-28.59-27.9-5.36-6.85-9.36-14.44-7.32-23.57,2.26-10.14,10.42-16.28,21.41-16.27Z"/>
  <path d="M239.67,324.35c-6.3.27-11.56-2.9-15.67-7.56-2.73-3.09-3.99-2.23-6.39.13-8.53,8.4-18.8,9.83-27.74,4.19-8.03-5.06-11.36-14.26-8.71-23.73,2.28-8.15,7.54-14.36,13.19-20.26,7.46-7.78,16.06-14.25,24.68-20.68,2.29-1.71,3.86-1.69,6.14.16,10.38,8.45,20.33,17.35,28.59,27.9,5.36,6.85,9.36,14.44,7.32,23.57-2.26,10.14-10.42,16.28-21.41,16.27Z"/>
  <path d="M134.38,324.35c-6.3.27-11.56-2.9-15.67-7.56-2.73-3.09-3.99-2.23-6.39.13-8.53,8.4-18.8,9.83-27.74,4.19-8.03-5.06-11.36-14.26-8.71-23.73,2.28-8.15,7.54-14.36,13.19-20.26,7.46-7.78,16.06-14.25,24.68-20.68,2.29-1.71,3.86-1.69,6.14.16,10.38,8.45,20.33,17.35,28.59,27.9,5.36,6.85,9.36,14.44,7.32,23.57-2.26,10.14-10.42,16.28-21.41,16.27Z"/>
  <g>
    <path d="M117.33,38.5c3.39.23,6.05-1.92,6.11-5.15.06-3.85-3.14-5.88-6.71-4.92l.05,18.77c-.07,3.03.51,3.52,2.31,3.4v.66h-6.6v-.66c1.8.13,2.4-.51,2.31-3.4,0-.31,0-15.36-.01-15.66-.07-3.81-1.74-3.27-2.3-3.39v-.66h2.04c1.13,0,2.25-.06,3.37-.15,2.48-.19,7.98,0,7.98,5.5,0,4.16-4.3,6.26-8.6,6.09l.04-.43Z"/>
    <path d="M136.78,36.5s.14,1.36-.58,1.78c-.24.14-.48.21-.71.21-.29,0-.56-.11-.8-.32-.11-.1-.26-.15-.42-.15-.21,0-.41.1-.52.27-1.13,1.65-2.21,7.17-2.25,7.41-.46,2.37-.46,3.05-.49,5.29v.26h-2.15l.1-11.04c0-.26,0-.5,0-.73,0-1.05.01-1.81-.36-2.19-.17-.17-.41-.25-.74-.25-.25,0-.55.05-.93.14l-.23-.58,4.25-1.41-.07,10.38h.09s.22-.9.22-.9c.8-3.29,1.7-7.01,2.66-8.3.47-.74,1.11-1.18,1.7-1.18.62,0,1.08.49,1.22,1.31h0Z"/>
    <path d="M147.37,50.16c-1.07,1-2.3,1.52-3.56,1.52-2.7,0-5.22-2.4-5.87-5.57-.77-2.79-.15-6.3,1.51-8.53,1.13-1.52,2.65-2.35,4.4-2.4,2.93.01,5.08,2.8,5.68,5.55.74,3.09.36,7.2-2.16,9.42ZM146.91,39.49c-.5-2.15-1.67-3.41-3.22-3.46h0c-.81.04-1.51.45-2.07,1.23-1.69,2.34-1.77,7.61-1.09,10.06.48,2.13,1.8,3.56,3.27,3.56,1.45,0,2.61-1.41,3.09-3.77.62-2.49.62-5.05.02-7.62Z"/>
    <path d="M164.97,47.4h.54c-.36,1.02-.9,2.43-1.46,3.2-.45.68-1.05,1.07-1.65,1.07-.76,0-1.35-.61-1.54-1.58-.26-.91-.21-2.85-.17-4.27,0-.24.01-.47.02-.67h-.08s-.1.29-.1.29c-1.02,3.1-1.99,6.03-4.46,6.26-2.06-.14-3.32-2.48-3.76-4.45-.78-3.16-.04-7.97,2.55-10.55.88-.98,1.88-1.49,2.88-1.49,1.07,0,2.06.58,2.87,1.66l.08.11-.03-6.35c.04-1.24.04-2.09-.37-2.51-.18-.18-.43-.27-.76-.27-.23,0-.51.04-.83.14l-.13-.58,4.24-1.43-.08,21.01c-.05,1.48.08,2.39.37,2.69.07.07.15.11.24.11.52,0,1.17-1.29,1.63-2.38h0ZM159.8,45.62c.9-2.67,1.12-5.04.65-7.04-.27-1.23-1.18-2.55-2.55-2.57h0c-1.24,0-2.25,1.26-3,3.75-.75,2.47-.86,4.87-.33,7.13.23.99.84,2.67,2.32,2.78,1.03,0,2.01-1.36,2.91-4.05h0Z"/>
    <path d="M180.09,47.19h.47c-.12.3-.24.63-.36.95-.66,1.82-1.29,3.53-2.81,3.53h0c-.45,0-.81-.13-1.07-.41-.72-.73-.71-2.34-.69-4.04,0-.24,0-.92,0-1.15v-4.98h-.09c-.45,4.28-2.38,10.61-5.08,10.61-.42,0-.84-.16-1.27-.47-1.12-.82-1.08-2.96-1.07-4,0-.14,0-.27,0-.36l.02-7.52c.03-1.15-.08-1.86-.33-2.11-.07-.07-.14-.1-.23-.1-.51,0-1.18,1.26-1.61,2.51l-.41.02c.52-1.53,1.08-3.02,1.71-3.68.37-.43.83-.67,1.29-.67.74,0,1.35.58,1.52,1.43.25,1.04.21,4.68.19,7.34-.01,1.19-.02,2.22,0,2.78-.04.95.09,2.14.57,2.64.15.16.33.24.53.24.25,0,.54-.13.86-.38,2.65-2.1,3.34-12.76,3.4-13.63h2.1l-.04,11.08h0v.47c-.01,1.25-.02,2,.36,2.27.14.1.29.16.43.16.72,0,1.17-1.31,1.5-2.27l.1-.28h0Z"/>
    <path d="M193.24,46.97c-.49,1.45-1.46,2.96-2.36,3.68-.81.67-1.87,1.04-3,1.04-1.35,0-2.63-.52-3.53-1.42-2.3-2.17-2.77-6.26-2.06-9.17.65-2.93,2.94-5.9,6.06-5.91h.11c1.82,0,3.26,1.09,3.67,2.77.15.65.18,1.6-.22,2.1-.17.22-.42.34-.72.34h-.05c-.44,0-.78-.13-1.01-.4-.39-.46-.33-1.15-.28-1.42.05-.3.22-.59.36-.82.11-.18.2-.33.21-.45.04-.33-.05-.62-.26-.86-.3-.34-.86-.55-1.46-.55h-.05c-.96,0-1.83.42-2.57,1.25-2.29,2.71-2.69,9.1.04,11.94.78.73,1.63,1.09,2.52,1.09,1.61,0,3.16-1.22,4.04-3.2l.54-.02Z"/>
    <path d="M200.96,47.27l.43-.02c-.51,1.55-1.03,3.13-1.66,3.77-.37.43-.84.65-1.36.65-.94,0-1.74-.72-1.92-1.7-.3-1.17-.25-6.04-.21-9.59.02-1.64.03-3.05,0-3.69v-.04h-2.2l-.02-.62c2.55-.47,3.41-1.67,3.8-5.28h.56v4.86h2.29v1.04s-2.26,0-2.26,0l-.04,10.58c.02.31.01.62.01.91,0,.69,0,1.29.23,1.65.11.16.29.26.5.26.14,0,.29-.05.4-.15.13-.11.26-.26.4-.45.18-.24.52-.95,1.04-2.18h0Z"/>
    <path d="M209.12,47.29h.36c-.05.17-.11.34-.17.51-.54,1.64-1.29,3.88-2.89,3.88h0c-1.8,0-1.81-1.72-1.82-3.54l.02-8.15v-.19c.04-1.01.07-1.96-.38-2.43-.19-.2-.46-.3-.8-.3-.24,0-.52.05-.83.14l-.14-.61,4.26-1.41.04,12.46c.02.28.02.52.01.74,0,.53,0,.92.22,1.18.12.13.29.21.47.21.2,0,.38-.08.5-.23.43-.54.81-1.3,1.14-2.27h0ZM204.04,30.92c0-1.12.64-2.03,1.43-2.03s1.43.91,1.43,2.03-.64,2.03-1.43,2.03-1.43-.91-1.43-2.03Z"/>
    <path d="M220.71,50.16c-1.07,1-2.3,1.52-3.56,1.52-2.7,0-5.22-2.4-5.87-5.57-.77-2.79-.15-6.3,1.51-8.53,1.13-1.52,2.65-2.35,4.4-2.4,2.93.01,5.08,2.8,5.68,5.55.74,3.09.36,7.2-2.16,9.42ZM220.25,39.49c-.5-2.15-1.67-3.41-3.22-3.46h0c-.81.04-1.51.45-2.07,1.23-1.69,2.34-1.77,7.61-1.09,10.06.48,2.13,1.8,3.56,3.27,3.56,1.45,0,2.61-1.41,3.09-3.77.62-2.49.62-5.05.02-7.62Z"/>
    <path d="M238.14,47.34l.41-.02c-.52,1.53-1.08,3.02-1.71,3.68-.37.43-.83.67-1.29.67-.74,0-1.35-.57-1.52-1.43-.25-1.04-.21-4.68-.19-7.34.01-1.19.02-2.22,0-2.78.04-.95-.09-2.14-.57-2.64-.15-.16-.33-.24-.53-.24-.25,0-.54.13-.86.38-2.65,2.1-3.34,12.76-3.4,13.63h-2.1l.04-11.13c0-.2,0-.39,0-.58,0-.92,0-1.72-.39-2.13-.18-.18-.42-.27-.74-.27-.23,0-.49.04-.79.13l-.21-.56,4.25-1.51-.04,10.71h.09c.45-4.28,2.38-10.61,5.07-10.61.42,0,.84.16,1.27.47,1.12.82,1.08,2.97,1.06,4,0,.14,0,.27,0,.36l-.02,7.52c-.03,1.15.08,1.86.33,2.11.07.07.14.1.23.1.51,0,1.18-1.26,1.61-2.51h0Z"/>
  </g>
  <path d="M45.3,44.83c-1.67-.02-3.33-.06-5-.05-.44,0-.66-.09-.62-.58.03-.44-.04-.88-.04-1.33,0-9.1,0-18.19,0-27.29,0-.4,0-.8,0-1.22h-5.12c0,.06,0,.12-.01.18l-.17-.1-16.99,29.46s-.03,0-.05,0v.09l-.04.08.04.03v4.81h17.2v6.99c.07.12.11.25.12.39,0,.2-.1.43-.23.57s-.36.23-.57.23h-1.43s-.03,0-.04,0c-.06.01-.1.02-.14.02-.54-.08-.65.19-.63.68.04.78,0,1.56.01,2.34,0,.88.01.89.86.98.19.02.39.04.58.04,2.72,0,5.43,0,8.15,0,.49,0,.98,0,1.49,0v-4.12c-.27.07-.47.07-.62.03h-1.67c-.45,0-.78-.37-.8-.8,0-.14.04-.26.1-.37,0-2.25,0-4.45.02-6.64,0-.11.27-.31.41-.31,1.15-.03,2.31-.03,3.46-.03.72,0,1.44,0,2.17,0v-4.04c-.18-.01-.32-.02-.46-.03ZM21.14,40.57s-.04.06-.05.09l.05-.09ZM34.48,44.75c-.19.01-.36.03-.53.03-3.34,0-6.67,0-10.01,0-.45,0-.59-.13-.56-.57,0-.08,0-.17,0-.25l10.84-19.46c.23.05.29.21.29.49.01,3.71.04,7.42.05,11.13,0,2.34.01,4.69,0,7.03,0,.51-.05,1.02-.09,1.58Z"/>
  <path d="M328.4,44.83c-1.67-.02-3.33-.06-5-.05-.44,0-.66-.09-.62-.58.03-.44-.04-.88-.04-1.33,0-9.1,0-18.19,0-27.29,0-.4,0-.8,0-1.22h-5.12c0,.06,0,.12-.01.18l-.17-.1-16.99,29.46s-.03,0-.05,0v.09l-.04.08.04.03v4.81h17.2v6.99c.07.12.11.25.12.39,0,.2-.1.43-.23.57s-.36.23-.57.23h-1.43s-.03,0-.04,0c-.06.01-.1.02-.14.02-.54-.08-.65.19-.63.68.04.78,0,1.56.01,2.34,0,.88.01.89.86.98.19.02.39.04.58.04,2.72,0,5.43,0,8.15,0,.49,0,.98,0,1.49,0v-4.12c-.27.07-.47.07-.62.03h-1.67c-.45,0-.78-.37-.8-.8,0-.14.04-.26.1-.37,0-2.25,0-4.45.02-6.64,0-.11.27-.31.41-.31,1.15-.03,2.31-.03,3.46-.03.72,0,1.44,0,2.17,0v-4.04c-.18-.01-.32-.02-.46-.03ZM304.24,40.57s-.04.06-.05.09l.05-.09ZM317.58,44.75c-.19.01-.36.03-.53.03-3.34,0-6.67,0-10.01,0-.45,0-.59-.13-.56-.57,0-.08,0-.17,0-.25l10.84-19.46c.23.05.29.21.29.49.01,3.71.04,7.42.05,11.13,0,2.34.01,4.69,0,7.03,0,.51-.05,1.02-.09,1.58Z"/>
  <path d="M323.28,412.37c-2.92.13-5.35-1.34-7.26-3.5-1.26-1.43-1.85-1.03-2.96.06-3.95,3.89-8.7,4.55-12.85,1.94-3.72-2.34-5.26-6.6-4.03-10.99,1.05-3.77,3.49-6.65,6.11-9.38,3.45-3.6,7.44-6.6,11.43-9.58,1.06-.79,1.79-.78,2.84.08,4.81,3.91,9.41,8.03,13.24,12.92,2.48,3.17,4.33,6.68,3.39,10.92-1.05,4.7-4.82,7.54-9.92,7.53Z"/>
  <path d="M40.18,412.37c-2.92.13-5.35-1.34-7.26-3.5-1.26-1.43-1.85-1.03-2.96.06-3.95,3.89-8.7,4.55-12.85,1.94-3.72-2.34-5.26-6.6-4.03-10.99,1.05-3.77,3.49-6.65,6.11-9.38,3.45-3.6,7.44-6.6,11.43-9.58,1.06-.79,1.79-.78,2.84.08,4.81,3.91,9.41,8.03,13.24,12.92,2.48,3.17,4.33,6.68,3.39,10.92-1.05,4.7-4.82,7.54-9.92,7.53Z"/>
  <g>
    <path d="M228.79,446.75c-3.39-.23-6.05,1.92-6.11,5.15-.06,3.85,3.14,5.88,6.71,4.92l-.05-18.77c.07-3.03-.51-3.52-2.31-3.4v-.66h6.6v.66c-1.8-.13-2.4.51-2.31,3.4,0,.31,0,15.36.01,15.66.07,3.81,1.74,3.27,2.3,3.38v.66h-2.04c-1.13,0-2.25.06-3.37.14-2.48.2-7.98,0-7.98-5.5,0-4.16,4.3-6.26,8.6-6.09l-.04.43Z"/>
    <path d="M209.34,448.74s-.14-1.36.58-1.78c.24-.14.48-.21.71-.21.29,0,.56.11.8.32.11.1.26.15.42.15.21,0,.41-.1.52-.27,1.13-1.64,2.21-7.17,2.25-7.41.46-2.37.46-3.05.49-5.29v-.26h2.15l-.1,11.04c0,.26,0,.5,0,.73,0,1.05-.01,1.81.36,2.19.17.17.41.25.74.25.25,0,.55-.05.93-.14l.23.58-4.25,1.41.07-10.38h-.09s-.22.9-.22.9c-.8,3.29-1.7,7.01-2.66,8.3-.47.74-1.11,1.18-1.7,1.18-.62,0-1.08-.49-1.22-1.31h0Z"/>
    <path d="M198.75,435.09c1.07-1,2.3-1.52,3.56-1.52,2.7,0,5.22,2.39,5.87,5.57.77,2.79.15,6.3-1.51,8.53-1.13,1.52-2.65,2.35-4.4,2.4-2.93-.01-5.08-2.8-5.68-5.55-.74-3.09-.36-7.2,2.16-9.42ZM199.21,445.76c.5,2.15,1.67,3.41,3.22,3.46h0c.81-.04,1.51-.45,2.07-1.23,1.69-2.34,1.77-7.61,1.09-10.06-.48-2.13-1.8-3.56-3.27-3.56-1.45,0-2.61,1.41-3.09,3.77-.62,2.49-.62,5.05-.02,7.62Z"/>
    <path d="M180.62,437.86c.36-1.02.9-2.44,1.46-3.21.45-.68,1.05-1.07,1.65-1.07.76,0,1.35.61,1.54,1.58.26.91.21,2.85.17,4.27,0,.24-.01.47-.02.67h.08s.1-.29.1-.29c1.02-3.1,1.99-6.03,4.46-6.26,2.06.14,3.32,2.48,3.76,4.45.78,3.16.04,7.97-2.55,10.55-.88.98-1.88,1.49-2.88,1.49-1.07,0-2.06-.57-2.87-1.66l-.08-.11.03,6.35c-.04,1.25-.04,2.09.37,2.51.18.18.43.27.76.27.23,0,.51-.04.83-.14l.13.58-4.24,1.42.08-21.01c.05-1.48-.08-2.39-.37-2.69-.07-.07-.15-.11-.24-.11-.52,0-1.17,1.29-1.63,2.38h-.54ZM186.32,439.63c-.9,2.67-1.12,5.04-.65,7.04.27,1.23,1.18,2.55,2.55,2.57h0c1.24,0,2.25-1.26,3-3.75.75-2.47.86-4.87.33-7.13-.23-.99-.84-2.67-2.32-2.78-1.03,0-2.01,1.36-2.91,4.05h0Z"/>
    <path d="M166.04,438.06h-.47c.12-.3.24-.63.36-.95.66-1.82,1.29-3.53,2.81-3.53h0c.45,0,.81.13,1.07.41.72.73.71,2.34.69,4.04,0,.24,0,.92,0,1.15v4.98h.09c.45-4.28,2.38-10.61,5.08-10.61.42,0,.84.16,1.27.47,1.12.82,1.08,2.96,1.07,4,0,.14,0,.27,0,.36l-.02,7.52c-.03,1.15.08,1.86.33,2.11.07.07.14.1.23.1.51,0,1.18-1.26,1.61-2.51l.41-.02c-.52,1.53-1.08,3.02-1.71,3.68-.37.43-.83.67-1.29.67-.74,0-1.35-.58-1.52-1.43-.25-1.04-.21-4.68-.19-7.34.01-1.19.02-2.22,0-2.78.04-.95-.09-2.14-.57-2.64-.15-.16-.33-.24-.53-.24-.25,0-.54.13-.86.38-2.65,2.11-3.34,12.76-3.4,13.63h-2.1l.04-11.08h0v-.47c.01-1.25.02-2-.36-2.27-.14-.1-.29-.16-.43-.16-.72,0-1.17,1.31-1.5,2.27l-.1.28h0Z"/>
    <path d="M152.88,438.28c.49-1.45,1.46-2.96,2.36-3.68.81-.67,1.87-1.04,3-1.04,1.35,0,2.63.52,3.53,1.42,2.3,2.17,2.77,6.26,2.06,9.17-.65,2.93-2.94,5.9-6.06,5.91h-.11c-1.82,0-3.26-1.09-3.67-2.77-.15-.66-.18-1.6.22-2.1.17-.22.42-.34.72-.34h.05c.44,0,.78.13,1.01.4.39.46.33,1.15.28,1.42-.05.3-.22.59-.36.82-.11.18-.2.33-.21.45-.04.33.05.62.26.86.3.34.86.55,1.46.55h.05c.96,0,1.83-.42,2.57-1.25,2.29-2.71,2.69-9.1-.04-11.94-.78-.73-1.63-1.09-2.52-1.09-1.61,0-3.16,1.22-4.04,3.2l-.54.02Z"/>
    <path d="M145.16,437.98l-.43.02c.51-1.55,1.03-3.13,1.66-3.77.37-.43.84-.65,1.36-.65.94,0,1.74.72,1.92,1.7.3,1.17.25,6.04.21,9.59-.02,1.64-.03,3.05,0,3.69v.04h2.2l.02.62c-2.55.47-3.41,1.67-3.8,5.28h-.56v-4.86h-2.29v-1.04s2.26,0,2.26,0l.04-10.58c-.02-.31-.01-.62-.01-.91,0-.69,0-1.29-.23-1.65-.11-.16-.29-.26-.5-.26-.14,0-.29.05-.4.15-.13.11-.26.26-.4.45-.18.24-.52.95-1.04,2.18h0Z"/>
    <path d="M137,437.95h-.36c.05-.17.11-.34.17-.51.54-1.64,1.29-3.88,2.89-3.88h0c1.8,0,1.81,1.72,1.82,3.54l-.02,8.15v.19c-.04,1.01-.07,1.96.38,2.43.19.2.46.3.8.3.24,0,.52-.05.83-.14l.14.61-4.26,1.41-.04-12.46c-.02-.28-.02-.52-.01-.74,0-.53,0-.92-.22-1.18-.12-.13-.29-.21-.47-.21-.2,0-.38.08-.5.23-.43.54-.81,1.3-1.14,2.28h0ZM142.08,454.33c0,1.12-.64,2.04-1.43,2.04s-1.43-.91-1.43-2.04.64-2.03,1.43-2.03,1.43.91,1.43,2.03Z"/>
    <path d="M125.41,435.09c1.07-1,2.3-1.52,3.56-1.52,2.7,0,5.22,2.39,5.87,5.57.77,2.79.15,6.3-1.51,8.53-1.13,1.52-2.65,2.35-4.4,2.4-2.93-.01-5.08-2.8-5.68-5.55-.74-3.09-.36-7.2,2.16-9.42ZM125.88,445.76c.5,2.15,1.67,3.41,3.22,3.46h0c.81-.04,1.51-.45,2.07-1.23,1.69-2.34,1.77-7.61,1.09-10.06-.48-2.13-1.8-3.56-3.27-3.56-1.45,0-2.61,1.41-3.09,3.77-.62,2.49-.62,5.05-.02,7.62Z"/>
    <path d="M107.99,437.9l-.41.02c.52-1.53,1.08-3.02,1.71-3.68.37-.43.83-.67,1.29-.67.74,0,1.35.57,1.52,1.43.25,1.04.21,4.68.19,7.34-.01,1.19-.02,2.22,0,2.78-.04.95.09,2.14.57,2.64.15.16.33.24.53.24.25,0,.54-.13.86-.38,2.65-2.1,3.34-12.76,3.4-13.63h2.1l-.04,11.13c0,.2,0,.39,0,.58,0,.92,0,1.72.39,2.13.18.18.42.27.74.27.23,0,.49-.04.79-.13l.21.56-4.25,1.51.04-10.71h-.09c-.45,4.28-2.38,10.61-5.07,10.61-.42,0-.84-.16-1.27-.47-1.12-.82-1.08-2.97-1.06-4,0-.14,0-.27,0-.36l.02-7.52c.03-1.15-.08-1.87-.33-2.11-.07-.07-.14-.1-.23-.1-.51,0-1.18,1.26-1.61,2.51h0Z"/>
  </g>
  <path d="M300.82,440.41c1.67.02,3.33.06,5,.05.44,0,.66.09.62.58-.03.44.04.88.04,1.33,0,9.1,0,18.19,0,27.29,0,.4,0,.8,0,1.22h5.12c0-.06,0-.12.01-.18l.17.1,16.99-29.46s.03,0,.05,0v-.09l.04-.08-.04-.03v-4.81h-17.2v-6.99c-.07-.12-.11-.25-.12-.39,0-.2.1-.43.23-.57s.36-.23.57-.23h1.43s.03,0,.04,0c.06-.01.1-.02.14-.02.54.08.65-.19.63-.68-.04-.78,0-1.56-.01-2.34,0-.88-.01-.89-.86-.98-.19-.02-.39-.04-.58-.04-2.72,0-5.43,0-8.15,0-.49,0-.98,0-1.49,0v4.12c.27-.07.47-.07.62-.03h1.67c.45,0,.78.37.8.8,0,.14-.04.26-.1.37,0,2.25,0,4.45-.02,6.64,0,.11-.27.31-.41.31-1.15.03-2.31.03-3.46.03-.72,0-1.44,0-2.17,0v4.04c.18.01.32.02.46.03ZM324.99,444.68s.04-.06.05-.09l-.05.09ZM311.64,440.5c.19-.01.36-.03.53-.03,3.34,0,6.67,0,10.01,0,.45,0,.59.13.56.57,0,.08,0,.17,0,.25l-10.84,19.46c-.23-.05-.29-.21-.29-.49-.01-3.71-.04-7.42-.05-11.13,0-2.34-.01-4.69,0-7.03,0-.51.05-1.02.09-1.58Z"/>
  <path d="M17.72,440.41c1.67.02,3.33.06,5,.05.44,0,.66.09.62.58-.03.44.04.88.04,1.33,0,9.1,0,18.19,0,27.29,0,.4,0,.8,0,1.22h5.12c0-.06,0-.12.01-.18l.17.1,16.99-29.46s.03,0,.05,0v-.09l.04-.08-.04-.03v-4.81h-17.2v-6.99c-.07-.12-.11-.25-.12-.39,0-.2.1-.43.23-.57s.36-.23.57-.23h1.43s.03,0,.04,0c.06-.01.1-.02.14-.02.54.08.65-.19.63-.68-.04-.78,0-1.56-.01-2.34,0-.88-.01-.89-.86-.98-.19-.02-.39-.04-.58-.04-2.72,0-5.43,0-8.15,0-.49,0-.98,0-1.49,0v4.12c.27-.07.47-.07.62-.03h1.67c.45,0,.78.37.8.8,0,.14-.04.26-.1.37,0,2.25,0,4.45-.02,6.64,0,.11-.27.31-.41.31-1.15.03-2.31.03-3.46.03-.72,0-1.44,0-2.17,0v4.04c.18.01.32.02.46.03ZM41.89,444.68s.04-.06.05-.09l-.05.09ZM28.54,440.5c.19-.01.36-.03.53-.03,3.34,0,6.67,0,10.01,0,.45,0,.59.13.56.57,0,.08,0,.17,0,.25l-10.84,19.46c-.23-.05-.29-.21-.29-.49-.01-3.71-.04-7.42-.05-11.13,0-2.34-.01-4.69,0-7.03,0-.51.05-1.02.09-1.58Z"/>
</svg>