<?xml version="1.0" encoding="UTF-8"?>
<svg id="Layer_1" data-name="Layer 1" xmlns="http://www.w3.org/2000/svg" viewBox="0 0 347.21 483.16">
  <defs>
    <style>
      .cls-1 {
        font-family: PalaceRegular, Palace;
        font-size: 34px;
      }

      .cls-2 {
        letter-spacing: -.02em;
      }

      .cls-3 {
        letter-spacing: -.01em;
      }

      .cls-4 {
        letter-spacing: -.01em;
      }

      .cls-5 {
        letter-spacing: 0em;
      }
    </style>
  </defs>
  <path d="M22.84,72.87c2.92-.13,5.35,1.34,7.26,3.5,1.26,1.43,1.85,1.03,2.96-.06,3.95-3.89,8.7-4.55,12.85-1.94,3.72,2.34,5.26,6.6,4.03,10.99-1.05,3.77-3.49,6.65-6.11,9.38-3.45,3.6-7.44,6.6-11.43,9.58-1.06.79-1.79.78-2.84-.08-4.81-3.91-9.41-8.03-13.24-12.92-2.48-3.17-4.33-6.68-3.39-10.92,1.05-4.7,4.82-7.54,9.92-7.53Z"/>
  <path d="M305.94,72.87c2.92-.13,5.35,1.34,7.26,3.5,1.26,1.43,1.85,1.03,2.96-.06,3.95-3.89,8.7-4.55,12.85-1.94,3.72,2.34,5.26,6.6,4.03,10.99-1.05,3.77-3.49,6.65-6.11,9.38-3.45,3.6-7.44,6.6-11.43,9.58-1.06.79-1.79.78-2.84-.08-4.81-3.91-9.41-8.03-13.24-12.92-2.48-3.17-4.33-6.68-3.39-10.92,1.05-4.7,4.82-7.54,9.92-7.53Z"/>
  <path d="M98.21,162.59c6.3-.27,11.56,2.9,15.67,7.56,2.73,3.09,3.99,2.23,6.39-.13,8.53-8.4,18.8-9.83,27.74-4.19,8.03,5.06,11.36,14.26,8.71,23.73-2.28,8.15-7.54,14.36-13.19,20.26-7.46,7.78-16.06,14.25-24.68,20.68-2.29,1.71-3.86,1.69-6.14-.16-10.38-8.45-20.33-17.35-28.59-27.9-5.36-6.85-9.36-14.44-7.32-23.57,2.26-10.14,10.42-16.28,21.41-16.27Z"/>
  <path d="M203.49,162.59c6.3-.27,11.56,2.9,15.67,7.56,2.73,3.09,3.99,2.23,6.39-.13,8.53-8.4,18.8-9.83,27.74-4.19,8.03,5.06,11.36,14.26,8.71,23.73-2.28,8.15-7.54,14.36-13.19,20.26-7.46,7.78-16.06,14.25-24.68,20.68-2.29,1.71-3.86,1.69-6.14-.16-10.38-8.45-20.33-17.35-28.59-27.9-5.36-6.85-9.36-14.44-7.32-23.57,2.26-10.14,10.42-16.28,21.41-16.27Z"/>
  <path d="M239.67,324.35c-6.3.27-11.56-2.9-15.67-7.56-2.73-3.09-3.99-2.23-6.39.13-8.53,8.4-18.8,9.83-27.74,4.19-8.03-5.06-11.36-14.26-8.71-23.73,2.28-8.15,7.54-14.36,13.19-20.26,7.46-7.78,16.06-14.25,24.68-20.68,2.29-1.71,3.86-1.69,6.14.16,10.38,8.45,20.33,17.35,28.59,27.9,5.36,6.85,9.36,14.44,7.32,23.57-2.26,10.14-10.42,16.28-21.41,16.27Z"/>
  <path d="M134.38,324.35c-6.3.27-11.56-2.9-15.67-7.56-2.73-3.09-3.99-2.23-6.39.13-8.53,8.4-18.8,9.83-27.74,4.19-8.03-5.06-11.36-14.26-8.71-23.73,2.28-8.15,7.54-14.36,13.19-20.26,7.46-7.78,16.06-14.25,24.68-20.68,2.29-1.71,3.86-1.69,6.14.16,10.38,8.45,20.33,17.35,28.59,27.9,5.36,6.85,9.36,14.44,7.32,23.57-2.26,10.14-10.42,16.28-21.41,16.27Z"/>
  <text class="cls-1" transform="translate(111.92 51.26)"><tspan x="0" y="0">P</tspan><tspan class="cls-3" x="14.35" y="0">r</tspan><tspan x="24.68" y="0">o</tspan><tspan class="cls-2" x="39.03" y="0">d</tspan><tspan x="53.21" y="0">u</tspan><tspan class="cls-5" x="69.05" y="0">c</tspan><tspan x="81.67" y="0">ti</tspan><tspan class="cls-4" x="98.02" y="0">o</tspan><tspan x="111.89" y="0">n</tspan></text>
  <path d="M45.3,44.83c-1.67-.02-3.33-.06-5-.05-.44,0-.66-.09-.62-.58.03-.44-.04-.88-.04-1.33,0-9.1,0-18.19,0-27.29,0-.4,0-.8,0-1.22h-5.12c0,.06,0,.12-.01.18l-.17-.1-16.99,29.46s-.03,0-.05,0v.09l-.04.08.04.03v4.81h17.2v6.99c.07.12.11.25.12.39,0,.2-.1.43-.23.57s-.36.23-.57.23h-1.43s-.03,0-.04,0c-.06.01-.1.02-.14.02-.54-.08-.65.19-.63.68.04.78,0,1.56.01,2.34,0,.88.01.89.86.98.19.02.39.04.58.04,2.72,0,5.43,0,8.15,0,.49,0,.98,0,1.49,0v-4.12c-.27.07-.47.07-.62.03h-1.67c-.45,0-.78-.37-.8-.8,0-.14.04-.26.1-.37,0-2.25,0-4.45.02-6.64,0-.11.27-.31.41-.31,1.15-.03,2.31-.03,3.46-.03.72,0,1.44,0,2.17,0v-4.04c-.18-.01-.32-.02-.46-.03ZM21.14,40.57s-.04.06-.05.09l.05-.09ZM34.48,44.75c-.19.01-.36.03-.53.03-3.34,0-6.67,0-10.01,0-.45,0-.59-.13-.56-.57,0-.08,0-.17,0-.25l10.84-19.46c.23.05.29.21.29.49.01,3.71.04,7.42.05,11.13,0,2.34.01,4.69,0,7.03,0,.51-.05,1.02-.09,1.58Z"/>
  <path d="M328.4,44.83c-1.67-.02-3.33-.06-5-.05-.44,0-.66-.09-.62-.58.03-.44-.04-.88-.04-1.33,0-9.1,0-18.19,0-27.29,0-.4,0-.8,0-1.22h-5.12c0,.06,0,.12-.01.18l-.17-.1-16.99,29.46s-.03,0-.05,0v.09l-.04.08.04.03v4.81h17.2v6.99c.07.12.11.25.12.39,0,.2-.1.43-.23.57s-.36.23-.57.23h-1.43s-.03,0-.04,0c-.06.01-.1.02-.14.02-.54-.08-.65.19-.63.68.04.78,0,1.56.01,2.34,0,.88.01.89.86.98.19.02.39.04.58.04,2.72,0,5.43,0,8.15,0,.49,0,.98,0,1.49,0v-4.12c-.27.07-.47.07-.62.03h-1.67c-.45,0-.78-.37-.8-.8,0-.14.04-.26.1-.37,0-2.25,0-4.45.02-6.64,0-.11.27-.31.41-.31,1.15-.03,2.31-.03,3.46-.03.72,0,1.44,0,2.17,0v-4.04c-.18-.01-.32-.02-.46-.03ZM304.24,40.57s-.04.06-.05.09l.05-.09ZM317.58,44.75c-.19.01-.36.03-.53.03-3.34,0-6.67,0-10.01,0-.45,0-.59-.13-.56-.57,0-.08,0-.17,0-.25l10.84-19.46c.23.05.29.21.29.49.01,3.71.04,7.42.05,11.13,0,2.34.01,4.69,0,7.03,0,.51-.05,1.02-.09,1.58Z"/>
  <path d="M323.28,412.37c-2.92.13-5.35-1.34-7.26-3.5-1.26-1.43-1.85-1.03-2.96.06-3.95,3.89-8.7,4.55-12.85,1.94-3.72-2.34-5.26-6.6-4.03-10.99,1.05-3.77,3.49-6.65,6.11-9.38,3.45-3.6,7.44-6.6,11.43-9.58,1.06-.79,1.79-.78,2.84.08,4.81,3.91,9.41,8.03,13.24,12.92,2.48,3.17,4.33,6.68,3.39,10.92-1.05,4.7-4.82,7.54-9.92,7.53Z"/>
  <path d="M40.18,412.37c-2.92.13-5.35-1.34-7.26-3.5-1.26-1.43-1.85-1.03-2.96.06-3.95,3.89-8.7,4.55-12.85,1.94-3.72-2.34-5.26-6.6-4.03-10.99,1.05-3.77,3.49-6.65,6.11-9.38,3.45-3.6,7.44-6.6,11.43-9.58,1.06-.79,1.79-.78,2.84.08,4.81,3.91,9.41,8.03,13.24,12.92,2.48,3.17,4.33,6.68,3.39,10.92-1.05,4.7-4.82,7.54-9.92,7.53Z"/>
  <text class="cls-1" transform="translate(234.21 433.99) rotate(-180)"><tspan x="0" y="0">P</tspan><tspan class="cls-3" x="14.35" y="0">r</tspan><tspan x="24.68" y="0">o</tspan><tspan class="cls-2" x="39.03" y="0">d</tspan><tspan x="53.21" y="0">u</tspan><tspan class="cls-5" x="69.05" y="0">c</tspan><tspan x="81.67" y="0">ti</tspan><tspan class="cls-4" x="98.02" y="0">o</tspan><tspan x="111.89" y="0">n</tspan></text>
  <path d="M300.82,440.41c1.67.02,3.33.06,5,.05.44,0,.66.09.62.58-.03.44.04.88.04,1.33,0,9.1,0,18.19,0,27.29,0,.4,0,.8,0,1.22h5.12c0-.06,0-.12.01-.18l.17.1,16.99-29.46s.03,0,.05,0v-.09l.04-.08-.04-.03v-4.81h-17.2v-6.99c-.07-.12-.11-.25-.12-.39,0-.2.1-.43.23-.57s.36-.23.57-.23h1.43s.03,0,.04,0c.06-.01.1-.02.14-.02.54.08.65-.19.63-.68-.04-.78,0-1.56-.01-2.34,0-.88-.01-.89-.86-.98-.19-.02-.39-.04-.58-.04-2.72,0-5.43,0-8.15,0-.49,0-.98,0-1.49,0v4.12c.27-.07.47-.07.62-.03h1.67c.45,0,.78.37.8.8,0,.14-.04.26-.1.37,0,2.25,0,4.45-.02,6.64,0,.11-.27.31-.41.31-1.15.03-2.31.03-3.46.03-.72,0-1.44,0-2.17,0v4.04c.18.01.32.02.46.03ZM324.99,444.68s.04-.06.05-.09l-.05.09ZM311.64,440.5c.19-.01.36-.03.53-.03,3.34,0,6.67,0,10.01,0,.45,0,.59.13.56.57,0,.08,0,.17,0,.25l-10.84,19.46c-.23-.05-.29-.21-.29-.49-.01-3.71-.04-7.42-.05-11.13,0-2.34-.01-4.69,0-7.03,0-.51.05-1.02.09-1.58Z"/>
  <path d="M17.72,440.41c1.67.02,3.33.06,5,.05.44,0,.66.09.62.58-.03.44.04.88.04,1.33,0,9.1,0,18.19,0,27.29,0,.4,0,.8,0,1.22h5.12c0-.06,0-.12.01-.18l.17.1,16.99-29.46s.03,0,.05,0v-.09l.04-.08-.04-.03v-4.81h-17.2v-6.99c-.07-.12-.11-.25-.12-.39,0-.2.1-.43.23-.57s.36-.23.57-.23h1.43s.03,0,.04,0c.06-.01.1-.02.14-.02.54.08.65-.19.63-.68-.04-.78,0-1.56-.01-2.34,0-.88-.01-.89-.86-.98-.19-.02-.39-.04-.58-.04-2.72,0-5.43,0-8.15,0-.49,0-.98,0-1.49,0v4.12c.27-.07.47-.07.62-.03h1.67c.45,0,.78.37.8.8,0,.14-.04.26-.1.37,0,2.25,0,4.45-.02,6.64,0,.11-.27.31-.41.31-1.15.03-2.31.03-3.46.03-.72,0-1.44,0-2.17,0v4.04c.18.01.32.02.46.03ZM41.89,444.68s.04-.06.05-.09l-.05.09ZM28.54,440.5c.19-.01.36-.03.53-.03,3.34,0,6.67,0,10.01,0,.45,0,.59.13.56.57,0,.08,0,.17,0,.25l-10.84,19.46c-.23-.05-.29-.21-.29-.49-.01-3.71-.04-7.42-.05-11.13,0-2.34-.01-4.69,0-7.03,0-.51.05-1.02.09-1.58Z"/>
</svg>