<?xml version="1.0" encoding="UTF-8"?>
<svg id="Layer_2" data-name="Layer 2" xmlns="http://www.w3.org/2000/svg" viewBox="0 0 446.15 38.18">
  <defs>
    <style>
      .cls-1 {
        fill: #000;
        stroke-width: 0px;
      }
    </style>
  </defs>
  <g id="Layer_1-2" data-name="Layer 1">
    <g>
      <path class="cls-1" d="M29.85,33.52c1.88-.74,2.68.4,1.34,2.18-1.24,1.64-3.37,2.48-6.15,2.48-6.54,0-7.24-4.61-7.24-10.12,0-3.92.35-7.19-4.31-7.19h-1.64v9.12c0,1.79.55,3.67,1.09,4.91.89,1.93.4,2.73-1.09,2.73H1.54c-1.49,0-1.98-.79-1.09-2.73.55-1.24,1.09-3.12,1.09-4.91V9.12c0-1.74-.54-3.67-1.09-4.91C-.45,2.33.05,1.48,1.54,1.48h17.26c5.7,0,9.57,3.82,9.57,9.32,0,5.01-3.22,7.88-7.39,8.33,4.21.45,7.39,3.77,7.39,8.58,0,3.17-1.34,6.84,1.49,5.8ZM11.85,18.29h.64c4.61,0,5.31-3.32,5.31-7.14s-.64-7.09-5.31-7.09h-.64v14.23Z"/>
      <path class="cls-1" d="M48.75,31.98c2.28,0,4.86-.99,6.05-3.12.59-1.04,1.09-1.14,1.59-.74.64.35.84.99.3,2.58-1.59,4.17-6.2,7.49-11.55,7.49-6.64,0-12.79-5.31-12.79-13.44s6.15-13.44,14.23-13.44c6.2,0,10.56,3.07,10.56,7.29,0,6.35-9.57,9.62-14.63,6,.5,4.71,2.43,7.39,6.25,7.39ZM45.58,13.88c-1.69,0-3.17,3.07-3.17,8.43,3.03,2.53,5.16-.6,5.16-4.66,0-3.12-1.29-3.77-1.98-3.77Z"/>
      <path class="cls-1" d="M67.3,38.18c-4.86,0-7.94-2.48-7.94-6.74,0-8.88,13.49-6.5,14.38-13.19-.4-2.28-1.29-4.36-2.78-4.36-.79,0-2.03.69-1.34,3.62,1.34,5.46-3.37,6.2-6.35,5.01-3.12-1.29-3.47-4.51-2.63-6.45,1.19-2.78,5.26-4.76,10.96-4.76s12.1,1.93,12.1,8.88v9.82c0,3.17.89,3.22,1.59,2.58,1.44-1.24,2.97,1.24.4,3.77-1.04.99-2.53,1.83-4.81,1.83-2.98,0-5.26-1.39-6.35-3.67-1.34,2.33-3.62,3.67-7.24,3.67ZM69.43,30.64c0,2.78.99,3.37,1.93,3.37,1.93,0,2.53-2.63,2.53-4.61v-6.6c-1.74,2.38-4.46,3.17-4.46,7.84Z"/>
      <path class="cls-1" d="M100.43,15.77c1.83-2.98,4.31-4.46,7.59-4.46,6.25,0,9.18,5.55,9.18,11.51v7.19c0,1.79.54,3.67,1.09,4.91.89,1.93.4,2.73-1.09,2.73h-9.82c-1.49,0-1.93-.79-1.09-2.73.59-1.24,1.09-3.12,1.09-4.91v-5.95c0-5.21-1.44-7.69-3.12-7.69-2.43,0-3.82,4.81-3.82,7.69v5.95c0,1.79.5,3.67,1.09,4.91.84,1.93.4,2.73-1.09,2.73h-9.82c-1.49,0-1.98-.79-1.09-2.73.54-1.24,1.09-3.12,1.09-4.91v-7.89c0-1.79,0-3.57-1.49-5.01-1.49-1.34-.99-2.53,2.33-2.58,1.83-.05,3.82-.5,5.75-2.08,1.84-1.49,3.22-1.59,3.22,2.03v1.29Z"/>
      <path class="cls-1" d="M132.56,15.77c1.84-2.98,4.31-4.46,7.59-4.46,6.25,0,9.17,5.55,9.17,11.51v7.19c0,1.79.55,3.67,1.09,4.91.89,1.93.4,2.73-1.09,2.73h-9.82c-1.49,0-1.93-.79-1.09-2.73.6-1.24,1.09-3.12,1.09-4.91v-5.95c0-5.21-1.44-7.69-3.12-7.69-2.43,0-3.82,4.81-3.82,7.69v5.95c0,1.79.5,3.67,1.09,4.91.84,1.93.4,2.73-1.09,2.73h-9.82c-1.49,0-1.98-.79-1.09-2.73.55-1.24,1.09-3.12,1.09-4.91v-7.89c0-1.79,0-3.57-1.49-5.01-1.49-1.34-.99-2.53,2.33-2.58,1.84-.05,3.82-.5,5.75-2.08,1.83-1.49,3.22-1.59,3.22,2.03v1.29Z"/>
      <path class="cls-1" d="M160.78,38.18c-4.86,0-7.94-2.48-7.94-6.74,0-8.88,13.49-6.5,14.38-13.19-.4-2.28-1.29-4.36-2.78-4.36-.79,0-2.03.69-1.34,3.62,1.34,5.46-3.37,6.2-6.35,5.01-3.12-1.29-3.47-4.51-2.63-6.45,1.19-2.78,5.26-4.76,10.96-4.76s12.1,1.93,12.1,8.88v9.82c0,3.17.89,3.22,1.59,2.58,1.44-1.24,2.97,1.24.4,3.77-1.04.99-2.53,1.83-4.81,1.83-2.98,0-5.26-1.39-6.35-3.67-1.34,2.33-3.62,3.67-7.24,3.67ZM162.92,30.64c0,2.78.99,3.37,1.93,3.37,1.93,0,2.53-2.63,2.53-4.61v-6.6c-1.74,2.38-4.46,3.17-4.46,7.84Z"/>
      <path class="cls-1" d="M211.92,38.18c-8.83,0-16.66-6.6-16.66-18.45S202.44.99,213.2.99c7.64,0,13.24,3.67,13.24,9.08,0,3.47-2.33,5.46-5.4,5.46s-5.85-2.18-5.16-6.4c.55-3.27-.94-5.55-3.47-5.55-3.22,0-6.55,3.72-6.55,12.55s3.47,14.28,9.47,14.28c4.12,0,8.13-2.53,8.98-6.2.35-1.44.89-1.69,1.59-1.44.7.3,1.14.94.84,3.07-.74,6.99-6.84,12.35-14.83,12.35Z"/>
      <path class="cls-1" d="M240.28,15.77c1.83-2.98,4.31-4.46,7.59-4.46,6.25,0,9.17,5.55,9.17,11.51v7.19c0,1.79.54,3.67,1.09,4.91.89,1.93.4,2.73-1.09,2.73h-9.82c-1.49,0-1.94-.79-1.09-2.73.6-1.24,1.09-3.12,1.09-4.91v-5.95c0-5.21-1.44-7.69-3.12-7.69-2.43,0-3.82,4.81-3.82,7.69v5.95c0,1.79.5,3.67,1.09,4.91.84,1.93.4,2.73-1.09,2.73h-9.82c-1.49,0-1.98-.79-1.09-2.73.54-1.24,1.09-3.12,1.09-4.91V10.66c0-1.79,0-3.57-1.49-5.01-1.49-1.39-.99-2.58,2.33-2.63,1.84-.05,3.82-.45,5.75-2.03,1.83-1.49,3.22-1.64,3.22,1.98v12.79Z"/>
      <path class="cls-1" d="M268.5,38.18c-4.86,0-7.93-2.48-7.93-6.74,0-8.88,13.49-6.5,14.38-13.19-.4-2.28-1.29-4.36-2.78-4.36-.79,0-2.03.69-1.34,3.62,1.34,5.46-3.37,6.2-6.35,5.01-3.12-1.29-3.47-4.51-2.63-6.45,1.19-2.78,5.26-4.76,10.96-4.76s12.1,1.93,12.1,8.88v9.82c0,3.17.89,3.22,1.59,2.58,1.44-1.24,2.98,1.24.4,3.77-1.04.99-2.53,1.83-4.81,1.83-2.97,0-5.26-1.39-6.35-3.67-1.34,2.33-3.62,3.67-7.24,3.67ZM270.64,30.64c0,2.78.99,3.37,1.93,3.37,1.94,0,2.53-2.63,2.53-4.61v-6.6c-1.73,2.38-4.46,3.17-4.46,7.84Z"/>
      <path class="cls-1" d="M301.63,15.37c1.64-2.68,3.82-4.07,6.79-4.07,4.02,0,6.69,2.48,7.98,5.95,1.73-3.92,4.16-5.95,7.79-5.95,6,0,8.93,5.55,8.93,11.51v7.19c0,1.79.5,3.67,1.09,4.91.89,1.93.4,2.73-1.09,2.73h-9.82c-1.49,0-1.93-.79-1.09-2.73.6-1.24,1.09-3.12,1.09-4.91v-5.95c0-5.21-1.44-7.69-2.93-7.69-2.13,0-3.03,4.81-3.03,7.69v5.95c0,1.79.54,3.67,1.09,4.91.89,1.93.45,2.73-1.09,2.73h-9.77c-1.54,0-1.98-.79-1.09-2.73.55-1.24,1.09-3.12,1.09-4.91v-5.95c0-5.21-1.49-7.69-2.97-7.69-2.13,0-2.98,4.81-2.98,7.69v5.95c0,1.79.5,3.67,1.09,4.91.84,1.93.4,2.73-1.09,2.73h-9.82c-1.49,0-1.98-.79-1.09-2.73.55-1.24,1.09-3.12,1.09-4.91v-7.89c0-1.79,0-3.57-1.49-5.01-1.49-1.34-.99-2.53,2.33-2.58,1.84-.05,3.82-.5,5.75-2.08,1.83-1.49,3.22-1.59,3.22,2.03v.89Z"/>
      <path class="cls-1" d="M355.74,38.18c-3.47,0-6-1.59-7.84-4.51v1.93c0,1.24-.84,2.03-2.08,2.03h-7.74c-1.49,0-1.98-.79-1.09-2.73.55-1.24,1.09-3.12,1.09-4.91V10.66c0-1.79,0-3.57-1.49-5.01-1.49-1.39-.99-2.58,2.33-2.63,1.83-.05,3.82-.45,5.75-2.03,1.83-1.49,3.22-1.64,3.22,1.98v12.84c1.84-2.98,4.37-4.51,7.84-4.51,7.54,0,9.72,7.24,9.72,13.44s-2.18,13.44-9.72,13.44ZM355.39,24.89c0-4.81-1.44-8.53-3.62-8.53-2.48,0-3.87,4.81-3.87,7.69v1.34c0,2.93,1.39,7.74,3.92,7.74,2.13,0,3.57-3.37,3.57-8.23Z"/>
      <path class="cls-1" d="M384.01,31.98c2.28,0,4.86-.99,6.05-3.12.59-1.04,1.09-1.14,1.59-.74.64.35.84.99.3,2.58-1.59,4.17-6.2,7.49-11.55,7.49-6.64,0-12.79-5.31-12.79-13.44s6.15-13.44,14.23-13.44c6.2,0,10.56,3.07,10.56,7.29,0,6.35-9.57,9.62-14.63,6,.5,4.71,2.43,7.39,6.25,7.39ZM380.84,13.88c-1.69,0-3.17,3.07-3.17,8.43,3.03,2.53,5.16-.6,5.16-4.66,0-3.12-1.29-3.77-1.98-3.77Z"/>
      <path class="cls-1" d="M406.48,15.77c1.83-2.98,4.31-4.46,7.64-4.46,4.61,0,6.94,2.93,6.94,6.5,0,3.27-1.98,5.46-5.16,5.55-2.88.1-5.06-1.69-4.17-4.66.5-1.79-.3-2.33-1.19-2.33-2.68,0-4.07,4.81-4.07,7.69v5.95c0,1.79.5,3.67,1.09,4.91.84,1.93.4,2.73-1.09,2.73h-9.82c-1.49,0-1.98-.79-1.09-2.73.54-1.24,1.09-3.12,1.09-4.91v-7.89c0-1.79,0-3.57-1.49-5.01-1.49-1.34-.99-2.53,2.33-2.58,1.83-.05,3.82-.5,5.75-2.08,1.84-1.49,3.22-1.59,3.22,2.03v1.29Z"/>
      <path class="cls-1" d="M434.5,38.18c-5.31,0-10.02-1.14-11.36-3.22-.89-1.39-.99-4.36,2.13-5.65,2.97-1.19,7.73-.5,6.45,3.17-.74,2.03.4,3.12,2.38,3.12s2.33-1.04,2.33-1.88c0-4.76-13.29-5.21-13.29-13.49,0-5.16,5.16-8.93,12.64-8.93,4.56,0,8.63,1.39,9.82,3.77.79,1.69.3,4.02-2.13,5.16-2.93,1.39-7.69.69-6.1-4.22.5-1.44.25-2.13-1.04-2.13-1.79,0-3.08,1.24-3.08,2.78,0,4.91,12.89,5.06,12.89,14.13,0,5.26-4.36,7.39-11.65,7.39Z"/>
    </g>
  </g>
</svg>