<?xml version="1.0" encoding="UTF-8"?>
<svg id="Layer_2" xmlns="http://www.w3.org/2000/svg" viewBox="0 0 1120.27 188.97">
  <defs>
    <style>
      .cls-1 {
        fill: #231f20;
      }
    </style>
  </defs>
  <g id="Layer_1-2" data-name="Layer_1">
    <g>
      <path class="cls-1" d="M112.71,175.03c5.48,6.03,12,9.46,19.41,10.21v3.73h-32.29c-6.03-6.75-15.28-23.66-27.51-50.29,0,0-17.71-40.27-26.27-42.61l.68-3.15c25.53,1.71,45.22-14.51,45.62-38.82.48-29.01-33.58-44.25-60.44-37.05l.37,141.33c-.53,22.83,3.87,26.5,17.42,25.61v4.98H0v-4.98c13.54,1.02,18.09-3.83,17.42-25.61-.03-2.36-.01-115.63-.09-117.94C16.82,11.73,4.26,15.8,0,14.94v-4.98h15.36c8.48,0,16.94-.43,25.4-1.09,18.68-1.47,70.04-.06,70.05,41.41,0,25.67-20.38,40.67-45.57,44.56,5.26,5.04,13.39,18.75,24.21,40.84,9.92,20.17,17.53,33.03,23.26,39.33h0Z"/>
      <path class="cls-1" d="M162.08,103.44s12.35-.16,27.49-19h.72l-5.15,22.53h-47.22l.03-.04h-3.53v-2.64h1.69s7.02-.88,7.51-13.54V27.97c-.59-13.53-7.51-13.5-7.51-13.5h-1.69v-2.64h50.73l5.15,22.53h-.72c-15.14-18.84-27.49-19-27.49-19,0,0-10.03-1-10.11,3.58-.04,2.07-.3,9.08-.3,9.08v18.57l22.76-1.49-.63,4.35-.09.67-.65,4.55-.16,1.06h-.28c-5.32-5.41-16.36-6.84-20.95-7.06v42.11s-.03,3.38-.01,5.45c.09,8.15,10.43,7.21,10.43,7.21h0Z"/>
      <path class="cls-1" d="M251.37,91.03c2.73,8.22,3.18,13.18,10.79,13.13v2.84h-26.7v-2.85c11.02-.12,7.74-9.38,5.2-18.44,0,0-5.65-18.1-10.62-34h-14.3l-9.78,33.32c-2.64,9.68-5.39,18.95,4.85,19.07v2.9h-19.84v-2.92c6.7-.18,7.65-6.86,10.19-14.13,0,0,13.44-45.57,19.69-66.76-1.76-5.47-3.26-8.63-9.35-8.59v-2.84h14.97l.36,1.17h.1s24.42,78.1,24.42,78.1h0ZM229.21,49.06c-3.55-11.36-6.54-20.95-6.54-20.95l-6.15,20.95h12.69Z"/>
      <path class="cls-1" d="M332.31,11.83v2.64h-1.69s-6.89-.36-6.96,13.26v66.82h-.02v13.95h-.9l-43.77-75.72v58.26c-.25,14.08,7.47,13.26,7.47,13.26h1.69v2.64h-21.01v-2.64h1.69s6.89.36,6.96-13.26V27.35c-8.62-13.95-15.71-12.8-15.71-12.8v-2.72h17.64l42.73,74.25V27.73h.02c.25-14.08-7.47-13.26-7.47-13.26h-1.69v-2.64h21.01Z"/>
      <path class="cls-1" d="M405.07,11.83v2.64h-1.69s-6.89-.36-6.96,13.26v66.82h-.02v13.95h-.9l-43.77-75.72v58.26c-.25,14.08,7.47,13.26,7.47,13.26h1.69v2.64h-21.01v-2.64h1.69s6.89.36,6.96-13.26V27.35c-8.62-13.95-15.71-12.8-15.71-12.8v-2.72h17.64l42.73,74.25V27.73h.02c.25-14.08-7.47-13.26-7.47-13.26h-1.69v-2.64h21.01Z"/>
      <path class="cls-1" d="M464.48,91.03c2.73,8.22,3.18,13.18,10.79,13.13v2.84h-26.7v-2.85c11.02-.12,7.74-9.38,5.2-18.44,0,0-5.65-18.1-10.62-34h-14.3l-9.78,33.32c-2.64,9.68-5.39,18.95,4.85,19.07v2.9h-19.84v-2.92c6.7-.18,7.65-6.86,10.19-14.13,0,0,13.44-45.57,19.69-66.76-1.76-5.47-3.26-8.63-9.35-8.59v-2.84h14.97l.36,1.17h.1s24.42,78.1,24.42,78.1h0ZM442.32,49.06c-3.55-11.36-6.54-20.95-6.54-20.95l-6.15,20.95h12.69Z"/>
      <rect x="132.33" y="130.98" width="344.12" height="8"/>
      <path class="cls-1" d="M646.89,131.89c-13.16,38.07-38.8,49.59-59.1,50.15-46.95,1.3-85.47-38.42-86.07-88.69C501.1,43.09,538.62,1.35,585.57.06c21.5-.57,37.03,2.78,51.12,14l.62,46h-4.67s-14.8-54.29-47.53-54.36c-34.32-.07-61.42,40.48-60.86,87.46.6,46.98,29.17,81.09,63.47,80.13,15.33-.43,41.58-6.36,54.03-41.39h5.14Z"/>
      <path class="cls-1" d="M724.15,3.35v2.64h-1.69s-6.91-.03-7.51,13.47v63.06c.6,13.5,7.51,13.47,7.51,13.47h1.69v2.64h-26.35v-2.64h1.69s6.91.03,7.51-13.47v-40.99h-30.43v40.94c.6,13.5,7.51,13.47,7.51,13.47h1.69v2.64h-26.35v-2.64h1.69s6.91.03,7.51-13.47V19.4c-.6-13.5-7.51-13.47-7.51-13.47h-1.69v-2.64h26.35v2.64h-1.69s-6.91-.03-7.51,13.47v19.14h30.43v-19.09c-.6-13.5-7.51-13.47-7.51-13.47h-1.69v-2.64h26.35Z"/>
      <path class="cls-1" d="M784.55,82.58c2.73,8.22,3.18,13.18,10.79,13.13v2.84h-26.7v-2.85c11.02-.12,7.74-9.38,5.2-18.44,0,0-5.65-18.1-10.62-34h-14.3l-9.78,33.32c-2.64,9.68-5.39,18.95,4.85,19.07v2.9h-19.84v-2.92c6.7-.18,7.65-6.86,10.19-14.13,0,0,13.44-45.57,19.69-66.76-1.76-5.47-3.26-8.63-9.35-8.59v-2.84h14.97l.36,1.17h.1s24.42,78.1,24.42,78.1h0ZM762.39,40.62c-3.55-11.36-6.54-20.95-6.54-20.95l-6.15,20.95h12.69Z"/>
      <path class="cls-1" d="M876.79,10.19c-.82,1.69-1.08,5.76-1.08,11.43v60.77c.03,14.7,7.72,13.55,7.72,13.55h1.69v2.64h-26.29v-2.64h1.69s6.91-.17,6.75-13.35V16.32l-1.19,1.17-26.13,25.56h-.87l-26.35-25.57-1.19-1.3v66.39c-.25,14.07,7.47,13.26,7.47,13.26h1.69v2.64h-21.01v-2.64h1.69s6.89.36,6.96-13.26V24.57s.52-18.22-14.97-18.47v-2.72l17.75-.09,32.27,31.81,31.88-31.81,10.11.09v2.72h-1.89c-3.13,0-5.39,1.38-6.72,4.1h0Z"/>
      <path class="cls-1" d="M941.8,70.58c.98,27.67-23.83,27.92-23.83,27.92h-29.93v-2.64c7.19.54,9.61-2.03,9.26-13.61-.02-1.25,0-61.43-.05-62.66-.28-15.26-6.94-13.09-9.21-13.55v-2.64h16.91s33.8-1.91,33.14,21.42c-.3,10.74-8.77,19.96-19.94,22.07,0,0,22.92,2.71,23.66,23.68h0ZM930.64,77.9c1.66-21.54-16.37-29.24-19.8-30.38v-.8c12.95-6.11,17.12-14.1,17.45-23.4.4-11.37-9.03-19.98-23.3-16.16l.2,75.09c-.28,12.13,2.06,14.08,9.26,13.61,0,0,14.91-1.36,16.19-17.96h0Z"/>
      <path class="cls-1" d="M971.74,95s12.35-.16,27.49-19h.72l-5.15,22.53h-47.22l.03-.04h-3.53v-2.64h1.69s7.02-.88,7.51-13.54V19.52c-.59-13.53-7.51-13.5-7.51-13.5h-1.69v-2.64h50.73l5.15,22.53h-.72c-15.14-18.84-27.49-19-27.49-19,0,0-10.03-1-10.11,3.58-.04,2.07-.3,9.08-.3,9.08v18.57l22.76-1.49-.63,4.35-.09.67-.65,4.55-.16,1.06h-.28c-5.32-5.41-16.36-6.84-20.95-7.06v42.11s-.03,3.38-.01,5.45c.09,8.15,10.43,7.21,10.43,7.21h0Z"/>
      <path class="cls-1" d="M1063.24,91.12c2.91,3.2,6.38,5.02,10.31,5.42v1.98h-17.15c-3.2-3.59-8.12-12.57-14.61-26.72,0,0-9.41-21.4-13.96-22.64l.36-1.67c13.57.91,24.02-7.71,24.24-20.62.26-15.41-17.84-23.51-32.11-19.68l.2,75.09c-.28,12.13,2.06,14.08,9.26,13.61v2.64h-26.41v-2.64c7.19.54,9.61-2.03,9.26-13.61-.02-1.25,0-61.43-.05-62.66-.28-15.26-6.94-13.09-9.21-13.55v-2.64h8.16c4.5,0,9-.23,13.49-.58,9.92-.78,37.21-.03,37.21,22,0,13.64-10.83,21.61-24.21,23.67,2.79,2.68,7.11,9.96,12.86,21.7,5.27,10.71,9.31,17.55,12.36,20.9h0Z"/>
      <path class="cls-1" d="M1120.23,71.94c.68,15.43-9.42,25.89-25.74,26.63-2.74.12-6.14-.34-9.27-.94-4.68-.73-6.69.11-6.69.11h-.82l.14-3.63.62-18.29h1.13c2.97,6.61,6.78,21.01,16.64,20.61,9.52-.39,15.7-11.32,15.34-19.66-.37-8.4-6.06-15.03-9.44-17.18-17.85-11.37-25.66-16.66-26.25-30.12-.63-14.23,9.24-26.28,21.99-26.87,3.57-.16,6.64.32,9.35,1.05h0c4.18.82,6.89-.72,6.89-.72l1.07-.05.11,22.61h-1.42c-4.55-14.55-8.81-20.44-14.71-20.17-9.33.43-16.05,7.95-15.63,17.49.51,11.47,9.62,20.03,20.98,26.79,12.57,7.47,15.38,14.33,15.73,22.35h0Z"/>
      <rect x="657.37" y="123.82" width="458.53" height="8"/>
    </g>
  </g>
</svg>