<?xml version="1.0" encoding="UTF-8"?>
<svg id="b" data-name="Layer 2" xmlns="http://www.w3.org/2000/svg" width="570.648" height="90.997" viewBox="0 0 570.648 90.997">
  <defs>
    <style>
      .d {
        fill: #000;
        stroke-width: 0px;
      }
    </style>
  </defs>
  <g id="c" data-name="Layer 1">
    <g>
      <path class="d" d="M368.215,44.459c5.472-2.482,10.43-4.76,15.415-6.975,1.883-.837,3.831-.9,5.268.794,1.498,1.766.549,3.606-.656,4.964-3.241,3.651-6.673,7.133-10.043,10.67-2.69,2.823-5.466,5.57-8.055,8.481-.614.691-.634,1.907-.928,2.881.987-.091,2.093.074,2.942-.315,5.648-2.59,10.63-6.043,14.411-11.106,5.885-7.879,13.701-13.191,22.871-16.587.912-.338,1.959-.38,2.949-.426,3.615-.167,4.33.68,3.534,4.4,3.024-.648,4.947-4.204,8.943-2.979-.985,1.01-1.769,1.789-2.526,2.593-6.59,7.009-13.205,13.996-19.719,21.075-.686.746-.769,2.043-1.132,3.085.287.236.574.473.861.709,2.11-1.197,4.462-2.109,6.285-3.645,5.514-4.647,10.819-9.541,16.214-14.328,3.041-2.698,5.966-5.554,9.21-7.985,1.521-1.14,3.672-1.442,5.537-2.124.14.27.28.541.419.811-3.044,2.829-6.089,5.658-9.133,8.488.133.178.266.355.399.533,1.85-1.205,3.631-2.538,5.565-3.589,3.846-2.09,7.625-4.442,11.712-5.91,4.301-1.546,5.752.231,4.443,4.606-.085.286-.065.603-.118,1.159,3.517-1.819,6.792-3.526,10.083-5.201.585-.298,1.251-.435,1.859-.693,1.74-.74,3.798-1.069,4.617.776.587,1.323.42,3.611-.395,4.793-1.864,2.701-4.263,5.054-6.57,7.428-3.819,3.929-7.789,7.712-11.561,11.683-.652.686-.64,1.999-.935,3.023,1.015-.094,2.177.101,3.022-.327,6.285-3.176,11.587-7.449,16.206-12.896,11.966-14.111,25.057-27.082,41.183-36.565,5.781-3.4,12.061-5.855,18.742-6.295,3.591-.236,7.384.865,10.912,1.934,2.551.772,3.085,2.49,2.297,4.685-.502-.26-1.067-.414-1.443-.768-5.788-5.451-12.421-5.223-19.319-2.805-6.867,2.407-12.664,6.632-17.981,11.416-6.544,5.888-12.792,12.105-19.151,18.198-.698.669-1.285,1.452-1.578,2.628,2.649-1.571,5.247-3.237,7.963-4.683,2.04-1.087,4.187-2.017,6.367-2.791,2.725-.967,4.86.65,4.332,3.456-.355,1.886-1.225,3.822-2.347,5.393-6.557,9.178-14.686,16.504-25.598,20.136-2.202.733-4.753.646-7.131.564-1.856-.064-2.984-1.333-3.006-3.323-.009-.788-.001-1.576-.001-2.996-1.915,1.305-3.228,2.422-4.726,3.174-2.643,1.326-5.311,2.729-8.13,3.542-2.906.838-5-1.101-4.173-4.001.743-2.608,2.051-5.355,3.9-7.29,4.408-4.612,9.302-8.759,13.953-13.143.961-.907,1.717-2.031,2.567-3.054-.168-.244-.337-.488-.505-.732-.883.214-1.832.289-2.64.663-12.849,5.958-23.43,14.725-32.016,25.919-.597.779-.856,1.815-1.535,2.504-2.223-2.783-1.289-4.681-.064-6.139,4.579-5.449,9.286-10.794,14.067-16.069,1.911-2.109,4.137-3.935,6.22-5.89-.17-.328-.339-.655-.509-.983-.996.256-2.065.36-2.978.791-12.56,5.927-22.959,14.525-31.475,25.438-.647.829-1.355,1.609-2.246,2.66-2.595-3.226.569-5.207,1.041-8.055-1.538,1.129-2.828,2.16-4.204,3.063-1.872,1.229-3.689,2.707-5.758,3.419-1.544.532-3.706.541-5.127-.158-1.773-.872-1.605-2.874-.651-4.611.131-.239.018-.612.018-1.251-2.863,1.858-5.421,3.648-8.112,5.208-1.253.726-2.734,1.272-4.166,1.438-3.089.358-4.257-1.011-3.885-4.141.066-.554.101-1.112.204-2.275-1.248.819-2.054,1.444-2.942,1.914-2.91,1.538-5.776,3.197-8.808,4.45-1.571.649-3.927.822-4.647-1.083-.599-1.584-.698-4.144.209-5.362,3.047-4.09,6.53-7.88,10.068-11.575,2.404-2.511,5.207-4.639,7.767-7.007.677-.626,1.117-1.505,1.666-2.268-.11-.231-.219-.462-.329-.692-1.143.182-2.372.151-3.414.577-12.647,5.167-22.912,13.303-30.595,24.62-.419.618-.795,1.302-1.342,1.785-.539.476-1.27.734-1.917,1.088-.187-.766-.718-1.658-.493-2.275.617-1.694,1.416-3.359,2.383-4.884,8.093-12.765,18.923-23.064,30.138-32.994,7.382-6.536,15.317-12.233,24.85-15.314,6.345-2.05,12.749-3.399,19.209-.58,1.301.567,2.434,1.646,3.44,2.687.363.375.122,1.33.157,2.02-.633-.177-1.458-.158-1.869-.56-4.396-4.3-9.917-5.111-15.329-3.599-4.865,1.359-9.629,3.696-13.898,6.436-9.791,6.284-17.631,14.852-25.642,23.17-.957.994-1.828,2.07-2.971,3.373ZM469.244,65.849c.387-.124,1.29-.198,1.922-.65,3.755-2.685,7.666-5.21,11.109-8.257,5.389-4.769,10.477-9.88,15.6-14.939.577-.569.561-1.735.82-2.624-.951-.079-1.903-.214-2.854-.21-.378.002-.76.298-1.13.48-8.323,4.08-15.848,9.336-22.507,15.741-2.05,1.971-3.69,4.461-5.129,6.938-1.152,1.984-.22,3.455,2.169,3.52ZM386.198,66.081c1.93-.987,3.262-1.503,4.413-2.284,8.785-5.962,16.117-13.481,22.967-21.505.322-.377.733-.762.849-1.208.175-.677.396-1.579.088-2.066-.237-.374-1.318-.472-1.916-.307-1.1.304-2.21.757-3.162,1.382-8.026,5.272-15.007,11.713-21.107,19.1-.991,1.2-1.857,2.569-2.457,3.995-.292.693.163,1.699.324,2.893Z"/>
      <path class="d" d="M103.753,49.738c5.304-2.284,9.994-5.189,13.077-10.099-.142-.268-.283-.537-.425-.805-.877.254-1.948.27-2.598.8-3.957,3.224-7.874,6.504-11.694,9.888-2.65,2.347-5.289,4.748-7.618,7.4-1.557,1.773-2.759,3.938-3.757,6.095-1.044,2.255.313,3.854,2.742,3.281,1.916-.452,3.85-1.144,5.551-2.12,4.837-2.776,9.204-5.996,12.592-10.682,5.645-7.807,13.504-12.934,22.53-16.203,1.496-.542,3.441-.756,4.882-.262,1.156.397,1.863,2.096,3.116,3.647,1.823-.457,3.683-3.614,7.401-2.384-.931.947-1.658,1.667-2.365,2.406-6.256,6.538-12.513,13.075-18.752,19.63-.511.537-1.021,1.147-1.293,1.82-.37.916-.51,1.923-.748,2.892,1.012-.135,2.235.047,3.001-.459,3.249-2.15,6.577-4.263,9.479-6.836,5.089-4.513,9.784-9.467,14.853-14.004,2.311-2.068,5.067-3.669,7.735-5.296.799-.487,1.984-.344,3.212.024-3.009,2.837-6.018,5.675-9.028,8.512.108.122.216.243.324.365,4.236-2.559,8.423-5.206,12.733-7.635,1.783-1.005,3.78-1.814,5.778-2.188,1.07-.2,2.586.452,3.448,1.223.524.469.619,2.208.161,2.842-2.261,3.133-4.606,6.24-7.236,9.066-3.277,3.522-6.87,6.752-10.307,10.128-.59.579-1.24,1.182-1.58,1.906-.413.879-.526,1.898-.768,2.857.945-.058,2.018.158,2.814-.215,7.724-3.622,13.824-9.348,19.787-15.274,3.527-3.505,7.183-6.892,10.933-10.157,1.678-1.461,3.806-2.189,6.564-1.673-3.257,3.053-6.242,5.852-9.228,8.651.136.175.273.35.409.524,2.724-1.759,5.358-3.679,8.195-5.232,3.112-1.703,6.344-3.248,9.667-4.473,1.045-.385,2.959.098,3.727.898.641.668.711,2.752.129,3.562-2.209,3.075-4.651,6.013-7.259,8.764-3.082,3.253-6.454,6.231-9.638,9.391-.995.987-1.865,2.126-2.634,3.299-.303.462-.442,1.432-.165,1.763.312.373,1.25.519,1.786.351,1.256-.392,2.514-.901,3.63-1.59,4.887-3.019,9.405-6.38,12.968-11.067,5.719-7.525,13.417-12.533,22.247-15.825.76-.283,1.63-.321,2.455-.378,3.923-.27,4.342.101,4.527,4.151,2.755-.703,4.632-3.994,8.622-2.633-1.796,1.651-3.366,2.942-4.76,4.402-5.559,5.825-11.068,11.697-16.577,17.569-.507.541-1.012,1.151-1.289,1.823-.375.908-.528,1.908-.776,2.868,1.014-.131,2.281.08,3.001-.45,4.808-3.534,9.496-7.23,14.23-10.865.85-.652,1.732-1.263,2.599-1.893l.431.44c-.164.318-.247.735-.502.94-5.167,4.152-10.346,8.291-15.55,12.398-.576.454-1.296.758-1.99,1.026-3.716,1.434-5.85-.081-5.7-4.011.018-.483.002-.967.002-1.986-1.067.629-1.799,1.043-2.514,1.485-2.187,1.351-4.282,2.879-6.567,4.036-4.474,2.265-6.714.878-6.827-4.013-.007-.317-.115-.631-.264-1.397-1.463.975-2.661,1.934-3.997,2.631-2.552,1.332-5.1,2.774-7.818,3.643-1.239.396-3.593.009-4.168-.86-.795-1.202-1.004-3.498-.368-4.786,1.298-2.628,3.051-5.169,5.117-7.253,3.913-3.948,8.2-7.524,12.279-11.31.985-.914,1.764-2.048,2.638-3.08-.151-.251-.302-.502-.453-.753-.944.248-1.958.351-2.822.764-12.668,6.061-23.278,14.668-31.872,25.751-.547.706-1.138,1.379-1.698,2.055q-1.744-1.25.656-7.452c-2.129,1.466-3.766,2.836-5.614,3.805-2.47,1.295-5.022,2.567-7.689,3.32-2.866.81-4.4-.77-4.309-3.755.09-2.955,1.65-5.263,3.581-7.196,3.928-3.932,8.093-7.629,12.126-11.458,1.675-1.591,3.262-3.275,4.889-4.917-.213-.314-.426-.628-.639-.942-.947.265-1.959.398-2.832.816-12.672,6.063-23.25,14.714-31.812,25.811-.639.828-.923,1.929-1.633,2.664-2.543-3.51-.137-5.501.808-8.367-3.094,2.1-5.607,3.918-8.239,5.541-1.17.721-2.545,1.308-3.893,1.506-2.959.435-4.163-.788-4.089-3.755.016-.652.002-1.305.002-2.47-.904.506-1.56.844-2.188,1.23-2.331,1.434-4.558,3.07-6.997,4.285-4.357,2.171-6.518.801-6.696-3.979-.012-.31-.123-.617-.271-1.316-2.012,1.354-3.749,2.728-5.671,3.757-1.958,1.047-4.088,1.781-6.161,2.604-2.595,1.03-5.271,1.059-7.181-1.073-1.941-2.166-1.362-5.047-.184-7.289,1.602-3.047,3.498-6.099,5.889-8.543,5.745-5.873,12.339-10.663,20.458-12.797,1.201-.316,3.141.107,3.928.946.608.648.405,2.788-.231,3.735-3.256,4.845-8.175,6.889-13.777,7.47ZM110.908,65.99c1.475-.648,2.37-.913,3.127-1.394,9.646-6.123,17.429-14.262,24.703-22.924.535-.637.454-1.787.659-2.699-1-.012-2.035-.19-2.989.012-.859.182-1.682.703-2.43,1.209-7.681,5.189-14.587,11.249-20.437,18.447-1.189,1.464-2.159,3.142-2.989,4.838-.279.571.189,1.506.355,2.512ZM237.934,39.529c-.748-.406-1.421-1.09-1.964-1-1.112.185-2.253.631-3.21,1.239-8.254,5.252-15.462,11.691-21.58,19.314-1.025,1.277-1.839,2.749-2.563,4.223-.261.532-.166,1.453.148,1.963.165.268,1.222.205,1.754-.01,1.068-.432,2.107-.988,3.06-1.636,8.643-5.886,15.798-13.362,22.602-21.199.634-.73,1.024-1.672,1.753-2.895Z"/>
      <path class="d" d="M143.118,5.818c-1.674-.97-3.121-2.015-4.723-2.699-5.206-2.221-10.648-1.978-15.93-.613-4.135,1.069-8.07,2.909-12.094,4.405-1.275.474-1.602,1.247-.987,2.523,5.229,10.844-.267,18.72-6.798,23.419-4.178,3.007-8.785,4.938-14.016,5.349-.898.07-2.253,1.019-2.486,1.825-2.575,8.906-5.413,17.772-5.191,27.226.146,6.245,2.882,7.87,8.446,4.878.335-.18.704-.298,1.264-.53-1.797,2.991-6.585,5.407-9.566,4.995-3.625-.501-6.177-3.203-5.871-7.429.338-4.665,1.117-9.385,2.429-13.87,1.481-5.063,3.819-9.874,5.655-14.842.3-.81-.063-1.865-.125-2.806-.035-.535-.306-1.262-.058-1.554.273-.321,1.153-.501,1.539-.301,5.589,2.892,9.852-.227,13.817-3.332,4.635-3.631,8.187-8.278,9.95-14.006.94-3.052,1.119-6.158-1.297-9.465-2.818,2.497-5.686,4.625-8.051,7.211-7.114,7.779-14.024,15.743-21.03,23.621-9.79,11.01-20.02,21.551-32.391,29.76-2.279,1.512-4.698,2.822-7.092,4.153-1.069.594-1.665,1.16-.583,2.241,6.423,6.414,17.216,9.152,25.031,5.788,1.563-.673,2.928-1.804,4.595-2.509-.386,1.87-1.952,2.798-3.48,3.391-9.863,3.826-18.764,1.763-26.692-4.865-1.688-1.411-2.873-2.103-5.196-1.185-5.308,2.097-10.932,2.701-16.656,2.394C6.292,78.493.255,72.442.011,63.201c-.189-7.176,2.039-13.738,5.61-19.849,7.949-13.603,19.05-23.825,33.655-29.9,4.15-1.726,8.803-2.241,13.218-3.343,1.813-.453,3.77-.685,5.38-1.542C68.859,2.713,80.483-.002,92.94.982c4.584.362,8.787,1.871,12.507,4.474,1.729,1.21,2.926,1.033,4.696.115,8.921-4.626,18.256-7.084,28.358-4.562,3.105.775,4.664,2.29,4.618,4.809ZM52.154,11.816l-.532-1.098c-4.161,1.693-8.555,2.973-12.441,5.154-13.733,7.704-23.842,19.165-32.311,32.177-3.376,5.188-5.322,10.821-4.756,17.151.519,5.798,3.905,10.038,9.49,11.757,7.148,2.2,13.574-.094,19.824-3.224.454-.227.679-1.676.442-2.361-.673-1.945-1.871-3.725-2.425-5.692-.531-1.884-1.479-2.456-3.34-2.478-2.578-.029-5.14-.311-7.082-2.431-2.428-2.65-2.593-5.947-.173-7.927,0,.408.081.752-.012,1.04-1.592,4.93,2.58,8.565,7.342,8.168,1.701-.142,2.077-.715,2.117-2.467.116-5.03-.105-10.227,1.088-15.042,3.15-12.717,10.315-23.031,20.739-31.053.695-.535,1.355-1.115,2.031-1.674ZM60.653,10.816c.626.501,1.027.926,1.515,1.195,2.775,1.528,4.428,3.831,5.325,6.868,1.101,3.729.48,7.387-.82,10.747-5.676,14.678-16.297,24.804-30.419,31.317-6.137,2.83-6.29,2.591-3.104,8.739.076.147.15.296.225.444.72,1.412,1.577,2.018,3.114.877,1.662-1.234,3.509-2.218,5.187-3.433,10.969-7.941,20.127-17.801,29.485-27.476,8.65-8.942,17.563-17.635,26.516-26.278,2.399-2.316,5.367-4.045,8.105-6.067-9.293-8.82-33.716-5.462-45.13,3.067ZM29.92,55.308c0,.664-.02,1.329.003,1.992.14,4.087.617,4.356,4.344,2.497,7.007-3.496,12.935-8.429,18.425-13.905,5.509-5.496,10.224-11.543,12.804-19.033,1.937-5.622.238-11.267-4.284-14.052-1.595-.983-2.942-1.073-4.587.007-6.758,4.437-12.481,9.934-17.123,16.514-5.498,7.794-9.242,16.276-9.583,25.981Z"/>
      <path class="d" d="M321.616,82.558c-.732.926-1.375,1.941-2.211,2.761-3.627,3.556-7.845,5.745-13.099,5.677-5.721-.074-9.05-3.12-9.07-8.85-.007-2.152-.366-3.162-2.782-3.622-2.946-.561-5.394-2.541-6.339-5.47-.748-2.318-2.29-2.734-4.253-3.062-4.471-.748-8.457-2.526-11.379-6.101-4.018-4.917-5.398-10.731-4.322-16.815,3.835-21.686,17.832-34.178,37.964-40.92,12.422-4.16,25.194-4.153,38.008-2.901,4.19.41,8.27,1.89,12.459,2.384,2.209.261,4.544-.557,6.825-.87,3.789-.519,7.567-1.243,11.374-1.48,5.194-.323,10.289.373,14.898,3.053.834.485,1.547,1.246,2.181,1.992,1.254,1.476,2.16,3.402.87,4.962-.873,1.057-2.905,1.925-4.231,1.712-5.462-.875-10.851-2.199-16.269-3.349-4.624-.981-9.223-2.478-13.887-2.725-2.852-.151-5.926,1.356-8.695,2.582-20.843,9.227-37.865,23.211-51.103,41.682-2.627,3.665-4.532,7.883-6.469,11.987-1.411,2.99-.561,3.897,2.754,3.563,3.907-.394,6.595-1.882,8.799-5.677,8.776-15.111,20.429-27.608,36.249-35.598,3.68-1.859,7.989-2.879,12.116-3.354,5.124-.589,7.875,2.557,7.769,7.682-.098,4.745-2.534,8.581-5.131,12.201-10.786,15.036-25.036,25.746-42.205,32.528-3.413,1.348-7.221,1.8-10.894,2.355-1.904.288-2.569,1.041-2.608,2.853-.125,5.825,4.723,9.398,10.516,7.726,3.925-1.133,7.305-3.111,10.073-6.128.451-.492,1.052-.848,1.584-1.267.169.163.339.326.508.489ZM350.504,7.78c-.474-.36-.591-.525-.724-.539-13.701-1.431-27.317-1.966-40.878,1.605-12.086,3.183-22.673,8.516-30.431,18.572-5.885,7.628-9.827,15.92-8.733,25.925.839,7.673,7.22,14.344,14.794,15.39,1.734.239,2.66-.201,2.891-2.06.929-7.479,4.537-13.812,8.951-19.688,11.408-15.186,26.09-26.359,43.201-34.453,3.503-1.657,7.109-3.098,10.929-4.752ZM333.273,44.611c.156,2.248-.542,3.655-3.019,6.304-7.033,7.521-15.288,13.248-25.031,16.703-2.006.711-3.229,1.855-3.816,3.858-.348,1.185-.937,2.297-1.353,3.465-.742,2.083-.118,2.877,2.008,2.579,6.08-.85,11.76-2.901,17.061-5.936,10.97-6.283,20.749-14.092,29.21-23.463,4.047-4.482,8.135-9.017,9.657-15.151,1.039-4.189-1.641-8.013-5.943-7.655-3.069.256-6.271,1.062-9.04,2.393-16.342,7.857-28.004,20.702-37.517,35.738-.394.623-.599,1.366-.892,2.054.198.149.396.299.594.448,11.031-4.78,20.809-11.256,28.081-21.338ZM363.862,6.834c.03.247.06.493.091.74.439.18.866.398,1.319.533,5.155,1.538,10.291,3.15,15.483,4.555,2.458.665,5.014,1.112,7.551,1.28,1.02.067,2.806-.687,3.005-1.408.316-1.144-.185-2.685-.769-3.843-.392-.777-1.466-1.303-2.338-1.731-6.637-3.26-13.568-2.265-20.474-1.266-1.316.19-2.579.751-3.867,1.14ZM299.868,69.467c-2.228.267-3.937.42-5.628.686-3.041.48-3.466,1.628-1.535,4.127.497.643,1.075,1.264,1.733,1.733,2.197,1.567,3.375,1.158,4.143-1.435.459-1.549.794-3.135,1.287-5.111Z"/>
      <path class="d" d="M540.653,37.775c-3.575,3.259-7.15,6.517-10.726,9.776.158.189.316.377.475.566,1.966-1.53,3.826-3.228,5.922-4.552,3.417-2.159,6.925-4.2,10.541-5.999.855-.426,2.552-.028,3.372.614.632.494.499,1.963.706,2.999-.85.081-1.699.191-2.551.237-2.083.113-4.526-.466-6.181.423-3.92,2.106-7.828,4.512-11.081,7.509-5.418,4.993-10.305,10.558-15.458,15.84-.619.635-1.504,1.012-2.266,1.508-.153-.992-.404-1.982-.423-2.976-.012-.594.339-1.196.746-2.493-2.642,1.628-4.627,3.064-6.796,4.127-2.065,1.012-4.28,1.796-6.507,2.384-2.122.56-4.192.043-5.696-1.662-1.556-1.764-1.286-3.764-.541-5.846,2.789-7.786,8.699-12.876,15.334-17.118,3.657-2.338,7.806-3.971,11.87-5.579.996-.394,3.069.171,3.658.997.579.81.348,2.818-.303,3.774-3.223,4.726-8.022,6.835-13.599,7.454,4.944-2.54,10.001-4.897,12.612-10.113-.159-.268-.318-.535-.477-.803-.849.315-1.862.434-2.52.978-3.865,3.193-7.738,6.387-11.428,9.776-3.089,2.836-5.99,5.884-8.849,8.955-1,1.074-1.825,2.418-2.354,3.783-.379.978-.57,2.541-.04,3.21.513.648,2.235.941,3.11.596,2.908-1.15,5.974-2.262,8.426-4.116,4.143-3.133,7.938-6.743,11.741-10.3,4.058-3.796,7.793-7.952,11.998-11.57,1.829-1.574,4.481-2.196,6.759-3.251.176.291.351.581.527.872Z"/>
      <path class="d" d="M565.638,53.505c-.43.503-.772,1.137-1.302,1.489-5.507,3.66-10.854,7.627-16.655,10.753-2.846,1.534-6.529,1.782-9.874,2.013-1.425.099-3.765-1.012-4.227-2.158-.539-1.339-.025-3.81.99-4.923,2.66-2.919,5.548-5.833,8.878-7.895,5.382-3.332,9.719-7.695,14.071-12.127,3.018-3.074,5.994-6.203,9.205-9.066.921-.821,2.596-.801,3.926-1.166-.585,1.252-.904,2.761-1.815,3.697-1.428,1.467-3.16,2.708-4.934,3.757-3.781,2.235-6.279,5.027-6.747,9.728-.538,5.396-2.369,10.482-6.318,14.586l.624.633c4.547-3.283,9.093-6.566,13.64-9.849.18.176.36.352.539.528ZM555.889,45.225c-.203-.14-.406-.28-.609-.421-.601.525-1.198,1.054-1.803,1.575-4.626,3.983-9.239,7.981-13.893,11.932-1.068.907-2.522,1.457-3.351,2.518-.806,1.031-1.037,2.508-1.521,3.789,1.355.263,2.806.972,4.047.705,3.973-.854,6.904-3.491,9.45-6.492,3.435-4.048,6.038-8.578,7.68-13.608Z"/>
    </g>
  </g>
</svg>