<?xml version="1.0" encoding="UTF-8"?>
<svg xmlns="http://www.w3.org/2000/svg" version="1.1" viewBox="0 0 1127.3 196">
  <defs>
    <style>
      .cls-1 {
        fill: #231f20;
      }

      .cls-2 {
        fill: #e0deda;
      }
    </style>
  </defs>
  <!-- Generator: Adobe Illustrator 28.7.1, SVG Export Plug-In . SVG Version: 1.2.0 Build 142)  -->
  <g>
    <g id="Layer_2">
      <g id="Layer_1-2">
        <g>
          <path class="cls-2" d="M139.5,196.5h-38.1l-1.2-1.3c-6.4-7.1-15.6-23.9-28.2-51.3-9.1-20.6-19.9-39.1-23.7-40.4l-3.7-1,2.2-10.2,3.4.2c12,.8,22.8-2.6,30.5-9.7,6.9-6.4,10.7-15.1,10.9-25.2.2-12.4-6.6-20.4-12.4-24.9-10.7-8.3-26.1-11.7-40-8.9l.4,138.2h0c-.3,11.3.8,17.6,3.2,19.9,1.6,1.5,4.6,2,10,1.7l4.3-.3v13.3H-.6v-13.3l4.3.3c5.1.4,8.1-.2,9.8-1.8,2.6-2.5,3.7-8.8,3.3-19.7,0-1,0-17.4,0-38.2,0-32.9,0-77.9,0-79.7-.4-21.1-7-21.3-11.3-21.5-1,0-1.9,0-2.8-.2l-3.2-.6v-12.3h19.4c7.6,0,15.8-.4,25.1-1.1,4.5-.4,16.4-.9,29.3,1.2,14,2.3,25,7.1,32.6,14.2,8.2,7.6,12.4,17.7,12.4,30,0,23.3-16,40.9-42.2,47.2,5.2,7.2,12,19.2,20.4,36.5,9.7,19.8,17.1,32.4,22.6,38.4l.7.7c4.6,4.8,10.1,7.6,16.2,8.2l3.6.4v11.3ZM105.1,188.5h16.9c-3.2-1.8-6.1-4.3-8.8-7.2l-1-1.2c-5.9-6.9-13.3-19.7-22.8-39.1-13.2-27-20-36.5-23.4-39.7l-1.7-1.7c-2.3.5-4.7.7-7.2.9,3,3.4,7,9.3,12.4,19.4,5.5,10.4,9.9,20.3,10.1,20.7,13.7,29.8,21.5,42.5,25.7,47.9ZM17.8,188.5h20.5c-.3-.3-.7-.6-1-.9-4.4-4.2-6-11.4-5.7-25.8l-.4-144.4,1.4-.4c-4.9.2-9.5.4-13.9.4h-3c5,3.4,8.7,10.8,9,26.4,0,1.3,0,35.4,0,79.9,0,20,0,37.2,0,38.1.4,13.9-1.3,21.3-5.8,25.7-.4.4-.8.7-1.2,1ZM63.2,16.4c7.7,1.8,15,5.2,21,9.9,10.2,8,15.7,19.1,15.5,31.4-.2,12.2-5,23.2-13.4,31-.3.3-.7.6-1,.9,15.9-6.9,24.9-19.6,24.9-35.8,0-10-3.3-18.1-9.9-24.2-9.7-9-24.9-12.2-37.1-13.2Z"/>
          <path class="cls-2" d="M191.7,114.5h-58.4l.5-.7v-10h5.2c.8-.3,3.7-1.9,4-9.6V31.6c-.3-7.3-2.7-9.4-3.7-9.6h-5.5v-10.6h57.9l7,30.5h-7.7l-1.2-1.5c-13.5-16.8-24.4-17.5-24.5-17.5h-.3c-2.1-.2-4.6,0-5.7.4,0,2.5-.3,7.6-.3,8.4v14.2l23.4-1.5-2.8,18.9h-5.4l-1.2-1.2c-3.1-3.1-9.2-4.8-14.1-5.5v37.7s0,3.4,0,5.4c0,1.2.4,1.7.7,2,1.3,1.2,4.2,1.3,5.4,1.3l.3,3.5v-.3s0-3.2,0-3.2c.1,0,11-.7,24.5-17.5l1.2-1.5h7.7l-7,30.5ZM178.3,106.5h7l1.4-6.1c-2.8,2.4-5.6,4.5-8.4,6.1ZM149.3,106.5h4c-1.5-1.8-2.2-4.1-2.3-6.7,0-2.1,0-5.5,0-5.5V31.4c0,0,.3-7,.3-9,0-1.1.3-2.1.8-3h-4.3c1.6,2.6,2.9,6.4,3.1,12v.2s0,62.9,0,62.9c-.2,5.6-1.6,9.4-3.3,12h1.7,0ZM178.3,19.3c2.6,1.5,5.4,3.5,8.5,6.2l-1.4-6.2h-7.1ZM159.3,22.5h0s0,0,0,0ZM139.3,22c.1,0,.2,0,.2,0h-.2Z"/>
          <path class="cls-2" d="M269.5,114.5h-34.7v-10.8h4c2.1,0,3.1-.5,3.4-.9,1.1-1.5-.5-7.2-1.6-11l-.4-1.5c-.3-1-5.1-16.5-9.7-31.1h-8.4l-9.1,31c-1.2,4.4-3,11-1.7,12.7.3.4,1.4.7,2.9.7h4v10.9h-27.8v-10.8h3.9c2.5-.2,3.4-1.8,5.4-8.2.3-1.1.7-2.1,1.1-3.3l19.3-65.5c-1.5-4.3-2.3-4.7-5.1-4.7h-4s0-10.8,0-10.8h21.9l.4,1.2h0l25.3,80.8c.4,1.1.7,2.1,1,3,2.1,6.8,2.6,7.4,6,7.4h4s0,10.8,0,10.8ZM249.3,106.5h5.8c-1.5-2.3-2.3-5.1-3.2-7.8,0,0,0,0,0-.1h0l-24.4-78.1h-.1l-.4-1.2h-.5l3.5,11.2s3,9.5,6.5,20.8h0l.9,2.8c5,15.9,10.6,34,10.6,34l.5,1.6c1.7,6,3.5,12.3,1,16.9ZM203.6,106.5h.6c0-.2-.2-.3-.2-.5-.1.2-.2.3-.3.5ZM225.2,48.6h1.9c-.3-1.1-.7-2.1-1-3.1l-.9,3.1ZM225.4,19.3s0,0,0,.1h0c0-.1-.1-.1-.1-.1Z"/>
          <path class="cls-2" d="M331,116h-7.2l-37.5-64.8v43.3c-.1,6.1,1.4,8.1,2.1,8.7.5.4,1,.6,1,.6h.4s5.7,0,5.7,0v10.6h-29v-10.6h5.7c.9-.2,3-2.1,3-9.3v-62.5c-5.9-9.1-10.4-9.9-11.2-10l-5,1.5.5-5.4v-6.7h24l36.4,63.3V29.3c-.2-4.6-1.5-6.3-2-6.8-.5-.4-1-.6-1-.6h-.4s-5.7,0-5.7,0v-10.6h29v10.6s-5.6,0-5.6,0c-.9.2-3,2.1-3,9.3v70.8h0v14ZM280.5,106.4h.3c0,0,0-.2-.1-.2,0,0,0,.2-.1.2ZM272.2,103.8h.2s-.1,0-.2,0ZM278.3,21.4l44.7,77.3v-2.4l-44.3-76.9h-3.7c1.1,1,2.2,2.1,3.3,3.5v-1.5ZM264.1,22s0,0,0,0ZM333.8,22s.1,0,.2,0h-.2ZM325.3,19.3c0,0,0,.2.1.2,0,0,0-.2.1-.2h-.3Z"/>
          <path class="cls-2" d="M403.8,116h-7.2l-37.5-64.8v43.3c-.1,5.9,1.3,8,1.9,8.6.5.5,1,.6,1.2.7h.3c0,0,0,0,0,0h5.7v10.6h-29v-10.6h5.7c.9-.2,3-2.1,3-9.3v-62.5c-5.9-9.1-10.4-9.9-11.2-10l-5,1.5.5-5.4v-6.7h24l36.4,63.3V29.3c-.2-4.4-1.4-6.1-1.9-6.7-.5-.5-1-.6-1.2-.7h-.3c0,0,0,0,0,0h-5.7v-10.6h29v10.6s-5.6,0-5.6,0c-.9.2-3,2.1-3,9.3v70.8h0v14ZM353.3,106.4h.3c0,0,0-.2-.1-.2,0,0,0,.2-.1.2ZM344.9,103.8h.2s-.1,0-.2,0ZM351.1,21.4l44.7,77.3v-2.4l-44.3-76.9h-3.7c1.1,1,2.2,2.1,3.3,3.5v-1.5ZM336.8,22s0,0,0,0ZM406.6,22s.1,0,.2,0h-.2ZM398.1,19.3c0,0,0,.2.1.2,0,0,0-.2.1-.2h-.3Z"/>
          <path class="cls-2" d="M482.6,114.5h-34.7v-10.8h4c2.1,0,3.1-.5,3.4-.9,1.1-1.5-.5-7.2-1.6-11l-.4-1.5c-.3-1-5.1-16.5-9.7-31.1h-8.4l-9.1,31c-1.2,4.4-3,11-1.7,12.7.3.4,1.4.7,2.9.7h4v10.9h-27.8v-10.8h3.9c2.5-.2,3.4-1.8,5.4-8.2.3-1.1.7-2.1,1.1-3.3l19.3-65.5c-1.5-4.3-2.3-4.7-5.1-4.7h-4s0-10.8,0-10.8h21.9l.4,1.2h0l25.3,80.8c.4,1.1.7,2.1,1,3,2.1,6.8,2.6,7.4,6,7.4h4s0,10.8,0,10.8ZM462.4,106.5h5.8c-1.5-2.3-2.3-5.1-3.2-7.8,0,0,0,0,0-.1h0l-24.4-78.1h-.1l-.4-1.2h-.5l3.5,11.2s3,9.5,6.5,20.8h0l.9,2.8c5,15.9,10.6,34,10.6,34l.5,1.6c1.7,6,3.5,12.3,1,16.9ZM416.7,106.5h.6c0-.2-.2-.3-.2-.5-.1.2-.2.3-.3.5ZM438.3,48.6h1.9c-.3-1.1-.7-2.1-1-3.1l-.9,3.1ZM438.5,19.3s0,0,0,.1h0c0-.1-.1-.1-.1-.1Z"/>
          <rect class="cls-2" x="131.7" y="130.5" width="352.1" height="16"/>
          <path class="cls-2" d="M588.9,189.6c-21.8,0-42.6-8.5-58.8-24-18.1-17.4-28.7-42.4-29-68.6-.7-52.3,38.7-96,87.7-97.3,24.1-.6,39.7,3.7,53.7,14.9l1.5,1.2.7,51.9h-11.8l-.8-2.9c-.1-.5-14.4-51.4-43.7-51.4h0c-11.5,0-22.7,5.1-32.2,14.7-15.7,15.9-24.9,41.6-24.6,68.7.3,25,9,47.4,23.7,61.6,10.3,9.9,22.6,14.9,35.6,14.6,16.9-.5,39.3-7.6,50.4-38.7l.9-2.7h13.6l-1.8,5.3c-6.3,18.2-15.8,32-28.3,41.1-12.8,9.3-25.8,11.5-34.5,11.8-.8,0-1.6,0-2.3,0ZM560.6,13.9c-30.5,13.3-52,45.7-51.5,82.9.3,24.1,10,47,26.6,63,15.2,14.6,34.8,22.3,55.4,21.8,7.3-.2,13.7-1.7,19.4-4.2-7.2,2.4-13.9,3.3-19.3,3.4-15.2.4-29.5-5.4-41.4-16.8-16.3-15.7-25.9-40.2-26.2-67.3-.3-29.3,9.7-57.1,26.9-74.4,3.2-3.2,6.6-6,10.1-8.4ZM601.1,7.7c10,4.1,19.1,13.1,26.9,26.7,3.8,6.6,6.6,13.1,8.5,18.2l-.4-33.1c-9.6-7.2-20.4-10.9-35-11.8Z"/>
          <path class="cls-2" d="M731.5,106.1h-34.4v-10.6h5.5c1-.2,3.3-2.3,3.7-9.6v-36.9h-22.4v36.8c.3,7.3,2.7,9.3,3.7,9.6h5.5v10.6h-34.4v-10.6h5.5c1-.2,3.3-2.3,3.7-9.6V23c-.3-7.3-2.7-9.3-3.7-9.6h-5.5V2.8h34.4v10.6h-5.5c-1,.2-3.3,2.3-3.7,9.6v15h22.4v-15c-.3-7.3-2.7-9.3-3.7-9.6h-5.5V2.8h34.4v10.6h-5.5c-1,.2-3.3,2.3-3.7,9.6v62.9c.3,7.3,2.7,9.3,3.7,9.6h5.5v10.6ZM711.2,98.1h6.2c-1.6-2.5-2.8-6.2-3.1-11.5-.3,5.4-1.5,9-3.1,11.5ZM672.9,98.1h6.2c-1.6-2.5-2.8-6.2-3.1-11.5-.3,5.4-1.5,9-3.1,11.5ZM725.9,95.5s0,0,0,0h.2s0,0,0,0ZM702.7,95.5h.1s0,0-.1,0ZM687.5,95.4s0,0,0,0h.2s0,0,0,0ZM664.3,95.4h.1s0,0-.1,0ZM711.2,10.8c1.6,2.5,2.8,6.2,3.1,11.5.3-5.4,1.5-9,3.1-11.5h-6.2ZM672.9,10.8c1.6,2.5,2.8,6.2,3.1,11.5.3-5.4,1.5-9,3.1-11.5h-6.2ZM725.8,13.5s0,0,.1,0h-.1ZM702.7,13.5c.1,0,.2,0,.2,0h-.2ZM687.4,13.4s0,0,.1,0h-.1ZM664.3,13.4c.1,0,.2,0,.2,0h-.2Z"/>
          <path class="cls-2" d="M802.7,106.1h-34.7v-10.8h4c2.1,0,3.1-.5,3.4-.9,1.1-1.5-.5-7.2-1.6-11l-.4-1.5c-.3-1-5.1-16.5-9.7-31.1h-8.4l-9.1,31c-1.2,4.4-3,11-1.7,12.7.3.4,1.4.7,2.9.7h4v10.9h-27.8v-10.8h3.9c2.5-.2,3.4-1.8,5.4-8.2.3-1.1.7-2.1,1.1-3.3l19.3-65.5c-1.5-4.3-2.3-4.7-5.1-4.7h-4s0-10.8,0-10.8h21.9l.4,1.2h0l25.3,80.8c.4,1.1.7,2.1,1,3,2.1,6.8,2.6,7.4,6,7.4h4s0,10.8,0,10.8ZM782.5,98.1h5.8c-1.5-2.3-2.3-5.1-3.2-7.8,0,0,0,0,0-.1h0l-24.4-78.1h-.1l-.4-1.2h-.5l3.5,11.2s3,9.5,6.5,20.8h0l.9,2.8c5,15.9,10.6,34,10.6,34l.5,1.6c1.7,6,3.5,12.3,1,16.9ZM736.8,98.1h.6c0-.2-.2-.3-.2-.5-.1.2-.2.3-.3.5ZM758.4,40.1h1.9c-.3-1.1-.7-2.1-1-3.1l-.9,3.1ZM758.6,10.8s0,0,0,.1h0c0-.1-.1-.1-.1-.1Z"/>
          <path class="cls-2" d="M892.5,106.1h-34.3v-10.6h5.4c1.1-.3,3.1-2.5,3-9.3V29.3l-21.7,21.2h-4.1l-21.9-21.3v56.8c-.1,5.9,1.3,8,1.9,8.6.5.5,1,.6,1.2.7h.3c0,0,0,0,0,0h5.7v10.6h-29v-10.6h5.7c.9-.2,3-2.1,3-9.3V28c0,0,.1-7.4-3.9-11.6-1.8-1.8-4.1-2.8-7.2-2.8h-3.9V2.9h23.4c0-.1,30.6,30.1,30.6,30.1l30.3-30.2h15.7v10.8h-5.9c-1.7,0-2.4.6-3,1.5v.3c-.3.4-.8,2.2-.8,9.7v60.8c0,6.2,1.5,8.4,2.2,9,.5.4.9.5,1.1.6h.4c0-.1,0,0,0,0h5.7v10.6ZM872.1,98.1h5.6c-1.7-3-2.6-7-2.6-12.2V25.1c0-1.7,0-3.1,0-4.5l-.5.3v65.2c0,5.6-1,9.4-2.6,12ZM813.1,98h.3c0,0,0-.2-.1-.2,0,0,0,.2-.1.2ZM886.2,95.5h0ZM863.7,95.4h.1s0,0-.1,0ZM822,95.4h0ZM804.7,95.3h.2s-.1,0-.2,0ZM819,18.2l23.9,23.2.5-.5-30.5-30.1h-.7s6.8,7.4,6.8,7.4ZM809.6,10.8h0c.5.6.9,1,1.3,1.5v-1.6h-1.3Z"/>
          <path class="cls-2" d="M891.4,106h-4v-11l4.3.3c2.7.2,3.5-.2,3.8-.4.5-.5,1.4-2.4,1.2-9.1,0-.5,0-7.9,0-21,0-4.3,0-9,0-13.6h-1c0-.1,1-.3,1-.3,0-13.7,0-26.9,0-27.8-.1-6.4-1.4-8.4-2-9-.5-.5-1-.5-2.3-.6-.6,0-1.2,0-1.8-.2l-3.2-.7V2.9h20.8c1.9,0,20.8-.7,30.9,9.1,4.4,4.3,6.5,9.8,6.3,16.4-.2,8.7-5,16.6-12.3,21.4,7.8,3.9,15.5,11.3,16,24.1v1.7c0,0,0,0,0,0,0,9-2.6,16.2-7.7,21.6-8.1,8.5-19.6,8.7-20.1,8.7h-30ZM903,98h3.2c-.9-2-1.4-4.4-1.6-7.2-.2,2.6-.6,5.1-1.7,7.2ZM912.5,54.7v31.1c0,0,0,0,0,0-.2,7.1.7,8.8,1.1,9.2.2.2,1,.6,3.8.4,1.3-.1,11.6-1.7,12.5-14.3h0c1.5-19.9-16.3-26-17.1-26.3l-.5-.2ZM938,81.7c-.3,4.5-1.6,8.1-3.3,11.1.4-.3.8-.7,1.1-1.1,3.8-4.1,5.7-9.9,5.4-17.5v-.7c-.6-8.6-5.7-13.4-10.7-16,4.8,5.7,8.3,13.6,7.5,24.2h0ZM912.4,13.9v32.7c0,0,.1,0,.1,0,7.3-3.4,14.8-8.5,15.2-19.9.1-4.2-1.4-8-4.4-10.3-2.8-2.2-6.6-3.1-10.9-2.5ZM934.4,18.7c.9,2.6,1.4,5.4,1.3,8.3-.2,5.2-1.5,9.8-3.9,13.8,3.4-3.4,5.6-7.8,5.7-12.6.1-3.9-.9-7-3.1-9.5ZM902,10.9c1.1,1.9,1.9,4.6,2.3,8.2v-8.2h-2.3Z"/>
          <path class="cls-2" d="M1001.4,106h-58.6l.7-.9v-9.8h5.2c.8-.3,3.7-1.9,4-9.6V23.1c-.3-7.3-2.7-9.4-3.7-9.6h-5.5V2.9h57.9l7,30.5h-7.7l-1.2-1.5c-13.6-16.9-24.3-17.5-24.4-17.5h-.3c-2.1-.2-4.6,0-5.7.4,0,2.5-.3,7.6-.3,8.4v14.2l23.4-1.5-2.8,18.9h-5.4l-1.2-1.2c-3.1-3.1-9.2-4.8-14.1-5.5v37.7s0,3.4,0,5.4c0,1.2.4,1.7.7,2,1.3,1.2,4.2,1.3,5.4,1.3h.6c2.1-.4,12-2.5,24.1-17.5l1.2-1.5h7.7l-7,30.5ZM988,98h7l1.4-6.1c-2.8,2.4-5.6,4.5-8.4,6.1ZM959.1,98h3.9c-1.5-1.8-2.2-4.1-2.3-6.7,0-2.1,0-5.5,0-5.5V22.9c0,0,.3-7,.3-9,0-1.1.3-2.1.8-3h-4.3c1.6,2.6,2.9,6.4,3.1,12v.2s0,62.9,0,62.9c-.2,5.6-1.6,9.4-3.3,12h1.8,0ZM987.9,10.9c2.6,1.5,5.4,3.5,8.5,6.2l-1.4-6.2h-7.1ZM969,14.1h0s0,0,0,0ZM949,13.5c.1,0,.2,0,.2,0h-.2Z"/>
          <path class="cls-2" d="M1037.1,106h-34.4v-11l4.3.3c2.7.2,3.5-.2,3.8-.4.5-.5,1.4-2.4,1.2-9.1,0-.5,0-7.9,0-21,0-17.1,0-40.5,0-41.7-.1-6.4-1.4-8.4-2-9-.5-.5-1-.5-2.3-.6-.6,0-1.2,0-1.8-.2l-3.2-.6V2.9h12.2c4,0,8.3-.2,13.2-.6,5.4-.4,23.8-1.1,34.3,8.7,4.8,4.4,7.2,10.2,7.2,17.3,0,12.5-8,22.2-21.2,26.2,2.6,4,5.7,9.8,9.5,17.4,5,10.2,9,17,11.7,20h0c2.3,2.5,4.8,3.8,7.8,4.1l3.6.4v9.6h-22.9l-1.2-1.3c-3.5-4-8.5-13-15.3-27.7-4.3-9.7-9.5-19-11.6-20.5l-2.1-.6v29.9c0,0,0,0,0,0-.2,7.1.7,8.8,1.1,9.2.2.2,1,.6,3.9.4l4.3-.3v10.9ZM1018.3,98h3.2c-.9-2-1.4-4.4-1.6-7.2-.2,2.6-.6,5.1-1.7,7.2ZM1061.7,98h2.6c-.2-.2-.4-.5-.7-.7-3.3-3.7-7.5-10.6-13-21.8-5.6-11.5-8.9-16.7-10.8-19.1,2.7,4.1,5.7,9.9,8.9,17.3,6.6,14.5,10.6,21.2,12.9,24.3ZM1027.7,14v35.5c0,0,.7-2.7.7-2.7l3.4.2c5.9.4,11.1-1.3,14.8-4.7,3.3-3,5.1-7.2,5.2-12,0-5.8-3.1-9.6-5.9-11.7-4.8-3.7-11.8-5.4-18.2-4.6ZM1052.9,14.1c4.5,4.4,7,10.1,6.8,16.3,0,3-.6,5.8-1.5,8.4,2.2-3,3.3-6.5,3.3-10.5s-1.5-8.6-4.6-11.5c-1.2-1.1-2.6-2-4-2.8ZM1017.4,10.9c1.1,1.9,2,4.6,2.3,8.2v-8.3c-.8,0-1.6,0-2.3,0Z"/>
          <path class="cls-2" d="M1097,106.1c-2.5,0-5.5-.3-9.1-1-2.7-.4-4.2-.2-4.5,0l-.8.4-.7-.2h-5l.3-7.8.7-22.1h7.6l1.1,2.4c.5,1.1,1,2.4,1.6,3.8,3.1,7.7,6.2,14.6,11.3,14.4,3.2-.1,5.6-2,7-3.6,2.9-3.1,4.7-7.9,4.5-11.9-.3-7-5.3-12.5-7.6-14-17.7-11.3-27.4-17.5-28.1-33.3-.7-16.4,10.8-30.3,25.8-31,3.5-.2,6.9.2,10.4,1.1,2.5.5,4-.3,4.1-.3l.9-.6h.8c0,.1,5.2-.1,5.2-.1v30.8c.1,0-8.2,0-8.2,0l-.9-2.8c-4.9-15.8-8.5-17.5-10.7-17.4-7.2.3-12.1,5.9-11.8,13.3.4,8.4,6.6,16.1,19,23.5,12.1,7.2,17.2,14.6,17.7,25.6l.3,6.8-.6-.3c-2.1,14.1-13.2,23.6-29.2,24.3-.3,0-.7,0-1.1,0ZM1085.2,96.8c.5,0,1.1,0,1.7,0-.6-.8-1.1-1.6-1.6-2.5v2.4ZM1083.3,29.9c0,.9,0,1.9,0,2.9.5,11.2,6.3,15.4,24.4,26.9,4.3,2.7,10.8,10.4,11.3,20.4,0,1,0,2,0,3,.6-2.3.9-4.8.7-7.5v-1.2c-.5-5.3-2.4-11.1-13.8-17.8-13.4-8-20.8-16.7-22.6-26.6ZM1113.9,11.4c.2.3.5.7.7,1v-1.1c-.2,0-.5,0-.7,0Z"/>
          <rect class="cls-2" x="656.7" y="123.3" width="466.5" height="16"/>
        </g>
        <g>
          <path class="cls-1" d="M116.1,177.9c5.5,6,12,9.5,19.4,10.2v3.7h-32.3c-6-6.8-15.3-23.7-27.5-50.3,0,0-17.7-40.3-26.3-42.6l.7-3.2c25.5,1.7,45.2-14.5,45.6-38.8.5-29-33.6-44.2-60.4-37l.4,141.3c-.5,22.8,3.9,26.5,17.4,25.6v5H3.4v-5c13.5,1,18.1-3.8,17.4-25.6,0-2.4,0-115.6,0-117.9-.5-28.7-13.1-24.6-17.3-25.5v-5h15.4c8.5,0,16.9-.4,25.4-1.1,18.7-1.5,70,0,70.1,41.4,0,25.7-20.4,40.7-45.6,44.6,5.3,5,13.4,18.8,24.2,40.8,9.9,20.2,17.5,33,23.3,39.3h0Z"/>
          <path class="cls-1" d="M165.4,106.3s12.4-.2,27.5-19h.7l-5.1,22.5h-47.2,0s-3.5,0-3.5,0v-2.6h1.7s7-.9,7.5-13.5V30.9c-.6-13.5-7.5-13.5-7.5-13.5h-1.7v-2.6h50.7l5.1,22.5h-.7c-15.1-18.8-27.5-19-27.5-19,0,0-10-1-10.1,3.6,0,2.1-.3,9.1-.3,9.1v18.6l22.8-1.5-.6,4.3v.7c0,0-.7,4.5-.7,4.5l-.2,1.1h-.3c-5.3-5.4-16.4-6.8-20.9-7.1v42.1s0,3.4,0,5.4c0,8.2,10.4,7.2,10.4,7.2h0Z"/>
          <path class="cls-1" d="M254.7,93.9c2.7,8.2,3.2,13.2,10.8,13.1v2.8h-26.7v-2.8c11-.1,7.7-9.4,5.2-18.4,0,0-5.6-18.1-10.6-34h-14.3l-9.8,33.3c-2.6,9.7-5.4,19,4.9,19.1v2.9h-19.8v-2.9c6.7-.2,7.6-6.9,10.2-14.1,0,0,13.4-45.6,19.7-66.8-1.8-5.5-3.3-8.6-9.4-8.6v-2.8h15l.4,1.2h.1l24.4,78.1h0ZM232.6,51.9c-3.6-11.4-6.5-21-6.5-21l-6.1,21h12.7,0Z"/>
          <path class="cls-1" d="M335.7,14.7v2.6h-1.7s-6.9-.4-7,13.3v66.8h0v13.9h-.9l-43.8-75.7v58.3c-.2,14.1,7.5,13.3,7.5,13.3h1.7v2.6h-21v-2.6h1.7s6.9.4,7-13.3V30.2c-8.6-13.9-15.7-12.8-15.7-12.8v-2.7h17.6l42.7,74.3V30.6h0c.2-14.1-7.5-13.3-7.5-13.3h-1.7v-2.6h21Z"/>
          <path class="cls-1" d="M408.4,14.7v2.6h-1.7s-6.9-.4-7,13.3v66.8h0v13.9h-.9l-43.8-75.7v58.3c-.2,14.1,7.5,13.3,7.5,13.3h1.7v2.6h-21v-2.6h1.7s6.9.4,7-13.3V30.2c-8.6-13.9-15.7-12.8-15.7-12.8v-2.7h17.6l42.7,74.3V30.6h0c.2-14.1-7.5-13.3-7.5-13.3h-1.7v-2.6h21Z"/>
          <path class="cls-1" d="M467.8,93.9c2.7,8.2,3.2,13.2,10.8,13.1v2.8h-26.7v-2.8c11-.1,7.7-9.4,5.2-18.4,0,0-5.6-18.1-10.6-34h-14.3l-9.8,33.3c-2.6,9.7-5.4,19,4.9,19.1v2.9h-19.8v-2.9c6.7-.2,7.6-6.9,10.2-14.1,0,0,13.4-45.6,19.7-66.8-1.8-5.5-3.3-8.6-9.4-8.6v-2.8h15l.4,1.2h.1l24.4,78.1h0ZM445.7,51.9c-3.5-11.4-6.5-21-6.5-21l-6.1,21h12.7Z"/>
          <rect x="135.7" y="133.9" width="344.1" height="4.3"/>
          <path class="cls-1" d="M650.3,134.8c-13.2,38.1-38.8,49.6-59.1,50.2-47,1.3-85.5-38.4-86.1-88.7-.6-50.3,36.9-92,83.8-93.3,21.5-.6,37,2.8,51.1,14l.6,46h-4.7s-14.8-54.3-47.5-54.4c-34.3,0-61.4,40.5-60.9,87.5.6,47,29.2,81.1,63.5,80.1,15.3-.4,41.6-6.4,54-41.4h5.1Z"/>
          <path class="cls-1" d="M727.5,6.2v2.6h-1.7s-6.9,0-7.5,13.5v63.1c.6,13.5,7.5,13.5,7.5,13.5h1.7v2.6h-26.3v-2.6h1.7s6.9,0,7.5-13.5v-41h-30.4v40.9c.6,13.5,7.5,13.5,7.5,13.5h1.7v2.6h-26.3v-2.6h1.7s6.9,0,7.5-13.5V22.3c-.6-13.5-7.5-13.5-7.5-13.5h-1.7v-2.6h26.3v2.6h-1.7s-6.9,0-7.5,13.5v19.1h30.4v-19.1c-.6-13.5-7.5-13.5-7.5-13.5h-1.7v-2.6h26.3Z"/>
          <path class="cls-1" d="M787.9,85.5c2.7,8.2,3.2,13.2,10.8,13.1v2.8h-26.7v-2.8c11-.1,7.7-9.4,5.2-18.4,0,0-5.7-18.1-10.6-34h-14.3l-9.8,33.3c-2.6,9.7-5.4,19,4.8,19.1v2.9h-19.8v-2.9c6.7-.2,7.7-6.9,10.2-14.1,0,0,13.4-45.6,19.7-66.8-1.8-5.5-3.3-8.6-9.3-8.6v-2.8h15l.4,1.2h0l24.4,78.1h0ZM765.8,43.5c-3.5-11.4-6.5-21-6.5-21l-6.2,21h12.7Z"/>
          <path class="cls-1" d="M880.2,13.1c-.8,1.7-1.1,5.8-1.1,11.4v60.8c0,14.7,7.7,13.6,7.7,13.6h1.7v2.6h-26.3v-2.6h1.7s6.9-.2,6.8-13.3V19.2l-1.2,1.2-26.1,25.6h-.9l-26.3-25.6-1.2-1.3v66.4c-.2,14.1,7.5,13.3,7.5,13.3h1.7v2.6h-21v-2.6h1.7s6.9.4,7-13.3V27.5s.5-18.2-15-18.5v-2.7h17.8c0,0,32.3,31.7,32.3,31.7l31.9-31.8h10.1v2.8h-1.9c-3.1,0-5.4,1.4-6.7,4.1h0Z"/>
          <path class="cls-1" d="M945.2,73.5c1,27.7-23.8,27.9-23.8,27.9h-29.9v-2.6c7.2.5,9.6-2,9.3-13.6,0-1.2,0-61.4,0-62.7-.3-15.3-6.9-13.1-9.2-13.6v-2.6h16.9s33.8-1.9,33.1,21.4c-.3,10.7-8.8,20-19.9,22.1,0,0,22.9,2.7,23.7,23.7h0ZM934,80.8c1.7-21.5-16.4-29.2-19.8-30.4v-.8c13-6.1,17.1-14.1,17.5-23.4.4-11.4-9-20-23.3-16.2l.2,75.1c-.3,12.1,2.1,14.1,9.3,13.6,0,0,14.9-1.4,16.2-18h0Z"/>
          <path class="cls-1" d="M975.1,97.9s12.3-.2,27.5-19h.7l-5.2,22.5h-47.2,0s-3.5,0-3.5,0v-2.6h1.7s7-.9,7.5-13.5V22.4c-.6-13.5-7.5-13.5-7.5-13.5h-1.7v-2.6h50.7l5.2,22.5h-.7c-15.1-18.8-27.5-19-27.5-19,0,0-10-1-10.1,3.6,0,2.1-.3,9.1-.3,9.1v18.6l22.8-1.5-.6,4.3v.7c0,0-.7,4.5-.7,4.5l-.2,1.1h-.3c-5.3-5.4-16.4-6.8-21-7.1v42.1s0,3.4,0,5.4c0,8.2,10.4,7.2,10.4,7.2h0Z"/>
          <path class="cls-1" d="M1066.6,94c2.9,3.2,6.4,5,10.3,5.4v2h-17.2c-3.2-3.6-8.1-12.6-14.6-26.7,0,0-9.4-21.4-14-22.6l.4-1.7c13.6.9,24-7.7,24.2-20.6.3-15.4-17.8-23.5-32.1-19.7l.2,75.1c-.3,12.1,2.1,14.1,9.3,13.6v2.6h-26.4v-2.6c7.2.5,9.6-2,9.3-13.6,0-1.2,0-61.4,0-62.7-.3-15.3-6.9-13.1-9.2-13.6v-2.6h8.2c4.5,0,9-.2,13.5-.6,9.9-.8,37.2,0,37.2,22s-10.8,21.6-24.2,23.7c2.8,2.7,7.1,10,12.9,21.7,5.3,10.7,9.3,17.6,12.4,20.9h0Z"/>
          <path class="cls-1" d="M1123.6,74.8c.7,15.4-9.4,25.9-25.7,26.6-2.7.1-6.1-.3-9.3-.9-4.7-.7-6.7.1-6.7.1h-.8v-3.6c.1,0,.8-18.3.8-18.3h1.1c3,6.6,6.8,21,16.6,20.6,9.5-.4,15.7-11.3,15.3-19.7-.4-8.4-6.1-15-9.4-17.2-17.8-11.4-25.7-16.7-26.2-30.1-.6-14.2,9.2-26.3,22-26.9,3.6-.2,6.6.3,9.3,1.1h0c4.2.8,6.9-.7,6.9-.7h1.1c0,0,.1,22.6.1,22.6h-1.4c-4.6-14.6-8.8-20.4-14.7-20.2-9.3.4-16.1,7.9-15.6,17.5.5,11.5,9.6,20,21,26.8,12.6,7.5,15.4,14.3,15.7,22.4h0Z"/>
          <rect x="661.9" y="128.6" width="456.7" height="4.3"/>
        </g>
      </g>
    </g>
  </g>
</svg>