<?xml version="1.0" encoding="UTF-8"?>
<svg id="Layer_2" data-name="Layer 2" xmlns="http://www.w3.org/2000/svg" viewBox="0 0 23.98 30.62">
  <defs>
    <style>
      .cls-1 {
        fill: #000;
        stroke-width: 0px;
      }
    </style>
  </defs>
  <g id="Layer_2-2" data-name="Layer 2">
    <path class="cls-1" d="M23.68,14.55c-1.41-.31-2.83-.6-4.24-.93-3.42-.79-5.61-2.89-6.35-6.33-.42-1.92-.6-3.89-.88-5.84-.07-.49-.15-.97-.23-1.46-.38,2.28-.7,4.56-1.06,6.83-.5,3.11-2.23,5.25-5.15,6.42-1.08.43-2.24.56-3.36.83-.8.19-1.6.36-2.41.53h0s0,.04,0,.06c1.43.31,2.86.63,4.29.94,3.28.7,5.48,2.63,6.41,5.86.42,1.47.44,3.01.65,4.52.2,1.51.38,3.02.58,4.63.05-.19.08-.29.09-.39.21-1.71.41-3.43.63-5.14.15-1.17.18-2.37.5-3.5.93-3.3,3.11-5.26,6.45-5.97,1.43-.31,2.85-.62,4.37-.96-.16-.06-.23-.09-.3-.1ZM5.35,14.33c-.36.11-.71.23-1.09.32h0c.39-.09.74-.21,1.09-.32Z"/>
  </g>
</svg>