<?xml version="1.0" encoding="UTF-8"?>
<svg id="Layer_2" data-name="Layer 2" xmlns="http://www.w3.org/2000/svg" viewBox="0 0 328.62 332.47">
  <defs>
    <style>
      .cls-1 {
        fill: #000;
        stroke-width: 0px;
      }
    </style>
  </defs>
  <g id="Layer_2-2" data-name="Layer 2">
    <g>
      <path class="cls-1" d="M0,143.32c7.87-1.74,15.77-3.37,23.61-5.23,11.01-2.62,22.38-3.91,32.95-8.13,28.63-11.45,45.62-32.49,50.48-62.96,3.55-22.26,6.64-44.59,10.41-66.99.74,4.76,1.51,9.52,2.21,14.28,2.83,19.09,4.6,38.42,8.68,57.24,7.3,33.7,28.72,54.3,62.31,62.08,13.82,3.2,27.72,6.09,41.58,9.13.71.16,1.38.47,2.93,1.01-14.85,3.26-28.83,6.37-42.83,9.38-32.67,7.04-54.14,26.27-63.22,58.6-3.14,11.17-3.44,22.89-4.93,34.37-2.18,16.8-4.15,33.63-6.22,50.44-.12.97-.44,1.92-.89,3.82-1.94-15.76-3.64-30.59-5.64-45.38-2-14.8-2.2-29.97-6.35-44.34-9.18-31.77-30.7-50.62-62.91-57.52-14.05-3.01-28.08-6.14-42.12-9.22-.02-.19-.03-.38-.05-.57ZM192.51,143.55c-43.72-9.72-68.69-36.9-75.28-81.07-6.56,44.26-31.43,71.19-75.5,81.2,45.04,8.46,72.39,42.74,75.31,83.61,5.88-45.9,30.83-73.6,75.47-83.74Z"/>
      <path class="cls-1" d="M160.26,248.86c8.51-1.6,17.03-3.19,25.53-4.8,24.38-4.61,38.74-18.12,42.49-39.77,1.71-9.86,3.69-19.68,6.24-29.55,1.12,5.87,2.23,11.74,3.37,17.61,1.17,6.05,1.92,12.2,3.62,18.14,5.05,17.62,18.07,28.6,38.38,32.96,9.41,2.02,18.95,3.64,28.54,5.96-5.13,1-10.26,2-15.4,3-5.22,1.01-10.51,1.81-15.65,3.05-20.96,5.03-35.05,20.1-37.28,39.08-1.4,11.9-3.36,23.74-5.08,35.61-.12.81.16,1.8-1.36,2.32-1.54-10.79-3.14-21.5-4.58-32.23-1.17-8.7-2.44-17.32-7.89-25.03-8.8-12.45-21.96-18.92-38.22-21.46-7.66-1.2-15.23-2.83-22.84-4.27.05-.21.1-.41.14-.62Z"/>
      <path class="cls-1" d="M282.63,161.04c-1.15-10.62-2.23-21.93-3.62-33.2-1.99-16.11-12.34-28.32-28.01-31.1-4.77-.85-9.44-2.26-14.43-3.49,5.56-1.36,10.95-2.69,16.33-4,13.82-3.36,23.81-14.5,25.76-28.61,1.29-9.37,2.69-18.72,4.02-27.92.09-.19.11-.23.13-.27-.04.08-.14.18-.13.25,1.52,10.38,2.24,20.92,4.71,31.11,3.26,13.43,11.59,22.31,25.41,25.51,5.29,1.23,10.54,2.6,15.82,3.91-6.85,1.76-13.81,3.01-20.38,5.34-12.39,4.4-19.31,13.92-21.36,26.54-1.98,12.14-2.93,24.45-4.25,35.92ZM302.82,93.52c-.3-1.01-1.04-1.12-1.61-1.42-7.86-4.19-13.42-10.55-17.44-18.38-.3-.58-.24-1.53-1-1.6-.95-.08-1.06.96-1.35,1.6-1.82,3.92-4.21,7.42-7.2,10.58-3.43,3.64-7.37,6.53-12.28,8.99,9.97,4.63,16.26,12.12,20.77,21.88,4.38-9.96,10.87-17.18,20.11-21.64Z"/>
      <path class="cls-1" d="M192.51,143.55c-44.64,10.14-69.59,37.84-75.47,83.74-2.92-40.86-30.27-75.15-75.31-83.61,44.06-10.01,68.93-36.94,75.5-81.2,6.6,44.17,31.56,71.35,75.28,81.07Z"/>
      <path class="cls-1" d="M302.82,93.52c-9.24,4.46-15.73,11.68-20.11,21.64-4.51-9.76-10.8-17.25-20.77-21.88,4.91-2.46,8.86-5.36,12.28-8.99,2.98-3.16,5.37-6.65,7.2-10.58.3-.64.4-1.68,1.35-1.6.76.07.7,1.02,1,1.6,4.02,7.83,9.58,14.2,17.44,18.38.57.3,1.31.41,1.61,1.42Z"/>
    </g>
  </g>
</svg>