<?xml version="1.0" encoding="UTF-8"?>
<svg id="Layer_2" data-name="Layer 2" xmlns="http://www.w3.org/2000/svg" viewBox="0 0 344.93 293.4">
  <defs>
    <style>
      .cls-1 {
        fill: #000;
        stroke-width: 0px;
      }
    </style>
  </defs>
  <g id="Layer_2-2" data-name="Layer 2">
    <g>
      <path class="cls-1" d="M0,108.28c5.95-1.31,11.91-2.54,17.84-3.95,8.32-1.98,16.91-2.95,24.89-6.15,21.63-8.65,34.47-24.55,38.14-47.57,2.68-16.82,5.02-33.69,7.86-50.61.56,3.6,1.14,7.19,1.67,10.79,2.14,14.43,3.48,29.02,6.56,43.25,5.51,25.46,21.7,41.03,47.08,46.91,10.44,2.42,20.94,4.6,31.42,6.9.53.12,1.04.35,2.22.76-11.22,2.46-21.78,4.81-32.36,7.09-24.68,5.32-40.91,19.85-47.76,44.27-2.37,8.44-2.6,17.29-3.72,25.96-1.65,12.69-3.13,25.41-4.7,38.11-.09.73-.33,1.45-.67,2.89-1.47-11.91-2.75-23.11-4.26-34.29-1.51-11.19-1.66-22.64-4.8-33.5-6.94-24.01-23.19-38.25-47.53-43.46-10.62-2.27-21.22-4.64-31.82-6.97-.01-.14-.02-.29-.04-.43ZM145.45,108.46c-33.03-7.35-51.9-27.88-56.88-61.25-4.96,33.44-23.75,53.79-57.04,61.35,34.03,6.39,54.69,32.29,56.9,63.17,4.44-34.68,23.29-55.61,57.02-63.27Z"/>
      <path class="cls-1" d="M250.83,154.75c-1.15-10.62-2.23-21.93-3.62-33.2-1.99-16.11-12.34-28.32-28.01-31.1-4.77-.85-9.44-2.26-14.43-3.49,5.56-1.36,10.95-2.69,16.33-4,13.82-3.36,23.81-14.5,25.76-28.61,1.29-9.37,2.69-18.72,4.02-27.92.09-.19.11-.23.13-.27-.04.08-.14.18-.13.25,1.52,10.38,2.24,20.92,4.71,31.11,3.26,13.43,11.59,22.31,25.41,25.51,5.29,1.23,10.54,2.6,15.82,3.91-6.85,1.76-13.81,3.01-20.38,5.34-12.39,4.4-19.31,13.92-21.36,26.54-1.98,12.14-2.93,24.45-4.25,35.92ZM271.02,87.23c-.3-1.01-1.04-1.12-1.61-1.42-7.86-4.19-13.42-10.55-17.44-18.38-.3-.58-.24-1.53-1-1.6-.95-.08-1.06.96-1.35,1.6-1.82,3.92-4.21,7.42-7.2,10.58-3.43,3.64-7.37,6.53-12.28,8.99,9.97,4.63,16.26,12.12,20.77,21.88,4.38-9.96,10.87-17.18,20.11-21.64Z"/>
      <path class="cls-1" d="M183.04,48.7c3.53,5.54,7.04,11.06,10.55,16.59-.01.01-.02.03-.03.04-6.14-2.26-12.29-4.52-18.45-6.78-4.17,5.06-8.34,10.11-12.51,15.16l-.04-.02c.25-6.54.5-13.09.75-19.64-6.1-2.41-12.19-4.81-18.28-7.21,0-.02,0-.04,0-.05,6.29-1.78,12.59-3.56,18.91-5.35.4-6.54.81-13.07,1.21-19.61l.06-.02c3.64,5.43,7.28,10.87,10.93,16.32,6.34-1.64,12.68-3.27,19.02-4.91.01.02.02.03.03.05-2.02,2.58-4.05,5.15-6.07,7.72-2.02,2.57-4.04,5.14-6.07,7.72Z"/>
      <path class="cls-1" d="M322,174.72c-2.76,7.16-5.51,14.28-8.26,21.4-.02,0-.04,0-.06,0-2.14-7.33-4.28-14.67-6.42-22.02-7.64-.41-15.27-.82-22.91-1.24v-.05c6.3-4.3,12.62-8.6,18.95-12.91-1.97-7.4-3.93-14.78-5.9-22.16.02-.01.03-.02.05-.04,6.03,4.67,12.07,9.35,18.13,14.04,6.42-4.15,12.83-8.31,19.25-12.46l.05.04c-2.58,7.18-5.16,14.37-7.75,21.58,5.93,4.82,11.86,9.64,17.79,14.46,0,.02-.01.04-.02.06-3.82-.11-7.64-.23-11.45-.35-3.81-.12-7.63-.23-11.46-.35Z"/>
      <path class="cls-1" d="M199.71,293.4c-1.15-13.75-2.23-28.41-3.62-43.01-1.99-20.87-12.34-36.7-28.01-40.3-4.77-1.1-9.44-2.93-14.43-4.52,5.56-1.76,10.95-3.48,16.33-5.18,13.82-4.35,23.81-18.78,25.76-37.07,1.29-12.13,2.69-24.25,4.02-36.17.09-.24.11-.3.13-.35-.04.11-.14.23-.13.33,1.52,13.45,2.24,27.11,4.71,40.31,3.26,17.39,11.59,28.91,25.41,33.06,5.29,1.59,10.54,3.37,15.82,5.06-6.85,2.28-13.81,3.89-20.38,6.92-12.39,5.7-19.31,18.03-21.36,34.39-1.98,15.73-2.93,31.68-4.25,46.54ZM219.9,205.93c-.3-1.31-1.04-1.45-1.61-1.84-7.86-5.42-13.42-13.67-17.44-23.82-.3-.75-.24-1.98-1-2.07-.95-.11-1.06,1.24-1.35,2.07-1.82,5.08-4.21,9.61-7.2,13.7-3.43,4.71-7.37,8.46-12.28,11.65,9.97,6,16.26,15.71,20.77,28.35,4.38-12.91,10.87-22.26,20.11-28.04Z"/>
    </g>
  </g>
</svg>