<?xml version="1.0" encoding="UTF-8"?>
<svg id="Layer_1" data-name="Layer 1" xmlns="http://www.w3.org/2000/svg" viewBox="0 0 347.21 483.16">
  <defs>
    <style>
      .cls-1 {
        fill: #ed2024;
      }
    </style>
  </defs>
  <path class="cls-1" d="M323.4,54.36c-1.67-.02-3.33-.06-5-.05-.44,0-.66-.09-.62-.58.03-.44-.04-.88-.04-1.33,0-9.1,0-18.19,0-27.29,0-.4,0-.8,0-1.22h-5.12c0,.06,0,.12-.01.18l-.17-.1-16.99,29.46s-.03,0-.05,0v.09l-.04.08.04.03v4.81h17.2v6.99c.07.12.11.25.12.39,0,.2-.1.43-.23.57s-.36.23-.57.23h-1.43s-.03,0-.04,0c-.06.01-.1.02-.14.02-.54-.08-.65.19-.63.68.04.78,0,1.56.01,2.34,0,.88.01.89.86.98.19.02.39.04.58.04,2.72,0,5.43,0,8.15,0,.49,0,.98,0,1.49,0v-4.12c-.27.07-.47.07-.62.03h-1.67c-.45,0-.78-.37-.8-.8,0-.14.04-.26.1-.37,0-2.25,0-4.45.02-6.64,0-.11.27-.31.41-.31,1.15-.03,2.31-.03,3.46-.03.72,0,1.44,0,2.17,0v-4.04c-.18-.01-.32-.02-.46-.03ZM299.23,50.09s-.04.06-.05.09l.05-.09ZM312.57,54.27c-.19.01-.36.03-.53.03-3.34,0-6.67,0-10.01,0-.45,0-.59-.13-.56-.57,0-.08,0-.17,0-.25l10.84-19.46c.23.05.29.21.29.49.01,3.71.04,7.42.05,11.13,0,2.34.01,4.69,0,7.03,0,.51-.05,1.02-.09,1.58Z"/>
  <path class="cls-1" d="M319.5,88.72c-2.74-3.12-6.06-5.57-9.4-8.01-.81-.59-1.29-.31-1.95.2-2.97,2.35-5.81,4.85-8.33,7.68-1.28,1.44-2.38,3.02-2.93,4.91-1.08,3.71,1.04,7.31,4.78,8.25,2.64.66,4.84-.23,7.02-1.94,0,2.6-.98,4.67-2.04,6.66h6.13c-1.58-1.99-1.87-4.13-2.56-6.75,1.02.64,1.58,1.01,2.15,1.35,2.47,1.42,5.75,1.12,7.92-.7,2.2-1.85,2.87-4.62,1.81-7.47-.58-1.57-1.52-2.92-2.61-4.16Z"/>
  <path class="cls-1" d="M219.25,231.13c-12.79-14.57-28.28-26-43.84-37.37-3.78-2.76-6.04-1.46-9.08.94-13.86,10.98-27.1,22.63-38.87,35.84-5.99,6.72-11.1,14.1-13.68,22.92-5.05,17.3,4.85,34.13,22.33,38.48,12.31,3.06,22.59-1.07,32.76-9.07-.02,12.13-4.56,21.77-9.52,31.1h28.59c-7.36-9.27-8.74-19.29-11.96-31.52,4.76,2.99,7.35,4.73,10.05,6.28,11.53,6.62,26.81,5.23,36.96-3.28,10.26-8.61,13.39-21.54,8.45-34.88-2.71-7.32-7.09-13.63-12.19-19.43Z"/>
  <g>
    <path class="cls-1" d="M41.44,32.81v.82c-1.87.05-2.14,1.92-2.85,3.95l-6.62,22.45h-.29l-7.11-22.74c-.76-2.3-.89-3.68-3.02-3.67v-.79h7.46v.8c-3.08.03-2.16,2.62-1.45,5.15l5.03,16.09,4.67-15.9c.74-2.7,1.51-5.29-1.35-5.33v-.81h5.54Z"/>
    <path class="cls-1" d="M48.3,54.98l.41.02c-.06.18-.12.36-.19.55-.61,1.83-1.44,4.34-3.23,4.34h0c-2.01,0-2.02-1.92-2.03-3.96l.02-9.11v-.21c.04-1.13.08-2.19-.42-2.71-.21-.22-.51-.33-.9-.33-.26,0-.58.05-.93.15l-.16-.68,4.76-1.57.05,13.92c.02.31.02.58.02.83,0,.59,0,1.02.25,1.32.13.15.32.24.53.24.22,0,.42-.09.56-.25.48-.6.91-1.45,1.28-2.54h0ZM42.62,36.68c0-1.25.72-2.27,1.6-2.27s1.6,1.02,1.6,2.27-.72,2.27-1.6,2.27-1.6-1.02-1.6-2.27Z"/>
    <path class="cls-1" d="M64.89,55.09h.6c-.41,1.14-1.01,2.72-1.64,3.57-.5.76-1.18,1.19-1.84,1.19-.85,0-1.51-.68-1.72-1.77-.29-1.02-.23-3.19-.19-4.77,0-.27.02-.52.02-.75l-.1-.02-.11.34c-1.14,3.47-2.22,6.74-4.98,6.99-2.31-.16-3.71-2.78-4.21-4.97-.87-3.53-.04-8.91,2.86-11.79.98-1.09,2.1-1.67,3.22-1.67,1.2,0,2.31.64,3.21,1.86l.09.12-.03-7.09c.04-1.39.04-2.34-.42-2.81-.2-.21-.48-.31-.84-.31-.26,0-.57.05-.93.15l-.15-.64,4.74-1.59-.09,23.48c-.05,1.66.09,2.67.42,3,.08.08.17.12.27.12.58,0,1.31-1.44,1.82-2.66h0ZM59.11,53.1c1-2.99,1.25-5.64.72-7.87-.3-1.37-1.32-2.85-2.85-2.87-1.39,0-2.52,1.41-3.36,4.19-.83,2.76-.96,5.44-.37,7.97.26,1.11.94,2.98,2.59,3.11,1.15,0,2.25-1.52,3.25-4.52h0Z"/>
    <path class="cls-1" d="M79.39,54.69h.5c-1.42,3.05-3.8,4.87-6.38,4.87-2.82,0-5.21-2.17-6.09-5.53-.83-3.3-.04-8.39,2.69-10.88,1.01-1.05,2.62-1.7,4.2-1.7,2.1,0,3.62,1.06,4.04,2.85.25,1.44,0,2.66-.71,3.62-1.55,2.07-5.04,2.73-7.9,3.07h-.04v.05c.04,3.06,2.47,6.8,5.26,6.8.61,0,1.22-.18,1.8-.53.53-.33,1.63-1.01,2.63-2.62h0ZM69.66,50.44h.05c2.59-.35,5-.86,6.09-3.25.71-1.71.55-3.32-.44-4.32-.47-.36-.96-.55-1.46-.55-1.03,0-2.1.78-2.99,2.2-.97,1.55-1.32,3.19-1.25,5.86v.05Z"/>
    <path class="cls-1" d="M92.64,58.18c-1.2,1.11-2.57,1.7-3.98,1.7-3.02,0-5.84-2.68-6.56-6.23-.86-3.12-.16-7.04,1.69-9.53,1.26-1.7,2.96-2.63,4.91-2.68,3.28.01,5.68,3.13,6.35,6.21.83,3.45.4,8.05-2.41,10.53ZM92.1,54.76c.69-2.78.7-5.65.02-8.51-.55-2.4-1.87-3.81-3.6-3.87h0c-.91.04-1.69.5-2.31,1.37-1.89,2.62-1.98,8.5-1.21,11.24.54,2.38,2.01,3.98,3.65,3.98,1.62,0,2.92-1.58,3.46-4.21h0Z"/>
  </g>
  <path class="cls-1" d="M20.63,437.55c1.67.02,3.33.06,5,.05.44,0,.66.09.62.58-.03.44.04.88.04,1.33,0,9.1,0,18.19,0,27.29,0,.4,0,.8,0,1.22h5.12c0-.06,0-.12.01-.18l.17.1,16.99-29.46s.03,0,.05,0v-.09l.04-.08-.04-.03v-4.81h-17.2v-6.99c-.07-.12-.11-.25-.12-.39,0-.2.1-.43.23-.57s.36-.23.57-.23h1.43s.03,0,.04,0c.06-.01.1-.02.14-.02.54.08.65-.19.63-.68-.04-.78,0-1.56-.01-2.34,0-.88-.01-.89-.86-.98-.19-.02-.39-.04-.58-.04-2.72,0-5.43,0-8.15,0-.49,0-.98,0-1.49,0v4.12c.27-.07.47-.07.62-.03h1.67c.45,0,.78.37.8.8,0,.14-.04.26-.1.37,0,2.25,0,4.45-.02,6.64,0,.11-.27.31-.41.31-1.15.03-2.31.03-3.46.03-.72,0-1.44,0-2.17,0v4.04c.18.01.32.02.46.03ZM44.8,441.82s.04-.06.05-.09l-.05.09ZM31.46,437.63c.19-.01.36-.03.53-.03,3.34,0,6.67,0,10.01,0,.45,0,.59.13.56.57,0,.08,0,.17,0,.25l-10.84,19.46c-.23-.05-.29-.21-.29-.49-.01-3.71-.04-7.42-.05-11.13,0-2.34-.01-4.69,0-7.03,0-.51.05-1.02.09-1.58Z"/>
  <path class="cls-1" d="M24.54,403.19c2.74,3.12,6.06,5.57,9.4,8.01.81.59,1.29.31,1.95-.2,2.97-2.35,5.81-4.85,8.33-7.68,1.28-1.44,2.38-3.02,2.93-4.91,1.08-3.71-1.04-7.31-4.78-8.25-2.64-.66-4.84.23-7.02,1.94,0-2.6.98-4.67,2.04-6.66h-6.13c1.58,1.99,1.87,4.13,2.56,6.75-1.02-.64-1.58-1.01-2.15-1.35-2.47-1.42-5.75-1.12-7.92.7-2.2,1.85-2.87,4.62-1.81,7.47.58,1.57,1.52,2.92,2.61,4.16Z"/>
  <g>
    <path class="cls-1" d="M309.59,459.1v-.82c1.87-.05,2.14-1.92,2.85-3.95l6.62-22.45h.29l7.11,22.74c.76,2.3.89,3.68,3.02,3.67v.79h-7.46v-.8c3.08-.04,2.16-2.62,1.45-5.15l-5.03-16.09-4.67,15.9c-.74,2.7-1.51,5.29,1.35,5.33v.81h-5.54Z"/>
    <path class="cls-1" d="M302.73,436.93h-.41c.06-.19.12-.38.19-.57.61-1.83,1.44-4.34,3.23-4.34h0c2.01,0,2.02,1.92,2.03,3.96l-.02,9.11v.21c-.04,1.13-.08,2.19.42,2.71.21.22.51.33.9.33.26,0,.58-.05.93-.16l.16.68-4.76,1.57-.05-13.92c-.02-.31-.02-.58-.02-.83,0-.59,0-1.02-.25-1.32-.13-.15-.32-.24-.53-.24s-.42.09-.56.25c-.48.6-.91,1.45-1.28,2.54h0ZM308.41,455.23c0,1.25-.72,2.27-1.6,2.27s-1.6-1.02-1.6-2.27.72-2.27,1.6-2.27,1.6,1.02,1.6,2.27Z"/>
    <path class="cls-1" d="M286.14,436.81h-.6c.41-1.14,1.01-2.72,1.64-3.57.5-.76,1.18-1.19,1.84-1.19.85,0,1.51.68,1.72,1.77.29,1.02.23,3.19.19,4.77,0,.27-.01.53-.02.75l.1.02.11-.34c1.14-3.46,2.22-6.74,4.98-6.99,2.31.16,3.71,2.78,4.21,4.97.87,3.53.04,8.91-2.86,11.79-.98,1.09-2.1,1.67-3.22,1.67-1.2,0-2.31-.64-3.21-1.86l-.09-.12.03,7.09c-.04,1.39-.04,2.34.41,2.81.2.21.48.31.85.31.26,0,.57-.05.93-.15l.15.64-4.74,1.59.09-23.48c.05-1.66-.09-2.67-.42-3-.08-.08-.17-.12-.27-.12-.58,0-1.31,1.44-1.82,2.66h0ZM291.92,438.8c-1,2.99-1.25,5.64-.72,7.87.3,1.37,1.32,2.85,2.85,2.87,1.39,0,2.52-1.41,3.35-4.19.83-2.76.96-5.44.37-7.97-.26-1.11-.94-2.98-2.59-3.11-1.15,0-2.24,1.52-3.25,4.52h0Z"/>
    <path class="cls-1" d="M271.64,437.21h-.5c1.42-3.05,3.8-4.87,6.37-4.87,2.82,0,5.21,2.17,6.09,5.53.83,3.3.04,8.39-2.69,10.88-1.01,1.05-2.62,1.7-4.2,1.7-2.1,0-3.62-1.06-4.04-2.85-.25-1.44,0-2.66.72-3.62,1.55-2.07,5.03-2.73,7.9-3.07h.04v-.05c-.03-3.06-2.47-6.8-5.26-6.8-.61,0-1.22.18-1.8.53-.53.33-1.63,1.01-2.63,2.62h0ZM281.37,441.46h-.05c-2.59.35-5,.86-6.09,3.25-.71,1.71-.55,3.33.44,4.32.47.37.96.55,1.46.55,1.03,0,2.1-.78,2.99-2.2.97-1.55,1.32-3.19,1.25-5.86v-.05Z"/>
    <path class="cls-1" d="M258.39,433.72c1.2-1.11,2.57-1.7,3.98-1.7,3.02,0,5.84,2.68,6.55,6.23.86,3.12.16,7.04-1.68,9.53-1.26,1.7-2.96,2.63-4.91,2.68-3.28-.01-5.68-3.13-6.35-6.21-.82-3.45-.4-8.05,2.41-10.53ZM258.91,445.65c.56,2.4,1.87,3.81,3.6,3.87h0c.91-.04,1.69-.5,2.31-1.37,1.89-2.62,1.98-8.5,1.21-11.24-.54-2.38-2.01-3.98-3.65-3.98s-2.92,1.58-3.46,4.21c-.69,2.78-.7,5.65-.02,8.51Z"/>
  </g>
</svg>