<?xml version="1.0" encoding="UTF-8"?>
<svg id="Layer_1" data-name="Layer 1" xmlns="http://www.w3.org/2000/svg" viewBox="0 0 347.21 483.16">
  <defs>
    <style>
      .cls-1, .cls-2 {
        fill: #ed2024;
      }

      .cls-2 {
        font-family: PalaceRegular, Palace;
        font-size: 38px;
      }

      .cls-3 {
        letter-spacing: -.03em;
      }
    </style>
  </defs>
  <path class="cls-1" d="M323.4,54.36c-1.67-.02-3.33-.06-5-.05-.44,0-.66-.09-.62-.58.03-.44-.04-.88-.04-1.33,0-9.1,0-18.19,0-27.29,0-.4,0-.8,0-1.22h-5.12c0,.06,0,.12-.01.18l-.17-.1-16.99,29.46s-.03,0-.05,0v.09l-.04.08.04.03v4.81h17.2v6.99c.07.12.11.25.12.39,0,.2-.1.43-.23.57s-.36.23-.57.23h-1.43s-.03,0-.04,0c-.06.01-.1.02-.14.02-.54-.08-.65.19-.63.68.04.78,0,1.56.01,2.34,0,.88.01.89.86.98.19.02.39.04.58.04,2.72,0,5.43,0,8.15,0,.49,0,.98,0,1.49,0v-4.12c-.27.07-.47.07-.62.03h-1.67c-.45,0-.78-.37-.8-.8,0-.14.04-.26.1-.37,0-2.25,0-4.45.02-6.64,0-.11.27-.31.41-.31,1.15-.03,2.31-.03,3.46-.03.72,0,1.44,0,2.17,0v-4.04c-.18-.01-.32-.02-.46-.03ZM299.23,50.09s-.04.06-.05.09l.05-.09ZM312.57,54.27c-.19.01-.36.03-.53.03-3.34,0-6.67,0-10.01,0-.45,0-.59-.13-.56-.57,0-.08,0-.17,0-.25l10.84-19.46c.23.05.29.21.29.49.01,3.71.04,7.42.05,11.13,0,2.34.01,4.69,0,7.03,0,.51-.05,1.02-.09,1.58Z"/>
  <path class="cls-1" d="M319.5,88.72c-2.74-3.12-6.06-5.57-9.4-8.01-.81-.59-1.29-.31-1.95.2-2.97,2.35-5.81,4.85-8.33,7.68-1.28,1.44-2.38,3.02-2.93,4.91-1.08,3.71,1.04,7.31,4.78,8.25,2.64.66,4.84-.23,7.02-1.94,0,2.6-.98,4.67-2.04,6.66h6.13c-1.58-1.99-1.87-4.13-2.56-6.75,1.02.64,1.58,1.01,2.15,1.35,2.47,1.42,5.75,1.12,7.92-.7,2.2-1.85,2.87-4.62,1.81-7.47-.58-1.57-1.52-2.92-2.61-4.16Z"/>
  <path class="cls-1" d="M219.25,231.13c-12.79-14.57-28.28-26-43.84-37.37-3.78-2.76-6.04-1.46-9.08.94-13.86,10.98-27.1,22.63-38.87,35.84-5.99,6.72-11.1,14.1-13.68,22.92-5.05,17.3,4.85,34.13,22.33,38.48,12.31,3.06,22.59-1.07,32.76-9.07-.02,12.13-4.56,21.77-9.52,31.1h28.59c-7.36-9.27-8.74-19.29-11.96-31.52,4.76,2.99,7.35,4.73,10.05,6.28,11.53,6.62,26.81,5.23,36.96-3.28,10.26-8.61,13.39-21.54,8.45-34.88-2.71-7.32-7.09-13.63-12.19-19.43Z"/>
  <text class="cls-2" transform="translate(21.7 59.41)"><tspan class="cls-3" x="0" y="0">V</tspan><tspan x="18.62" y="0">ideo</tspan></text>
  <path class="cls-1" d="M20.63,437.55c1.67.02,3.33.06,5,.05.44,0,.66.09.62.58-.03.44.04.88.04,1.33,0,9.1,0,18.19,0,27.29,0,.4,0,.8,0,1.22h5.12c0-.06,0-.12.01-.18l.17.1,16.99-29.46s.03,0,.05,0v-.09l.04-.08-.04-.03v-4.81h-17.2v-6.99c-.07-.12-.11-.25-.12-.39,0-.2.1-.43.23-.57s.36-.23.57-.23h1.43s.03,0,.04,0c.06-.01.1-.02.14-.02.54.08.65-.19.63-.68-.04-.78,0-1.56-.01-2.34,0-.88-.01-.89-.86-.98-.19-.02-.39-.04-.58-.04-2.72,0-5.43,0-8.15,0-.49,0-.98,0-1.49,0v4.12c.27-.07.47-.07.62-.03h1.67c.45,0,.78.37.8.8,0,.14-.04.26-.1.37,0,2.25,0,4.45-.02,6.64,0,.11-.27.31-.41.31-1.15.03-2.31.03-3.46.03-.72,0-1.44,0-2.17,0v4.04c.18.01.32.02.46.03ZM44.8,441.82s.04-.06.05-.09l-.05.09ZM31.46,437.63c.19-.01.36-.03.53-.03,3.34,0,6.67,0,10.01,0,.45,0,.59.13.56.57,0,.08,0,.17,0,.25l-10.84,19.46c-.23-.05-.29-.21-.29-.49-.01-3.71-.04-7.42-.05-11.13,0-2.34-.01-4.69,0-7.03,0-.51.05-1.02.09-1.58Z"/>
  <path class="cls-1" d="M24.54,403.19c2.74,3.12,6.06,5.57,9.4,8.01.81.59,1.29.31,1.95-.2,2.97-2.35,5.81-4.85,8.33-7.68,1.28-1.44,2.38-3.02,2.93-4.91,1.08-3.71-1.04-7.31-4.78-8.25-2.64-.66-4.84.23-7.02,1.94,0-2.6.98-4.67,2.04-6.66h-6.13c1.58,1.99,1.87,4.13,2.56,6.75-1.02-.64-1.58-1.01-2.15-1.35-2.47-1.42-5.75-1.12-7.92.7-2.2,1.85-2.87,4.62-1.81,7.47.58,1.57,1.52,2.92,2.61,4.16Z"/>
  <text class="cls-2" transform="translate(329.33 432.5) rotate(-180)"><tspan class="cls-3" x="0" y="0">V</tspan><tspan x="18.62" y="0">ideo</tspan></text>
</svg>