<?xml version="1.0" encoding="UTF-8"?>
<svg id="b" data-name="Layer 2" xmlns="http://www.w3.org/2000/svg" width="760.442" height="1080.943" viewBox="0 0 760.442 1080.943">
  <defs>
    <style>
      .d {
        fill: none;
        stroke: #000;
        stroke-miterlimit: 10;
        stroke-width: 2px;
      }

      .e {
        fill: #000;
      }

      .e, .f {
        stroke-width: 0px;
      }

      .f {
        fill: #949292;
      }
    </style>
  </defs>
  <g id="c" data-name="Layer 1">
    <path class="e" d="M29.512,72.224c1.384,1.344,2.846,2.716,4.256,4.141,6.892,6.964,13.765,13.948,20.657,20.913,3.029,3.061,4.624,6.708,4.591,11.032-.052,6.766-5.153,12.891-11.796,14.14-5.383,1.012-9.971-.518-13.787-4.42-.094-.096-.128-.251-.294-.303.415,5.431,1.221,10.698,4.369,15.342h-16.068c3.184-4.616,3.986-9.885,4.541-15.224-.051-.028-.102-.056-.153-.084-.245.259-.476.533-.737.775-4.429,4.101-9.596,5.338-15.256,3.356-5.574-1.952-8.87-6.077-9.681-11.965-.655-4.753.784-8.921,4.149-12.347,7.092-7.223,14.219-14.413,21.342-21.605,1.282-1.294,2.615-2.537,3.867-3.748Z"/>
    <rect class="d" x="75.677" y="73.949" width="605.281" height="933.538"/>
    <g>
      <path class="e" d="M34.264,32.54v11.017c0,2.592.792,5.328,1.584,7.128,1.296,2.808.576,3.96-1.584,3.96h-14.978c-2.16,0-2.881-1.152-1.584-3.96.792-1.8,1.584-4.536,1.584-7.128V13.243c0-2.52-.792-5.328-1.584-7.129-1.297-2.736-.576-3.96,1.584-3.96h25.058c8.281,0,13.897,5.544,13.897,15.265,0,16.201-15.841,17.209-23.978,15.121ZM34.264,5.898v22.898c7.345,1.872,8.641-4.752,8.641-11.953,0-6.049-.937-10.945-7.705-10.945h-.936Z"/>
      <path class="e" d="M76.888,22.892c2.664-4.321,6.264-6.481,11.017-6.481,9.072,0,13.321,8.065,13.321,16.706v10.441c0,2.592.792,5.328,1.584,7.128,1.296,2.808.576,3.96-1.584,3.96h-14.258c-2.16,0-2.808-1.152-1.584-3.96.864-1.8,1.584-4.536,1.584-7.128v-8.641c0-7.561-2.088-11.161-4.536-11.161-3.528,0-5.544,6.985-5.544,11.161v8.641c0,2.592.72,5.328,1.584,7.128,1.224,2.808.576,3.96-1.584,3.96h-14.258c-2.16,0-2.88-1.152-1.584-3.96.792-1.8,1.584-4.536,1.584-7.128V15.475c0-2.592,0-5.185-2.16-7.273-2.16-2.016-1.44-3.744,3.385-3.816,2.664-.072,5.544-.648,8.353-2.952,2.664-2.16,4.681-2.376,4.681,2.88v18.578Z"/>
      <path class="e" d="M126.208,16.411c11.089,0,20.018,7.633,20.018,19.514,0,11.809-8.929,19.514-20.018,19.514-11.161,0-20.09-7.705-20.09-19.514,0-11.881,8.929-19.514,20.09-19.514ZM126.208,51.694c3.024,0,5.4-1.944,5.4-15.842,0-13.825-2.376-15.697-5.4-15.697-3.097,0-5.473,1.872-5.473,15.697,0,13.897,2.376,15.842,5.473,15.842Z"/>
      <path class="e" d="M166.383,17.131h5.833c1.152,0,1.872.792,1.872,1.944,0,1.08-.72,1.872-1.872,1.872h-5.833v22.61c0,4.608,4.249,4.896,6.481,3.6,2.735-1.512,3.888,1.944,1.151,4.68-2.231,2.16-6.912,3.6-10.944,3.6-6.913,0-10.945-4.104-10.945-10.153v-24.338h-4.969c-1.151,0-1.872-.792-1.872-1.872s.648-1.8,1.729-1.944c7.057-.288,10.585-3.384,12.817-8.641,1.872-4.392,3.528-4.752,4.464-4.752,1.296,0,2.088.72,2.088,1.872v11.521Z"/>
      <path class="e" d="M196.55,16.411c11.089,0,20.018,7.633,20.018,19.514,0,11.809-8.929,19.514-20.018,19.514-11.161,0-20.09-7.705-20.09-19.514,0-11.881,8.929-19.514,20.09-19.514ZM196.55,51.694c3.024,0,5.4-1.944,5.4-15.842,0-13.825-2.376-15.697-5.4-15.697-3.097,0-5.473,1.872-5.473,15.697,0,13.897,2.376,15.842,5.473,15.842Z"/>
    </g>
    <path class="e" d="M719.019,1008.719c-1.384-1.344-2.846-2.716-4.256-4.141-6.892-6.964-13.765-13.948-20.657-20.913-3.029-3.061-4.624-6.708-4.591-11.032.052-6.766,5.153-12.891,11.796-14.14,5.383-1.012,9.971.518,13.787,4.42.094.096.128.251.294.303-.415-5.431-1.221-10.698-4.369-15.342h16.068c-3.184,4.616-3.986,9.885-4.541,15.224.051.028.102.056.153.084.245-.259.476-.533.737-.775,4.429-4.101,9.596-5.338,15.256-3.356,5.574,1.952,8.87,6.077,9.681,11.965.655,4.753-.784,8.921-4.149,12.347-7.092,7.223-14.219,14.413-21.342,21.605-1.282,1.294-2.615,2.537-3.867,3.748Z"/>
    <g>
      <path class="e" d="M714.266,1048.403v-11.017c0-2.592-.792-5.328-1.584-7.128-1.296-2.808-.576-3.96,1.584-3.96h14.978c2.16,0,2.881,1.152,1.584,3.96-.792,1.8-1.584,4.536-1.584,7.128v30.315c0,2.52.792,5.328,1.584,7.129,1.297,2.736.576,3.96-1.584,3.96h-25.058c-8.281,0-13.897-5.544-13.897-15.265,0-16.201,15.841-17.209,23.978-15.121ZM714.266,1075.045v-22.898c-7.345-1.872-8.641,4.752-8.641,11.953,0,6.049.937,10.945,7.705,10.945h.936Z"/>
      <path class="e" d="M671.643,1058.052c-2.664,4.321-6.264,6.481-11.017,6.481-9.072,0-13.321-8.065-13.321-16.706v-10.441c0-2.592-.792-5.328-1.584-7.128-1.296-2.808-.576-3.96,1.584-3.96h14.258c2.16,0,2.808,1.152,1.584,3.96-.864,1.8-1.584,4.536-1.584,7.128v8.641c0,7.561,2.088,11.161,4.536,11.161,3.528,0,5.544-6.985,5.544-11.161v-8.641c0-2.592-.72-5.328-1.584-7.128-1.224-2.808-.576-3.96,1.584-3.96h14.258c2.16,0,2.88,1.152,1.584,3.96-.792,1.8-1.584,4.536-1.584,7.128v28.083c0,2.592,0,5.185,2.16,7.273,2.16,2.016,1.44,3.744-3.385,3.816-2.664.072-5.544.648-8.353,2.952-2.664,2.16-4.681,2.376-4.681-2.88v-18.578Z"/>
      <path class="e" d="M622.324,1064.532c-11.089,0-20.018-7.633-20.018-19.514,0-11.809,8.929-19.514,20.018-19.514,11.161,0,20.09,7.705,20.09,19.514,0,11.881-8.929,19.514-20.09,19.514ZM622.324,1029.249c-3.024,0-5.4,1.944-5.4,15.842,0,13.825,2.376,15.697,5.4,15.697,3.097,0,5.473-1.872,5.473-15.697,0-13.897-2.376-15.842-5.473-15.842Z"/>
      <path class="e" d="M582.149,1063.812h-5.833c-1.152,0-1.872-.792-1.872-1.944,0-1.08.72-1.872,1.872-1.872h5.833v-22.61c0-4.608-4.249-4.896-6.481-3.6-2.735,1.512-3.888-1.944-1.151-4.68,2.231-2.16,6.912-3.6,10.944-3.6,6.913,0,10.945,4.104,10.945,10.153v24.338h4.969c1.151,0,1.872.792,1.872,1.872s-.648,1.8-1.729,1.944c-7.057.288-10.585,3.384-12.817,8.641-1.872,4.392-3.528,4.752-4.464,4.752-1.296,0-2.088-.72-2.088-1.872v-11.521Z"/>
      <path class="e" d="M551.981,1064.532c-11.089,0-20.018-7.633-20.018-19.514,0-11.809,8.929-19.514,20.018-19.514,11.161,0,20.09,7.705,20.09,19.514,0,11.881-8.929,19.514-20.09,19.514ZM551.981,1029.249c-3.024,0-5.4,1.944-5.4,15.842,0,13.825,2.376,15.697,5.4,15.697,3.097,0,5.473-1.872,5.473-15.697,0-13.897-2.376-15.842-5.473-15.842Z"/>
    </g>
    <g>
      <path class="e" d="M215.703,217.264c-1.728-.455-2.213-1.967-2.793-3.359-4.87-11.68-10.815-22.805-17.218-33.704-8.65-14.722-9.406-30.55-6.292-46.858.347-1.817.884-3.722,1.836-5.278,4.647-7.6,7.818-15.91,11.772-23.84,2.853-5.72,8.19-9.188,12.915-13.162,1.96-1.649,4.173-2.985,5.69-5.152.511-.73,1.35-1.378,2.181-1.715,11.213-4.552,21.843-10.519,33.544-13.88,5.768-1.657,11.696-2.219,17.671-2.404.818-.025,1.687.109,2.445-.12,13.304-4.008,26.438-.857,39.595.926,5.567.755,11.124,1.427,16.758,1.24,3.665-.122,7.225.553,10.653,1.818,3.22,1.188,6.437,2.079,9.928,1.377,1.32-.266,2.714-.096,3.036,1.572.617,3.2,3.215,3.895,5.707,4.245,7.783,1.093,15.07,4.241,22.867,5.295,2.656.359,3.644,2.74,3.87,5.237.389,4.305,4.425,6.095,6.396,9.311.258.421,1.52.312,2.315.301,1.865-.025,3.429.448,4.403,2.19-.723,1.453-2.345-.358-3.02.892,2.158,4.646,3.802,9.781,7.257,13.416,4.204,4.423,8.329,8.932,12.552,13.342.298.312.833.543,1.267.557,7.002.228,13.048,4.195,19.885,5.058,3.542.447,4.506,2.512,2.407,5.505-1.079,1.538-.529,1.839.906,1.828,1.044-.008,2.088-.263,3.131-.251.959.011,2.431.573,2.083,1.371-1.684,3.863,1.775,3.318,3.419,4.237,7.933,4.435,14.83,10.073,20.892,16.882,4.683,5.26,8.551,11.103,12.901,16.592,1.906,2.406,3.004,5.314,4.149,7.985,6.672,15.569,15.402,30.218,20.747,46.371,1.839,5.558,5.484,10.247,7.364,15.843,1.048,3.121,4.713,4.658,6.527,7.637,3.043,4.997,3.839,10.689,5.28,16.109,1.726,6.488,3.314,13.294,3.197,19.931-.208,11.765,7.117,20.488,10.713,30.679.632,1.79,1.611,3.34.369,5.25-.834,1.282-.179,2.586.645,3.562,7.022,8.315,9.694,18.628,13.593,28.447,2.111,5.317,2.905,11.04,5.86,16.119,2.984,5.128,5.104,10.761,7.568,16.189,4.336,9.553,8.677,19.104,12.951,28.685,1.64,3.677,4.418,6.594,6.42,10.024,1.267,2.171,4.447,3.315,2.968,6.97-.441,1.089,1.863,2.463,3.109,3.508,1.341,1.125,2.853,2.08,3.646,3.721.289.598.703,1.739-.178,1.736-3.993-.014-1.189,1.931-.819,2.888.789,2.039,1.836,3.979,3.001,6.432,1.106-1.894-.091-3.042-.27-4.257-.102-.697-.352-1.51.391-1.888.845-.43,1.285.374,1.58.971.566,1.149,1.342,2.325,1.458,3.545,1.253,13.164,11.442,19.906,19.589,28.382,7.371,7.669,15.108,15.227,20.277,24.776.087.161-.031.433-.141,1.509-3.538-5.134-9.451-6.866-12.137-12.256-2.611-5.239-7.864-6.866-12.968-8.452-1.386-.431-1.195.796-.891,1.536.759,1.844,1.542,3.565.775,5.702-.447,1.245,1.025,1.571,1.861,2.165,1.84,1.306,4.892,1.834,3.578,5.338-.124.331.431,1.039.819,1.421,5.843,5.737,10.366,12.604,15.922,18.585,1.342,1.444,2.431,3.187,4.522,3.714l-.019-.02c.651,2.593,1.645,5.1,1.792,7.819.064,1.178.408,2.439-.624,3.284-1.616,1.322-1.778,2.682-.361,4.15,1.277,1.324,1.773,4.245,4.765,2.288,1.009-.66,1.717.356,2.118,1.237,1.692,3.716,4.63,6.267,7.344,9.197,2.951,3.186,6.377,7.127,5.998,12.807-.264,3.963,1.521,8.079,4.543,11.088,2.015,2.006,3.003,4.151,2.338,6.906-.543,2.251.368,4.054,1.959,5.285,2.129,1.646,3.382,3.823,4.654,6.05,6.343,11.102,15.401,19.905,24.146,29.03,4.315,4.502,7.734,9.863,11.543,14.847,1.704,2.229,3.479,4.415,5.034,6.746,3.916,5.87,9.979,7.942,16.399,8.979,2.546.411,4.631,1.402,6.788,2.514.624.321,1.356.727,1.135,1.551-.272,1.016-1.252.963-2.048.892-3.321-.293-6.279-1.759-9.3-3.003-1.806-.744-4.221-2.535-5.43-1.213-1.446,1.582,1.047,3.42,1.977,5.023,8.057,13.881,12.682,28.827,14.155,44.781.484,5.24.843,10.481.746,15.753-.05,2.71-.198,5.349-1.212,7.914-.421,1.065-.838,2.337-.649,3.408,1.936,10.966-1.914,21.316-3.372,31.903-.592,4.297-1.233,8.546-1.136,12.892.022.966.278,2.451-1.198,2.475-1.338.022-1.398-1.403-1.477-2.412-.472-6.015.842-11.882,1.721-17.761,2.005-13.42,3.744-26.89,3.692-40.449-.058-14.949-3.447-29.432-7.9-43.656-.974-3.112-3.242-5.023-6.059-6.461-5.101-2.606-10.533-4.469-15.572-7.251-4.933-2.724-8.609-6.714-12.298-10.774-1.807-1.989-3.645-3.952-5.514-5.882-.549-.566-1.281-1.337-2.106-.711-.882.669-.19,1.516.224,2.178,2.679,4.284,4.517,8.977,6.598,13.549.401.881,1.342,2.01.035,2.768-1.16.673-1.82-.441-2.57-1.203-2.721-2.764-4.877-5.655-5.638-9.727-.773-4.132-4.391-7.14-5.541-11.268-.18-.647-.721-1.386-1.562-.937-.761.405-.524,1.24-.303,1.893,1.427,4.207,2.832,8.409,3.654,12.799,1.656,8.841,2.517,17.813,4.762,26.571.663,2.589.877,6.177-3.197,7.304-1.191.33-1.467,1.405-1.588,2.494-.412,3.712-1.106,7.406-.321,11.165.47,2.248.356,4.422-1.346,6.249-1.131,1.214-1.356,2.755-1.038,4.279,1.028,4.926,2.201,9.813,5.674,13.737,1.047,1.183,1.652,2.592,1.715,4.14.29,7.097.396,14.192-.878,21.94-1.684-3.352-3.215-6.051-5.513-8.225-1.431-1.354-2.448-1.507-2.77.702-1.191,8.171-3.019,16.339-.582,24.595,1.789,6.06,1.265,12.209-.978,17.819-5.22,13.054-3.963,25.83.357,38.659.931,2.763.2,5.117-1.308,7.281-2.619,3.757-3.258,7.323-.065,11.156,1.492,1.791,1.127,3.509-1.39,4.254-1.648.488-2.246,1.602-1.848,3.223.424,1.732,1.381,2.334,3.089,1.385.642-.357,1.135.062,1.26.737.159.857.002,1.667-.837,2.126-3.85,2.105-.763,4.962-.713,7.432.038,1.871,1.194,2.769,3.399,3.149,2.689.464,3.832,3.232,4.473,5.678.599,2.284-1.061,3.342-3.097,3.85-1.352.337-1.98,1.21-1.603,2.613.398,1.48,1.431,2.286,2.891,1.753,5.788-2.115,11.898.418,17.709-1.31.597-.177,1.407.082,2.037.338,6.991,2.841,13.97,3.466,20.97.041.301-.147.715-.294,1.004-.206,7.026,2.146,13.949.741,20.943-.34,5.477-.846,10.395,4.488,9.522,9.787-.275,1.666-.962,2.369-2.585,1.588-4.463-2.148-9.293-2.39-14.064-2.347-14.485.131-28.601-2.591-42.752-5.121-1.15-.206-2.288-.479-3.431-.725-1.653-.357-3.468-.662-4.391,1.09-.942,1.787.938,2.307,1.959,3.145.752.617,1.511,1.331.858,2.358-.685,1.076-1.619.564-2.458.095-.51-.285-.995-.617-1.515-.882-.732-.373-1.527-.797-2.277-.137-.775.683-.416,1.536-.055,2.261,1.8,3.617,4.036,7.029,7.732,8.804,3.325,1.597,6.589,3.615,10.475,3.772.448.018,1.05.073,1.309.358,3.152,3.475,12.671,10.384,17.897,12.51,4.307,1.751,7.415,4.753,9.993,8.437.909,1.299,2.291,2.875.329,4.237-1.968,1.365-3.836.726-5.059-1.311-1.703-2.836-3.693-5.377-6.399-7.351-5.308-3.874-10.781-7.565-16.939-9.838-11.383-4.2-19.355-12.292-26.21-21.824-.466-.648-.776-1.594-1.819-1.302-.953.267-1.061,1.197-1.097,2.003-.088,1.985-.264,3.989-.09,5.957.338,3.825,1.813,7.687-1.187,11.216-.463.545-.327,1.891-.045,2.724,1.032,3.046,1.733,5.782-1.843,7.867-1.336.779-.421,2.166.597,2.871,2.783,1.929,2.705,5.565,4.838,7.913.678.746.327,2.193-.699,2.778-1.431.816-1.316-.565-1.66-1.367-.427-.997-1.121-.486-1.705-.106-2.464,1.606-4.512,3.433-3.697,6.832.218.91.426,1.916-.519,2.565-1.053.723-2.016.121-2.928-.411-.706-.412-1.375-.888-2.061-1.333-4.898-3.177-9.689-1.949-12.352,3.243-.458.892-.961,1.479-1.906,1.867-3.742,1.534-4.319,2.549-2.341,5.861,1.81,3.031,1.065,4.618-1.864,6.026-3.995,1.921-8.058,3.739-11.462,6.717-1.573,1.376-2.857.811-3.32-1.186-.601-2.592-1.523-1.766-2.608-.347-4.3,5.621-9.798,10.002-15.085,14.606-2.467,2.148-5.265,3.423-8.499,3.805-2.061.244-4.344,1.074-5.712-1.242-1.406-2.381-1.365-4.935.083-7.343,1.104-1.836,2.822-3.1,4.437-4.447,1.893-1.579,3.742-3.199,4.777-5.516.384-.859.838-1.812.148-2.647-.815-.986-1.932-.584-2.929-.258-.545.178-1.118.435-1.536.814-5.548,5.028-11.291,9.89-13.585,17.476-1.554,5.139-4.741,9.355-8.026,13.483-.885,1.112-1.958,2.305-3.526,1.209-1.579-1.104-1.329-2.542-.311-3.977.449-.633,1.447-1.251.887-2.092-.688-1.034-1.679-.115-2.539.014-1.151.172-2.299.415-3.456.485-4.518.272-5.119.902-5.078,5.545.027,3.103.85,6.247-1.283,9.142-.915,1.242.264,2.195,1.497,2.533,1.002.274,2.079.266,3.118.414.569.081,1.294.119,1.351.849.076.976-.774,1.04-1.45,1.093-1.047.082-2.102.086-3.154.086-164.976.004-329.952.006-494.929,0-1.167,0-2.338-.04-3.499-.15-.578-.055-1.223-.296-1.119-1.063.094-.696.805-.74,1.322-.963,1.671.036,3.672.208,3.429-2.254-.674-6.821,2.576-12.728,4.202-19.004.965-3.726,2.273-7.363,3.39-11.051.356-1.177.698-2.247,2.256-2.174,1.501.07,1.409,1.236,1.691,2.226.575,2.023-.091,3.931-.412,5.875-.571,3.454-1.583,6.987-.479,10.403,1.431,4.429.54,7.895-2.838,11.06-1.82,1.705-1.125,3.718,1.317,4.501.975.313,2.068.357,3.107.358,20.229.019,40.459-.005,60.688.03,4.369.008,7.302-1.931,9.022-5.919,1.945-4.51,3.631-9.105,5.079-13.8,4.51-14.62,9.127-29.163,16.419-42.764,7.835-14.612,16.032-29.183,21.173-44.977,8.578-26.352,20.782-51.012,33.305-75.575,2.963-5.811,2.494-4.622-2.297-6.976-11.943-5.871-23.73-12.032-35.847-18.638,2.27-.851,4.093-5.321,5.723.213.191.648.927.545,1.513.321,1.206-.462,2.259-.04,3.342.496,6.697,3.319,13.418,6.592,20.105,9.932.607.303,1.785.242,1.524,1.486-.801,3.808,2.039,3.519,4.267,3.647,1.493.086,3.02-.438,4.491.226.96.434,1.488-.118,2.064-.777,3.781-4.327,7.949-8.192,10.533-13.64,2.463-5.193,6.119-9.797,7.286-15.645.497-2.489,1.956-4.364,4.507-5.36,2.573-1.005,4.177-2.584,2.429-5.651-.82-1.44-.178-2.756,1.193-3.582,1.143-.689,2.455-1.942,3.702-.51,1.314,1.509,2.433.913,3.653.152,1.435-.895,2.072-2.274,1.765-3.903-.3-1.594-.939-3.122-1.27-4.712-.232-1.116-.646-2.52.248-3.347,1.024-.948,2.246.022,3.201.558,2.73,1.534,3.827.357,4.322-2.288.866-4.631,1.304-9.218-.029-13.873-.312-1.089-1.583-2.734-.265-3.476,1.222-.688,2.486.844,3.673,1.548,1.128.669,1.115,1.495.753,2.639-.679,2.152-.684,4.403-.298,6.604.299,1.705-.77,4.507,1.598,4.787,2.633.311,2.517-2.796,3.381-4.563.145-.296.164-.69.134-1.03-.229-2.656,1.648-4.291,3.16-5.93,1.55-1.68,2.926-1.148,3.336,1.187.58,3.302-.071,6.192-2.588,8.63-7.978,7.729-15.886,15.529-23.838,23.285-3.779,3.686-7.305,7.581-9.968,12.166-1.346,2.317-2.426,4.754-4.812,6.326-1.056.696-1.953,2.095-1.001,3.284.831,1.039,1.94-.1,2.767-.611,2.007-1.239,3.988-1.911,6.229-.59,1.001.59,1.816,1.369,1.362,2.524-1.854,4.724-2.944,9.817-8.054,12.651-6.103,3.384-11.394,7.981-15.04,13.943-7.641,12.493-12.609,26.235-17.741,39.875-.32.852-.374,1.835-.392,2.761-.022,1.09-.314,2.062-.811,3.009-5.264,10.029-10.003,20.358-17.099,29.328-2.024,2.559-1.57,3.652,1.637,4.109,4.044.576,8.122.91,12.177,1.416,2.94.367,4.182,2.191,2.682,4.122-2.889,3.723-6.01,7.228-11.239,7.601-2.107.15-4.386.385-5.927,1.872-4.747,4.58-9.078,9.505-9.482,16.577-.098,1.72-.427,3.266-1.714,4.433-2.115,1.917-1.305,3.64.117,5.501,1.555,2.035,3.283,1.166,5.038.515,4.127-1.53,8.067-4.19,12.708-3.162,3.458.766,6.707.386,10.027-.406,5.447-1.299,10.894-2.599,16.36-3.812,1.812-.402,3.665-.774,5.557-.374,1.036.219,2.255.274,2.269,1.686.014,1.458-1.038,2.028-2.333,2.043-5.687.066-10.651,2.342-15.526,4.948-1.559.834-3.227,1.583-5.005.735-4.541-2.166-8.908-1.114-13.202.68-6.46,2.698-12.909,5.424-19.308,8.263-10.537,4.674-15.833,13.287-15.368,24.744.047,1.162-.158,2.53,1.248,2.967,1.242.386,2.201-.518,3.082-1.296.823-.727,1.168-1.663,1.348-2.758.838-5.1,3.908-8.602,8.169-11.252,1.601-.996,3.403-1.777,4.76-.204,1.375,1.593.7,3.591-.518,5.146-.705.899-1.753,1.524-2.623,2.3-1.701,1.517-2.411,3.387-2.007,5.665,1.189,6.701,11.132,12.08,17.447,9.434,1.105-.463,2.484-1.029,2.325-2.286-.181-1.434-1.723-.76-2.623-.752-3.404.029-4.696-2.085-5.367-4.945-.753-3.21,1.481-4.013,3.812-4.777.886-.29,1.732-.703,2.593-1.066,1.498-.632,3.066-1.629,4.583-.33,1.434,1.227.965,3.003.813,4.622-.033.346-.154.683-.23,1.025-.926,4.173-.284,5.156,4.033,5.821,2.096.323,4.304.538,5.984,1.807,5.501,4.155,12.377,4.885,18.43,7.651,3.819,1.744,7.992,2.051,12.151,2.606,7.704,1.029,15.333,2.574,23.125,3.014,7.077.4,14.067.333,21.194-.183,13.487-.977,27.083-.447,40.634-.55,2.634-.02,5.325.433,7.225-2.31.777-1.122,2.442-1.201,3.883-1.268,4.025-.186,8.201-.094,11.622,1.927,4.78,2.824,9.297,1.98,14.049.567,4.106-1.221,4.474-2.057,2.663-5.848-.359-.752-1.844-2.31.576-2.356,5.026-.095,10.055-.014,15.082.027.559.004,1.214.09,1.425.773.247.801-.165,1.277-.848,1.674-1.504.877-3.265,1.423-4.322,2.913-1.023,1.442-1.462,2.783,1.043,3.189,9.636,1.561,19.295,1.672,28.974.512,1.721-.206,3.332-.453,3.556-2.876.111-1.198,1.386-2.194,2.72-2.462,8.817-1.777,16.881-6.083,25.855-7.428,8.912-1.336,16.771-6.421,25.78-7.639,3.37-.456,4.442.118,3.487,3.17-.769,2.457.934,2.169,2.07,2.524,1.412.441,2.424-.205,2.266-1.719-.638-6.111,4.378-7.933,8.028-10.807.763-.601,1.279-.725,1.935.278,2.751,4.204,5.261,4.904,9.974,2.871,2.352-1.014,4.568-2.338,7.195-2.656,1.598-.193,2.56-1.125,2.254-2.895-.335-1.933-1.761-2.391-3.387-2.17-1.134.154-2.191.818-3.325,1.048-1.263.256-2.602.367-3.382-1.073-.725-1.337-.337-2.483.637-3.5,2.109-2.202,4.398-4.191,6.943-5.88.826-.549,1.646-.607,2.649-.433,4.651.807,6.727-.514,8.075-4.908.296-.966.399-1.832-.572-2.476-1.016-.674-1.692-.065-2.462.555-1.515,1.22-2.097,3.362-4.316,4.323.052-2.489,1.672-3.99,2.574-5.787.526-1.046,1.358-2.054.258-3.161-1.246-1.254-2.329-.324-3.427.36-3.762,2.344-6.196,5.999-9.07,9.21-3.463,3.869-7.554,6.161-12.903,5.856-3.234-.185-6.471.483-9.059,2.262-8.324,5.72-18.059,6.618-27.494,8.608-2.289.483-2.827-.74-2.299-2.546.794-2.721,2.888-3.451,5.513-3.051,3.786.577,7.895.951,10.66-1.904,3.495-3.609,7.643-6.378,11.197-9.857.417-.408.945-.785.769-1.452-.255-.965-1.052-.719-1.712-.625-1.16.166-2.065-.377-2.864-1.062-1.381-1.184-2.527-2.676-2.042-4.55.537-2.075,2.463-1.288,3.867-1.303,6.191-.063,8.064-1.614,9.284-7.668.261-1.295-.024-3.568,2.564-2.254,1.262.64,2.268.694,2.819-.776.525-1.4-.336-2.376-1.465-2.779-3.117-1.114-6.243-2.846-9.421.136-1.776,1.666-3.209.004-4.584-1.008-1.384-1.019-2.779-2.404-1.644-4.082,3.306-4.887,5.459-10.711,10.891-13.942,2.122-1.262,3.832-3.131,4.001-5.496.387-5.427,2.95-10.01,4.994-14.816,1.097-2.578,1.487-5.291.173-7.816-1.216-2.336-.879-4.642-.96-7.091-.265-7.973,1.584-15.832,3.03-23.371,2.94-15.325,2.334-30.937,5.475-46.207,1.742-8.471.502-17.461,2.37-26.08.3-1.382-.105-2.75-.681-4.084-1.541-3.572-1.792-7.286-.448-10.943,2.667-7.259,3.798-14.901,5.743-22.339,1.025-3.919.956-7.899-.292-11.766-.974-3.019-3.04-3.401-5.185-1.103-1.387,1.486-2.21,3.287-2.831,5.192-2.467,7.567-5.638,14.809-10.065,21.449-1.127,1.69-2.129,3.879-4.933,2.457-.799-.405-1.305.369-1.624.965-2.548,4.756-7.478,7.519-8.669,13.84-1.029,5.464-5.811,10.29-11.059,13.557-2.59,1.612-6.233,2.017-6.511,6.148-.032.477-.95.958-1.528,1.325-5.027,3.191-10.055,6.383-15.115,9.52-3.289,2.039-6.749,3.689-10.603,4.413-6.608,1.242-13.045-.572-19.351-1.742-5.843-1.084-9.666-7.282-8.983-11.912,1.148.423,1.433,1.507,1.796,2.442,1.975,5.1,5.762,7.279,11.121,7.507,4.64.197,9.108-.207,13.347-2.161,1.206-.556,3.384-.116,3.448-1.767.063-1.612-2.263-.399-3.089-1.431-.135-.168-.222-.374-.344-.582,1.262-.69,2.634-.843,4.025-1.068,4.896-.794,10.422-.15,13.317-5.743.376-.726,1.432-1.262,2.287-1.551,3.797-1.281,5.555-5.729,9.847-6.277.443-.057,1.029-1.065,1.094-1.679.404-3.808,3.042-6.175,5.383-8.766.805-.89,2.32-1.837,1.132-3.205-1.136-1.309-2.379-.022-3.418.56-4.753,2.666-8.773,7.343-15.67,4.991,4.442,5.951-2.121,8.317-3.193,12.357-.206.775-1.443.72-2.217.374-4.533-2.024-8.895-.859-13.303.527-4.618,1.452-8.957.517-12.388-2.771-2.732-2.618-5.567-2.605-8.692-1.563-3.455,1.152-7.026,1.675-10.593,2.227-1.873.29-3.945.392-5.16-1.332-1.45-2.059-3.441-2.159-5.56-2.226-5.604-.175-10.879-1.348-15.418-4.913-1.781-1.399-3.934-2.244-6.119-2.461-3.281-.326-5.996-1.772-8.682-3.437-6.295-3.904-11.861-8.727-17.183-13.828-1.999-1.916-3.621-4.185-3.36-7.786,1.151,1.095,1.987,1.863,2.793,2.66,3.406,3.371,6.705,6.859,10.227,10.104,5.568,5.128,11.898,9.049,19.25,11.106,1.178.329,3.383,1.625,2.279-1.712-.504-1.525.958-1.833,1.934-1.114,4.499,3.317,10.369,3.273,15.005,6.486,3.432,2.379,8.031,3.166,11.577.57,2.943-2.155,5.297-2.275,8.345-1.044,4.907,1.982,8.786.846,12.083-3.282.628-.786,1.567-.953,2.522-1.021,6.19-.444,11.888-3.257,18.134-3.676,2.014-.135,4.766-1.472,2.837-4.794-.98-1.688.304-2.236,1.523-2.817,3.446-1.642,7.27-2.246,10.887-2.297,2.487-.035,3.953-.767,5.307-2.338,3.7-4.29,6.476-9.528,12.26-11.635.382-.139.665-.651.915-1.04,1.628-2.531,3.911-4.299,6.511-5.729,3.662-2.015,6.01-5.035,7.18-9.084,1.327-4.592,2.524-9.227,4.598-13.584,1.612-3.387,1.06-4.097-2.707-4.04-5.162.077-5.683-.625-3.916-5.639,1.589-4.509,3.915-8.748,5.07-13.414,1.014-4.095.946-4.112,4.346-1.761.407-5.347.958-10.551-.487-15.681-1.541-5.469-6.522-7.946-11.737-5.683-2.292.994-4.336.359-6.499.038-1.019-.151-1.862-.695-1.935-1.716-.062-.869.712-1.436,1.516-1.734,2.187-.809,4.385-1.589,6.583-2.367,3.118-1.104,6.041-2.517,8.246-5.1.778-.911,1.8-1.943.254-2.86-1.713-1.015-1.3-2.158-.748-3.56.738-1.874,1.311-3.963.584-5.812-.472-1.202.724-5.695-3.379-2.619-.226.17-.906-.095-1.278-.318-2.13-1.28-4.402-1.378-6.777-.995-1.108.179-2.248.036-2.322-1.404-.254-4.926-3.786-6.686-7.714-7.901-2.893-.895-5.329-2.184-7.032-4.818-.795-1.229-1.862-2.53-3.671-2.251-5.377.83-7.834-3.328-10.954-6.361-.731-.711-.859-1.342.214-1.881,1.871-.939,5.29.373,6.013,2.345.278.758.449,1.789,1.536,1.436.867-.281.428-1.194.309-1.816-.16-.838-.335-1.638.537-2.172.561-.344,1.233-.273,1.579.233,1.68,2.455,4.61,2.577,6.917,3.85,3.102,1.712,5.999,3.426,6.597,7.677.367,2.606,3.276,3.996,5.729,4.342,2.241.316,2.254-2.146,2.734-3.787.716-2.444.251-5.546,3.654-6.558.58-.172.425-1.028.308-1.595-.614-2.969-.511-6.145-1.882-8.886-2.747-5.492-1.506-11.143-1.24-16.88.52.082.894.054,1.174.203.789.421,1.428,1.498,2.44.976,1.24-.641.456-1.869.463-2.832.024-3.157-.05-6.314-.041-9.471.004-1.563.11-2.869-2.095-3.277-1.693-.313-1.925-2.078-1.09-3.416,2.382-3.819,2.006-7.791,1.035-11.86-.647-2.712-2.021-5.717,2.88-5.811,1.034-.02,1.489-1.392,1.772-2.421.612-2.222.408-4.413-.544-6.492-.979-2.137-2.225-2.894-4.188-.823-1.595,1.682-3.554,2.97-4.595,5.206-1.199,2.576-3.413,3.579-6.267,3.661-2.88.083-2.216-2.184-2.99-3.666-.899-1.719-2.329-3.218-4.679-3.059-.801.054-1.66.056-2.415-.173-1.422-.432-2.396-1.438-2.782-2.905-.166-.631.134-1.205.691-1.465,1.36-.635,2.809-.059,3.555.803,3.067,3.542,5.028,1.181,6.819-1.187,1.398-1.848,2.471-3.953,3.591-5.997.53-.966,1.458-2.177-.015-3.048-1.302-.77-2.138.147-2.817,1.229-1.614,2.569-3.71,2.791-6.321,1.456-2.288-1.169-4.786-1.681-7.358-2.067-6.561-.986-13.364.185-19.768-2.276-.77-.296-1.824.098-2.737.234-3.343.499-6.685,1.008-10.023,1.542-6.798,1.087-13.765,1.735-19.517,6.074-3.885,2.931-8.255,4.809-12.796,6.325-1.663.555-3.486,1.125-5.541.279.454-.487.644-.769.903-.957,8.46-6.143,19.583-6.928,27.707-13.759.162-.136.441-.144.67-.185,7.849-1.411,15.846-1.729,23.691-3.526-.139-1.552-1.328-2.548-2.94-3.196-1.872-.754-2.599-1.643-1.822-3.996,2.13-6.457,1.95-6.506-4.558-8.478-.43-.13-1.104-.207-1.126-1.104,4.425-1.775,9.228-1.242,13.773-2.218,1.317-.283,1.617,1.29.683,1.786-2.873,1.525-2.243,3.624-1.584,5.993.3,1.079.426,2.444.028,3.437-1.365,3.403.528,5.568,2.553,7.755.714.771,1.424,1.68,2.665,1.212,1.255-.474,1.217-1.555,1.076-2.647-.338-2.627.945-2.319,2.658-1.54,1.24.564,2.601,1.601,3.957.713,2.717-1.781,5.871-2.227,8.832-3.261,2.768-.966,4.587-2.836,4.831-5.846.23-2.842.517-5.809-3.707-6.962,2.727-.877,3.287-1.868,1.28-3.368-.858-.641-1.735-1.293-2.828-1.264-2.247.059-2.981-.903-2.235-3.005.344-.97.457-2.257-.812-2.091-2.992.392-3.48-1.582-4.145-3.638-.329-1.018-.87-1.99-2.187-1.894-2.217.161-2.658-1.219-2.98-3.025-.441-2.479-1.833-3.891-4.641-3.662-1.444.118-3.934,1.495-4.165-.508-.225-1.952,2.472-1.887,4.195-2.066.464-.048.921-.158,1.383-.225,2.709-.392,3.806-1.953,3.489-4.652-.193-1.644-.58-3.211-1.313-4.694-.759-1.536-1.697-2.013-3.332-.97-4.342,2.772-9.581,4.312-14.213,5.265-12.365,2.544-23.804,7.695-35.87,10.977-13.753,3.741-27.444,7.595-41.514,10.01-9.904,1.7-19.879,2.795-29.851,3.942-1.308.15-2.111.511-2.526,1.877-.362,1.195-.117,1.973.754,2.786,3.071,2.866,5.726,6.141,9.028,8.799,3.187,2.565,5.989,5.566,8.538,8.79,1.038,1.313,1.032,2.508.045,3.806-1.077,1.418-2.073.459-3.031-.106-.728-.429-1.776-1.081-2.238-.572-2.367,2.61-5.468,1.186-7.902.992-2.519-.201-4.716-2.832-7.667-2.985-.109-.006-.322-.637-.258-.925.598-2.674-.914-2.334-2.56-1.833-1.665.507-3.483.495-5.001,1.517-.632.425-1.614.579-1.869-.113-1.265-3.434-3.085-1.56-4.986-.757-3.745,1.582-6.642-.052-7.675-4.226-.192-.777-.726-1.067-1.218-.787-1.874,1.065-3.31.333-4.729-.87-.597-.507-1.296-.634-1.808.107-.396.572-.083,1.107.346,1.551.802.832,2.136,1.715,1.596,2.877-.985,2.121-.475,3.233,1.585,4.043,1.653.65,1.027,1.595.032,2.288-1.446,1.008-2.906,1.545-4.115-.447-.785-1.294-1.727-2.493-2.553-3.763-.587-.902-2.043-1.509-2.217-.8-.922,3.739-3.287,2.536-5.584,2.032-.372-.082-1.066.171-1.234.476-1.176,2.136-3.412,3.029-5.099,4.553-1.191,1.076-1.63,2.411-.826,4.102.819,1.722.006,2.675-1.89,2.642-1.169-.02-2.337-.1-3.506-.111-4.796-.044-5.478.547-5.639,5.214-.052,1.502-.359,2.825-2.103,2.287-2.753-.848-4.456-.076-5.535,2.537-.341.827-1.186,1.068-2.084.938-.524-.076-.988-.386-.728-.882.532-1.018.642-1.806-.697-2.08-1.169-.239-2.037.301-2.611,1.323-.266.473-.161,1.448-.83,1.352-3.643-.525-4.611,2.703-6.471,4.574-2.327,2.341-4.546,4.707-7.945,5.483-1.291.295-2.302,1.039-2.83,2.375-.755,1.912-2.175,2.676-4.203,2.127-2.032-.551-2.829.396-3.524,2.262-1.241,3.331-5.124,4.555-6.684,7.746-.151.309-.825.38-1.267.528-2.9.969-3.551,2.888-1.458,5.199,1.384,1.528.962,2.716.006,4.026-1.055,1.444-2.433,2.438-4.136,3.105-2.175.851-4.151,2.518-4.189,4.77-.041,2.425-1.088,4.067-1.865,6.104-1.656,4.343-4.562,8.159-5.467,12.795-.166.853-.374,2.353-1.271,2.232-3.222-.436-3.919,2.303-6.085,3.96,2.72.303,4.799.433,6.147-1.773.325-.532.763-.91,1.423-.732.778.21.528.898.598,1.441.326,2.526.315,4.667-2.549,6.121-2.483,1.26-2.805,3.79-1.134,6.004,2.049,2.714,3.217,5.018.016,7.826-.939.824-1.067,2.797-1.193,4.276-.248,2.914-.468,5.813-1.307,8.636-.155.523-.277,1.328-.002,1.663,2.029,2.461.507,4.256-1.012,6.067-1.123,1.339-2.529,2.556-1.589,4.612.394.862-.298,1.2-.821,1.677-1.316,1.2-1.899,2.779-2.393,4.429,2.043.098,2.799-2.15,4.806-2.113-.049.561.046.986-.122,1.176-2.289,2.582-4.241,5.197-3.461,9.049.19.937-.541,2.382-1.303,3.13-2.462,2.415-2.93,5.465-3.295,8.622-.134,1.156-.356,2.308-.622,3.441-.231.985-1.075,1.558-1.781.799-2.781-2.985-4.023-1.55-4.992,1.468-.121.377-.928.6-1.457.762-.728.223-1.789-.043-1.709,1.221.073,1.155.881,1.549,1.915,1.605.783.042,1.84-.249,1.998.857.204,1.431-1.135,1.236-1.947,1.424-2.652.613-3.896,2.804-5.485,4.653-1.591,1.852.572,2.224,1.081,3.293.334.702-1.018.875-1.212,1.414-.598,1.654-3.758,2.147-3.039,3.417,1.7,3.003-.785,3.134-2.08,4.19-1.794,1.462-2.597.032-2.326-1.251.611-2.888.731-6.168,3.829-7.902.273-.153.575-.256.674-.299-.54-1.428-2.275-.887-2.394-2.567,3.867-.878,5.166-3.345,4.031-7.182-.308-1.042-.255-1.802,1.254-2.279,1.933-.61,3.661-1.885,1.877-4.405-.19-.269-.082-.915.116-1.253.298-.507.818-.351,1.167.022.682.729,1.436,1.496,2.23.31.673-1.004-.33-1.64-.855-2.388-.414-.59-2.261-1.078-.885-1.917,2.339-1.426,1.822-3.594,2.075-5.571.437-3.417,1.234-6.679,3.533-9.364,1.679-1.961,2.229-4.36,2.667-6.768,1.685-9.278,3.585-18.503,6.296-27.547.848-2.829,1.363-5.694.254-8.596-.705-1.846-1.829-3.731.939-4.993.666-.304.782-1.265.367-1.881-1.325-1.966-.263-3.523.678-5.165,1.009-1.759,1.501-3.688,1.412-5.713-.047-1.089.997-3.07-1.116-2.888-1.671.144-3.806.901-3.336,3.526.2,1.118.694,2.216-.038,3.37-1.14-.481-2.124-2.188-3.389-1.179-2.635,2.102-5.102,4.433-7.495,6.813-1.307,1.301.012,2.591.45,3.859.102.295.084.893-.077.978-4.02,2.128-3.115,6.804-5.175,9.93-.37.561-1.247,1.27-.64,1.796,2.619,2.268.081,2.844-1.129,3.924-.601.536-1.362,1.2-1.024,2.076.881,2.286-.489,2.361-2.046,2.165-.989-.124-2.224-.285-2.292.865-.315,5.358-4.351,8.289-7.442,11.832-1.408,1.613-2.6,3.311-3.035,5.441q-1.074,5.252-6.374,5.758c1.058-6.448,4.263-12.102,6.891-17.925,8.522-18.881,18.524-36.964,29.83-54.338,4.552-6.995,9.823-13.328,15.608-19.307,19.392-20.041,40.18-38.39,63.4-53.968,22.021-14.774,46.394-22.144,72.546-24.619,6.951-.658,13.999-.384,20.852-2.036,1.281-.087,2.568-.119,3.842-.269,20.655-2.429,39.992-9.099,58.531-18.295,1.857-.921,4.43-1.242,4.237-4.328-.054-.867.852-1.059,1.577-.89,4.499,1.047,7.777-1.85,11.446-3.489.994-.444,2.01-1.011,1.987-2.197-.028-1.479-1.293-1.718-2.476-1.964-2.083-.433-2.805-1.467-.804-2.884,4.984-3.531,5.084-7.945,2.66-12.953-.455-.941-.86-1.932-1.104-2.944-.428-1.779-.435-3.39,2.172-3.131,1.079.107,1.683-.253,1.91-1.467.319-1.71.964-3.356,1.368-5.054.322-1.354.75-2.87-.413-3.978-1.33-1.267-2.612-.111-3.84.449-12.764,5.812-23.928,14.075-34.79,22.79-.721.579-1.87,1.001-1.686,2.326q4.112-.588,3.796,3.508c-.018.232-.077.507.018.694,1.546,3.045-2.503,4.898-1.685,7.863.139.503-.974.939-1.695.53-1.922-1.09-1.832.238-2.323,1.551-.603,1.613.13,2.944.2,4.399.145,2.993-1.609,4.592-4.241,5.133-2.896.595-3.224-1.398-3.15-3.638.063-1.925-.928-2.304-2.412-1.306-2.792,1.875-6.01,2.495-9.169,3.313-3.129.81-5.745,2.31-7.585,5.651,3.796-.826,7.03-2.322,10.55-2.342,1.26-.007,2.775-.164,3.151,1.492.419,1.848-.991,2.506-2.412,2.803-3.125.655-5.943,1.968-8.758,3.438-3.455,1.803-5.469.554-5.754-3.256-.033-.436.062-1.039-.183-1.279-2.583-2.528-.669-3.931,1.342-5.132,2.753-1.644,5.236-3.591,7.007-6.252,2.951-4.436,6.732-8.054,10.735-11.487,11.354-9.738,23.31-18.759,34.375-28.84,4.441-4.046,8.3-8.545,10.659-14.174.841-2.008,1.223-3.969.299-6.087-1.192-2.734-.657-10.359.94-12.896,1.928-3.062,4.017-6.022,5.993-9.055,1.458-2.238,1.928-4.847.277-6.916-2.858-3.582-3.038-7.279-2.103-11.516.464-2.104.906-4.828-2.452-5.64-.997-.241-1.096-1.239-.689-2.019.549-1.049.31-1.662-.593-2.351-2.287-1.745-1.12-2.938.796-3.788,3.348-1.485,6.33-3.492,9.01-5.972,7.944-7.351,12.106-16.732,14.535-27.047.647-2.748,1.389-5.476-.669-8.019-.656-.81-.364-1.768-.052-2.68,3.341-9.759.018-18.297-4.902-26.526-.529-.885-1.057-1.769-2.461-.875-3.153,2.007-6.536,3.703-8.492,7.116-.54.942-1.157,1.76-2.244,2.086-2.834.85-4.736,2.92-6.561,5.065-.982,1.154-1.78,2.483-3.32,3.01-2.189.751-2.512,1.713-1.008,3.735,1.221,1.643,1.39,3.741-.819,5.19-1.948,1.278-3.642,1.354-5.151-.7-1.49-2.028-2.901-1.711-4.546.037-2.842,3.021-5.279,6.695-10.05,7.049-.428.032-1.197.814-1.147,1.148.652,4.306-3.078,4.652-5.491,5.816-4.664,2.25-11.748-.262-13.583-4.471.024-.605.019-1.234.934-.962.052.015.107.017.162.019-.046.018-.092.035-.138.053.029-.055.058-.111.087-.166-.325.359-.649.719-.974,1.078-4.886,3.113-10.251,1.478-15.414,1.411-2.897-.038-2.614-3.574-4.377-5.016-.631-.516-1.13-1.197-1.773-1.694-7.183-5.55-12.102-12.902-16.568-20.637-1.137-1.97-1.865-3.952-1.864-6.275.002-3.734-2.616-7.018-2.014-10.917.055-.355-.711-.859-1.127-1.261-5.599-5.407-11.705-9.307-20.052-7.248-2.111.521-4.457.172-5.654-1.843-1.334-2.244-3.409-3.343-5.367-4.778-2.819-2.066-5.547-4.313-8.022-6.776-3.134-3.118-1.668-7.804,2.564-8.82,3.197-.768,5.078-3.531,4.399-6.511-.372-1.633-.889-2.916-2.599-.919-1.611,1.882-2.739,1.152-3.655-.726-1.542-3.162-.92-7.742,1.544-10.332,1.093-1.149,2.026-2.322,1.798-3.989-.858-6.27-.09-12.123,4.166-17.151.579-.683.794-1.469-.21-2.041-.597-.34-9.03,1.427-9.292,2.04-1.341,3.14-3.695,6.09-1.502,9.854,1.036,1.779,1.081,3.83.1,5.732-1.552,3.007-2.382,6.06-1.175,9.42.336.936.017,1.876-.76,2.541-.965.827-1.955.465-2.924-.053-2.575-1.376-4.202-3.454-4.078-6.433.121-2.908.554-5.804.883-8.701.238-2.098-.125-4.013-1.841-5.383-2.434-1.943-5.588-2.984-7.258-5.911-.174-.305-1.134-.429-1.591-.262-4.519,1.653-8.607-.327-12.951-1.014-4.997-.79-10.756-2.53-14.983,2.629-.63.768-1.634,1.147-2.46.302-.83-.85-1.821-1.543-1.012-3.242,1.232-2.589.224-3.772-2.703-3.912-2.196-.105-4.23.776-6.533.527-5.737-.621-11.483-1.94-17.282-1.137-3.902.54-7.882-1.058-11.701.596ZM295.893,95.255c-.818-1.243.23-2.164.589-3.178,1.414-4.003,2.886-7.986,4.336-11.976-.32-.123-.64-.246-.96-.368-6.459,4.985-7.04,12.465-8.189,19.932,2.12-.327,1.617-3.059,3.611-3.062.103,2.216-1.517,3.791-2.133,5.738-.278.878-.687,1.903.348,2.483,1.075.603,1.826-.207,2.161-1.091,1.302-3.436,3.825-4.683,7.328-4.334.992,1.235-.716,2.391-.039,3.736,1.653-.949,2.36-.684,2.021,1.458-.594,3.757-2.119,6.949-5.275,9.123-2.513,1.732-3.505,4.254-4.249,6.989-.182.668-.455,1.423.331,1.862.683.381,1.411.098,1.95-.353.62-.518,1.171-1.14,1.661-1.787,4.029-5.321,7.668-10.842,9.663-17.325,1.077-3.5,2.496-4.033,5.702-2.293,2.144,1.164,3.353,1.202,3.899-1.607.374-1.925,2.282-2.043,3.133-.793,1.004,1.473,3.762,1.951,2.894,4.667-.268.84.326,1.614,1.38,1.557.834-.045,1.88-.287,1.775-1.278-.301-2.851,1.219-5.197,1.982-7.728.859-2.85.284-4.987-2.045-6.798-2.21-1.719-4.312-3.576-6.502-5.322-2.639-2.103-5.584-1.307-6.196,2.009-.446,2.417-.636,5.177,1.451,7.228.713.701,1.566,1.323.444,2.207-1.069.843-1.685-.219-2.269-.876-.617-.695-1.406-1.541-1.17-2.457,1.219-4.73-1.138-10.17,2.945-14.352,1.352-1.385-.209-2.545-.767-3.735-.278-.593-.735-.949-1.386-.624-1.278.636-1.323,1.856-1.181,3.022.233,1.914-.549,3.39-1.729,4.769-2.792,3.26-4.385,7.126-5.629,11.173-.361,1.174-.321,2.538-1.472,3.372-.716-2.816.536-5.36,1.121-7.992.329-1.479,1.003-2.948-.127-4.658-3.256,4.389-5.887,8.86-9.407,12.661ZM371.366,264.079c-.136-.162-.277-.32-.422-.474,2.222-4.799-2.669-9.032-1.171-14.252,2.36,1.702,4.578,1.833,6.349-.332,1.876-2.294,1.344-4.799.271-7.273-1.133-2.614-3.15-1.719-5.277-1.785-2.516-.078-5.013-1.344-7.478-2.209-1.434-.503-1.066-1.849-1.171-2.994-.088-.962-.806-1.285-1.774-1.231-.789.045-2.151,1.146-2.253-.363-.122-1.803.192-3.76.842-5.449.476-1.237,1.828-.337,2.765-.051,4.182,1.279,7.733,3.801,11.481,5.926,1.218.69,2.245,1.739,3.799.764,1.653-1.037,1.747-2.627,1.681-4.303-.144-3.671-2.661-5.219-5.674-6.298-1.359-.487-2.806-1.351-1.118-2.584,2.65-1.936,2.699-4.771,1.158-6.36-1.847-1.905-3.948-4.854-7.647-3.568-2.775.965-5.517.462-8.234-.422-2.991-.973-5.978-1.963-9.191-1.959-1.712.002-2.836.595-2.471,2.448.287,1.455-.341,2.08-1.463,2.755-1.876,1.13-2.845,2.976-3.665,4.978-.835,2.038.393,5.435-3.491,5.645-.136.007-.381.845-.318,1.257.474,3.102-1.479,4.399-3.882,5.446-2.752,1.2-5.042,2.972-4.371,6.325.472,2.36-.465,3.653-2.024,5.101-3.935,3.653-5.565,8.212-4.987,13.599.223,2.081.577,4.322.052,6.269-.89,3.301.411,5.673,2.263,8.018,2.303,2.917,5.224,4.972,8.752,6.176,3.413,1.164,7.053,1.798,10.112,3.813,2.199,1.449,3.529,1.257,4.414-1.36.651-1.926,1.628-3.666,4.06-3.771.856-.037,1.131-.701,1.349-1.389,1.577-4.97,4.61-.256,6.96-.789,1.573-.357.792,2.671.235,3.672-3.51,6.302-4.145,13.301-5.406,20.174-.441,2.401.058,3.552,2.628,3.68,1.777.088,3.657.897,2.357,2.995-2.931,4.73.559,8.232,1.904,12.134.459,1.333,1.83,1.222,2.6.404,2.346-2.492,3.053-.849,3.921,1.253.797,1.93,1.873,4.561,4.207,3.964,3.02-.772,3.319.598,3.836,2.76.635,2.654,5.277,5.173,6.434,3.497,2.256-3.272,2.829-.817,4.035.559.709.809,1.704,1.261,2.837,1.037,1.263-.25.678-1.28.742-1.996.127-1.418.771-2.326,2.225-1.729,2.592,1.064,2.993-.526,3.377-2.437.804-3.999,1.784-4.463,5.773-2.72.917.401,2.007.883,2.519-.072,1.787-3.33,5.408-5.346,6.689-8.858,1.081-2.963,2.824-5.273,5.372-6.617,3.759-1.984,5.99-5.854,10.013-7.465,1.604-.643,2.494-1.917.813-3.765-1.011-1.112-1.744-2.729.693-3.452.954-.283,1.396-1.095.919-1.914-1.827-3.141-4.543-6.019-2.518-10.108-3.364-2.033-3.488-6.461-6.549-8.794-1.319-1.005-3.233-.531-4.223-2.163-2.08-3.429-5.451-4.93-9.171-5.814-2.13-.507-3.782-1.688-5.232-3.305-1.449-1.616-2.946-1.704-4.361.185-.447.596-.745,1.517-1.782,1.431-.845-2.684-3.209-3.59-5.865-2-1.353.81-2.65,1.488-4.218,1.42-5.003-.217-8.905,2.546-13.022,4.737ZM222.373,115.076c1.061-1.186,1.897-2.326,2.939-3.227,1.071-.926,2.398-.784,3.637-.213.69.318,1.133.812.75,1.657-.568,1.254-1.019,2.505.831,3.086,1.643.516,2.771-.417,3.525-1.636,1.034-1.672,1.634-3.637,2.792-5.2.964-1.301,2.032-3.625,3.863-2.871,1.921.792.14,2.876.208,4.388.01.226-.114.454-.139.685-.132,1.241-.853,2.876.453,3.537,1.182.599,1.865-1.044,2.607-1.822,9.784-10.252,18.343-21.487,26.37-33.138,1.781-2.585,3.984-4.933,5.359-8.421-5.947,1.734-9.637,5.645-13.491,9.331-1.384,1.324-2.758,3.691-4.25-.042-.454-1.135-1.821-.816-2.826-.448-1.748.639-3.521,1.25-5.183,2.075-1.235.613-1.962,1.344-2.609-.76-.51-1.658-2.029-1.199-3.083-.132-3.348,3.388-7.107,6.414-8.725,11.213-.896,2.656-2.549,4.97-4.356,7.144-2.762,3.322-5.417,6.735-8.238,10.005-1.239,1.437-1.515,2.799-.435,4.789ZM276.805,87.982c.315.235.631.47.946.705-.699,1.431-1.469,2.833-2.081,4.3-.892,2.138-2.811,4.608-1.94,6.536,2.035,4.507-.574,4.066-3.366,4-1.564-.037-3.12.355-2.275,2.354,1.408,3.33-.129,5.857-1.75,8.477-1.707,2.758-3.802,5.376-2.881,9.027.328,1.3-.825,2.087-1.62,2.928-2.086,2.207-4.206,4.382-6.245,6.631-1.088,1.199-1.887,2.685-.226,3.921,1.411,1.049,2.912.548,4.037-.749.608-.701,1.144-1.482,1.61-2.287,2.352-4.063,4.932-7.927,8.651-10.918,1.421-1.143,1.976-2.828,2.429-4.555.824-3.139,2.136-6.029,4.379-8.575.833,1.117,0,2.647,1.406,2.974,1.537.358,1.956-1.057,2.479-2.015,1.283-2.35,2.584-4.709,3.609-7.176,2.28-5.49,4.247-11.114,6.647-16.549,1.045-2.367,2.256-4.338-.065-6.602-.87-.848-.46-1.908.291-2.833.551-.679.719-1.555-.042-2.204-.904-.771-1.511.132-2.062.623-.78.695-1.425,1.538-2.142,2.306-3.055,3.275-6.082,6.574-8.81,10.472-.845-1.613.149-2.253.394-3.083.603-2.043-.156-3.416-2.042-4.204-2.018-.843-2.31.911-2.918,2.069-1.579,3.005-3.379,5.861-5.431,8.568-5.856,7.724-11.417,15.649-16.208,24.092-.586,1.032-1.423,2.394-.408,3.187,1.32,1.031,1.995-.666,2.629-1.476,7.479-9.546,16.289-18.057,22.362-28.697.231-.405.429-.829.642-1.245ZM716.002,647.429c.001-2.122-1.053-3.586-2.314-4.771-6.511-6.117-11.294-13.677-17.14-20.34-3.075-3.504-6.434-6.763-9.723-10.074-.73-.735-1.769-1.43-2.799-.575-1.023.849-.467,1.96.005,2.887.976,1.913,2.747,3.156,4.148,4.713,1.39,1.544,2.762,3.419,1.51,5.329-2.772,4.229-1.023,7.816,1.04,11.434,4.453,7.812,10.888,13.963,17.194,20.202,1.368,1.354,3.577,1.562,4.66,3.513,3.387,6.103,9.873,7.447,15.638,9.827,1.36.561,2.626-.081,1.677-1.72-3.251-5.617-5.645-11.921-11.527-15.571-1.96-1.216-4.245-2.112-2.367-4.853ZM257.768,138.903c-2.006.847-4.623,1.061-5.624,2.927-1.724,3.214-4.181,3.547-7.227,3.14-2.436-.326-3.317,1.045-3.519,3.233-.699,7.567-.324,8.029,7.146,8.514.115.007.226.06.341.069,3.904.308,4.516-.193,4.267-4.224-.251-4.054,1.043-7.518,3.397-10.708.58-.786,1.693-1.348,1.219-2.951ZM215.718,108.992c2.117-1.628,5.751.879,6.592-2.641.867-3.627,3.044-6.157,5.646-8.598,4.246-3.983,6.415-9.475,9.815-14.086.293-.398.852-1.218-.335-1.944-4.072,4.05-9.326,7.094-12.879,11.524-3.658,4.561-4.538,11.034-8.84,15.745ZM424.922,306.521c.244-1.112.397-2.04-.961-2.271-1.407-.239-2.326.317-2.436,1.748-.24,3.133-.352,6.277.501,9.351.133.479-.013,1.341.762,1.302.499-.025,1.066-.426,1.443-.813.789-.811.931-1.881.683-2.938-.513-2.189-.769-4.358.008-6.379ZM278.381,120.482c4.877-1.548,6.576-5.99,9.52-9.123.508-.541.485-1.402-.186-1.843-.681-.448-1.359-.104-1.719.607-1.401,2.768-3.953,4.502-5.961,6.724-.816.903-1.897,1.736-1.653,3.635ZM686.763,739.097c-.082,2.2.534,4.132,2.282,5.58.45.373.973.709,1.58.403.619-.312.646-.925.542-1.51-.344-1.944-.653-3.898-1.106-5.817-.256-1.083-.366-2.794-1.662-2.747-1.567.057-1.403,1.837-1.627,3.047-.062.337-.01.695-.01,1.043ZM358.537,97.379c-1.433-.004-4.655,4.929-4.479,6.669.098.961.394,1.996,1.346,2.267,1.295.369,1.834-.732,2.221-1.728.673-1.731,1.289-3.485,1.907-5.237.379-1.074.131-1.825-.995-1.972ZM219.061,113.711c-1.268,1.542-3.251,1.821-3.02,3.824.128,1.112,1.444,1.239,2.242.859,1.933-.921,1.274-2.509.778-4.683ZM265.614,109.824c-.001-.787-.364-1.283-1.038-1.151-1.605.314-2.277,1.512-2.419,3.02-.061.647.347,1.169,1.04,1.089,1.783-.204,1.889-1.813,2.417-2.958Z"/>
      <path class="f" d="M147.19,679.284q5.307-.504,6.374-5.758c.435-2.129,1.627-3.827,3.035-5.441,3.091-3.543,7.127-6.474,7.442-11.832.068-1.15,1.303-.989,2.292-.865,1.557.196,2.927.121,2.046-2.165-.338-.876.423-1.54,1.024-2.076,1.209-1.079,3.748-1.655,1.129-3.924-.607-.526.27-1.235.64-1.796,2.06-3.126,1.155-7.802,5.175-9.93.161-.085.179-.683.077-.978-.438-1.269-1.758-2.559-.45-3.859,2.393-2.381,4.86-4.712,7.495-6.813,1.265-1.009,2.249.698,3.389,1.179.731-1.154.238-2.252.038-3.37-.47-2.625,1.665-3.382,3.336-3.526,2.113-.182,1.069,1.799,1.116,2.888.088,2.024-.404,3.953-1.412,5.713-.941,1.642-2.004,3.199-.678,5.165.415.616.299,1.577-.367,1.881-2.768,1.262-1.644,3.147-.939,4.993,1.109,2.902.594,5.767-.254,8.596-2.71,9.044-4.61,18.269-6.296,27.547-.437,2.408-.987,4.807-2.667,6.768-2.299,2.685-3.096,5.947-3.533,9.364-.253,1.977.264,4.145-2.075,5.571-1.376.839.471,1.327.885,1.917.525.748,1.527,1.384.855,2.388-.794,1.186-1.549.419-2.23-.31-.349-.373-.869-.529-1.167-.022-.198.337-.306.984-.116,1.253,1.784,2.52.056,3.794-1.877,4.405-1.51.477-1.563,1.237-1.254,2.279,1.135,3.838-.164,6.305-4.031,7.182.12,1.68,1.854,1.139,2.394,2.567-.1.044-.401.146-.674.299-3.097,1.734-3.218,5.014-3.829,7.902-.272,1.283.531,2.714,2.326,1.251,1.295-1.055,3.78-1.187,2.08-4.19-.719-1.27,2.441-1.762,3.039-3.417.195-.538,1.546-.712,1.212-1.414-.509-1.069-2.672-1.442-1.081-3.293,1.589-1.849,2.833-4.04,5.485-4.653.812-.187,2.151.007,1.947-1.424-.158-1.106-1.214-.814-1.998-.857-1.034-.056-1.842-.449-1.915-1.605-.08-1.264.981-.998,1.709-1.221.529-.162,1.336-.386,1.457-.762.969-3.019,2.211-4.453,4.992-1.468.706.758,1.55.186,1.781-.799.266-1.134.489-2.285.622-3.441.365-3.157.833-6.207,3.295-8.622.762-.748,1.493-2.193,1.303-3.13-.78-3.852,1.171-6.467,3.461-9.049.169-.19.073-.615.122-1.176-2.007-.037-2.764,2.211-4.806,2.113.494-1.65,1.077-3.229,2.393-4.429.523-.477,1.215-.815.821-1.677-.94-2.056.466-3.273,1.589-4.612,1.519-1.811,3.041-3.605,1.012-6.067-.276-.334-.154-1.14.002-1.663.839-2.823,1.059-5.722,1.307-8.636.126-1.478.254-3.452,1.193-4.276,3.201-2.808,2.033-5.112-.016-7.826-1.672-2.215-1.349-4.744,1.134-6.004,2.864-1.454,2.875-3.595,2.549-6.121-.07-.543.179-1.231-.598-1.441-.659-.178-1.098.2-1.423.732-1.348,2.206-3.427,2.076-6.147,1.773,2.166-1.657,2.863-4.396,6.085-3.96.897.121,1.104-1.379,1.271-2.232.905-4.637,3.811-8.452,5.467-12.795.777-2.037,1.824-3.68,1.865-6.104.038-2.252,2.013-3.918,4.189-4.77,1.704-.667,3.082-1.661,4.136-3.105.957-1.31,1.378-2.498-.006-4.026-2.093-2.311-1.442-4.23,1.458-5.199.442-.148,1.116-.218,1.267-.528,1.56-3.191,5.444-4.415,6.684-7.746.695-1.866,1.492-2.812,3.524-2.262,2.028.549,3.447-.215,4.203-2.127.528-1.336,1.539-2.081,2.83-2.375,3.399-.776,5.619-3.142,7.945-5.483,1.86-1.871,2.828-5.099,6.471-4.574.669.096.565-.879.83-1.352.574-1.022,1.443-1.562,2.611-1.323,1.339.274,1.229,1.063.697,2.08-.259.496.205.806.728.882.899.13,1.743-.112,2.084-.938,1.079-2.613,2.782-3.385,5.535-2.537,1.744.537,2.051-.786,2.103-2.287.161-4.667.843-5.258,5.639-5.214,1.169.011,2.337.091,3.506.111,1.896.032,2.709-.92,1.89-2.642-.805-1.692-.366-3.026.826-4.102,1.687-1.524,3.923-2.416,5.099-4.553.168-.306.862-.558,1.234-.476,2.297.505,4.662,1.707,5.584-2.032.175-.709,1.63-.102,2.217.8.827,1.27,1.768,2.469,2.553,3.763,1.209,1.991,2.668,1.454,4.115.447.995-.693,1.622-1.638-.032-2.288-2.06-.809-2.57-1.922-1.585-4.043.539-1.162-.794-2.045-1.596-2.877-.429-.444-.742-.978-.346-1.551.512-.741,1.211-.614,1.808-.107,1.419,1.204,2.855,1.935,4.729.87.492-.28,1.026.009,1.218.787,1.033,4.174,3.93,5.808,7.675,4.226,1.9-.803,3.72-2.677,4.986.757.255.692,1.237.537,1.869.113,1.518-1.021,3.335-1.009,5.001-1.517,1.646-.501,3.159-.841,2.56,1.833-.065.288.149.92.258.925,2.951.153,5.148,2.784,7.667,2.985,2.433.194,5.534,1.618,7.902-.992.462-.509,1.51.143,2.238.572.958.565,1.953,1.524,3.031.106.986-1.299.993-2.493-.045-3.806-2.549-3.224-5.351-6.225-8.538-8.79-3.302-2.658-5.957-5.933-9.028-8.799-.871-.813-1.116-1.591-.754-2.786.414-1.366,1.217-1.727,2.526-1.877,9.971-1.147,19.946-2.242,29.851-3.942,14.069-2.415,27.761-6.268,41.514-10.01,12.066-3.283,23.505-8.433,35.87-10.977,4.631-.953,9.871-2.493,14.213-5.265,1.634-1.043,2.573-.566,3.332.97.732,1.483,1.12,3.05,1.313,4.694.318,2.699-.78,4.259-3.489,4.652-.462.067-.919.176-1.383.225-1.723.178-4.42.113-4.195,2.066.231,2.003,2.721.626,4.165.508,2.807-.229,4.2,1.184,4.641,3.662.321,1.806.763,3.187,2.98,3.025,1.317-.096,1.858.876,2.187,1.894.664,2.055,1.153,4.029,4.145,3.638,1.269-.166,1.156,1.121.812,2.091-.746,2.103-.012,3.065,2.235,3.005,1.093-.029,1.97.623,2.828,1.264,2.008,1.5,1.448,2.491-1.28,3.368,4.225,1.152,3.937,4.12,3.707,6.962-.243,3.011-2.063,4.88-4.831,5.846-2.961,1.034-6.115,1.479-8.832,3.261-1.356.889-2.717-.149-3.957-.713-1.713-.779-2.995-1.086-2.658,1.54.14,1.092.179,2.173-1.076,2.647-1.24.468-1.951-.442-2.665-1.212-2.026-2.187-3.919-4.352-2.553-7.755.398-.993.272-2.358-.028-3.437-.659-2.369-1.288-4.469,1.584-5.993.935-.496.634-2.069-.683-1.786-4.545.976-9.348.443-13.773,2.218.023.897.697.974,1.126,1.104,6.509,1.973,6.688,2.021,4.558,8.478-.776,2.353-.05,3.242,1.822,3.996,1.612.649,2.802,1.644,2.94,3.196-7.845,1.797-15.842,2.115-23.691,3.526-.229.041-.509.049-.67.185-8.124,6.831-19.247,7.616-27.707,13.759-.259.188-.449.47-.903.957,2.055.846,3.879.276,5.541-.279,4.541-1.515,8.911-3.393,12.796-6.325,5.752-4.34,12.719-4.988,19.517-6.074,3.338-.534,6.68-1.043,10.023-1.542.913-.136,1.967-.53,2.737-.234,6.404,2.461,13.207,1.29,19.768,2.276,2.572.386,5.071.898,7.358,2.067,2.611,1.335,4.708,1.113,6.321-1.456.679-1.082,1.515-1.999,2.817-1.229,1.473.871.545,2.082.015,3.048-1.121,2.044-2.193,4.149-3.591,5.997-1.792,2.369-3.753,4.729-6.819,1.187-.746-.862-2.195-1.438-3.555-.803-.557.26-.857.834-.691,1.465.386,1.467,1.36,2.473,2.782,2.905.755.229,1.614.227,2.415.173,2.35-.16,3.78,1.339,4.679,3.059.775,1.482.11,3.748,2.99,3.666,2.853-.082,5.067-1.085,6.267-3.661,1.041-2.236,3-3.524,4.595-5.206,1.963-2.071,3.209-1.314,4.188.823.952,2.079,1.156,4.27.544,6.492-.283,1.029-.739,2.401-1.772,2.421-4.901.094-3.527,3.099-2.88,5.811.971,4.068,1.347,8.041-1.035,11.86-.834,1.338-.602,3.104,1.09,3.416,2.205.407,2.1,1.714,2.095,3.277-.009,3.157.065,6.314.041,9.471-.007.962.777,2.191-.463,2.832-1.012.522-1.651-.555-2.44-.976-.28-.149-.654-.12-1.174-.203-.266,5.737-1.507,11.388,1.24,16.88,1.371,2.742,1.269,5.917,1.882,8.886.117.567.272,1.423-.308,1.595-3.403,1.012-2.939,4.114-3.654,6.558-.481,1.642-.493,4.103-2.734,3.787-2.453-.346-5.363-1.736-5.729-4.342-.598-4.251-3.496-5.965-6.597-7.677-2.307-1.273-5.237-1.396-6.917-3.85-.346-.506-1.018-.577-1.579-.233-.872.534-.697,1.334-.537,2.172.119.622.558,1.534-.309,1.816-1.087.353-1.258-.678-1.536-1.436-.723-1.972-4.142-3.284-6.013-2.345-1.073.539-.945,1.17-.214,1.881,3.119,3.032,5.576,7.19,10.954,6.361,1.81-.279,2.876,1.022,3.671,2.251,1.703,2.634,4.139,3.922,7.032,4.818,3.928,1.215,7.46,2.975,7.714,7.901.074,1.44,1.214,1.583,2.322,1.404,2.375-.383,4.647-.285,6.777.995.372.223,1.052.488,1.278.318,4.103-3.076,2.906,1.417,3.379,2.619.727,1.849.154,3.939-.584,5.812-.552,1.402-.965,2.544.748,3.56,1.546.916.525,1.948-.254,2.86-2.205,2.583-5.128,3.996-8.246,5.1-2.198.778-4.396,1.558-6.583,2.367-.804.297-1.578.865-1.516,1.734.073,1.02.916,1.564,1.935,1.716,2.162.321,4.207.956,6.499-.038,5.215-2.262,10.196.214,11.737,5.683,1.445,5.13.894,10.335.487,15.681-3.4-2.351-3.332-2.334-4.346,1.761-1.155,4.666-3.481,8.905-5.07,13.414-1.766,5.014-1.246,5.717,3.916,5.639,3.767-.057,4.32.653,2.707,4.04-2.074,4.356-3.271,8.992-4.598,13.584-1.17,4.049-3.518,7.069-7.18,9.084-2.6,1.431-4.883,3.199-6.511,5.729-.25.389-.533.9-.915,1.04-5.784,2.107-8.56,7.345-12.26,11.635-1.354,1.57-2.82,2.303-5.307,2.338-3.617.051-7.442.655-10.887,2.297-1.219.581-2.503,1.129-1.523,2.817,1.929,3.322-.823,4.659-2.837,4.794-6.246.419-11.944,3.232-18.134,3.676-.956.069-1.894.235-2.522,1.021-3.297,4.128-7.176,5.264-12.083,3.282-3.048-1.231-5.402-1.112-8.345,1.044-3.545,2.596-8.144,1.809-11.577-.57-4.636-3.213-10.506-3.169-15.005-6.486-.976-.719-2.438-.411-1.934,1.114,1.103,3.337-1.102,2.041-2.279,1.712-7.352-2.056-13.682-5.978-19.25-11.106-3.523-3.244-6.821-6.732-10.227-10.104-.806-.798-1.642-1.566-2.793-2.66-.261,3.601,1.361,5.87,3.36,7.786,5.322,5.101,10.888,9.924,17.183,13.828,2.686,1.666,5.401,3.112,8.682,3.437,2.184.217,4.337,1.062,6.119,2.461,4.539,3.565,9.813,4.737,15.418,4.913,2.119.066,4.11.167,5.56,2.226,1.215,1.725,3.287,1.622,5.16,1.332,3.567-.552,7.138-1.074,10.593-2.227,3.125-1.042,5.96-1.055,8.692,1.563,3.431,3.288,7.77,4.223,12.388,2.771,4.409-1.386,8.77-2.551,13.303-.527.774.346,2.012.401,2.217-.374,1.072-4.039,7.635-6.405,3.193-12.357,6.897,2.353,10.917-2.325,15.67-4.991,1.038-.582,2.281-1.869,3.418-.56,1.188,1.368-.328,2.315-1.132,3.205-2.341,2.591-4.979,4.959-5.383,8.766-.065.615-.651,1.623-1.094,1.679-4.292.548-6.05,4.996-9.847,6.277-.854.288-1.911.824-2.287,1.551-2.895,5.594-8.421,4.95-13.317,5.743-1.391.225-2.763.378-4.025,1.068.121.209.209.414.344.582.826,1.032,3.152-.181,3.089,1.431-.064,1.651-2.243,1.211-3.448,1.767-4.239,1.955-8.707,2.358-13.347,2.161-5.358-.227-9.146-2.406-11.121-7.507-.362-.936-.648-2.019-1.796-2.442-.684,4.631,3.139,10.828,8.983,11.912,6.306,1.17,12.743,2.984,19.351,1.742,3.854-.724,7.314-2.374,10.603-4.413,5.061-3.138,10.088-6.329,15.115-9.52.578-.367,1.496-.848,1.528-1.325.278-4.13,3.921-4.536,6.511-6.148,5.248-3.266,10.03-8.092,11.059-13.557,1.19-6.321,6.121-9.084,8.669-13.84.319-.596.825-1.37,1.624-.965,2.804,1.422,3.806-.767,4.933-2.457,4.427-6.64,7.598-13.882,10.065-21.449.621-1.904,1.444-3.706,2.831-5.192,2.145-2.298,4.211-1.915,5.185,1.103,1.248,3.867,1.317,7.847.292,11.766-1.945,7.437-3.076,15.08-5.743,22.339-1.344,3.657-1.093,7.371.448,10.943.576,1.334.98,2.703.681,4.084-1.868,8.618-.627,17.608-2.37,26.08-3.141,15.27-2.536,30.882-5.475,46.207-1.446,7.539-3.295,15.398-3.03,23.371.081,2.449-.256,4.754.96,7.091,1.314,2.525.923,5.238-.173,7.816-2.044,4.806-4.608,9.389-4.994,14.816-.169,2.365-1.879,4.234-4.001,5.496-5.433,3.231-7.585,9.055-10.891,13.942-1.135,1.678.26,3.063,1.644,4.082,1.375,1.012,2.808,2.674,4.584,1.008,3.178-2.982,6.304-1.25,9.421-.136,1.129.404,1.991,1.379,1.465,2.779-.552,1.47-1.558,1.417-2.819.776-2.588-1.314-2.303.959-2.564,2.254-1.22,6.054-3.093,7.605-9.284,7.668-1.404.014-3.33-.773-3.867,1.303-.485,1.874.661,3.366,2.042,4.55.799.685,1.704,1.228,2.864,1.062.66-.094,1.457-.34,1.712.625.176.667-.353,1.045-.769,1.452-3.554,3.479-7.702,6.248-11.197,9.857-2.765,2.855-6.875,2.481-10.66,1.904-2.625-.4-4.719.33-5.513,3.051-.527,1.807.011,3.029,2.299,2.546,9.435-1.99,19.17-2.888,27.494-8.608,2.588-1.779,5.825-2.446,9.059-2.262,5.349.305,9.44-1.986,12.903-5.856,2.874-3.21,5.308-6.866,9.07-9.21,1.098-.684,2.181-1.614,3.427-.36,1.1,1.108.268,2.115-.258,3.161-.903,1.796-2.522,3.298-2.574,5.787,2.219-.96,2.802-3.103,4.316-4.323.77-.62,1.446-1.229,2.462-.555.971.644.868,1.51.572,2.476-1.348,4.395-3.424,5.715-8.075,4.908-1.003-.174-1.823-.115-2.649.433-2.545,1.689-4.834,3.679-6.943,5.88-.974,1.017-1.362,2.163-.637,3.5.781,1.44,2.12,1.329,3.382,1.073,1.134-.23,2.191-.894,3.325-1.048,1.625-.221,3.052.237,3.387,2.17.306,1.769-.656,2.701-2.254,2.895-2.627.318-4.844,1.642-7.195,2.656-4.713,2.032-7.223,1.333-9.974-2.871-.656-1.003-1.172-.879-1.935-.278-3.651,2.874-8.666,4.696-8.028,10.807.158,1.514-.854,2.16-2.266,1.719-1.135-.354-2.839-.066-2.07-2.524.955-3.052-.117-3.626-3.487-3.17-9.01,1.218-16.868,6.303-25.78,7.639-8.974,1.345-17.038,5.651-25.855,7.428-1.334.269-2.609,1.264-2.72,2.462-.224,2.423-1.835,2.67-3.556,2.876-9.679,1.16-19.338,1.049-28.974-.512-2.505-.406-2.066-1.747-1.043-3.189,1.056-1.49,2.818-2.036,4.322-2.913.682-.398,1.095-.874.848-1.674-.211-.683-.866-.768-1.425-.773-5.027-.041-10.057-.122-15.082-.027-2.421.045-.936,1.604-.576,2.356,1.811,3.791,1.442,4.626-2.663,5.848-4.752,1.414-9.269,2.257-14.049-.567-3.421-2.021-7.597-2.113-11.622-1.927-1.441.067-3.106.146-3.883,1.268-1.9,2.744-4.591,2.29-7.225,2.31-13.551.102-27.147-.427-40.634.55-7.127.516-14.117.583-21.194.183-7.792-.44-15.421-1.985-23.125-3.014-4.159-.556-8.332-.862-12.151-2.606-6.053-2.765-12.929-3.496-18.43-7.651-1.681-1.27-3.888-1.484-5.984-1.807-4.317-.666-4.959-1.649-4.033-5.821.076-.342.197-.679.23-1.025.153-1.618.621-3.395-.813-4.622-1.517-1.299-3.086-.302-4.583.33-.861.363-1.707.775-2.593,1.066-2.331.765-4.565,1.567-3.812,4.777.67,2.859,1.963,4.974,5.367,4.945.901-.008,2.443-.682,2.623.752.158,1.257-1.22,1.823-2.325,2.286-6.315,2.645-16.258-2.733-17.447-9.434-.404-2.279.307-4.149,2.007-5.665.87-.776,1.919-1.401,2.623-2.3,1.217-1.554,1.893-3.552.518-5.146-1.357-1.573-3.159-.792-4.76.204-4.261,2.651-7.331,6.153-8.169,11.252-.18,1.096-.524,2.031-1.348,2.758-.881.778-1.839,1.682-3.082,1.296-1.406-.437-1.201-1.805-1.248-2.967-.464-11.457,4.831-20.07,15.368-24.744,6.399-2.838,12.848-5.565,19.308-8.263,4.294-1.793,8.661-2.846,13.202-.68,1.778.849,3.446.099,5.005-.735,4.875-2.606,9.839-4.881,15.526-4.948,1.295-.015,2.347-.585,2.333-2.043-.014-1.412-1.233-1.467-2.269-1.686-1.892-.4-3.745-.028-5.557.374-5.466,1.212-10.913,2.513-16.36,3.812-3.32.792-6.569,1.172-10.027.406-4.641-1.028-8.581,1.632-12.708,3.162-1.755.651-3.483,1.52-5.038-.515-1.422-1.861-2.232-3.584-.117-5.501,1.287-1.167,1.616-2.713,1.714-4.433.404-7.072,4.735-11.997,9.482-16.577,1.541-1.486,3.82-1.721,5.927-1.872,5.228-.373,8.349-3.878,11.239-7.601,1.499-1.932.258-3.755-2.682-4.122-4.055-.506-8.133-.84-12.177-1.416-3.207-.457-3.661-1.55-1.637-4.109,7.096-8.97,11.835-19.299,17.099-29.328.497-.947.79-1.919.811-3.009.018-.925.072-1.909.392-2.761,5.132-13.64,10.1-27.382,17.741-39.875,3.647-5.962,8.937-10.559,15.04-13.943,5.111-2.834,6.2-7.927,8.054-12.651.454-1.156-.362-1.934-1.362-2.524-2.241-1.321-4.222-.649-6.229.59-.827.51-1.935,1.649-2.767.611-.952-1.189-.055-2.589,1.001-3.284,2.386-1.572,3.466-4.009,4.812-6.326,2.663-4.584,6.189-8.48,9.968-12.166,7.952-7.756,15.86-15.556,23.838-23.285,2.517-2.438,3.168-5.328,2.588-8.63-.41-2.335-1.786-2.867-3.336-1.187-1.511,1.638-3.389,3.273-3.16,5.93.029.34.011.734-.134,1.03-.864,1.767-.748,4.874-3.381,4.563-2.368-.28-1.299-3.082-1.598-4.787-.387-2.201-.382-4.453.298-6.604.361-1.144.375-1.97-.753-2.639-1.188-.704-2.451-2.236-3.673-1.548-1.318.742-.046,2.387.265,3.476,1.333,4.655.895,9.242.029,13.873-.495,2.645-1.592,3.822-4.322,2.288-.955-.536-2.177-1.506-3.201-.558-.893.827-.48,2.231-.248,3.347.331,1.59.969,3.118,1.27,4.712.307,1.628-.33,3.008-1.765,3.903-1.22.761-2.339,1.357-3.653-.152-1.248-1.433-2.559-.179-3.702.51-1.372.826-2.014,2.143-1.193,3.582,1.748,3.067.144,4.646-2.429,5.651-2.551.997-4.01,2.871-4.507,5.36-1.167,5.848-4.822,10.452-7.286,15.645-2.584,5.448-6.751,9.312-10.533,13.64-.576.659-1.103,1.211-2.064.777-1.47-.664-2.998-.14-4.491-.226-2.228-.128-5.068.161-4.267-3.647.262-1.244-.917-1.183-1.524-1.486-6.687-3.34-13.408-6.612-20.105-9.932-1.082-.537-2.136-.958-3.342-.496-.586.224-1.322.328-1.513-.321-1.63-5.534-3.453-1.064-5.723-.213,12.117,6.606,23.904,12.767,35.847,18.638,4.79,2.355,5.26,1.165,2.297,6.976-12.523,24.563-24.727,49.223-33.305,75.575-5.141,15.793-13.338,30.365-21.173,44.977-7.293,13.601-11.909,28.144-16.419,42.764-1.448,4.695-3.134,9.29-5.079,13.8-1.72,3.987-4.653,5.926-9.022,5.919-20.229-.035-40.459-.01-60.688-.03-1.039,0-2.132-.045-3.107-.358-2.442-.783-3.137-2.795-1.317-4.501,3.378-3.165,4.269-6.631,2.838-11.06-1.104-3.417-.092-6.949.479-10.403.321-1.944.988-3.852.412-5.875-.282-.991-.19-2.156-1.691-2.226-1.558-.073-1.9.997-2.256,2.174-1.116,3.688-2.424,7.325-3.39,11.051-1.626,6.277-4.876,12.183-4.202,19.004.243,2.462-1.758,2.289-3.429,2.254,1.283-12.879,2.568-25.758,3.848-38.637.291-2.928.325-5.844-.795-8.633-.392-.975-.917-2.103-2.032-2.24-1.252-.154-1.633,1.131-2.178,1.994-1.598,2.527-.979,5.793-2.668,8.264-1.115,1.632-1.281,4.856-3.72,4.413-2.396-.436-2.494-3.511-2.626-5.622-.451-7.173,1.501-13.878,4.75-20.203,2.125-4.136,4.311-7.905,9.355-9.735,4.282-1.554,5.445-6.489,6.568-10.56.618-2.241.971-4.443,2.251-6.479,1.682-2.676,2.021-5.682,1.329-8.781-.179-.802-.328-1.674-1.33-1.83-1.022-.159-1.431.641-1.781,1.38-.918,1.933-1.292,3.995-1.272,6.124.015,1.579-.288,3.046-1.48,4.16-.95.888-1.91,1.609-3.422.937-1.368-.607-2.036-1.472-1.999-2.928.166-6.655.073-13.35,2.264-19.76,1.156-3.381,1.237-6.681.942-10.286-.515-6.303.968-12.624,2.713-18.615,8.156-27.999,15.579-56.32,31.699-81.23,1.843-2.849,3.492-5.805,6.255-7.92.548-.419,1.208-.943,1.391-1.548,2.165-7.151,7.491-12.938,8.801-20.448,13.235,7.728,25.763,16.659,39.543,23.496-1.411-1.639-3.112-2.821-4.799-4.023-.949-.676-2.046-1.298-2.316-2.524-.855-3.885-1.912-4.654-5.576-3.911-.948.192-1.509-.513-2.11-1.032-2.24-1.938-4.819-3.251-7.56-4.321-1.181-.461-2.663-.863-3.336-1.783-2.524-3.448-6.382-5.013-9.656-7.396-.786-.572-2.698-.715-1.537-2.415.923-1.352,2.353-1.448,3.735-.635,1.448.851,2.279,2.31,3.318,3.571,2.222,2.698,3.985,2.431,5.345-.73,1.666-3.872,3.407-7.654,6.617-10.614,1.81-1.668,2.382-5.536,1.457-7.509-3.985,4.716-6.63,10.221-9.997,15.247-.57.851-.994,2.789-2.302,2.038-1.365-.784-.185-2.284.316-3.417.236-.533.451-1.098.799-1.554,5.108-6.698,8.129-14.581,12.323-21.799.936-1.61,3.274-3.411.501-5.674-.738-.603.15-1.676.924-2.305,3.171-2.577,4.67-7.78,3.37-11.813-.441-1.369.294-1.67,1.375-1.717.595-.026,1.27.036,1.349-.731.077-.747-.333-1.464-1.012-1.69-1.808-.6-3.439-1.161-4.314,1.619-1.065,3.385-1.651,7.136-4.844,9.492-.25.184-.488.596-.476.892.122,2.955-1.189,5.962-2.63,7.836-3.777,4.913-5.944,10.519-8.716,15.88-1.281,2.477-3.028,4.712-4.554,7.063-.377.581-.654,1.324-1.563,1.036-1.019-.322-1.028-1.239-.924-2.027.087-.658.357-1.375.764-1.894,4.156-5.291,6.257-11.86,10.61-17.021.497-.589.655-1.276.532-1.963-.691-3.852,1.198-7.039,2.592-10.359.54-1.285,1.449-2.548,1.187-3.974-.374-2.037.26-3.39,2.057-4.33.441-.231,1.229-.464.818-1.22-.189-.348-.785-.786-1.085-.715-3.055.723-2.227-1.346-2.087-2.865.096-1.039.552-2.104.396-3.085-.102-.646-.659-1.54-1.579-1.688-.235-.038-.783.358-.761.47.479,2.429-1.999,3.934-2.089,5.852-.176,3.733-2.351,6.783-2.793,10.352-.068.547-.344,1.117-.669,1.573-.515.721-1.295.962-2.175.785-.948-.191-1.625-.952-1.392-1.729,1.214-4.043-.065-8.283,1.237-12.352,1.333-4.165,3.182-8.202,3.631-12.627,0,0-.038.067-.038.067,1.949-2.469,3.276-5.178,3.253-8.41.185-.145.278-.335.279-.57ZM324.678,601.37c-.137-3.523-.673-6.952-2.333-10.132-.644-1.234-1.732-2.692-.816-3.908,1.94-2.575.386-4.254-.995-6.153-1.664-2.29-2.558-4.949-3.479-7.596-.416-1.198-.911-2.395-1.564-3.475-.585-.968-2.043-2.349-2.602-1.469-.787,1.238-3.371,1.418-2.313,4.012,4.282,10.5,10.639,20.328,10.656,32.259.002,1.155.867,2.434,2.186,2.295,1.109-.117.698-1.52.873-2.35.239-1.135.268-2.314.388-3.483ZM413.984,538.467c1.71.302,1.331-2.057,2.906-1.668,2.047.505,2.387.356,2.441-1.668.078-2.906.424-5.679,2.345-8.053-4.822-1.838-5.312-1.698-7.289,2.76-.676,1.523-2.298,1.847-3.286,3.153,1.704,1.492,2.813,3.314,2.882,5.477ZM371.205,559.25c.216,1.044,1.471,1.647,1.381,2.92-.178,2.54,1.82,1.91,3.16,1.864,1.713-.059,3.236-.845,3.58-2.663.189-.998-.636-1.987-1.713-1.155-1.985,1.534-3.2,1.103-4.332-.973-.302-.554-1.24-.499-2.077.006ZM470.57,733.126c-.955-1.152.051-3.703-2.03-4.143-1.32-.279-1.701,1.475-1.372,2.586.443,1.493-.286,3.812,1.962,4.182.916.151,1.467-1.269,1.44-2.626ZM480.744,936.91c-1.724-.365-3.124-.768-4.45-1.498-1.08-.595-2.056-.083-2.466,1.07-.436,1.224.635,1.703,1.425,1.967,1.906.636,3.823.815,5.491-1.538ZM429.411,503.284c.247-1.227.224-2.44-1.307-2.67-1.761-.264-2.062,1.156-2.192,2.428-.101.997-.958,2.46.883,2.761,1.833.3,2.303-1.085,2.615-2.519ZM328.834,544.725c-.121-1.944-2.017-.793-2.947-1.474-1.096-.803-2.245.544-2.286,1.342-.069,1.326,1.158,2.307,2.436,2.433,1.389.136,2.342-.819,2.797-2.301Z"/>
      <path class="f" d="M388.919,335.176c1.837,4.207,8.921,6.719,13.585,4.469,2.413-1.163,6.143-1.51,5.492-5.815-.051-.334.719-1.116,1.147-1.148,4.771-.353,7.208-4.028,10.051-7.049,1.644-1.748,3.055-2.065,4.545-.037,1.509,2.054,3.202,1.979,5.15.701,2.209-1.449,2.041-3.548.819-5.191-1.502-2.022-1.18-2.985,1.008-3.735,1.541-.528,2.339-1.856,3.32-3.011,1.825-2.145,3.726-4.215,6.56-5.065,1.088-.326,1.705-1.144,2.244-2.086,1.955-3.413,5.339-5.109,8.492-7.116,1.403-.894,1.932-.01,2.461.875,4.92,8.229,8.242,16.767,4.902,26.526-.313.912-.605,1.869.051,2.679,2.058,2.544,1.316,5.271.669,8.019-2.43,10.316-6.592,19.696-14.535,27.048-2.681,2.48-5.662,4.487-9.011,5.972-1.915.85-3.083,2.043-.796,3.788.903.689,1.141,1.301.593,2.351-.407.78-.309,1.778.689,2.019,3.357.812,2.915,3.536,2.452,5.64-.936,4.238-.755,7.934,2.103,11.516,1.65,2.07,1.181,4.679-.277,6.916-1.976,3.033-4.065,5.993-5.992,9.055-1.598,2.537-2.133,10.162-.941,12.896.925,2.118.543,4.079-.299,6.087-2.358,5.628-6.217,10.127-10.658,14.174-11.066,10.081-23.022,19.102-34.376,28.84-4.003,3.433-7.784,7.051-10.735,11.487-1.77,2.661-4.254,4.608-7.006,6.252-2.01,1.201-3.925,2.604-1.342,5.132.244.239.15.842.182,1.279.285,3.81,2.298,5.06,5.754,3.256,2.815-1.469,5.633-2.783,8.758-3.437,1.421-.298,2.832-.956,2.412-2.803-.376-1.657-1.89-1.499-3.151-1.493-3.52.021-6.755,1.517-10.55,2.343,1.838-3.341,4.455-4.842,7.584-5.652,3.159-.818,6.378-1.437,9.17-3.312,1.484-.998,2.475-.619,2.413,1.306-.074,2.241.254,4.234,3.15,3.638,2.633-.541,4.386-2.139,4.242-5.132-.071-1.456-.804-2.786-.2-4.399.49-1.313.401-2.641,2.323-1.551.72.409,1.834-.028,1.694-.531-.818-2.965,3.231-4.818,1.685-7.863-.095-.187-.036-.462-.018-.694q.316-4.097-3.795-3.509c-.184-1.325.963-1.746,1.685-2.325,10.863-8.715,22.027-16.978,34.79-22.79,1.228-.559,2.511-1.716,3.84-.449,1.163,1.108.735,2.624.413,3.979-.403,1.697-1.048,3.343-1.368,5.053-.226,1.214-.83,1.574-1.91,1.467-2.607-.259-2.6,1.352-2.172,3.131.243,1.012.648,2.004,1.103,2.945,2.424,5.008,2.324,9.422-2.66,12.953-2,1.418-1.279,2.451.804,2.884,1.184.246,2.447.485,2.476,1.965.023,1.185-.993,1.752-1.987,2.196-3.668,1.639-6.947,4.536-11.446,3.489-.726-.169-1.631.023-1.576.89.192,3.086-2.38,3.408-4.238,4.328-18.539,9.196-37.875,15.865-58.531,18.295-1.273.15-2.561.182-3.843.269,1.299-2.059,2.089-4.413,1.254-6.662-3.212-8.644-4.579-18.102-11.222-25.272-1.864-2.013-3.662-3.537-6.54-3.143,2.022-2.885,5.585-3.211,8.284-4.981,2.664-1.747,2.704-3.335-.045-4.934-3.497-2.032-7.152-1.961-10.789-.452-3.363,1.395-6.385,3.423-9.293,5.579-15.316,11.352-32.352,17.774-51.479,19.052-8.017.535-16.114.479-24.066,1.959-3.342-1.076-6.755-2.06-9.271-4.704-3.096-3.256-4.182-6.662-2.705-11.424,1.546-4.991,2.29-10.47-1.454-15.299-2.708-3.492-3.161-7.952-4.708-11.944,1.387-.154,2.83-.113,4.149-.496,8.83-2.561,17.656-5.143,26.181-8.631,2.711-1.108,5.263-2.498,7.62-4.231,1.637-1.203,2.666-2.773,1.741-4.808-.892-1.961-2.548-2.53-4.664-1.951-1.96.538-3.891.157-5.861-.276-8.783-1.929-15.889-7.156-23.229-11.845-5.412-3.457-10.575-3.492-15.921-.189,1.436-6.499,1.048-13.129,1.402-19.705,5.105.951,9.885.094,14.251-2.718,1.766-1.137,2.242-2.266-.277-3.249-3.511-1.368-7.288-2.253-10.854-2.097-2.188.095-4.542-1.302-6.689.207-2.372,1.668-4.758,3.105-7.496.538-.709-.665-1.453.436-2.243.36-5.333-1.223-7.211-4.16-5.783-9.446,1.991-7.369,5.545-14.058,9.241-20.683,4.258-7.631,8.636-15.216,11.09-23.696q1.449-5.005-3.003-7.377c1.207-.339,2.483-.528,3.605-1.05,1.996-.927,3.493-4.591,2.207-5.923-1.501-1.558-3.448-1.251-4.909.514-1.265,1.527-2.534.192-3.803.056-.719-3.059-1.648-6.089-2.095-9.188-.396-2.747-1.805-4.02-4.36-4.701-4.896-1.305-5.912-3.054-3.689-7.498,1.169-2.338,1.379-4.498.591-16.18-.782-11.59-1.952-23.906-2.132-25.974-.749-8.604-.148-21.12,6.352-37.369,3.818-1.655,7.798-.056,11.7-.596,5.8-.803,11.546.515,17.283,1.137,2.302.25,4.337-.632,6.532-.527,2.928.141,3.936,1.324,2.704,3.913-.809,1.698.181,2.392,1.012,3.242.826.846,1.83.466,2.46-.302,4.227-5.158,9.986-3.419,14.984-2.629,4.343.687,8.432,2.666,12.951,1.014.458-.168,1.417-.043,1.591.261,1.67,2.928,4.824,3.969,7.257,5.912,1.716,1.37,2.08,3.285,1.841,5.383-.328,2.897-.761,5.794-.882,8.701-.125,2.98,1.502,5.057,4.077,6.434.969.518,1.959.88,2.924.053.778-.665,1.096-1.606.76-2.541-1.207-3.36-.376-6.413,1.176-9.42.981-1.903.936-3.953-.1-5.732-2.194-3.765.161-6.714,1.502-9.854.262-.613,8.695-2.38,9.292-2.04,1.004.573.789,1.358.21,2.041-4.256,5.028-5.024,10.881-4.166,17.152.228,1.667-.705,2.84-1.797,3.989-2.464,2.591-3.085,7.17-1.543,10.332.915,1.879,2.043,2.609,3.655.727,1.709-1.997,2.227-.715,2.598.918.679,2.98-1.202,5.743-4.4,6.511-4.231,1.016-5.696,5.702-2.563,8.82,2.475,2.463,5.204,4.71,8.022,6.776,1.958,1.435,4.033,2.534,5.367,4.778,1.198,2.015,3.544,2.364,5.655,1.843,8.347-2.059,14.453,1.842,20.052,7.248.416.402,1.183.906,1.128,1.261-.602,3.898,2.015,7.183,2.013,10.917,0,2.323.727,4.305,1.864,6.275,4.466,7.735,9.385,15.088,16.568,20.637.642.497,1.141,1.178,1.772,1.694,1.467,1.2,1.517,3.85,3.162,4.728.307.164.65.24,1.214.287,3.409.284,13.294-1.133,15.341-1.431ZM400.796,445.687c-1.097.052-2.105,1.749-3.127.584-.787-.898-.053-2.264.292-3.339.719-2.243,1.872-4.303,3.443-6.054,10.062-11.219,16.523-25.251,27.775-35.548.922-.843,1.742-2.242.573-3.386-.987-.965-2.19-.29-3.108.534-2.171,1.949-4.333,3.909-6.472,5.892-.933.865-1.888,1.447-3.086.546-1.103-.83-1.313-1.826-.523-3.04,1.323-2.036,1.245-4.203.35-6.356-.937-2.255-.404-3.914,1.462-5.544,4.494-3.924,7.195-9.303,11.639-13.929-4.259-.655-7.679.386-11.14.466-6.782.157-9.457,2.179-11.432,8.605-1.875,6.101-2.066,12.362-2.033,18.715.071,13.983-7.168,25.473-13.32,37.298-.156.299-.458.528-.712.769-11.01,10.448-21.587,21.42-35.006,28.955-.305.172-.613.344-.895.551-.668.489-1.421,1.038-1.232,1.951.21,1.012,1.224.946,2.005,1.035,2.739.312,4.998-.902,7.089-2.437,6.591-4.837,13.142-9.728,19.727-14.574.673-.495,1.205-1.52,2.332-.948.218,1.058-.635,1.471-1.138,2.045-5.547,6.324-11.136,12.61-16.653,18.96-1.216,1.4-2.306,2.942-3.237,4.545-.62,1.067-1.185,2.644.145,3.411,1.109.639,1.772-.811,2.343-1.616,5.914-8.33,13.749-14.946,20.268-22.738.949-1.135,2.213-2.193,3.553-2.78,5.432-2.382,8.374-6.869,10.643-12,.097-.249.194-.498.291-.747-.272.057-.544.115-.817.172ZM286.592,313.736c-2.212,1.243-4.2.503-6.189.016-3.485-.853-6.867-1.356-9.958,1.25-1.255,1.058-2.911.752-4.387.478-5.013-.932-6.985.907-5.973,5.932.465,2.309,1.122,4.586.422,6.894-.964,3.175.938,3.17,2.955,2.643,2.002-.523,3.903-1.434,5.842-2.192,2.352-.921,4.367-1.091,4.523,2.049,4.04-2.959,8.605-3.134,12.915-3.862,2.73-.461,5.596-.05,8.389-.224,6.518-.406,11.741-3.387,16.089-8.373-6.837.041-12.859-2.098-18.84-4.946-5.919-2.82-12.37-4.169-18.971-4.387-1.77-.058-3.727-.371-5.411,1.473,6.553.376,12.96-.147,18.595,3.248ZM273.656,285.256c-2.193-.094-4.143.635-5.992,1.699-4.582,2.638-9.398,4.627-14.633,5.588-4.07.747-7.24,3.061-9.977,6.086-1.57,1.735-2.341,3.571-.942,5.672,1.453,2.183,3.588,1.834,5.648,1.089,2.674-.967,4.723-2.975,7.092-4.451,9.695-6.042,19.583-9.729,31.425-5.914,10.172,3.278,20.486,6.4,31.175,7.793,1.206.157,2.795.844,3.361-.811.599-1.752-1.103-2.1-2.238-2.5-10.773-3.799-21.543-7.61-32.362-11.274-4.076-1.38-8.26-2.469-12.557-2.977ZM421.028,355.762c1.886-.062,3.477-1.776,4.98-3.601,3.457-4.196,7.341-7.167,13.286-7.234,4.502-.05,7.27-3.381,8.818-7.476,1.37-3.622.016-6.621-2.49-9.239-.954-.997-1.952-2.349-3.515-1.085-1.607,1.299-1.053,2.668.281,3.823,2.226,1.926,1.232,3.416-.61,4.78-1.769,1.311-3.445.89-5.176-.225-4.503-2.901-9.835-3.563-14.782-5.254-2.379-.813-3.831.303-3.441,3.096.343,2.447.676,5.106,2.086,6.979,2.602,3.455.849,5.718-1.305,8.138-.543.61-1.307,1.085-1.671,1.779-.583,1.11-2.831,1.55-1.712,3.299.98,1.531,2.624,2.273,5.251,2.221ZM259.567,378.842c-.521-3.952-.651-8.055-3.568-11.366-2.157-2.447-4.589-2.779-7.77-1.027-2.861,1.576-2.142,3.588-1.109,5.904,1.087,2.438,1.948,4.982,2.816,7.511,1.105,3.219,1.067,6.387-.627,9.45-.531.96-1.9,1.935-.991,3.056.914,1.129,2.477,1.066,3.903.742,2.046-.465,3.559-1.553,4.545-3.461,1.745-3.377,2.467-6.993,2.801-10.81Z"/>
      <path class="e" d="M143.697,688.197c-.449,4.425-2.298,8.461-3.631,12.627-1.302,4.069-.023,8.309-1.237,12.352-.233.777.444,1.539,1.392,1.729.881.177,1.66-.064,2.175-.785.325-.455.601-1.026.669-1.573.442-3.569,2.617-6.619,2.793-10.352.09-1.917,2.568-3.422,2.089-5.852-.022-.112.527-.507.761-.47.919.148,1.476,1.042,1.579,1.688.156.982-.3,2.047-.396,3.085-.14,1.519-.968,3.588,2.087,2.865.301-.071.896.367,1.085.715.411.757-.377.989-.818,1.22-1.796.94-2.431,2.293-2.057,4.33.262,1.426-.648,2.689-1.187,3.974-1.394,3.32-3.283,6.507-2.592,10.359.123.687-.035,1.374-.532,1.963-4.353,5.161-6.454,11.73-10.61,17.021-.408.519-.677,1.236-.764,1.894-.104.788-.095,1.705.924,2.027.909.288,1.186-.455,1.563-1.036,1.526-2.351,3.273-4.587,4.554-7.063,2.772-5.36,4.939-10.967,8.716-15.88,1.441-1.874,2.752-4.881,2.63-7.836-.012-.296.226-.708.476-.892,3.194-2.356,3.779-6.107,4.844-9.492.874-2.78,2.506-2.219,4.314-1.619.679.225,1.089.943,1.012,1.69-.079.767-.754.706-1.349.731-1.081.047-1.816.348-1.375,1.717,1.299,4.033-.199,9.236-3.37,11.813-.774.629-1.662,1.702-.924,2.305,2.773,2.264.435,4.064-.501,5.674-4.194,7.218-7.215,15.101-12.323,21.799-.348.456-.563,1.022-.799,1.554-.501,1.133-1.681,2.633-.316,3.417,1.307.751,1.732-1.187,2.302-2.038,3.367-5.026,6.013-10.531,9.997-15.247.925,1.973.352,5.841-1.457,7.509-3.21,2.96-4.951,6.742-6.617,10.614-1.36,3.161-3.123,3.428-5.345.73-1.039-1.261-1.87-2.72-3.318-3.571-1.382-.813-2.812-.717-3.735.635-1.16,1.7.751,1.843,1.537,2.415,3.275,2.383,7.132,3.948,9.656,7.396.674.92,2.156,1.323,3.336,1.783,2.741,1.069,5.32,2.383,7.56,4.321.601.52,1.162,1.225,2.11,1.032,3.664-.743,4.721.026,5.576,3.911.27,1.226,1.366,1.848,2.316,2.524,1.687,1.202,3.388,2.384,4.799,4.023-13.779-6.837-26.307-15.768-39.543-23.496-.778-.497-1.501-1.138-2.345-1.462-2.353-.904-2.97-2.518-2.79-4.961.685-9.267,3.156-18.16,5.49-27.075,2.692-10.28,5.844-20.427,9.367-30.456.538-1.531.879-3.174,2.222-4.292ZM139.196,725.714c-.251.661-.471,1.455-.84,2.174-2.207,4.303-4.442,8.592-6.683,12.878-.363.694-1.153,1.438-.09,2.047.595.341,1.351.12,1.815-.588,1.348-2.056,2.578-4.212,4.112-6.12,2.774-3.451,2.293-8.261,5.085-11.677.837-1.025,1.975-1.995.023-3.303-1.862-1.248-3.497-2.277-5.056.115-.91,1.396-1.885,3.088,1.113,3.324.632.05.622.559.521,1.151ZM133.072,731.066c2.691-.904,3.49-2.133,2.479-4.573-1.347,1.267-1.83,2.635-2.479,4.573Z"/>
      <path class="e" d="M224.295,412.44c5.347-3.304,10.51-3.269,15.922.189,7.34,4.689,14.445,9.916,23.229,11.845,1.97.433,3.9.814,5.861.276,2.117-.58,3.772-.011,4.663,1.951.925,2.035-.103,3.604-1.74,4.808-2.357,1.733-4.909,3.122-7.619,4.231-8.526,3.488-17.352,6.07-26.181,8.63-1.32.383-2.762.341-4.149.496-7.705-2.35-9.553-8.755-4.109-14.667,1.347-1.463,1.451-2.473.034-3.784-1.543-1.427-2.977-2.975-4.548-4.37-4.884-4.335-4.926-4.49-1.362-9.605Z"/>
      <path class="e" d="M252.42,488.238c7.952-1.48,16.048-1.424,24.067-1.959,19.127-1.277,36.163-7.699,51.479-19.051,2.909-2.156,5.931-4.183,9.294-5.579,3.636-1.509,7.291-1.58,10.788.453,2.75,1.599,2.71,3.187.046,4.934-2.698,1.769-6.262,2.095-8.284,4.981-10.252,2.409-19.841,6.727-29.611,10.479-15.241,5.853-30.865,8.796-47.192,7.291-3.545-.327-7.288.522-10.585-1.548Z"/>
      <path class="e" d="M212.389,385.778c.79.075,1.534-1.025,2.243-.36,2.739,2.567,5.124,1.129,7.496-.538,2.148-1.509,4.501-.112,6.689-.208,3.568-.156,7.344.729,10.854,2.097,2.519.982,2.044,2.112.278,3.248-4.368,2.812-9.147,3.669-14.252,2.718-1.633-.776-3.46-.478-5.142-.909-3.52-.902-7.168-1.71-8.167-6.049Z"/>
      <path class="e" d="M221.036,318.173c1.268.136,2.538,1.472,3.803-.055,1.462-1.765,3.407-2.073,4.909-.514,1.284,1.332-.213,4.996-2.208,5.923-1.122.521-2.398.711-3.605,1.049-2.453-.999-4.845-2.123-7.609-2.118-1.309.002-2.68-.585-2.628-2.179.056-1.707,1.571-1.735,2.845-1.834,1.496-.116,2.995-.183,4.493-.271Z"/>
      <path class="e" d="M46.815,963.25c-1.293-.228-2.666-.458-4.035-.716-1.943-.366-2.29-1.755-2.072-3.411.238-1.81,1.529-2.165,3.07-2.02,1.643.154,3.195.663,4.582,1.545,1.166.741,2.617,1.551,2.115,3.212-.525,1.736-2.229,1.281-3.66,1.391Z"/>
      <path class="e" d="M452.362,138.301c1.538.747,3.666.851,4.347,2.927.244.744-.591,1.447-1.284,1.266-1.84-.481-3.393-1.566-4.256-3.292-.328-.657.445-.903,1.193-.901Z"/>
      <path class="e" d="M146.911,679.854c.023,3.232-1.304,5.941-3.253,8.41.344-3.09,1.073-6.031,3.253-8.41Z"/>
      <path class="e" d="M648.139,529.612s-.019-.019-.019-.019c0,0,.019.019.019.019Z"/>
      <path class="f" d="M371.366,264.079c4.117-2.191,8.019-4.954,13.022-4.737,1.568.068,2.865-.61,4.218-1.42,2.656-1.589,5.02-.683,5.865,2,1.037.085,1.335-.835,1.782-1.431,1.415-1.889,2.912-1.801,4.361-.185,1.45,1.617,3.101,2.798,5.232,3.305,3.72.885,7.091,2.385,9.171,5.814.989,1.631,2.904,1.158,4.223,2.163,3.061,2.332,3.185,6.76,6.549,8.794-2.025,4.09.691,6.967,2.518,10.108.476.819.035,1.631-.919,1.914-2.436.722-1.704,2.34-.693,3.452,1.681,1.848.791,3.122-.813,3.765-4.022,1.611-6.253,5.481-10.013,7.465-2.548,1.344-4.291,3.654-5.372,6.617-1.281,3.512-4.902,5.528-6.689,8.858-.512.955-1.602.472-2.519.072-3.989-1.743-4.969-1.279-5.773,2.72-.384,1.911-.785,3.501-3.377,2.437-1.454-.597-2.098.311-2.225,1.729-.064.716.521,1.745-.742,1.996-1.133.225-2.128-.228-2.837-1.037-1.206-1.376-1.779-3.831-4.035-.559-1.156,1.677-5.799-.843-6.434-3.497-.517-2.162-.816-3.533-3.836-2.76-2.333.597-3.41-2.034-4.207-3.964-.868-2.102-1.574-3.745-3.921-1.253-.77.818-2.141.929-2.6-.404-1.345-3.901-4.835-7.403-1.904-12.134,1.3-2.098-.58-2.907-2.357-2.995-2.57-.128-3.069-1.279-2.628-3.68,1.261-6.873,1.895-13.872,5.406-20.174.558-1.001,1.338-4.029-.235-3.672-2.349.533-5.383-4.18-6.96.789-.219.689-.494,1.353-1.349,1.389-2.432.104-3.409,1.845-4.06,3.771-.885,2.617-2.214,2.81-4.414,1.36-3.058-2.015-6.699-2.649-10.112-3.813-3.528-1.203-6.449-3.259-8.752-6.176-1.852-2.345-3.152-4.717-2.263-8.018.525-1.947.171-4.189-.052-6.269-.578-5.387,1.052-9.946,4.987-13.599,1.559-1.448,2.496-2.741,2.024-5.101-.671-3.353,1.619-5.125,4.371-6.325,2.403-1.048,4.356-2.345,3.882-5.446-.063-.411.182-1.249.318-1.257,3.883-.21,2.656-3.607,3.491-5.645.82-2.002,1.789-3.849,3.665-4.978,1.121-.675,1.749-1.301,1.463-2.755-.365-1.852.758-2.445,2.471-2.448,3.213-.004,6.2.986,9.191,1.959,2.718.884,5.46,1.387,8.234.422,3.699-1.286,5.799,1.663,7.647,3.568,1.541,1.589,1.492,4.424-1.158,6.36-1.688,1.233-.241,2.098,1.118,2.584,3.013,1.079,5.53,2.627,5.674,6.298.066,1.676-.027,3.265-1.681,4.303-1.554.975-2.581-.074-3.799-.764-3.748-2.125-7.299-4.646-11.481-5.926-.936-.287-2.289-1.187-2.765.051-.649,1.689-.964,3.646-.842,5.449.102,1.508,1.464.407,2.253.363.968-.055,1.686.268,1.774,1.231.105,1.145-.263,2.491,1.171,2.994,2.465.865,4.963,2.13,7.478,2.209,2.127.066,4.144-.829,5.277,1.785,1.073,2.475,1.605,4.979-.271,7.273-1.77,2.165-3.989,2.034-6.349.332-1.498,5.22,3.393,9.453,1.171,14.252-.12.194-.239.388-.359.582.261-.036.521-.072.782-.108ZM384.149,293.1c-2.563-.014-8.467,3.944-9.47,6.387-.582,1.418.149,2.238,1.419,2.661,2.669.889,4.093,2.93,5.157,5.36.892,2.036,1.905,4.01,3.558,5.562,1.727,1.622,3.772,1.751,5.879,1.052,2.045-.678,2.77-2.274,2.811-4.362.03-1.505.318-3.004.481-4.506.753-6.953-3.428-12.118-9.836-12.153ZM348.97,250.828c1.503-.663-.205-3.353,2.288-2.867,2.78.541,2.375-.885,1.58-2.479-.784-1.572-1.741-2.687-3.776-3.167-4.496-1.062-4.602-1.691-2.871-6.169.864-2.236-.221-4.067-1.496-5.794-.505-.683-1.142-1.307-2.054-.882-2.143.998-1.821,3.015-1.878,4.856-.015.466-.074.938-.024,1.398.381,3.5-1.152,7.741,4.068,9.308,1.014.304,1.654,2.146,2.275,3.375.482.953.875,1.896,1.89,2.422ZM385.455,280.226c-1.205-.015-1.961.306-2.327,1.109-.614,1.347.147,2.498.804,3.558.603.972,1.538,1.101,2.728.896,2.807-.483,4.229-3.074,6.652-4.11.703-.301,2.605.639,1.841-1.397-.48-1.279-1.827-1.692-2.902-1.005-2.283,1.458-4.399,3.154-6.796.948ZM358.501,248.315c1.408-1.555,3.83-1.829,5.398-3.325,1.029-.982.06-1.955-1.049-2.309-1.004-.32-2.195-.459-2.904.524-.995,1.38-1.856,2.868-2.629,4.384-.172.336.459.708,1.184.726ZM393.95,260.931c-1.629,1.231-4.181,1.767-3.81,4.549.108.814.878,1.053,1.604.897,3.181-.683,1.723-3.452,2.206-5.446ZM378.765,277.942c-1.33-1.505-2.429-2.402-4.038-1.462-.458.268-.563,1.033-.141,1.547,1.367,1.662,2.53.208,4.179-.085Z"/>
      <path class="f" d="M222.373,115.076c-1.08-1.99-.804-3.353.435-4.789,2.82-3.271,5.476-6.683,8.238-10.005,1.807-2.173,3.46-4.488,4.356-7.144,1.619-4.799,5.377-7.826,8.725-11.213,1.054-1.067,2.573-1.525,3.083.132.647,2.104,1.374,1.374,2.609.76,1.662-.825,3.435-1.436,5.183-2.075,1.005-.368,2.373-.687,2.826.448,1.492,3.733,2.866,1.366,4.25.042,3.854-3.686,7.543-7.597,13.491-9.331-1.375,3.488-3.578,5.835-5.359,8.421-8.028,11.651-16.586,22.886-26.37,33.138-.742.778-1.425,2.42-2.607,1.822-1.306-.661-.585-2.296-.453-3.537.025-.231.149-.459.139-.685-.068-1.512,1.713-3.596-.208-4.388-1.831-.755-2.899,1.569-3.863,2.871-1.158,1.564-1.758,3.528-2.792,5.2-.754,1.219-1.882,2.152-3.525,1.636-1.85-.581-1.399-1.832-.831-3.086.383-.845-.06-1.339-.75-1.657-1.24-.571-2.567-.713-3.637.213-1.042.901-1.878,2.041-2.939,3.227ZM247.778,84.188c-1.664-.01-2.569.568-2.977,1.753-.148.43.159.926.745.898,1.47-.072,1.752-1.238,2.232-2.651Z"/>
      <path class="f" d="M276.805,87.982c-.213.415-.411.84-.642,1.245-6.073,10.64-14.883,19.151-22.362,28.697-.634.81-1.309,2.507-2.629,1.476-1.015-.793-.178-2.155.408-3.187,4.791-8.442,10.352-16.367,16.208-24.092,2.052-2.707,3.852-5.562,5.431-8.568.608-1.158.9-2.912,2.918-2.069,1.886.788,2.645,2.161,2.042,4.204-.245.83-1.238,1.469-.394,3.083,2.729-3.898,5.756-7.198,8.81-10.472.716-.768,1.362-1.611,2.142-2.306.551-.491,1.158-1.394,2.062-.623.761.649.593,1.525.042,2.204-.751.925-1.161,1.985-.291,2.833,2.321,2.263,1.109,4.235.065,6.602-2.399,5.435-4.367,11.059-6.647,16.549-1.025,2.467-2.326,4.827-3.609,7.176-.523.958-.942,2.373-2.479,2.015-1.406-.328-.573-1.857-1.406-2.974-2.243,2.546-3.555,5.436-4.379,8.575-.453,1.727-1.008,3.412-2.429,4.555-3.719,2.991-6.298,6.855-8.651,10.918-.466.805-1.002,1.585-1.61,2.287-1.125,1.298-2.626,1.799-4.037.749-1.661-1.235-.861-2.721.226-3.921,2.039-2.249,4.159-4.424,6.245-6.631.795-.841,1.948-1.628,1.62-2.928-.921-3.651,1.174-6.269,2.881-9.027,1.621-2.62,3.158-5.147,1.75-8.477-.845-1.999.711-2.391,2.275-2.354,2.792.066,5.4.507,3.366-4-.871-1.929,1.049-4.398,1.94-6.536.612-1.468,1.382-2.869,2.081-4.3-.315-.235-.631-.47-.946-.705ZM277.347,108.228c-.335.514-1.25,1.104-.592,1.623.802.632.865-.591,1.291-.956.061-.382.308-.956.15-1.109-.482-.463-.564.264-.848.442ZM278.89,106.705c-.067-.038-.133-.076-.2-.114-.006.139-.013.278-.019.417.07-.032.161-.047.203-.1.035-.044.013-.134.016-.203Z"/>
      <path class="f" d="M304.305,95.244c1.151-.834,1.111-2.198,1.472-3.372,1.244-4.047,2.837-7.912,5.629-11.173,1.18-1.378,1.962-2.855,1.729-4.769-.142-1.166-.097-2.385,1.181-3.022.651-.324,1.108.032,1.386.624.558,1.19,2.119,2.35.767,3.735-4.083,4.182-1.726,9.621-2.945,14.352-.236.916.553,1.762,1.17,2.457.583.657,1.2,1.719,2.269.876,1.122-.884.269-1.506-.444-2.207-2.087-2.051-1.897-4.812-1.451-7.228.612-3.316,3.557-4.113,6.196-2.009,2.19,1.746,4.292,3.603,6.502,5.322,2.328,1.811,2.904,3.948,2.045,6.798-.763,2.532-2.283,4.877-1.982,7.728.105.991-.941,1.233-1.775,1.278-1.054.057-1.648-.718-1.38-1.557.868-2.716-1.89-3.194-2.894-4.667-.852-1.25-2.759-1.132-3.133.793-.546,2.809-1.755,2.771-3.899,1.607-3.206-1.74-4.625-1.207-5.702,2.293-1.995,6.483-5.633,12.004-9.663,17.325-.49.646-1.041,1.269-1.661,1.787-.539.451-1.267.734-1.95.353-.786-.439-.513-1.194-.331-1.862.744-2.735,1.736-5.257,4.249-6.989,3.155-2.174,4.681-5.366,5.275-9.123.338-2.142-.369-2.407-2.021-1.458-.677-1.346,1.031-2.501.039-3.736,0,0-.106.075-.106.075,1.039-.096.601-.979.808-1.518l-.071.141c.822-.836,1.173-1.788.727-2.938l-.035.086ZM325.599,98.481c1.44-2.684,1.905-4.631.801-7.052-1.404,2.221-1.196,4.251-.801,7.052Z"/>
      <path class="f" d="M257.768,138.903c.474,1.603-.639,2.165-1.219,2.951-2.354,3.189-3.649,6.654-3.397,10.708.25,4.03-.363,4.531-4.267,4.224-.115-.009-.227-.061-.341-.069-7.47-.484-7.844-.946-7.146-8.514.202-2.188,1.083-3.558,3.519-3.233,3.046.407,5.503.074,7.227-3.14,1.001-1.866,3.618-2.08,5.624-2.927Z"/>
      <path class="f" d="M215.718,108.992c4.302-4.711,5.181-11.184,8.84-15.745,3.553-4.43,8.808-7.474,12.879-11.524,1.186.726.628,1.546.335,1.944-3.4,4.611-5.569,10.103-9.815,14.086-2.603,2.441-4.78,4.971-5.646,8.598-.841,3.52-4.475,1.013-6.592,2.641Z"/>
      <path class="f" d="M295.893,95.255c3.519-3.801,6.15-8.272,9.406-12.661,1.13,1.71.456,3.179.127,4.658-.585,2.632-1.838,5.176-1.121,7.992,0,0,.035-.086.035-.086-1.089.77-1.5,1.708-.727,2.938,0,0,.071-.141.071-.141-1.018.107-.812.866-.808,1.518,0,0,.106-.075.106-.075-3.503-.349-6.026.898-7.328,4.334-.335.884-1.086,1.694-2.161,1.091-1.035-.58-.626-1.606-.348-2.483.616-1.947,2.236-3.522,2.133-5.738l-.098.06c.836-.205.975-.76.75-1.497l-.037.09Z"/>
      <path class="f" d="M295.278,96.602c-1.993.003-1.49,2.735-3.611,3.062,1.149-7.467,1.73-14.947,8.189-19.932.32.123.64.246.96.368-1.45,3.99-2.921,7.973-4.336,11.976-.358,1.014-1.407,1.935-.589,3.178,0,0,.037-.09.037-.09-.937.155-1.348.573-.75,1.497l.098-.06Z"/>
      <path class="f" d="M424.922,306.521c-.777,2.021-.521,4.19-.008,6.379.248,1.057.106,2.127-.683,2.938-.377.387-.944.788-1.443.813-.775.039-.629-.822-.762-1.302-.853-3.074-.741-6.218-.501-9.351.109-1.43,1.029-1.986,2.436-1.748,1.358.23,1.205,1.158.961,2.271Z"/>
      <path class="f" d="M278.381,120.482c-.243-1.899.837-2.732,1.653-3.635,2.008-2.222,4.56-3.955,5.961-6.724.36-.711,1.038-1.055,1.719-.607.67.441.694,1.303.186,1.843-2.943,3.133-4.642,7.575-9.52,9.123Z"/>
      <path class="f" d="M358.537,97.379c1.126.146,1.374.898.995,1.972-.618,1.752-1.234,3.506-1.907,5.237-.387.996-.926,2.097-2.221,1.728-.952-.271-1.248-1.306-1.346-2.267-.177-1.74,3.046-6.674,4.479-6.669Z"/>
      <path class="f" d="M219.061,113.711c.496,2.173,1.155,3.762-.778,4.683-.798.38-2.114.253-2.242-.859-.231-2.002,1.752-2.282,3.02-3.824Z"/>
      <path class="f" d="M265.614,109.824c-.528,1.145-.634,2.754-2.417,2.958-.694.079-1.101-.442-1.04-1.089.142-1.508.815-2.705,2.419-3.02.674-.132,1.037.363,1.038,1.151Z"/>
      <path class="f" d="M388.992,335.197c.325-.359.649-.719.974-1.078l-.108.082c-.918-.259-.913.37-.937.975-.002.002.071.022.071.022Z"/>
      <path class="f" d="M389.966,334.118c-.029.055-.058.111-.087.166.046-.018.092-.035.138-.053-.055-.002-.11-.005-.162-.019.003-.012.111-.094.111-.094Z"/>
      <path class="e" d="M324.677,601.374c-.119,1.164-.149,2.344-.387,3.479-.175.831.236,2.233-.873,2.35-1.319.139-2.184-1.14-2.186-2.295-.017-11.931-6.374-21.759-10.656-32.259-1.058-2.594,1.526-2.774,2.313-4.012.56-.88,2.018.501,2.602,1.469.653,1.08,1.147,2.278,1.564,3.475.92,2.647,1.814,5.306,3.479,7.596,1.381,1.9,2.934,3.579.995,6.153-.916,1.216.172,2.674.816,3.908,1.66,3.179,2.196,6.609,2.333,10.136Z"/>
      <path class="e" d="M413.984,538.467c-.069-2.163-1.178-3.985-2.882-5.477.988-1.306,2.61-1.63,3.286-3.153,1.978-4.457,2.467-4.597,7.289-2.76-1.921,2.374-2.267,5.147-2.345,8.053-.054,2.024-.394,2.173-2.441,1.668-1.575-.389-1.196,1.97-2.906,1.668Z"/>
      <path class="e" d="M371.205,559.25c.837-.505,1.775-.56,2.077-.006,1.132,2.076,2.346,2.507,4.332.973,1.077-.832,1.902.157,1.713,1.155-.344,1.817-1.868,2.604-3.58,2.663-1.339.046-3.338.675-3.16-1.864.089-1.273-1.165-1.875-1.381-2.92Z"/>
      <path class="e" d="M470.57,733.126c.027,1.356-.524,2.777-1.44,2.626-2.248-.371-1.52-2.69-1.962-4.182-.329-1.111.052-2.865,1.372-2.586,2.082.44,1.076,2.991,2.03,4.143Z"/>
      <path class="e" d="M480.744,936.91c-1.669,2.353-3.585,2.173-5.491,1.538-.79-.264-1.861-.743-1.425-1.967.411-1.153,1.386-1.665,2.466-1.07,1.326.73,2.726,1.133,4.45,1.498Z"/>
      <path class="e" d="M429.409,503.286c-.309,1.431-.779,2.816-2.612,2.516-1.841-.301-.985-1.764-.883-2.761.129-1.272.431-2.692,2.192-2.428,1.531.23,1.553,1.444,1.304,2.673Z"/>
      <path class="e" d="M328.834,544.725c-.455,1.482-1.408,2.438-2.797,2.301-1.278-.125-2.505-1.107-2.436-2.433.041-.798,1.191-2.145,2.286-1.342.929.681,2.826-.471,2.947,1.474Z"/>
      <path class="e" d="M401.322,446.262c-2.27,5.131-5.211,9.618-10.643,12-1.34.588-2.604,1.646-3.553,2.78-6.518,7.792-14.353,14.408-20.268,22.738-.571.805-1.234,2.256-2.343,1.616-1.33-.767-.765-2.344-.145-3.411.931-1.603,2.021-3.145,3.237-4.545,5.517-6.35,11.106-12.637,16.653-18.96.503-.574,1.356-.987,1.138-2.045-1.127-.573-1.659.452-2.332.948-6.584,4.846-13.135,9.737-19.727,14.574-2.092,1.535-4.35,2.749-7.089,2.437-.781-.089-1.795-.023-2.005-1.035-.189-.913.564-1.463,1.232-1.951.282-.206.59-.379.895-.551,13.419-7.535,23.996-18.506,35.006-28.955.254-.241.556-.47.712-.769,6.152-11.825,13.391-23.315,13.32-37.298-.032-6.353.158-12.613,2.033-18.715,1.975-6.426,4.65-8.447,11.432-8.605,3.461-.08,6.881-1.122,11.14-.466-4.444,4.626-7.145,10.005-11.639,13.929-1.867,1.63-2.399,3.289-1.462,5.544.894,2.153.973,4.32-.35,6.356-.79,1.215-.58,2.211.523,3.04,1.197.901,2.153.318,3.086-.546,2.14-1.983,4.302-3.943,6.472-5.892.918-.824,2.121-1.5,3.108-.534,1.169,1.144.348,2.543-.573,3.386-11.252,10.296-17.714,24.328-27.775,35.548-1.57,1.751-2.724,3.812-3.443,6.054-.344,1.074-1.079,2.441-.292,3.339,1.022,1.165,2.03-.532,3.127-.584.175.192.351.384.526.575Z"/>
      <path class="e" d="M286.592,313.736c-5.636-3.396-12.043-2.873-18.595-3.248,1.684-1.845,3.641-1.532,5.411-1.473,6.601.217,13.052,1.567,18.971,4.387,5.98,2.849,12.002,4.987,18.84,4.946-4.348,4.986-9.572,7.966-16.089,8.373-2.793.174-5.659-.237-8.389.224-4.31.727-8.874.903-12.915,3.862-.156-3.141-2.171-2.97-4.523-2.049-1.938.759-3.84,1.669-5.842,2.192-2.017.527-3.919.532-2.955-2.643.701-2.308.043-4.585-.422-6.894-1.012-5.025.96-6.864,5.973-5.932,1.477.274,3.132.58,4.387-.478,3.091-2.606,6.474-2.104,9.958-1.25,1.989.487,3.977,1.227,6.189-.016ZM272.83,326.746c.72-.16,1.904.531,2.115-.949.094-.655-4.005-6.643-4.531-6.662-1.518-.055-2.431.737-2.709,2.175-.403,2.084,2.443,5.107,5.125,5.436Z"/>
      <path class="e" d="M273.656,285.256c4.297.508,8.481,1.596,12.557,2.977,10.819,3.664,21.589,7.475,32.362,11.274,1.135.4,2.837.748,2.238,2.5-.566,1.655-2.155.968-3.361.811-10.689-1.393-21.002-4.515-31.175-7.793-11.842-3.816-21.73-.128-31.425,5.914-2.37,1.477-4.418,3.484-7.092,4.451-2.06.745-4.195,1.094-5.648-1.089-1.398-2.1-.628-3.937.942-5.672,2.738-3.025,5.907-5.339,9.977-6.086,5.236-.961,10.051-2.949,14.633-5.588,1.849-1.064,3.799-1.793,5.992-1.699Z"/>
      <path class="e" d="M421.028,355.762c-2.627.052-4.271-.689-5.251-2.221-1.119-1.749,1.129-2.189,1.712-3.299.364-.694,1.128-1.169,1.671-1.779,2.154-2.42,3.907-4.683,1.305-8.138-1.41-1.873-1.743-4.531-2.086-6.979-.391-2.792,1.062-3.909,3.441-3.096,4.947,1.692,10.279,2.354,14.782,5.254,1.731,1.115,3.407,1.536,5.176.225,1.841-1.364,2.835-2.854.61-4.78-1.334-1.154-1.887-2.523-.281-3.823,1.564-1.265,2.561.088,3.515,1.085,2.506,2.618,3.86,5.616,2.49,9.239-1.548,4.095-4.316,7.426-8.818,7.476-5.945.067-9.829,3.038-13.286,7.234-1.503,1.825-3.095,3.539-4.98,3.601Z"/>
      <path class="e" d="M259.567,378.842c-.334,3.817-1.056,7.433-2.801,10.81-.986,1.908-2.499,2.996-4.545,3.461-1.426.324-2.989.387-3.903-.742-.908-1.121.461-2.096.991-3.056,1.694-3.063,1.731-6.232.627-9.45-.868-2.529-1.729-5.073-2.816-7.511-1.033-2.317-1.753-4.328,1.109-5.904,3.181-1.752,5.613-1.42,7.77,1.027,2.917,3.31,3.048,7.414,3.568,11.366Z"/>
      <path class="e" d="M400.796,445.687c.272-.057.544-.115.817-.172-.097.249-.194.498-.291.747-.175-.192-.351-.384-.526-.575Z"/>
      <path class="f" d="M139.196,725.714c.101-.591.111-1.101-.521-1.151-2.998-.236-2.023-1.928-1.113-3.324,1.559-2.392,3.195-1.363,5.056-.115,1.952,1.309.814,2.279-.023,3.303-2.792,3.417-2.311,8.226-5.085,11.677-1.534,1.909-2.764,4.064-4.112,6.12-.464.707-1.22.929-1.815.588-1.063-.61-.273-1.353.09-2.047,2.24-4.286,4.476-8.574,6.683-12.878.369-.719.589-1.514.84-2.174Z"/>
      <path class="f" d="M133.072,731.066c.649-1.938,1.132-3.305,2.479-4.573,1.011,2.439.212,3.668-2.479,4.573Z"/>
      <path class="e" d="M384.149,293.1c6.408.036,10.589,5.2,9.836,12.153-.163,1.503-.451,3.002-.481,4.506-.041,2.088-.767,3.684-2.811,4.362-2.107.699-4.152.57-5.879-1.052-1.653-1.552-2.666-3.526-3.558-5.562-1.065-2.429-2.488-4.47-5.157-5.36-1.27-.423-2-1.243-1.419-2.661,1.003-2.443,6.907-6.401,9.47-6.387Z"/>
      <path class="e" d="M348.97,250.828c-1.015-.525-1.409-1.468-1.89-2.422-.621-1.229-1.261-3.071-2.275-3.375-5.22-1.567-3.687-5.808-4.068-9.308-.05-.46.01-.932.024-1.398.058-1.841-.265-3.858,1.878-4.856.912-.425,1.55.199,2.054.882,1.276,1.727,2.361,3.557,1.496,5.794-1.73,4.478-1.625,5.107,2.871,6.169,2.035.481,2.992,1.596,3.776,3.167.795,1.594,1.2,3.02-1.58,2.479-2.493-.485-.785,2.205-2.288,2.867Z"/>
      <path class="e" d="M385.455,280.226c2.397,2.206,4.513.51,6.796-.948,1.074-.686,2.421-.273,2.902,1.005.764,2.036-1.137,1.096-1.841,1.397-2.423,1.036-3.845,3.627-6.652,4.11-1.19.205-2.125.076-2.728-.896-.657-1.06-1.418-2.211-.804-3.558.366-.804,1.122-1.125,2.327-1.109Z"/>
      <path class="e" d="M358.501,248.315c-.725-.017-1.356-.389-1.184-.726.774-1.516,1.635-3.005,2.629-4.384.708-.983,1.9-.844,2.904-.524,1.109.353,2.078,1.327,1.049,2.309-1.568,1.496-3.99,1.77-5.398,3.325Z"/>
      <path class="e" d="M393.95,260.931c-.483,1.994.974,4.763-2.206,5.446-.726.156-1.496-.083-1.604-.897-.371-2.781,2.181-3.317,3.81-4.549Z"/>
      <path class="e" d="M378.765,277.942c-1.649.293-2.812,1.747-4.179.085-.422-.514-.318-1.279.141-1.547,1.609-.94,2.708-.043,4.038,1.462Z"/>
      <path class="e" d="M371.366,264.079c-.261.036-.521.072-.782.108.12-.194.239-.388.359-.582.145.154.286.312.422.474Z"/>
      <path class="e" d="M247.778,84.188c-.48,1.414-.762,2.58-2.232,2.651-.586.029-.893-.468-.745-.898.408-1.185,1.313-1.763,2.977-1.753Z"/>
      <path class="e" d="M278.045,108.894c-.425.365-.489,1.588-1.291.956-.658-.519.257-1.109.592-1.623.233.222.466.444.698.667Z"/>
      <path class="e" d="M278.89,106.705c-.003.069.019.159-.016.203-.042.053-.133.068-.203.1.006-.139.013-.278.019-.417.067.038.133.076.2.114Z"/>
      <path class="e" d="M277.347,108.228c.284-.179.367-.905.848-.442.159.152-.088.727-.15,1.109-.233-.222-.466-.444-.698-.667Z"/>
      <path class="e" d="M710.399,646.47c-1.508-.587-3.153-1.294-3.445-3.283-.124-.844.708-1.149,1.456-.999,1.825.366,3.254,1.299,3.551,3.271.138.912-.622,1.111-1.563,1.011Z"/>
      <path class="e" d="M698.453,636.91c3.299-.348,5.219,1.351,6.882,4.314-3.491-.14-5.067-2.429-6.882-4.314Z"/>
      <path class="e" d="M325.599,98.481c-.396-2.8-.604-4.831.801-7.052,1.105,2.42.639,4.368-.801,7.052Z"/>
      <path class="e" d="M303.613,98.096c-.773-1.231-.362-2.168.727-2.938.446,1.15.096,2.102-.727,2.938Z"/>
      <path class="e" d="M302.876,99.473c-.004-.652-.21-1.411.808-1.518-.207.539.231,1.422-.808,1.518Z"/>
      <path class="e" d="M295.18,96.662c-.598-.924-.187-1.342.75-1.497.225.737.086,1.291-.75,1.497Z"/>
      <path class="f" d="M272.83,326.746c-2.682-.329-5.528-3.352-5.125-5.436.278-1.438,1.191-2.23,2.709-2.175.526.019,4.625,6.007,4.531,6.662-.212,1.48-1.395.789-2.115.949Z"/>
      <path class="e" d="M230.841,319.258c.217,2.491.15,5.874-1.067,9.574-.31.94-.661,1.805-1.032,2.593-5.134,10.315-6.506,12.803-6.621,12.748-.143-.069,1.893-3.998,3.426-10.122.244-.973.781-3.116,1.008-4.922,1.076-8.509-3.599-20.348-11.287-24.354-2.283-1.189-4.193-.967-5.139-2.803-1.076-2.085-.184-5.421,1.558-6.073.598-.224,1.897-.418,4.826,2.025,6.071,5.064,11.287,14.875,14.327,21.334Z"/>
    </g>
  </g>
</svg>