<?xml version="1.0" encoding="UTF-8"?>
<svg id="b" data-name="Layer 2" xmlns="http://www.w3.org/2000/svg" width="6.327" height="6.327" viewBox="0 0 6.327 6.327">
  <g id="c" data-name="Layer 1">
    <g>
      <path d="M0,3.035c.106-.319.496-.41.665-.596.126-.14.114-.315.32-.449.476-.309.895.072,1.238.382.07.063.577.551.512.62-.206-.073-.813-.473-1-.425-.125.032-.05.136.019.188.152.114.459.134.628.227.049.027.072-.002.055.095-.196.13-1.1-.175-1.154.065l.064.106h1.09c.02.099-.011.069-.055.096-.128.081-.754.204-.757.353-.003.138.348,0,.406-.021.213-.076.491-.296.641-.342.057-.018.08.006.063.063-.053.18-.905.917-1.101.994-.321.128-.622.056-.823-.224-.062-.086-.062-.188-.147-.281-.168-.186-.559-.277-.665-.596v-.256Z"/>
      <path d="M3.206,0c.176.083.327.186.45.341.086.109.124.262.212.344.122.114.289.099.43.254.447.493-.228,1.211-.601,1.539-.041.036-.333.288-.362.257.121-.343.382-.626.426-1.001-.217-.215-.326.413-.395.584-.017.043-.019.153-.094.117-.178-.086.092-.912-.062-1.092l-.131-.019v1.047c0,.021-.074.094-.107.022-.111-.221-.082-.716-.405-.727-.149.16.457.89.363,1.111-.395-.433-1.206-.988-1.027-1.668.083-.314.354-.28.516-.424.097-.087.194-.332.317-.452.107-.105.22-.157.344-.233h.128Z"/>
      <path d="M3.121,6.327c-.322-.096-.48-.426-.703-.643-.327-.317-.664-.305-.507-.931.067-.268.766-1.08,1.018-1.162.033-.006.026.039.022.064-.023.139-.284.521-.345.724-.028.093-.054.181-.04.28.179.187.372-.678.406-.727.045-.066.107-.002.107.022v.983l.106.064.065-.064v-.812c0-.039-.081-.154-.043-.235l.124.004.263.764c.287.037.11-.305.048-.455-.071-.171-.268-.416-.306-.549-.016-.055.01-.085.063-.063.043.018.513.461.579.533.303.329.727.913.279,1.307-.121.106-.27.112-.388.211-.222.185-.298.626-.705.684h-.043Z"/>
      <path d="M6.327,3.078v.128c-.068.364-.517.472-.686.661-.076.086-.077.205-.133.295-.512.821-1.619-.3-1.918-.806.233.034.794.463.999.402l.07-.103c-.027-.131-.589-.231-.715-.31-.044-.028-.075.002-.055-.096.363-.141.791.182,1.111-.065l-.064-.106h-1.047l.769-.385c-.007-.184-.155-.126-.28-.087-.193.06-.619.355-.767.344-.05-.014-.02-.057-.001-.087.08-.129.738-.743.88-.83.274-.169.599-.234.874-.024.178.135.15.307.258.426.162.178.6.317.703.643Z"/>
    </g>
  </g>
</svg>