<?xml version="1.0" encoding="UTF-8"?>
<svg id="b" data-name="Layer 2" xmlns="http://www.w3.org/2000/svg" width="387.587" height="385.271" xmlns:xlink="http://www.w3.org/1999/xlink" viewBox="0 0 387.587 385.271">
  <defs>
    <style>
      .f {
        fill: #1e1e1e;
      }

      .g {
        filter: url(#d);
      }
    </style>
    <filter id="d" data-name="outer-glow-1" x="-54.06" y="-54.865" width="496" height="495" filterUnits="userSpaceOnUse">
      <feOffset dx="0" dy="0"/>
      <feGaussianBlur result="e" stdDeviation="18"/>
      <feFlood flood-color="#1e1e1e" flood-opacity="1"/>
      <feComposite in2="e" operator="in"/>
      <feComposite in="SourceGraphic"/>
    </filter>
  </defs>
  <g id="c" data-name="Layer 1">
    <g class="g">
      <path class="f" d="M146.83,154.751c4.759,4.727,16.817,15.368,19.899,20.268,1.294,2.057,1.932,3.717,1.606,6.206-17.833-6.009-32.592-19.026-51.093-23.475-5.477-1.317-12.367-3.867-14.588,3.113-.135,4.868,9.495,9.067,13.355,10.638,4.127,1.679,35.612,9.973,35.623,12.336-5.844,6.067-17.533,5.132-25.524,4.684-9.173-.514-42.963-8.928-46.032,3.12-1.078,4.232,5.084,6.973,8.45,7.348,19.812,2.212,41.111-3.463,61.045-2.117-.167,1.516.483,3.737-.229,5.004-1.858,3.307-30.956,11.132-36.816,13.762-4.889,2.195-10.209,4.233-11.675,9.935,3.865,6.972,14.796,2.311,20.825.258,8.384-2.855,21.895-8.84,29.666-13.099,3.892-2.133,9.737-8.143,13.825-9.147,6.517-1.599.542,8.398-1,10.499-8.776,11.954-53.519,51.16-66.944,55.093-18.107,5.305-38.005.302-47.586-16.701-2.754-4.888-3.559-12.05-7.084-15.863-8.298-8.977-23.8-11.474-34.228-25.226-5.175-6.824-9.811-16.764-7.878-25.247.245-1.076,9.207-14.433,10.904-16.399,8.626-9.994,29.604-16.906,33.802-25.652,5.524-11.51,5.397-18.356,18.548-25.261,33.01-17.332,61.812,14.75,83.129,35.921Z"/>
      <path class="f" d="M371.145,165.145c21.641,19.512,22.351,35.991-.441,55.213-6.353,5.358-22.028,12.122-25.608,17.157-2.85,4.008-3.814,10.853-6.945,16.002-31.604,51.974-98.155-19.896-118.695-48.823,2.274-1.336,5.772.448,8.015,1.372,12.845,5.29,42.678,25.018,55.016,23.071,3.793-.598,5.759-2.473,4.57-6.484-2.373-8.002-40.927-15.942-48.831-20.578,2.333-4.024,8.707-5.898,13.049-6.229,13.343-1.017,43.671,9.471,53.75.556,1.295-1.146,2.349-2.763,2.93-4.401.197-2.174-3.362-4.247-5.229-4.866-11.985-3.974-33.007,1.218-46.202,1.437-2.551.042-16.676.048-17.25-2.664l2.386-2.808,44.42-19.736-1.59-7.254c-2.909-2.136-13.424,1.461-17.038,2.715-15.482,5.373-29.727,15.171-44.358,22.379-7.145-.464,9.066-18.374,10.423-19.808,11.018-11.644,44.32-42.06,58.728-45.577,14.154-3.455,35.091-1.33,43.852,11.866,6.273,9.449,3.15,16.803,14.44,24.153,7.887,5.134,12.896,6.353,20.608,13.307Z"/>
      <path class="f" d="M216.966,10.576c9.444,8.579,17.188,28.87,24.704,33.176,10.306,5.903,17.742,3.979,25.725,15.997,20.501,30.86-18.24,70.061-39.585,89.683-2.63,2.418-19.75,17.509-21.375,17.199-.849-.162-2.15-2.09-1.155-3.202,5.149-9.002,10.917-18.041,15.401-27.386,3.09-6.439,14.285-29.54,8.705-35.149-5.681-5.71-12.622,11.412-14.14,15.111-3.516,8.568-6.041,22.564-10.619,30.06-.931,1.524-1.275,2.332-3.34,1.71-3.858-1.162-2.925-18.392-2.746-22.399.53-11.859,7.292-35.3-.96-44.83-7.527-8.692-9.181,9.705-9.464,14.588-.772,13.357,3.011,28.836,2.107,41.752-.21,3-1.124,10.443-4.653,10.995-2.211.346-1.461-.773-2.058-2.114-3.85-8.65-10.744-43.193-19.032-45.677-1.896-.568-4.447-.38-6.419-.068-4.989,3.1,4.403,23.843,6.409,28.231,3.752,8.208,17.117,28.2,18.289,34.971,1.122,6.486-3.603,4.538-7.136,1.857-8.687-6.591-25.664-24.716-33.384-33.37-18.09-20.276-41.589-57.328-14.031-79.8,7.603-6.2,18.478-6.431,23.271-13.236,2.803-3.98,4.465-9.688,7.522-14.139,15.098-21.977,34.996-34.828,57.966-13.961Z"/>
      <path class="f" d="M263.933,330.021c-9.569,9.709-20.836,7.18-29.701,18.801-8.124,10.649-10.8,20.546-22.784,29.369-31.247,23.007-45.625-16.035-63.424-32.177-5.804-5.264-14.04-8.253-19.81-13.568-15.547-14.321-14.727-34.013-6.162-51.998,5.029-10.56,43.587-55.009,53.345-59.304,3.993-1.758,8.2-3.159,6.029,2.9-4.72,13.171-15.896,27.923-20.887,42.74-2.268,6.733-7.78,25.426,6.096,16.526,2.88-1.847,6.133-10.764,7.442-14.461,1.505-4.249,8.38-31.824,10.503-32.296l4.626,3.607-.065,60.563c-.646,3.094,5.96,6.846,7.885,4.664,4.828-5.471,5.251-31.497,4.678-39.132-.746-9.924-4.595-19.583-3.111-29.744,1.406-.004,2.878-.273,4.18.513,6.126,3.697,11.163,37.984,18.715,45.658,2.348,2.386,8.102,1.414,9.251-.444,3.805-6.153-11.649-36.282-15.291-43.287-2.258-4.343-9-13.492-10.143-16.987-.679-2.077-.78-2.835,1.105-4.204,3.063.114,40.403,36.547,44.867,41.687,15.676,18.055,33.377,49.551,12.655,70.575Z"/>
    </g>
  </g>
</svg>