<?xml version="1.0" encoding="UTF-8"?>
<svg id="b" data-name="Layer 2" xmlns="http://www.w3.org/2000/svg" width="135.522" height="89.29" xmlns:xlink="http://www.w3.org/1999/xlink" viewBox="0 0 135.522 89.29">
  <defs>
    <style>
      .g {
        filter: url(#e);
      }

      .h {
        fill: #fff;
      }
    </style>
    <filter id="e" data-name="outer-glow-1" x="-11.523" y="-10.773" width="159" height="112" filterUnits="userSpaceOnUse">
      <feOffset dx="0" dy="0"/>
      <feGaussianBlur result="f" stdDeviation="3.557"/>
      <feFlood flood-color="#000" flood-opacity=".75"/>
      <feComposite in2="f" operator="in"/>
      <feComposite in="SourceGraphic"/>
    </filter>
  </defs>
  <g id="c" data-name="b">
    <g id="d" data-name="c">
      <g>
        <path class="h" d="M97.195,5.448c.823,1.362,1.418,2.829,1.862,4.362,1.858,6.401,3.74,14.775,5.063,21.356.713,3.547,2.678,9.651-.364,12.282-10.351,6.044-20.679,12.172-30.852,18.507-1.594.993-3.353,3.349-5.225,2.653-.872-.324-.572-1.424-.939-1.81-.354-.373-1.692-.245-2.115-1.109.003-1.458.849-2.578.666-4.133-.145-1.225-.926-4.749-2.402-3.87-.635-1.363,1.002-1.563,1.013-1.774.132-2.547-2.321-9.457-2.862-12.576-1.338-7.722-2.966-10.41,3.677-15.469,5.754-4.382,15.023-9.599,21.455-13.444,1.572-.94,7.016-4.501,8.106-4.851.753-.242,2.262-.5,2.916-.123h0ZM92.057,12.54c-3.043.01-7.182,3.213-5.258,6.534,2.338,4.036,9.574,1.022,8.916-2.89-.266-1.579-1.87-3.65-3.658-3.644ZM79.713,19.914c-4.937.805-8.438,8.434-2.113,8.4,5.974-.033,9.563-9.615,2.113-8.4ZM63.512,35.117c2.782,2.576,12.29-2.546,8.588-6.837-4.242-4.917-12.136,3.551-8.588,6.837ZM96.136,28.925c-3.405.056-7.788,4.356-5.35,7.596,2.837,3.769,8.51.532,9.4-3.661.502-2.363-1.883-3.971-4.05-3.935ZM83.187,37.346c-4.316.988-5.317,8.427.372,7.861.57-.057,4.468-2.752,4.792-3.196,2.439-3.346-1.88-5.416-5.165-4.664h0ZM71.714,44.321c-1.477.444-4.016,3.932-3.844,5.615.134,1.308,2.951,3.268,4.232,3.29,2.522.043,5.495-3.73,5.643-6.202-1.489-2.194-3.226-3.546-6.032-2.703h0Z"/>
        <path class="h" d="M7.66,40.598l-.273-1.736c3.057-2.966,5.043-6.926,7.64-10.331.944-1.237,2.516-2.459,3.393-3.566,3.795-4.789,6.876-10.39,12.038-13.94,1.481-.445,12.5,2.472,14.877,3.135,1.446.404,2.715,1.338,4.195,1.788,1.698.517,12.381,2.685,12.349,4.095-2.019,1.668-6.069,4.665-6.737,7.212-.901,3.435,1.106,6.958-.299,9.671-.398.769-7.025,8.167-7.961,8.987-7.224,6.328-16.468,2.87-24.646.304-4.957-1.555-9.766-3.693-14.577-5.62h.001ZM35.824,24.892c-3.697.753-7.032,6.949-4.131,9.884,6.419,6.494,18.914-12.895,4.131-9.884Z"/>
        <path class="h" d="M128.534,63.478c-3.852,4.118-14.232,8.113-19.423,11.239-5.432,3.271-12.383,10.478-19.021,9.345-4.076-.696-13.596-11.762-18.262-13.718-.119-.758,1.601-2.972,2.2-3.528,1.885-1.75,6.619-3.602,8.094-5.127.633-.654.56-1.621.834-1.896.353-.354,2.766-.578,3.714-1.028,7.278-3.452,14.3-9.975,21.978-12.974,2.27-.216,21.186,13.116,21.525,15.192-.278.798-1.072,1.889-1.639,2.495h0ZM107.668,52.316c-8.674.805-6.995,9.9-.044,6.458,2.129-1.054,4.484-4.83,1.799-6.523-.598-.227-1.169.01-1.755.064h0ZM117.496,59.376c-2.421-.093-6.319,4.254-5.518,6.794,1.49,4.723,9.073-1.187,8.772-4.241-.068-1.132-2.279-2.516-3.253-2.553h-.001ZM89.654,63.282c-3.281.087-9.535,6.242-5.522,8.794,3.901,2.48,10.122-3.207,8.418-6.919-.358-.779-1.994-1.899-2.896-1.875ZM96.658,71.229c-2.44.546-5.784,5.583-4.392,7.65,1.82,2.705,5.348,1.008,7.272-.773,3.329-3.082,1.776-7.919-2.88-6.878h0Z"/>
        <path class="h" d="M23.898,50.292l1.088,4.888-3.844-3.128c-1.445-3.981-1.743-1.192-3.141-.113-2.182,1.684-4.852-.517-6.227-2.231-1.107,1.287-3.21,4.169-1.519,5.531.996.802,2.64-.843,3.515.943.857,1.75-.541,3.27-.18,4.621.215.805,1.644,1.502,2.051,2.477,1.19,2.854-.208,4.36,4.352,5.634,3.649,1.019,4.932-5.653,3.255-5.745l-3.238,1.483c-.726-3.168-2.625-6.171-2.497-9.467.681-.812,3.394,3.699,3.844,4.005,4.336,2.945,7.326-1.269,6.024-5.654-.274-.922-1.612-1.184-1.391-2.339,1.315-.294,2.201,1.407,2.977,1.691,2.462.904,5.871,1.268,8.828,2.703,6.249,3.034,5.174,5.868,7.098,11.984-2.258.459-3.679,5.089-5.457,5.816-.643.263-2.961-.485-3.359-.881-.809-.804-.876-5.454-1.111-6.86.358-.401,2.586,2.106,4.775.532,1.162-.836,3.642-6.923.713-7.512l-.465,2.282c-2.067,1.497-3.968-2.954-5.204-2.744-1.055.312-1.532,2.124-2.158,2.488-1.618.941-3.062-.513-3.153,2.701-.066,2.334.089,1.722-.419,4.122-.389,1.838,1.623,2.868,2.289,4.487.56,1.36.414,2.673,1.103,3.882l8.71,2.676,4.772-8.428c-.88,2.365,4.408,10.389,2.507,11.73-.44.31-9.223-2.101-10.47-2.522-1.969-.665-4.107-1.996-6.235-2.74-4.009-1.402-9.589-2.613-13.225-4.226-.852-.378-1.4-.778-1.999-1.491-.692-.824-3.002-5.168-3.585-6.385-1.149-2.393-3.886-8.087-4.646-10.309-.774-2.263-1.052-5.61-2.01-7.991.534-1.304,3.475-.452,4.69-.168,4.171.973,8.768,3.084,12.943,4.257h0Z"/>
        <path class="h" d="M130.703,56.176l-4.453-2.772c-4.721-5.546-14.495-7.2-16.766-14.642-1.506-4.934-2.956-11.741-4.055-16.88-.742-3.469-1.637-7.015-1.649-10.562,1.094-1.077,5.408,3.381,6.523,4.194,5.355,3.908,11,7.492,15.624,12.295l4.776,28.366h0ZM108.821,17.86c-.995,2.134.055,9.168,3.078,8.335,3.718-1.025,1.542-10.244-3.078-8.335ZM125.601,35.624c1.519-2.069-.238-9.253-3.056-8.806-2.741.435-1.014,9.008,1.926,9.23l1.13-.424ZM119.62,30.38c-1.741-1.774-4.529.201-4.366,2.584.101,1.481,2.547,6.225,4.678,5.809,1.84-1.562,1.045-7.011-.312-8.394h0ZM111.759,33.25c-.469,2.163-.042,10.615,3.685,9.448,2.847-.892-.076-10.648-3.685-9.448ZM127.65,50.131c1.356-.852.208-9.043-3.073-7.838-3.553,1.722-.196,9.892,3.073,7.838Z"/>
        <path class="h" d="M57.551,49.343c-1.05,1.299-.801,3.662-.183,5.125.992,2.348,5.108,2.081,5.799,4.173.484,1.467.078,3.161.279,4.706.178,1.365.999,3.315.917,4.523-.132,1.941-3.207,3.985-4.454,5.517-1.078,1.325-3.798,5.548-4.719,6.248-.604.459-1.017.578-1.772.468-1.635-6.467-5.02-13.264-6.458-19.718-2.198-9.865,4.243-13.367,10.193-19.648l2.603,6.724c-.26,1.014-1.768,1.343-2.205,1.882ZM57.276,62.287c-1.129-1.091-4.008-.883-4.89.589-2.17,3.622,2.211,11.219,5.994,7.986.46-.393,1.299-1.89,1.312-2.468.015-.683-1.892-5.6-2.416-6.106h0Z"/>
        <path class="h" d="M44.932,51.196l-1.451,4.173-1.03.308c-.234-2.08-2.728-1.483-2.007-3.982l4.488-.498h0Z"/>
      </g>
    </g>
    <g class="g">
      <path d="M71.052,74.533c-.627-.576-.63-1.403-1.794-1.943-4.963-2.303-4.914,1.79-6.622,4.591-1.025,1.68-5.145,6.498-6.71,7.745-1.58,1.259-5.243,2.812-7.237,2.777-9.947-2.518-19.005-6.12-28.401-10.029-2.796-1.163-7.398-1.541-9.164-4.298-1.694-4.443-2.83-9.115-4.322-13.623-.901-2.722-3.525-5.164-1.247-7.97l-1.989.993c-.735-4.13-4.406-8.177-3.39-12.606,6.279-8.69,11.943-17.746,19.086-25.78,1.412-1.588,7.304-8.248,8.55-8.9,1.942-1.016,7.447.448,9.768,1.072,7.756,2.086,22.925,9.573,30.044,9.351,2.99-.093,9.575-5.647,12.58-7.399C83.25,6.736,94.471.371,97.196.041c6.096-.737,11.858,8.567,16.058,12.126,6.098,5.167,17.023,10.379,18.335,19.056.69,4.562,1.015,9.674,1.685,14.265.862,5.912,4.762,16.273-.298,20.753-5.333,4.722-15.958,9.209-22.362,13.036-7.381,4.411-12.635,10.987-22.04,9.891-2.851-.332-4.069-3.358-6.215-5.251-3.683-3.248-7.58-5.96-11.305-9.385h-.002ZM97.21,5.533c-.654-.377-2.164-.119-2.916.123-1.09.35-6.534,3.911-8.106,4.851-6.433,3.845-15.701,9.062-21.455,13.444-6.643,5.059-5.015,7.747-3.677,15.469.541,3.119,2.994,10.029,2.862,12.576-.011.211-1.648.41-1.013,1.774,1.475-.879,2.257,2.645,2.402,3.87.184,1.555-.663,2.675-.666,4.133.424.864,1.761.736,2.115,1.109.367.386.067,1.486.939,1.81,1.872.696,3.631-1.661,5.225-2.653,10.173-6.335,20.501-12.463,30.852-18.507,3.042-2.631,1.077-8.735.364-12.282-1.323-6.581-3.204-14.955-5.063-21.356-.445-1.532-1.039-2.999-1.862-4.362h0ZM7.675,40.683c4.811,1.927,9.62,4.065,14.577,5.62,8.178,2.566,17.422,6.024,24.646-.304.936-.82,7.562-8.218,7.961-8.987,1.405-2.713-.602-6.237.299-9.671.669-2.547,4.718-5.544,6.737-7.212.032-1.41-10.651-3.579-12.349-4.095-1.479-.45-2.748-1.385-4.195-1.788-2.378-.663-13.396-3.58-14.877-3.135-5.162,3.55-8.243,9.151-12.038,13.94-.877,1.107-2.45,2.329-3.393,3.566-2.597,3.406-4.583,7.365-7.64,10.331l.273,1.736h0ZM130.718,56.261l-4.776-28.366c-4.623-4.803-10.269-8.387-15.624-12.295-1.115-.814-5.429-5.272-6.523-4.194.012,3.547.907,7.093,1.649,10.562,1.099,5.14,2.549,11.947,4.055,16.88,2.272,7.442,12.046,9.096,16.766,14.642l4.453,2.772h0ZM57.566,49.428c.436-.54,1.944-.868,2.205-1.882l-2.603-6.724c-5.95,6.281-12.39,9.783-10.193,19.648,1.438,6.455,4.823,13.251,6.458,19.718.755.11,1.168-.009,1.772-.468.921-.7,3.641-4.923,4.719-6.248,1.247-1.532,4.322-3.576,4.454-5.517.082-1.208-.739-3.158-.917-4.523-.201-1.545.205-3.238-.279-4.706-.691-2.092-4.807-1.825-5.799-4.173-.618-1.462-.867-3.825.183-5.125ZM23.913,50.377c-4.175-1.173-8.772-3.284-12.943-4.257-1.215-.283-4.156-1.135-4.69.168.957,2.381,1.236,5.729,2.01,7.991.76,2.222,3.497,7.915,4.646,10.309.584,1.216,2.894,5.561,3.585,6.385.599.713,1.147,1.113,1.999,1.491,3.636,1.613,9.216,2.824,13.225,4.226,2.128.744,4.265,2.074,6.235,2.74,1.247.421,10.03,2.833,10.47,2.522,1.901-1.342-3.387-9.365-2.507-11.73l-4.772,8.428-8.71-2.676c-.689-1.209-.543-2.522-1.103-3.882-.667-1.619-2.678-2.649-2.289-4.487.508-2.4.353-1.788.419-4.122.091-3.214,1.535-1.761,3.153-2.701.626-.364,1.102-2.176,2.158-2.488,1.236-.21,3.138,4.241,5.204,2.744l.465-2.282c2.929.589.45,6.677-.713,7.512-2.189,1.574-4.417-.934-4.775-.532.235,1.406.302,6.056,1.111,6.86.398.396,2.716,1.144,3.359.881,1.778-.727,3.199-5.356,5.457-5.816-1.924-6.116-.849-8.95-7.098-11.984-2.956-1.435-6.366-1.799-8.828-2.703-.775-.285-1.662-1.985-2.977-1.691-.221,1.155,1.117,1.417,1.391,2.339,1.302,4.385-1.688,8.599-6.024,5.654-.45-.306-3.163-4.817-3.844-4.005-.128,3.297,1.771,6.299,2.497,9.467l3.238-1.483c1.677.092.394,6.765-3.255,5.745-4.561-1.274-3.162-2.78-4.352-5.634-.407-.975-1.836-1.673-2.051-2.477-.361-1.351,1.037-2.871.18-4.621-.874-1.786-2.519-.141-3.515-.943-1.691-1.362.412-4.244,1.519-5.531,1.375,1.713,4.044,3.915,6.227,2.231,1.399-1.079,1.696-3.868,3.141.113l3.844,3.128-1.088-4.888h0ZM128.549,63.563c.567-.606,1.361-1.698,1.639-2.495-.339-2.076-19.255-15.407-21.525-15.192-7.678,2.999-14.7,9.522-21.978,12.974-.948.449-3.361.674-3.714,1.028-.274.275-.202,1.242-.834,1.896-1.476,1.525-6.209,3.377-8.094,5.127-.598.556-2.319,2.77-2.2,3.528,4.667,1.956,14.186,13.022,18.262,13.718,6.638,1.133,13.589-6.074,19.021-9.345,5.192-3.126,15.571-7.121,19.423-11.239h0ZM44.947,51.281l-4.488.498c-.721,2.5,1.773,1.902,2.007,3.982l1.03-.308,1.451-4.173h0Z"/>
      <path d="M96.151,29.01c2.167-.036,4.552,1.572,4.05,3.935-.89,4.194-6.563,7.43-9.4,3.661-2.439-3.24,1.944-7.54,5.35-7.596Z"/>
      <path d="M63.527,35.202c-3.548-3.285,4.346-11.754,8.588-6.837,3.702,4.291-5.806,9.413-8.588,6.837Z"/>
      <path d="M71.729,44.406c2.806-.843,4.543.508,6.032,2.703-.148,2.471-3.122,6.245-5.643,6.202-1.282-.022-4.099-1.981-4.232-3.29-.172-1.683,2.367-5.171,3.844-5.615h0Z"/>
      <path d="M79.728,19.999c7.45-1.215,3.861,8.367-2.113,8.4-6.326.035-2.824-7.594,2.113-8.4Z"/>
      <path d="M92.072,12.625c1.788-.006,3.392,2.065,3.658,3.644.658,3.912-6.578,6.926-8.916,2.89-1.924-3.321,2.216-6.523,5.258-6.534Z"/>
      <path d="M83.202,37.431c3.285-.752,7.604,1.318,5.165,4.664-.324.444-4.223,3.14-4.792,3.196-5.69.566-4.688-6.873-.372-7.861h0Z"/>
      <path d="M35.839,24.977c14.783-3.011,2.288,16.377-4.131,9.884-2.9-2.934.435-9.131,4.131-9.884Z"/>
      <path d="M89.669,63.367c.902-.024,2.538,1.096,2.896,1.875,1.704,3.711-4.517,9.399-8.418,6.919-4.013-2.551,2.241-8.707,5.522-8.794Z"/>
      <path d="M96.673,71.314c4.655-1.041,6.209,3.796,2.88,6.878-1.924,1.781-5.452,3.477-7.272.773-1.391-2.067,1.953-7.104,4.392-7.65h0Z"/>
      <path d="M117.511,59.461c.975.037,3.186,1.421,3.253,2.553.301,3.054-7.282,8.964-8.772,4.241-.801-2.54,3.098-6.887,5.518-6.794h.001Z"/>
      <path d="M107.683,52.401c.586-.054,1.156-.291,1.755-.064,2.685,1.692.33,5.469-1.799,6.523-6.951,3.441-8.63-5.653.044-6.458h0Z"/>
      <path d="M119.635,30.465c1.357,1.383,2.151,6.832.312,8.394-2.131.416-4.577-4.329-4.678-5.809-.162-2.383,2.626-4.359,4.366-2.584h0Z"/>
      <path d="M108.836,17.945c4.621-1.909,6.797,7.31,3.078,8.335-3.024.833-4.073-6.2-3.078-8.335Z"/>
      <path d="M111.774,33.335c3.608-1.2,6.532,8.556,3.685,9.448-3.726,1.167-4.153-7.285-3.685-9.448Z"/>
      <path d="M125.616,35.709l-1.13.424c-2.94-.222-4.667-8.795-1.926-9.23,2.819-.447,4.575,6.737,3.056,8.806Z"/>
      <path d="M127.665,50.216c-3.269,2.054-6.626-6.116-3.073-7.838,3.281-1.205,4.429,6.986,3.073,7.838Z"/>
      <path d="M57.291,62.372c.524.506,2.431,5.423,2.416,6.106-.013.578-.852,2.075-1.312,2.468-3.783,3.233-8.164-4.364-5.994-7.986.882-1.472,3.761-1.679,4.89-.589h0Z"/>
    </g>
  </g>
</svg>