<?xml version="1.0" encoding="UTF-8"?>
<svg id="b" xmlns="http://www.w3.org/2000/svg" xmlns:xlink="http://www.w3.org/1999/xlink" version="1.1" viewBox="0 0 454.9 61.5">
  <!-- Generator: Adobe Illustrator 29.2.1, SVG Export Plug-In . SVG Version: 2.1.0 Build 116)  -->
  <defs>
    <style>
      .st0 {
        filter: url(#outer-glow-1);
      }

      .st1 {
        fill: #1e1e1e;
      }
    </style>
    <filter id="outer-glow-1" x="1.3" y="-2.7" width="452.4" height="67" filterUnits="userSpaceOnUse">
      <feOffset dx="0" dy="0"/>
      <feGaussianBlur result="blur" stdDeviation="1"/>
      <feFlood flood-color="#1e1e1e" flood-opacity=".8"/>
      <feComposite in2="blur" operator="in"/>
      <feComposite in="SourceGraphic"/>
    </filter>
  </defs>
  <g class="st0">
    <path class="st1" d="M27.5,47.4h3.6c0,0,.2,0,.2-.1,0,0,.1-.2.3-.5,7.5-11.7,13.3-19.4,16.2-21.9.3-.3.7-.4,1-.4s.3,0,.4.2c.5.8,1.5.9,2.8.3,1.7-.7,2.7-3.1,2.7-3.2.3-.9.3-1.6,0-2.1-.2-.2-.5-.5-1.2-.5s0,0,0,0c-1.1,0-2.6.8-4.1,2.1-2.4,1.9-8.3,9.4-12.6,15.6l5.6-10.9c1.2-2.3,2.3-4.5,1.6-5.7-.3-.5-.9-.7-1.8-.8-2.9,0-6.2,3.9-8.6,6.8-.2.2-3.1,3.6-4.4,5.2l-.7.8c0,0,0,.2,0,.3,0,0,.1.1.2.1h.6c0,0,.1,0,.2,0,1.4-1.6,7.1-8.1,8.3-9,.3-.2.6-.3.9-.3s.3,0,.4.2c.1.4-.2,1-.6,1.8-.2.4-.4.8-.6,1.3l-10.5,20.5c0,0,0,.2,0,.2,0,0,.1.1.2.1Z"/>
    <path class="st1" d="M49.4,45.7c1,1.3,2.6,1.9,4.5,1.9,6.4,0,12.9-6.7,17.2-12.3,0,0,0-.2,0-.3,0,0-.1-.1-.2-.1h-.8c0,0-.1,0-.2,0-5.2,6.5-9.5,8.5-11.5,9.2-.8.2-1.5.3-2.2,0-1-.3-1.7-1-2.1-2.1-.9-2.1-.6-5.1.8-7.8,4.7-.5,10.6-1.6,14.7-4.8,1.9-1.5,3.3-3.4,4.1-5.7.4-1.3.2-2.5-.4-3.3-.7-.9-2-1.4-3.8-1.4s-5.6,1-8,2.7c-6.2,3.9-11.5,11.8-12.9,17-.7,2.9-.5,5.3.8,6.9ZM55.5,33c1.9-3.9,3.7-6.3,6.3-8.7,2.5-2.2,4.7-3.4,6.2-3.4s1.2.3,1.6.7c.7,1.4-.3,3.8-2.7,6.4-3.4,3.5-7.4,4.4-11.5,4.9Z"/>
    <path class="st1" d="M72.3,46.1c.7,1.3,1.7,2,3,2h0c3.2,0,8.6-5,13.6-12.2l-1.7,3.1c-.8,1.6-2.5,4.8-2.8,6.2-.3.9-.3,1.7.1,2.2.3.4.8.7,1.5.7,1.1,0,2.6-.6,3.9-1.7,1.5-1.1,7.6-8.5,9.6-10.9h.1c0-.2,0-.3,0-.4,0,0-.1-.1-.2-.1h-.9c0,0-.1,0-.2,0-.3.3-.6.6-.8.9-.3.4-.9,1-1.6,1.9-1.7,2.1-5.7,6.9-6.5,6.9-.2,0-.3,0-.3-.1-.1-.2,0-.8.3-1.4.2-.6,6.4-12.8,9.8-19.4l.9-1.7c.6-1.2,1.1-2.1,1.2-2.4,0,0,0-.2,0-.2,0,0-.1-.1-.2-.1h-.6c0,0-.1,0-.2,0l-5,4c0-1.5-.3-2.6-1-3.3-.5-.5-1.2-.8-2.1-.8-4,0-11.4,6.2-14.7,11.3-2.7,3.8-7,11-5.3,15.6ZM76.9,39.9c1-4.3,7.7-16,13.6-18.4.9-.4,1.9-.4,2.4-.1,1.3.6,1,2.5.5,4.4-10.3,18.4-15.5,17.7-15.6,17.7,0,0,0,0,0,0-.6,0-.9-.1-1.1-.4-.3-.4-.3-1.4.2-3.3Z"/>
    <path class="st1" d="M102.4,32.6h.6c0,0,.2,0,.2,0,0,0,0,0,0,0,1.4-1.6,7.1-8.1,8.3-9,.3-.2.6-.3.9-.3s.3,0,.4.2c.1.4-.2,1-.7,1.9-.2.4-.4.8-.6,1.2l-.4.8c0,.2-.2.4-.3.5l-9.8,19.1c0,0,0,.2,0,.2,0,0,.1.1.2.1h3.6c0,0,.2,0,.2-.1,1.1-2,11.4-19.8,17.7-23.3.9-.5,1.4-.6,1.7-.6s.4.1.5.3c.3.6-.2,2.4-1.3,4.3-.4.9-1.3,2.6-2.3,4.5v.3c-2.5,4.6-5.8,10.8-6.3,12.6-.3.9-.2,1.6.1,2.1.3.4.8.6,1.4.6s1.9-.4,2.9-1.2c1.3-1,5.4-6,8.2-9.3.8-.9,1.4-1.7,1.9-2.3,0,0,0-.2,0-.3,0,0-.1-.1-.2-.1h-.7s0,0,0,0h0c0,0-.2,0-.2.1l-.8,1c-1.9,2.3-7,8.3-7.8,8.4,0,0,0,0,0,0,0,0,0,0,0,0,0-.1-.1-.7,1.3-3.4l6.6-12.9c0-.2.2-.3.3-.6,1-2,3-5.6,1.6-7.1-.5-.6-1.2-.9-2-.9-2.7,0-6.5,3.5-9.2,6.4-2.3,2.5-4.7,5.5-6.8,8.5l4.4-8.5c1.2-2.3,2.3-4.5,1.6-5.7-.3-.5-.9-.7-1.8-.8-2.9,0-6.2,3.9-8.6,6.8-.2.3-4.9,5.7-5.1,6,0,0,0,.2,0,.3s.1.1.2.1Z"/>
    <path class="st1" d="M131.4,47.4h3.6c0,0,.2,0,.2-.1,1.1-2,11.4-19.8,17.7-23.3.9-.5,1.4-.6,1.7-.6s.4.1.5.3c.3.6-.2,2.4-1.3,4.3-.4.9-1.3,2.6-2.3,4.5v.3c-2.5,4.6-5.8,10.8-6.3,12.6-.3.9-.2,1.6.1,2.1.3.4.8.6,1.4.6s1.9-.4,2.9-1.2c1.3-1,5.4-6,8.2-9.3.8-.9,1.4-1.7,1.9-2.3,0,0,0-.2,0-.3,0,0-.1-.1-.2-.1h-.7c0,0-.1,0-.2.1l-.8,1c-1.9,2.3-7,8.3-7.8,8.4,0,0,0,0,0,0,0,0,0,0,0,0,0-.1-.1-.7,1.3-3.4l6.6-12.9c0-.2.2-.4.3-.6,1-2,3-5.6,1.6-7.1-.5-.6-1.2-.9-2-.9-2.7,0-6.5,3.5-9.2,6.4-2.3,2.5-4.7,5.5-6.8,8.5l4.4-8.5c1.2-2.3,2.3-4.5,1.6-5.7-.3-.5-.9-.7-1.8-.8-2.9,0-6.2,3.9-8.6,6.8-.2.3-4.9,5.7-5.1,6,0,0,0,.2,0,.3s.1.1.2.1h.6c0,0,.2,0,.2,0,0,0,0,0,0,0,1.4-1.6,7.1-8.1,8.3-9,.3-.2.6-.3.9-.3s.3,0,.4.2c.1.4-.2,1-.6,1.8-.2.4-.4.8-.6,1.3l-.4.9c0,.2-.2.3-.3.5l-9.8,19.1c0,0,0,.2,0,.2,0,0,.1.1.2.1Z"/>
    <path class="st1" d="M160.3,46.1c.7,1.3,1.7,2,3,2h0c3.2,0,8.6-5,13.6-12.2l-1.7,3.1c-.8,1.6-2.5,4.8-2.8,6.2-.3.9-.3,1.7.1,2.2.3.4.8.7,1.5.7,1.1,0,2.6-.6,3.9-1.7,1.5-1.1,7.6-8.5,9.6-10.9h.1c0-.2,0-.3,0-.4,0,0-.1-.1-.2-.1h-.9c0,0-.1,0-.2,0-.3.3-.6.6-.8.9-.3.4-.9,1-1.6,1.8-1.7,2.1-5.7,6.9-6.5,6.9-.2,0-.3,0-.3-.1-.1-.2,0-.8.3-1.4.2-.6,6.4-12.8,9.8-19.4l.9-1.7c.6-1.2,1.1-2.1,1.2-2.4,0,0,0-.2,0-.2,0,0-.1-.1-.2-.1h-.6c0,0-.1,0-.2,0l-5,4c0-1.5-.3-2.6-1-3.3-.5-.5-1.2-.8-2.1-.8-4,0-11.4,6.2-14.7,11.3-2.7,3.8-7,11-5.3,15.6ZM165,39.9c1-4.3,7.7-16,13.6-18.4.9-.4,1.9-.4,2.4-.1,1.3.6,1,2.5.5,4.4-10.3,18.4-15.5,17.7-15.6,17.7,0,0,0,0,0,0-.6,0-.9-.1-1.1-.4-.3-.4-.3-1.4.2-3.3Z"/>
    <path class="st1" d="M213.3,48.1c2.2,0,4.4-.7,6.2-1.8,4.1-2.7,8.8-8.1,10.6-11,0,0,0-.2,0-.3,0,0-.2-.1-.2-.1h-.9c0,0-.2,0-.2.1-1,1.5-7.5,9.9-12.8,10,0,0,0,0,0,0-1.4,0-2.4-.6-3.1-1.7-1.8-4.1,2.9-14.9,10.4-20.4,2-1.4,3.8-2.1,5.4-2.1h0c.9,0,1.6.3,1.8.8.1.3,0,.8-.3,1.3-.1.2-.4.5-.7.7-.5.4-1,.9-1.4,1.5-.3.4-1.1,2.1-.2,3,0,0,0,0,0,0,1.1,1.1,2.7-.1,2.8-.2,1.2-.9,2-2.6,2.3-3.8.4-1.5.2-2.7-.5-3.6-.7-1-2-1.5-3.7-1.5h-.2c-5.5,0-12.1,5.2-15.9,10.3-3.9,5.1-6.6,12.3-4.5,16.1.8,1.6,2.6,2.6,5.1,2.6Z"/>
    <path class="st1" d="M286.7,23.7l.9-1.8c.6-1.1,1-2,1.2-2.3,0,0,0-.2,0-.2,0,0-.1-.1-.2-.1h-.6c0,0-.1,0-.2,0l-5,4c0-1.5-.3-2.6-1-3.3-.5-.5-1.2-.8-2.1-.8-4,0-11.4,6.2-14.7,11.3-2.7,3.8-7,11-5.3,15.6.7,1.3,1.7,2,3,2h0c3.2,0,8.6-5,13.6-12.2l-1.7,3.1c-.8,1.6-2.5,4.8-2.8,6.3-.3.9-.3,1.7.1,2.2.3.4.8.7,1.5.7,1.1,0,2.6-.6,3.9-1.7,1.5-1.1,7.6-8.5,9.6-11h0c0-.2,0-.3,0-.4,0,0-.1-.1-.2-.1h-.9c0,0-.1,0-.2,0-.3.3-.6.6-.8.9-.3.4-.9,1-1.6,1.9-1.7,2.1-5.7,6.9-6.5,6.9-.2,0-.3,0-.3-.1-.1-.2,0-.8.3-1.4.2-.6,6.4-12.8,9.8-19.4ZM280.9,25.8c-10.3,18.4-15.5,17.7-15.6,17.7,0,0,0,0,0,0-.6,0-.9-.1-1.1-.4-.3-.4-.3-1.4.2-3.3,1-4.3,7.7-16,13.6-18.4.9-.4,1.9-.4,2.4-.1,1.3.6,1,2.5.5,4.4Z"/>
    <path class="st1" d="M306,25.9c-2.3,2.5-4.7,5.5-6.7,8.5l4.4-8.5c1.2-2.3,2.3-4.5,1.6-5.7-.3-.5-.9-.7-1.8-.8-2.9,0-6.2,3.9-8.6,6.8-.2.2-2.4,2.8-3.9,4.5l-1.3,1.5c0,0,0,.2,0,.3,0,0,.1.1.2.1h.6c0,0,.1,0,.2,0,1.4-1.6,7.1-8.1,8.3-9,.3-.2.6-.3.9-.3s.3,0,.4.2c.1.4-.2,1-.6,1.8-.2.4-.4.8-.6,1.3l-.4.8c0,.2-.2.4-.3.5l-9.8,19.1c0,0,0,.2,0,.2,0,0,.1.1.2.1h3.6c0,0,.2,0,.2-.1.5-.8,11.3-19.7,17.7-23.3.9-.5,1.4-.6,1.7-.6s.4.1.5.3c.3.6-.2,2.4-1.3,4.3-.4.9-1.3,2.5-2.3,4.4l-.2.3c-2.4,4.6-5.8,11.8-7,14.4,0,0,0,.2,0,.2,0,0,.1.1.2.1h3c0,0,.2,0,.2-.1.5-.8,11.3-19.7,17.7-23.3.9-.5,1.4-.6,1.7-.6s.4.1.5.3c.3.6-.2,2.4-1.3,4.3-.4.9-1.3,2.6-2.4,4.6v.2c-2.5,4.6-5.7,10.8-6.2,12.6-.3.9-.2,1.6.1,2.1.3.4.8.6,1.4.6s1.9-.4,2.9-1.2c1.3-1,5.4-6,8.2-9.3.8-.9,1.4-1.7,1.9-2.2,0,0,0-.2,0-.3,0,0-.1-.1-.2-.1h-.7c0,0-.1,0-.2.1l-.8,1c-1.9,2.3-7,8.3-7.8,8.4,0,0,0,0,0,0,0-.1-.1-.7,1.3-3.4l6.6-12.9c0-.2.2-.3.3-.6,1-2,3-5.6,1.6-7.1-.5-.6-1.2-.9-1.9-.9-4,0-10.6,7.4-15.2,13.8l2.7-5.2c0-.2.2-.4.3-.6,1-2,2.9-5.6,1.6-7.1-.5-.6-1.2-.9-2-.9-2.7,0-6.5,3.5-9.2,6.4Z"/>
    <path class="st1" d="M329,44.5c1.8,2.3,4.1,3.5,7,3.5s6.7-1.5,10.2-4.2c5.4-4.1,9.8-10.5,11.3-16.1.8-2.7.6-5.1-.6-6.7-.9-1.2-2.3-1.9-4.1-1.9-2.7,0-5.9,1.6-8.9,4.5l.7-1.5c3-6.3,8-16.9,14.3-17.4.3,0,.6,0,.7.3.1.3-.1.8-.6,1.4,0,0,0,0,0,0-1.4,1.7-1.9,2.9-1.3,3.4.7.6,2.6-.2,3.8-1.4,1.4-1.4,1.7-2.9.6-4.1-2.8-2.4-6.2-.3-9.6,1.6-5.5,3.5-8.8,9.3-11.9,15.4,0,0,0,0,0,0l-.5,1c-4.9,9.5-10.4,20.3-11.1,21.9,0,0,0,.2,0,.3ZM342.5,44.1c-2.7,2.1-5.2,2.7-7.4,1.9-.5-.2-.9-.6-1.1-1-.3-.7-.2-1.6.3-2.6l5.8-11.3c1.4-2.7,3-4.8,4.9-6.4,0,0,0,0,0,0,1.8-1.5,3.5-2.2,5-2.2s1.9.4,2.5,1.2c.8,1.1,1,2.8.5,4.6-1.4,5-5.7,12.3-10.4,15.9Z"/>
    <path class="st1" d="M357.8,45.7c1,1.3,2.6,1.9,4.5,1.9,6.4,0,12.9-6.7,17.2-12.3,0,0,0-.2,0-.3,0,0-.1-.1-.2-.1h-.8c0,0-.1,0-.2,0-5.2,6.5-9.5,8.5-11.5,9.2-.8.2-1.5.3-2.2,0-1-.3-1.7-1-2.1-2.1-.9-2.1-.6-5.1.8-7.8,4.7-.5,10.6-1.6,14.7-4.8,1.9-1.5,3.3-3.4,4.1-5.7.4-1.3.2-2.5-.4-3.3-.7-.9-2-1.4-3.8-1.4s-5.6,1-8,2.7c-6.2,3.9-11.5,11.8-12.9,17-.7,2.9-.5,5.3.8,6.9ZM364,33c1.9-3.9,3.7-6.3,6.3-8.7,2.5-2.2,4.7-3.4,6.2-3.4s1.2.3,1.6.7c.7,1.4-.3,3.8-2.7,6.4-3.4,3.5-7.4,4.4-11.5,4.9Z"/>
    <path class="st1" d="M382.3,32.5c0,0,.1.1.2.1h.6c0,0,.1,0,.2,0,1.4-1.6,7.1-8.1,8.3-9,.3-.2.6-.3.9-.3s.3,0,.4.2c.1.4-.2,1-.6,1.8-.2.4-.4.8-.6,1.3l-.4.8c-.1.2-.2.4-.3.6l-9.8,19.1c0,0,0,.2,0,.2,0,0,.1.1.2.1h3.6c0,0,.2,0,.2-.1,0,0,.1-.2.3-.5,7.5-11.7,13.3-19.4,16.2-21.9.3-.3.7-.4,1-.4s.3,0,.4.2c.5.8,1.5.9,2.8.3,1.7-.7,2.7-3.1,2.7-3.2.3-.9.3-1.6,0-2.1-.2-.2-.5-.5-1.2-.5s0,0,0,0c-1.1,0-2.6.8-4.1,2.1-2.4,1.9-8.3,9.4-12.6,15.6l5.6-10.9c1.2-2.3,2.3-4.5,1.6-5.7-.3-.5-.9-.7-1.8-.8-2.9,0-6.1,3.9-8.6,6.8-.2.2-2.5,3-4,4.7l-1.1,1.3c0,0,0,.2,0,.3Z"/>
    <path class="st1" d="M411.3,45.1c-1,.9-2.1,1.3-3.3,1.3-1.5,0-2.5-.7-3.2-1.7-1.1-1.9-.8-5.2,1-9.4,0,0,0-.2,0-.2s-.1-.1-.2-.1h-.5c0,0-.2,0-.2.1l-5.9,12.6c0,0,0,.2,0,.2,0,0,.1.1.2.1h.8c0,0,.2,0,.2-.1.6-.8,1.3-1.2,2.2-1.2s1.1.2,1.4.4c1.4.7,2.7,1.1,4,1.1,3.2,0,5.5-1.7,6.9-3.1,2.7-2.7,4.1-6.7,3.4-9.5-.2-1.5-1.1-3.7-2.4-6.7l-.2-.4c-.7-1.6-1-2.2-.5-4,.3-1.1.9-1.9,1.7-2.6.8-.6,1.7-.9,2.6-.9,1.3,0,2.3.7,2.6,1.7.5,1.6.7,3.8-1.7,9,0,0,0,.2,0,.2s.1.1.2.1h.5c0,0,.2,0,.2-.1l6.6-12.5c0,0,0-.2,0-.2,0,0-.1-.1-.2-.1h-.8c0,0-.1,0-.2,0-.8.9-1.6,1.4-2.4,1.4s-1.4-.3-1.9-.6l-.3-.2c-1.1-.6-1.3-.7-2.6-.7h0c-2.1,0-4.1.9-5.5,2.4h0c-4.6,5.2-.9,12.4-.8,12.4,1.3,3,2.5,7.3-1.4,11.2Z"/>
    <path class="st1" d="M450.3,49.6h-217.5c.5-.8,1-1.6,1.5-2.4.3-.6.7-1.1,1-1.7,3.2-5.5,11.4-18.6,16.6-21.6.9-.5,1.4-.6,1.7-.6s.4.1.5.3c.3.6-.2,2.4-1.3,4.3-.5,1-1.4,2.7-2.4,4.8h.2q0,.1,0,.1h-.2c-2.4,4.5-5.6,10.7-6.1,12.5-.3.9-.2,1.6.1,2.1.3.4.8.6,1.4.6s1.9-.4,2.9-1.2c1.3-1,5.3-5.8,8.2-9.3.8-.9,1.4-1.7,1.9-2.3,0,0,0-.2,0-.3,0,0-.1-.1-.2-.1h-.7c0,0-.1,0-.2.1l-.8,1c-1.9,2.3-7.1,8.3-7.8,8.5,0,0,0,0,0,0,0-.1-.1-.7,1.3-3.4l6.6-12.9c0-.1.1-.3.2-.5v-.2c1.1-2,3-5.6,1.7-7.1-.5-.6-1.2-.9-2-.9-4.2,0-11.2,8.1-15.8,14.7.7-1.4,1.3-2.7,1.9-4.1,1.4-2.9,2.7-5.7,3.8-7.9,0,0,0,0,0,0,3-6.3,8-16.8,14.2-17.3.3,0,.6,0,.7.3.1.3-.1.8-.6,1.4-1.4,1.7-1.8,2.8-1.4,3.3.5.6,1.6.2,2.5-.3,1.5-.9,2.9-2.5,2.5-4,1.3-1.2,2.7-2,4.1-2.3,1.7-.4,3.4-.4,5.1,0,1.7.4,3.4,1.2,5,2.2,1.6,1,3.1,2.2,4.3,3.4,2.1,2.1,4.1,3.8,6.2,5,2,1.3,4,2.2,5.9,2.6,1.9.4,3.7.4,5.4,0,1.7-.5,3.3-1.4,4.7-2.9,1.3-1.3,2-2.7,2.1-4.2.2-1.5-.3-2.8-1.3-3.9,0,0,0,0,0,0-.8-.8-1.8-1.2-2.8-1-1,.2-1.8.7-2.6,1.5l-.2.3c0,0,0,.2,0,.2,0,0,0,.1.2.2h.3c.6.2,1.1.4,1.6.6.4.2.9.6,1.4,1.1.7.7,1.1,1.5,1,2.3,0,.8-.4,1.5-1,2.1-.8.9-1.7,1.4-2.6,1.7-.9.3-1.9.3-2.8.2-1-.2-2-.5-3.1-1.1-1.1-.6-2.1-1.2-3.2-2-1.1-.8-2.1-1.6-3.2-2.5-1.1-.9-2.1-1.8-3.1-2.7-2.5-2.3-5-3.9-7.2-4.8-2.3-.9-4.4-1.3-6.3-1.2-1.9,0-3.7.6-5.4,1.5-1.2.7-2.2,1.4-3.2,2.4-2.8-2.1-6.1-.1-9.3,1.8-5.8,3.7-9.3,9.8-12.1,15.8-1.2,2-2.8,5.5-4.6,9.5-2.6,5.6-5.8,12.6-9.1,18.2H4.6c-.1,0-.2.1-.2.2v1c0,.1.1.2.2.2h223.4c-3,4.9-6,8.3-8.5,8,.1-.3.5-.6.7-.9.6-.7,1.2-1.4,1-1.9,0-.6-.4-.9-.9-1.1-.9-.3-2.1.2-2.7.8-1.2,1-1.8,2.6-1.3,3.8.4.9,1.2,1.4,2.4,1.4s.3,0,.4,0c4.1-.4,8.2-3.7,12.6-10h218.5c.1,0,.2-.1.2-.2v-1c0-.1-.1-.2-.2-.2Z"/>
  </g>
</svg>