<?xml version="1.0" encoding="UTF-8"?>
<svg id="b" data-name="Layer 2" xmlns="http://www.w3.org/2000/svg" width="2183.927" height="288.469" viewBox="0 0 2183.927 288.469">
  <g id="c" data-name="Layer 1">
    <g>
      <path d="M1137.019,230.953c29.572-47.762,47.666-101.871,75.504-150.59,11.56-20.232,25.492-39.27,45.105-52.364,12.291-8.205,32.354-20.437,45.857-9.428,24.144-23.173,54.41-23.475,82.805-7.469,26.001,14.657,61.141,60.626,92.26,57.48,18.255-1.846,33.044-22.22,14.451-35.347l-12.424-6.302c23.812-20.671,40.753,9.038,23.737,31.15-20.376,26.477-50.563,21.302-76.212,6.17-32.234-19.016-71.27-76.769-115.658-46.489-8.707,5.94-3.88,12.228-10.8,19.182-3.394,3.41-20.195,13.056-18.355,3.038.933-5.08,11.425-15.017,10.802-18.034-.693-3.354-10.574-1.771-13.424-.929-20.493,6.055-40.25,40.871-49.809,58.905-14.14,26.674-25.604,54.914-39.378,81.791-.234,3.702,1.423.953,2.299-.21,13.843-18.374,47.66-65.175,70.195-69.767,23.585-4.806,13.65,20.113,8.247,31.926-11.278,24.655-30.245,51.89-39.677,76.495-1.195,3.116-2.701,6.072-2.278,9.571,2.287,2.29,15.341-11.975,17.548-14.312,6.639-7.03,19.525-25.7,26.23-30.004,1.789-1.148,2.975-1.13,2.512,1.252l-43.926,51.05c-14.252,11.561-30.069,13.439-21.373-10.079,12.158-32.88,36.201-62.04,45.39-95.877-.047-4.054-1.655-4.778-5.438-4.131-20.268,3.469-58.754,61.857-70.279,79.75l-25.762,43.572h1028.761v9.983h-1035.644c-13.084,17.165-37.497,47.722-61.342,47.531-23.256-.187-7.015-33.165,6.853-26.957,11.007,4.927-7.523,17.073-4.953,19.353,20.831-2.053,32.605-24.11,42.546-39.927H0v-9.983h1137.019Z"/>
      <path d="M1421.743,222.218l56.317-112.902c-1.886-2.719-5.697-2.613-8.204-.722l-40.585,43.136-2.511-1.252c16.29-15.315,29.462-38.113,46.952-51.776,5.712-4.462,24.791-14.385,26.641-1.644,1.386,9.542-24.474,51.506-29.589,63.596-.483,1.143-2.723,3.178-.842,4.153,15.409-20.796,31.969-43.839,51.929-60.534,6.881-5.755,29.949-21.701,35.652-8.07,5.747,13.736-19.435,46.79-23.11,61.122,16.898-18.848,33.947-45.027,55.398-58.935,19.515-12.652,34.826-9.434,25.299,16.491-10.41,28.327-35.886,60.191-44.691,87.717-.781,2.443-1.365,4.522-.968,7.134,2.218,2.291,13.026-9.718,15.045-11.816,9.757-10.143,18.482-21.676,27.477-32.503l3.768,1.255c-12.451,12.604-22.317,27.702-34.389,40.592-6.382,6.814-20.051,22.626-30.38,17.781-7.765-3.643-1.587-15.447.736-21.133,10.821-26.496,29.42-52.394,40.087-78.581,14.34-35.203-16.944-9.641-27.389,1.392-25.706,27.152-45.889,63.447-65.301,95.236l-14.758.257c7.192-16.486,14.742-32.975,22.698-49.11,7.768-15.751,21.949-37.111,27.073-52.873,9.654-29.703-23.539-.248-30.396,7.13-25.248,27.166-45.676,62.994-64.436,94.86h-17.521Z"/>
      <path d="M1752.15,43.761c-3.73-6.6,14.31-20.751,8.812-24.383-20.255-2.255-36.814,19.312-46.88,34.474-7.46,11.237-26.506,44.765-29.493,56.706-.172.686-.364,2.029.596,1.836,20.839-25.466,73.628-39.347,66.401,11.301-6.045,42.367-71.648,117.229-118.676,99.489-5.91-2.229-18.766-9.984-16.631-17.208,20.904-37.564,38.259-77.122,58.873-114.817,15.479-28.305,42.609-69.819,76.919-76.796,33.633-6.839,26.956,29.252.08,29.398ZM1708,103.947c-33.973,7.017-53.962,70.814-70.405,97.019-5.148,19.824,12.991,21.002,27.294,15.984,25.766-9.041,56.588-55.698,63.831-81.112,4.907-17.217,2.005-36.584-20.72-31.89Z"/>
      <path d="M554.442,162.317c10.931-12.276,19.643-26.456,30.633-38.703,9.062-10.099,31.9-33.379,45.205-34.839,20.463-2.246,11.837,19.928,6.984,30.721-11.491,25.559-29.618,51.66-40.098,77.323-.615,1.506-5.372,11.261-.795,10.445,5.963-1.063,30.721-32.892,36.873-39.363,1.387-1.459,7.628-8.821,7.532-3.728-11.802,12.394-21.517,26.829-33.138,39.344-5.47,5.89-25.523,28.157-33.739,17.38-3.659-7.608,2.537-18.002,5.739-25.332,7.406-16.959,40.357-70.958,41.161-83.817.293-4.695.171-7.594-5.371-6.612-21.24,3.764-60.122,63.939-72.287,82.739-6.427,9.933-12.574,20.148-18.103,30.619l-18.16,1.223,56.235-112.838c-1.974-3.066-5.283-2.436-8.128-.779-2.89,1.683-14.252,14.105-17.468,17.516-6.784,7.193-14.859,19.352-21.81,25.384-1.155,1.003-3.116,1.718-3.821.224,14.835-15.838,28.422-37.457,45.032-51.189,5.908-4.884,28.202-17.506,28.64-2.527.426,14.57-26.881,50.865-31.116,66.81Z"/>
      <path d="M698.368,162.317c10.931-12.276,19.643-26.456,30.633-38.703,9.062-10.099,31.9-33.379,45.205-34.839,20.463-2.246,11.837,19.928,6.984,30.721-11.491,25.559-29.618,51.66-40.098,77.323-.615,1.506-5.372,11.261-.795,10.445,5.963-1.063,30.721-32.892,36.873-39.363,1.387-1.459,7.628-8.821,7.532-3.728-11.802,12.394-21.517,26.829-33.138,39.344-5.47,5.89-25.523,28.157-33.739,17.38-3.659-7.608,2.537-18.002,5.739-25.332,7.406-16.959,40.357-70.958,41.161-83.817.293-4.695.171-7.594-5.371-6.612-21.24,3.764-60.122,63.939-72.287,82.739-6.427,9.933-12.574,20.148-18.103,30.619l-18.16,1.223,56.235-112.838c-1.974-3.066-5.283-2.436-8.128-.779-2.89,1.683-14.252,14.105-17.468,17.516-6.784,7.193-14.859,19.352-21.81,25.384-1.155,1.003-3.116,1.718-3.821.224,14.835-15.838,28.422-37.457,45.032-51.189,5.908-4.884,28.202-17.506,28.64-2.527.426,14.57-26.881,50.865-31.116,66.81Z"/>
      <path d="M472.648,90.367c4.55,4.489,3.82,11.352,4.806,17.035,6.397-3.409,20.335-18.856,26.275-19.981,1.861-.352,2.223.023,1.867,1.861l-58.75,117.217,3.088,2.036c5.028-.031,36.593-39.235,41.926-45.586l6.245-.013c-13.021,13.242-23.462,29.072-36.255,42.469-6.49,6.796-21.273,20.79-31.381,17.535-9.333-3.006-2.596-16.793-.156-22.775,5.28-12.942,13.759-24.854,18.977-37.846-12.923,15.973-46.888,63.197-69.292,61.086-6.325-.596-12.272-7.011-13.217-13.122-5.008-32.398,32.654-82,56.221-102.267,9.531-8.196,38.037-29.1,49.647-17.648ZM388.273,201.955c6.259,6.244,22.019-4.77,27.252-9.048,14.412-11.78,47.914-57.448,54.059-74.633,3.459-9.671,4.729-24.654-9.496-23.284-26.611,2.563-64.953,64.972-71.212,88.817-1.115,4.248-3.951,14.81-.604,18.149Z"/>
      <path d="M894.414,90.367c4.55,4.489,3.82,11.352,4.806,17.035,6.397-3.409,20.335-18.856,26.275-19.981,1.861-.352,2.223.023,1.867,1.861l-58.75,117.217,3.088,2.036c5.028-.031,36.593-39.235,41.926-45.586l6.245-.013c-13.021,13.242-23.462,29.072-36.255,42.469-6.49,6.796-21.273,20.79-31.381,17.535-9.333-3.006-2.596-16.793-.156-22.775,5.28-12.942,13.759-24.854,18.977-37.846-12.923,15.973-46.888,63.197-69.292,61.086-6.325-.596-12.272-7.011-13.217-13.122-5.008-32.398,32.654-82,56.221-102.267,9.531-8.196,38.037-29.1,49.647-17.648ZM810.04,201.955c6.259,6.244,22.019-4.77,27.252-9.048,14.412-11.78,47.914-57.448,54.059-74.633,3.459-9.671,4.729-24.654-9.496-23.284-26.611,2.563-64.953,64.972-71.212,88.817-1.115,4.248-3.951,14.81-.604,18.149Z"/>
      <path d="M1387.519,92.862c4.55,4.489,3.82,11.352,4.806,17.035,6.397-3.409,20.335-18.856,26.275-19.981,1.861-.352,2.223.023,1.867,1.861l-58.75,117.217,3.088,2.036c5.028-.031,36.593-39.235,41.926-45.586l6.245-.013c-13.021,13.242-23.462,29.072-36.255,42.469-6.49,6.796-21.273,20.79-31.381,17.535-9.333-3.006-2.596-16.793-.156-22.775,5.28-12.942,13.759-24.854,18.977-37.846-12.923,15.973-46.888,63.197-69.292,61.086-6.325-.596-12.272-7.011-13.217-13.122-5.008-32.398,32.654-82,56.221-102.267,9.531-8.196,38.037-29.1,49.647-17.648ZM1303.144,204.451c6.259,6.244,22.019-4.77,27.252-9.048,14.412-11.78,47.914-57.448,54.059-74.633,3.459-9.671,4.729-24.654-9.496-23.284-26.611,2.563-64.953,64.972-71.212,88.817-1.115,4.248-3.951,14.81-.604,18.149Z"/>
      <path d="M283.044,157.529c-9.526,17.672-10.669,55.328,18.649,49.161,8.781-1.847,25.422-13.949,32.484-20.02,6.949-5.975,15.272-18.047,21.185-22.553,1.691-1.289,2.69-2.262,5.079-1.787-15.951,22.383-47.136,55.672-75.87,58.485-30.411,2.977-36.174-20.209-28.904-45.04,9.927-33.905,50.3-80.255,85.947-87.765,18.539-3.906,38.525.5,29.929,23.603-12.404,33.338-56.835,43.573-88.499,45.915ZM286.607,152.327c25.644-.561,52.362-12.457,65.282-35.352,5.818-10.31,8.957-25.039-7.997-22.993-21.161,2.553-51.162,38.363-57.285,58.345Z"/>
      <path d="M1778.627,160.024c-9.526,17.672-10.669,55.328,18.649,49.161,8.781-1.847,25.422-13.949,32.484-20.02,6.949-5.975,15.272-18.047,21.185-22.553,1.691-1.289,2.69-2.262,5.079-1.787-15.951,22.383-47.136,55.672-75.87,58.485-30.411,2.977-36.174-20.209-28.904-45.04,9.927-33.905,50.3-80.255,85.947-87.765,18.539-3.906,38.525.5,29.929,23.603-12.404,33.338-56.835,43.573-88.499,45.915ZM1782.191,154.823c25.644-.561,52.362-12.457,65.282-35.352,5.818-10.31,8.957-25.039-7.997-22.993-21.161,2.553-51.162,38.363-57.285,58.345Z"/>
      <path d="M1059.222,208.068c9.164,9.405,23.63,3.873,33.388-1.429,16.58-9.01,30.492-25.968,41.816-40.668l5.715-.541c-18.756,25.051-50.223,65.087-85.618,60.425-32.024-4.218-20.69-43.934-11.405-63.574,13.271-28.073,45.829-62.57,76.45-71.026,26.473-7.311,45.736,5.976,28.608,32.269-9.952,15.277-26.268,9.872-16.603-6.571,2.402-4.086,21.943-18.542,5.512-20.834-33.488-4.672-72.387,52.081-79.862,80.226-2.283,8.597-4.868,24.675,1.999,31.723Z"/>
      <path d="M152.693,219.715c3.793-14.599,57.707-106.71,56.24-112.838-2.242-9.365-22.274,13.307-24.35,15.489-7.086,7.45-15.401,19.867-22.546,26.188-1.189,1.052-3.237,2.41-4.337.668,11.536-12.923,21.818-27.445,33.75-39.975,7.784-8.175,22.537-24.184,35.154-20.004,7.921,2.624,3.493,12.395,1.4,17.766-8.335,21.389-23.57,42.402-32.556,63.629-.484,1.143-2.723,3.178-.842,4.153,11.17-15.781,22.281-31.723,34.475-46.739,8.447-10.402,34.007-43.037,47.978-41.514,14.207,1.549-.97,28.492-14.901,28.241-3.535-.064-5.153-4.283-9.867-3.647-7.047.952-30.168,32.363-35.549,39.559-16.326,21.833-31.006,44.971-45.918,67.775l-18.133,1.25Z"/>
      <path d="M1866.043,222.211c3.793-14.599,57.707-106.71,56.24-112.838-2.242-9.365-22.274,13.307-24.35,15.489-7.086,7.45-15.401,19.867-22.546,26.188-1.189,1.052-3.237,2.41-4.337.668,11.536-12.923,21.818-27.445,33.75-39.975,7.784-8.175,22.537-24.184,35.154-20.004,7.921,2.624,3.493,12.395,1.4,17.766-8.335,21.389-23.57,42.402-32.556,63.629-.484,1.143-2.723,3.178-.842,4.153,11.17-15.781,22.281-31.723,34.475-46.739,8.447-10.402,34.007-43.037,47.978-41.514,14.207,1.549-.97,28.492-14.901,28.241-3.535-.064-5.153-4.283-9.867-3.647-7.047.952-30.168,32.363-35.549,39.559-16.326,21.833-31.006,44.971-45.918,67.775l-18.133,1.25Z"/>
      <path d="M2055,149.833c-3.027.416-2.803-.215-2.239-2.856,2.767-12.947,10.246-20.696,8.369-36.313-2.703-22.485-31.124-15.121-35.564,1.695-4.964,18.798,15.807,41.347,15.763,63.059-.053,25.793-26.545,53.302-53.136,50.405-10.453-1.139-18.863-10.521-28.74-4.667-2.908,1.724-4.152,5.643-8.306,4.798l27.548-61.136c2.126-.077,2.715-.665,2.438,1.798-.54,4.79-4.705,12.248-5.866,17.886-2.315,11.244-3.217,27.882,9.667,33.349,18.033,7.652,34.984-11.186,37.222-27.777,3.225-23.915-14.86-40.508-12.18-67.054,2.186-21.658,23.254-39.404,45.033-32.448,7.334,2.342,10.365,8.18,19.688,4.627,3.9-1.487,8.359-9.061,11.581-4.644l-31.278,59.279Z"/>
    </g>
  </g>
</svg>