<?xml version="1.0" encoding="UTF-8"?>
<svg id="Layer_2" xmlns="http://www.w3.org/2000/svg" version="1.1" viewBox="0 0 52 49.7">
  <!-- Generator: Adobe Illustrator 29.2.1, SVG Export Plug-In . SVG Version: 2.1.0 Build 116)  -->
  <defs>
    <style>
      .st0 {
        fill: #5bcbcf;
      }
    </style>
  </defs>
  <g id="Layer_2-2">
    <path class="st0" d="M36.4,30.5c2.1,6.2,4.1,12.5,6.2,18.7,0,0,0,0,0,0-5.4-3.7-10.8-7.4-16.2-11.1-5.3,3.9-10.6,7.8-15.8,11.6h0c1.8-6.3,3.7-12.6,5.5-18.9C10.6,27,5.3,23.2,0,19.3c0,0,0,0,0,0,6.5-.2,13.1-.4,19.6-.6,2-6.2,4-12.5,6-18.7h0c2.2,6.2,4.4,12.3,6.6,18.5,6.5,0,13.1,0,19.6-.1,0,0,0,0,0,0l-7.8,6c-2.6,2-5.2,4-7.8,6h0Z"/>
  </g>
</svg>