<?xml version="1.0" encoding="UTF-8"?>
<svg id="Layer_2" data-name="Layer 2" xmlns="http://www.w3.org/2000/svg" viewBox="0 0 51.95 49.69">
  <defs>
    <style>
      .cls-1 {
        fill: #fff;
      }
    </style>
  </defs>
  <g id="Layer_2-2" data-name="Layer 2">
    <g id="Layer_2-2" data-name="Layer 2-2">
      <g>
        <path class="cls-1" d="M16.54,30.6L1.43,19.75l18.6-.54L25.68,1.47l6.26,17.53,18.6-.1-7.01,5.42c-2.47,1.91-4.95,3.82-7.43,5.73l-.2.15v.33l.03.09c1.91,5.79,3.83,11.56,5.74,17.33l-15.36-10.5-15,11.02,5.23-17.86Z"/>
        <path d="M25.7,3.03l2.03,5.69,3.61,10.11.24.67h.71c3.27-.02,6.53-.04,9.8-.06,2.32-.01,4.65-.02,6.97-.04l-5.49,4.24c-2.59,2-5.18,4-7.78,6l-.39.31v.65l.05.15c1.76,5.32,3.51,10.62,5.27,15.92l-2.75-1.88c-3.7-2.53-7.4-5.06-11.1-7.58l-.59-.4-.57.42-13.52,9.93,1.48-5.04c1.08-3.68,2.16-7.37,3.24-11.06l.2-.68-.58-.41c-3.55-2.55-7.1-5.1-10.64-7.64l-2.98-2.14,1.05-.03,15.72-.46.71-.02.22-.68c1-3.12,1.99-6.24,2.98-9.36.7-2.21,1.41-4.42,2.11-6.63M25.68,0h-.06c-1.99,6.24-3.97,12.48-5.96,18.72-6.57.19-13.1.38-19.64.57,0,.02-.02.03-.02.05,5.32,3.82,10.63,7.63,15.96,11.46-1.84,6.29-3.69,12.58-5.53,18.86l.04.03c5.28-3.88,10.56-7.76,15.84-11.64,5.42,3.7,10.83,7.4,16.23,11.09.01,0,.03-.03.04-.03-2.06-6.21-4.12-12.42-6.18-18.66h0c2.6-2.01,5.19-4.01,7.78-6.01l7.77-6s-.02-.03-.02-.05c-6.54.04-13.09.07-19.64.11-2.21-6.19-4.41-12.34-6.61-18.5h0Z"/>
      </g>
    </g>
  </g>
</svg>