<?xml version="1.0" encoding="UTF-8"?>
<svg id="Layer_2" data-name="Layer 2" xmlns="http://www.w3.org/2000/svg" viewBox="0 0 51.95 49.69">
  <defs>
    <style>
      .cls-1 {
        fill: #000;
        stroke-width: 0px;
      }
    </style>
  </defs>
  <g id="Layer_2-2" data-name="Layer 2">
    <path class="cls-1" d="M36.4,30.45c2.06,6.24,4.12,12.45,6.18,18.66-.01,0-.03.02-.04.03-5.4-3.69-10.81-7.39-16.23-11.09-5.28,3.88-10.56,7.76-15.84,11.64l-.04-.03c1.84-6.28,3.69-12.57,5.53-18.86-5.33-3.83-10.64-7.64-15.96-11.46,0-.02.01-.03.02-.05,6.54-.19,13.07-.38,19.64-.57C21.65,12.48,23.63,6.24,25.62,0h.06c2.2,6.16,4.4,12.31,6.61,18.5,6.55-.04,13.1-.07,19.64-.11,0,.02.01.03.02.05-2.59,2-5.18,4-7.77,6-2.59,2-5.18,4-7.78,6Z"/>
  </g>
</svg>