<?xml version="1.0" encoding="UTF-8"?>
<svg id="a" data-name="Layer 1" xmlns="http://www.w3.org/2000/svg" width="4.822in" height="6.711in" viewBox="0 0 347.207 483.162">
<defs>
    <style>
      .b {
        fill: #1e1e1e;
      }
    </style>
  </defs>
  <path class="b" d="M323.398,54.356c-1.667-.021-3.335-.055-5.002-.051-.444.001-.656-.087-.621-.584.031-.439-.042-.884-.042-1.327,0-9.097.004-18.195.007-27.292,0-.401,0-.802,0-1.216h-5.119c-.004.062-.007.116-.011.176l-.165-.095-16.99,29.461c-.018.002-.035.004-.053.006v.087l-.044.077.044.026v4.814h17.205v6.985c.066.121.11.252.116.389.009.2-.096.427-.235.566-.145.145-.361.235-.566.235h-1.427c-.016,0-.029-.008-.045-.009-.056.014-.104.025-.144.019-.542-.076-.65.194-.628.68.037.78.005,1.563.01,2.345.007.884.011.885.861.977.193.021.388.037.582.037,2.717.003,5.433.003,8.15.004.492,0,.983,0,1.493,0v-4.119c-.268.073-.466.073-.62.026h-1.668c-.449,0-.782-.367-.801-.801-.006-.135.039-.258.102-.371,0-2.254-.006-4.446.018-6.637.001-.109.267-.305.414-.309,1.153-.032,2.308-.028,3.462-.032.721-.003,1.441,0,2.173,0v-4.038c-.177-.011-.316-.025-.456-.027ZM299.231,50.087c-.018.031-.035.061-.053.092l.053-.092ZM312.572,54.27c-.193.012-.364.032-.534.032-3.336.001-6.673-.008-10.009.01-.449.002-.594-.133-.561-.572.006-.082.003-.166.006-.249l10.84-19.455c.232.051.289.215.289.494.011,3.709.037,7.418.051,11.127.009,2.344.011,4.689.004,7.033-.002.51-.054,1.02-.086,1.581Z"/>
  <path class="b" d="M311.63,105.042c.366,2.911,1.021,5.734,2.787,8.381h-7.445c1.417-2.627,2.781-5.265,2.351-8.836-1.387,2.11-2.893,3.629-5.062,4.207-2.209.589-4.326.341-6.293-.885-3.028-1.887-4.329-5.557-3.184-8.994,1.232-3.699,4.414-5.399,9.696-5.095-.82-2.023-1.87-3.942-1.395-6.213.452-2.162,1.507-3.893,3.324-5.142,2.792-1.918,6.505-1.75,9.152.388,3.079,2.488,3.516,5.747,1.459,10.898,5.233-.127,8.344,1.581,9.516,5.227,1.153,3.584-.419,7.494-3.715,9.239-3.303,1.749-7.394.87-9.749-2.107-.359-.454-.667-.948-.999-1.423-.139-.25-.278-.5-.417-.751-.297.362-.176.733-.027,1.106Z"/>
  <path class="b" d="M178.117,280.929c1.42,11.303,3.963,22.262,10.82,32.538h-28.904c5.501-10.201,10.798-20.442,9.127-34.306-5.385,8.192-11.234,14.088-19.652,16.333-8.575,2.287-16.796,1.323-24.434-3.438-11.755-7.326-16.805-21.576-12.36-34.919,4.785-14.363,17.135-20.96,37.644-19.781-3.182-7.853-7.258-15.306-5.416-24.121,1.754-8.393,5.85-15.113,12.905-19.962,10.838-7.448,25.256-6.795,35.533,1.508,11.956,9.658,13.65,22.312,5.665,42.312,20.317-.494,32.395,6.139,36.946,20.293,4.475,13.915-1.629,29.094-14.424,35.871-12.823,6.792-28.706,3.379-37.848-8.18-1.394-1.762-2.589-3.681-3.877-5.527-.54-.972-1.08-1.943-1.62-2.915-1.152,1.404-.682,2.847-.104,4.293Z"/>
  <path class="b" d="M20.62,437.504c1.667.021,3.335.055,5.002.051.444-.001.656.087.621.584-.031.439.042.884.042,1.327,0,9.097-.004,18.195-.007,27.292,0,.401,0,.802,0,1.216h5.119c.004-.062.007-.116.011-.176l.165.095,16.99-29.461c.018-.002.035-.004.053-.006v-.087l.044-.077-.044-.026v-4.814h-17.205v-6.985c-.066-.121-.11-.252-.116-.389-.009-.2.096-.427.235-.566.145-.145.361-.235.566-.235h1.427c.016,0,.029.008.045.009.056-.014.104-.025.144-.019.542.076.65-.194.628-.68-.037-.78-.005-1.563-.01-2.345-.007-.884-.011-.885-.861-.977-.193-.021-.388-.037-.582-.037-2.717-.003-5.433-.003-8.15-.004-.492,0-.983,0-1.493,0v4.119c.268-.073.466-.073.62-.026h1.668c.449,0,.782.367.801.801.006.135-.039.258-.102.371,0,2.254.006,4.446-.018,6.637-.001.109-.267.305-.414.309-1.153.032-2.308.028-3.462.032-.721.003-1.441,0-2.173,0v4.038c.177.011.316.025.456.027ZM44.787,441.773c.018-.031.035-.061.053-.092l-.053.092ZM31.446,437.589c.193-.012.364-.032.534-.032,3.336-.001,6.673.008,10.009-.01.449-.002.594.133.561.572-.006.082-.003.166-.006.249l-10.84,19.455c-.232-.051-.289-.215-.289-.494-.011-3.709-.037-7.418-.051-11.127-.009-2.344-.011-4.689-.004-7.033.002-.51.054-1.02.086-1.581Z"/>
  <path class="b" d="M32.388,386.818c-.366-2.911-1.021-5.734-2.787-8.381h7.445c-1.417,2.627-2.781,5.265-2.351,8.836,1.387-2.11,2.893-3.629,5.062-4.207,2.209-.589,4.326-.341,6.293.885,3.028,1.887,4.329,5.557,3.184,8.994-1.232,3.699-4.414,5.399-9.696,5.095.82,2.023,1.87,3.942,1.395,6.213-.452,2.162-1.507,3.893-3.324,5.142-2.792,1.918-6.505,1.75-9.152-.388-3.079-2.488-3.516-5.747-1.459-10.898-5.233.127-8.344-1.581-9.516-5.227-1.153-3.584.419-7.494,3.715-9.239,3.303-1.749,7.394-.87,9.749,2.107.359.454.667.948.999,1.423.139.25.278.5.417.751.297-.362.176-.733.027-1.106Z"/>
</svg>