<?xml version="1.0" encoding="UTF-8"?>
<svg id="a" xmlns="http://www.w3.org/2000/svg" xmlns:xlink="http://www.w3.org/1999/xlink" version="1.1" viewBox="0 0 301 401">
  <!-- Generator: Adobe Illustrator 29.2.1, SVG Export Plug-In . SVG Version: 2.1.0 Build 116)  -->
  <defs>
    <style>
      .st0 {
        filter: url(#outer-glow-2);
      }

      .st1 {
        filter: url(#outer-glow-3);
      }

      .st2 {
        filter: url(#outer-glow-1);
      }

      .st2, .st3 {
        fill: #1e1e1e;
      }
    </style>
    <filter id="outer-glow-1" x="83.3" y="133.1" width="130.6" height="129.8" filterUnits="userSpaceOnUse">
      <feOffset dx="0" dy="0"/>
      <feGaussianBlur result="blur" stdDeviation="1"/>
      <feFlood flood-color="#1e1e1e" flood-opacity=".8"/>
      <feComposite in2="blur" operator="in"/>
      <feComposite in="SourceGraphic"/>
    </filter>
    <filter id="outer-glow-2" x="17.3" y="305.1" width="31.2" height="78.7" filterUnits="userSpaceOnUse">
      <feOffset dx="0" dy="0"/>
      <feGaussianBlur result="blur1" stdDeviation="1"/>
      <feFlood flood-color="#1e1e1e" flood-opacity=".8"/>
      <feComposite in2="blur1" operator="in"/>
      <feComposite in="SourceGraphic"/>
    </filter>
    <filter id="outer-glow-3" x="251.8" y="17.1" width="31.4" height="78.7" filterUnits="userSpaceOnUse">
      <feOffset dx="0" dy="0"/>
      <feGaussianBlur result="blur2" stdDeviation="1"/>
      <feFlood flood-color="#1e1e1e" flood-opacity=".8"/>
      <feComposite in2="blur2" operator="in"/>
      <feComposite in="SourceGraphic"/>
    </filter>
  </defs>
  <path class="st2" d="M152.3,227.6c1.4,11.1,3.9,21.9,10.7,32.1h-28.5c5.4-10.1,10.6-20.1,9-33.8-5.3,8.1-11.1,13.9-19.4,16.1-8.5,2.3-16.6,1.3-24.1-3.4-11.6-7.2-16.6-21.3-12.2-34.4,4.7-14.2,16.9-20.7,37.1-19.5-3.1-7.7-7.2-15.1-5.3-23.8,1.7-8.3,5.8-14.9,12.7-19.7,10.7-7.3,24.9-6.7,35,1.5,11.8,9.5,13.5,22,5.6,41.7,20-.5,31.9,6,36.4,20,4.4,13.7-1.6,28.7-14.2,35.4-12.6,6.7-28.3,3.3-37.3-8.1-1.4-1.7-2.6-3.6-3.8-5.4-.5-1-1.1-1.9-1.6-2.9-1.1,1.4-.7,2.8-.1,4.2h0Z"/>
  <g class="st0">
    <path class="st3" d="M20.7,353.9c1.5,0,2.9,0,4.4,0,.4,0,.6,0,.5.5,0,.4,0,.8,0,1.2,0,8,0,16,0,24v1.1h4.5c0,0,0-.1,0-.2h.1c0,0,14.9-25.8,14.9-25.8,0,0,0,0,0,0h0c0,0,0-.1,0-.1h0v-4.2h-15.1v-6.1c0-.1,0-.2-.1-.3,0-.2,0-.4.2-.5.1-.1.3-.2.5-.2h1.3s0,0,0,0c0,0,0,0,.1,0,.5,0,.6-.2.6-.6,0-.7,0-1.4,0-2.1,0-.8,0-.8-.8-.9-.2,0-.3,0-.5,0-2.4,0-4.8,0-7.2,0h-1.3v3.6c.2,0,.4,0,.5,0h1.5c.4,0,.7.3.7.7,0,.1,0,.2,0,.3,0,2,0,3.9,0,5.8,0,0-.2.3-.4.3-1,0-2,0-3,0-.6,0-1.3,0-1.9,0v3.5c.2,0,.3,0,.4,0h0ZM42,357.7s0,0,0,0h0ZM30.2,354c.2,0,.3,0,.5,0,2.9,0,5.9,0,8.8,0,.4,0,.5.1.5.5,0,0,0,.1,0,.2l-9.5,17.1c-.2,0-.3-.2-.3-.4,0-3.3,0-6.5,0-9.8,0-2.1,0-4.1,0-6.2,0-.4,0-.9,0-1.4h0Z"/>
    <path class="st3" d="M31.3,314c-.3-2-.7-3.9-1.9-5.7h5.1c-1,1.8-1.9,3.6-1.6,6.1,1-1.4,2-2.5,3.5-2.9,1.5-.4,3-.2,4.3.6,2.1,1.3,3,3.8,2.2,6.2-.8,2.5-3,3.7-6.6,3.5.6,1.4,1.3,2.7,1,4.3-.3,1.5-1,2.7-2.3,3.5-1.9,1.3-4.5,1.2-6.3-.3-2.1-1.7-2.4-3.9-1-7.5-3.6,0-5.7-1.1-6.5-3.6-.8-2.5.3-5.1,2.5-6.3,2.3-1.2,5.1-.6,6.7,1.4.2.3.5.6.7,1,0,.2.2.3.3.5.2-.2.1-.5,0-.8h0Z"/>
  </g>
  <g class="st1">
    <path class="st3" d="M279.6,47.1c-1.5,0-2.9,0-4.4,0-.4,0-.6,0-.5-.5,0-.4,0-.8,0-1.2,0-8,0-16,0-24v-1.1h-4.5c0,0,0,.1,0,.2h-.1c0,0-14.9,25.8-14.9,25.8,0,0,0,0,0,0h0c0,0,0,.1,0,.1h0v4.2h15.1v6.1c0,.1,0,.2.1.3,0,.2,0,.4-.2.5-.1.1-.3.2-.5.2h-1.3s0,0,0,0c0,0,0,0-.1,0-.5,0-.6.2-.6.6,0,.7,0,1.4,0,2.1,0,.8,0,.8.8.9.2,0,.3,0,.5,0,2.4,0,4.8,0,7.2,0h1.3v-3.6c-.2,0-.4,0-.5,0h-1.5c-.4,0-.7-.3-.7-.7,0-.1,0-.2,0-.3,0-2,0-3.9,0-5.8,0,0,.2-.3.4-.3,1,0,2,0,3,0,.6,0,1.3,0,1.9,0v-3.5c-.2,0-.3,0-.4,0h0ZM258.4,43.4s0,0,0,0h0ZM270.1,47c-.2,0-.3,0-.5,0-2.9,0-5.9,0-8.8,0-.4,0-.5-.1-.5-.5,0,0,0-.1,0-.2l9.5-17.1c.2,0,.3.2.3.4,0,3.3,0,6.5,0,9.8,0,2.1,0,4.1,0,6.2,0,.4,0,.9,0,1.4h0Z"/>
    <path class="st3" d="M269.1,87c.3,2,.7,3.9,1.9,5.7h-5.1c1-1.8,1.9-3.6,1.6-6.1-1,1.4-2,2.5-3.5,2.9-1.5.4-3,.2-4.3-.6-2.1-1.3-3-3.8-2.2-6.2.8-2.5,3-3.7,6.6-3.5-.6-1.4-1.3-2.7-1-4.3.3-1.5,1-2.7,2.3-3.5,1.9-1.3,4.5-1.2,6.3.3,2.1,1.7,2.4,3.9,1,7.5,3.6,0,5.7,1.1,6.5,3.6.8,2.5-.3,5.1-2.5,6.3-2.3,1.2-5.1.6-6.7-1.4-.2-.3-.5-.6-.7-1,0-.2-.2-.3-.3-.5-.2.2-.1.5,0,.8h0Z"/>
  </g>
</svg>