<?xml version="1.0" encoding="UTF-8"?>
<svg id="a" data-name="Layer 1" xmlns="http://www.w3.org/2000/svg" width="4.822in" height="6.711in" viewBox="0 0 347.207 483.162">
<defs>
    <style>
      .b {
        fill: #1e1e1e;
      }
    </style>
  </defs>
  <path class="c" d="M323.398,54.356c-1.667-.021-3.335-.055-5.002-.051-.444.001-.656-.087-.621-.584.031-.439-.042-.884-.042-1.327,0-9.097.004-18.195.007-27.292,0-.401,0-.802,0-1.216h-5.119c-.004.062-.007.116-.011.176l-.165-.095-16.99,29.461c-.018.002-.035.004-.053.006v.087l-.044.077.044.026v4.814h17.205v6.985c.066.121.11.252.116.389.009.2-.096.427-.235.566-.145.145-.361.235-.566.235h-1.427c-.016,0-.029-.008-.045-.009-.056.014-.104.025-.144.019-.542-.076-.65.194-.628.68.037.78.005,1.563.01,2.345.007.884.011.885.861.977.193.021.388.037.582.037,2.717.003,5.433.003,8.15.004.492,0,.983,0,1.493,0v-4.119c-.268.073-.466.073-.62.026h-1.668c-.449,0-.782-.367-.801-.801-.006-.135.039-.258.102-.371,0-2.254-.006-4.446.018-6.637.001-.109.267-.305.414-.309,1.153-.032,2.308-.028,3.462-.032.721-.003,1.441,0,2.173,0v-4.038c-.177-.011-.316-.025-.456-.027ZM299.231,50.087c-.018.031-.035.061-.053.092l.053-.092ZM312.572,54.27c-.193.012-.364.032-.534.032-3.336.001-6.673-.008-10.009.01-.449.002-.594-.133-.561-.572.006-.082.003-.166.006-.249l10.84-19.455c.232.051.289.215.289.494.011,3.709.037,7.418.051,11.127.009,2.344.011,4.689.004,7.033-.002.51-.054,1.02-.086,1.581Z"/>
  <path class="c" d="M302.255,80.204c2.406-.104,4.415,1.108,5.987,2.889,1.042,1.18,1.526.851,2.44-.049,3.258-3.209,7.182-3.756,10.599-1.601,3.066,1.933,4.338,5.449,3.329,9.064-.869,3.114-2.88,5.487-5.041,7.74-2.85,2.973-6.135,5.444-9.43,7.9-.876.653-1.474.645-2.345-.063-3.967-3.227-7.765-6.627-10.922-10.659-2.048-2.615-3.574-5.515-2.797-9.006.863-3.875,3.98-6.219,8.181-6.215Z"/>
  <path class="c" d="M138.181,192.48c10.744-.465,19.716,4.947,26.735,12.901,4.651,5.271,6.816,3.799,10.895-.219,14.547-14.33,32.072-16.771,47.332-7.151,13.694,8.633,19.374,24.333,14.866,40.478-3.883,13.905-12.862,24.502-22.511,34.566-12.729,13.276-27.396,24.31-42.113,35.279-3.913,2.917-6.583,2.881-10.47-.281-17.714-14.41-34.678-29.593-48.774-47.599-9.144-11.68-15.962-24.629-12.492-40.217,3.852-17.306,17.774-27.773,36.532-27.756Z"/>
  <path class="c" d="M20.596,437.566c1.667.021,3.335.055,5.002.051.444-.001.656.087.621.584-.031.439.042.884.042,1.327,0,9.097-.004,18.195-.007,27.292,0,.401,0,.802,0,1.216h5.119c.004-.062.007-.116.011-.176l.165.095,16.99-29.461c.018-.002.035-.004.053-.006v-.087l.044-.077-.044-.026v-4.814h-17.205v-6.985c-.066-.121-.11-.252-.116-.389-.009-.2.096-.427.235-.566.145-.145.361-.235.566-.235h1.427c.016,0,.029.008.045.009.056-.014.104-.025.144-.019.542.076.65-.194.628-.68-.037-.78-.005-1.563-.01-2.345-.007-.884-.011-.885-.861-.977-.193-.021-.388-.037-.582-.037-2.717-.003-5.433-.003-8.15-.004-.492,0-.983,0-1.493,0v4.119c.268-.073.466-.073.62-.026h1.668c.449,0,.782.367.801.801.006.135-.039.258-.102.371,0,2.254.006,4.446-.018,6.637-.001.109-.267.305-.414.309-1.153.032-2.308.028-3.462.032-.721.003-1.441,0-2.173,0v4.038c.177.011.316.025.456.027ZM44.764,441.835c.018-.031.035-.061.053-.092l-.053.092ZM31.423,437.651c.193-.012.364-.032.534-.032,3.336-.001,6.673.008,10.009-.01.449-.002.594.133.561.572-.006.082-.003.166-.006.249l-10.84,19.455c-.232-.051-.289-.215-.289-.494-.011-3.709-.037-7.418-.051-11.127-.009-2.344-.011-4.689-.004-7.033.002-.51.054-1.02.086-1.581Z"/>
  <path class="c" d="M41.74,411.718c-2.406.104-4.415-1.108-5.987-2.889-1.042-1.18-1.526-.851-2.44.049-3.258,3.209-7.182,3.756-10.599,1.601-3.066-1.933-4.338-5.449-3.329-9.064.869-3.114,2.88-5.487,5.041-7.74,2.85-2.973,6.135-5.444,9.43-7.9.876-.653,1.474-.645,2.345.063,3.967,3.227,7.765,6.627,10.922,10.659,2.048,2.615,3.574,5.515,2.797,9.006-.863,3.875-3.98,6.219-8.181,6.215Z"/>
</svg>