<?xml version="1.0" encoding="UTF-8"?>
<svg id="a" xmlns="http://www.w3.org/2000/svg" xmlns:xlink="http://www.w3.org/1999/xlink" version="1.1" viewBox="0 0 301 401">
  <!-- Generator: Adobe Illustrator 29.2.1, SVG Export Plug-In . SVG Version: 2.1.0 Build 116)  -->
  <defs>
    <style>
      .st0 {
        filter: url(#outer-glow-1);
      }

      .st1, .st2, .st3, .st4 {
        fill: #840015;
      }

      .st2 {
        filter: url(#outer-glow-4);
      }

      .st3 {
        filter: url(#outer-glow-2);
      }

      .st4 {
        filter: url(#outer-glow-3);
      }
    </style>
    <filter id="outer-glow-1" x="251.8" y="17.9" width="31" height="78.2" filterUnits="userSpaceOnUse">
      <feOffset dx="0" dy="0"/>
      <feGaussianBlur result="blur" stdDeviation="1"/>
      <feFlood flood-color="#840015" flood-opacity=".8"/>
      <feComposite in2="blur" operator="in"/>
      <feComposite in="SourceGraphic"/>
    </filter>
    <filter id="outer-glow-2" x="94.6" y="144.4" width="111.8" height="112.3" filterUnits="userSpaceOnUse">
      <feOffset dx="0" dy="0"/>
      <feGaussianBlur result="blur1" stdDeviation="1"/>
      <feFlood flood-color="#840015" flood-opacity=".8"/>
      <feComposite in2="blur1" operator="in"/>
      <feComposite in="SourceGraphic"/>
    </filter>
    <filter id="outer-glow-3" x="17.1" y="336.2" width="31" height="47" filterUnits="userSpaceOnUse">
      <feOffset dx="0" dy="0"/>
      <feGaussianBlur result="blur2" stdDeviation="1"/>
      <feFlood flood-color="#840015" flood-opacity=".8"/>
      <feComposite in2="blur2" operator="in"/>
      <feComposite in="SourceGraphic"/>
    </filter>
    <filter id="outer-glow-4" x="18.1" y="305" width="28.8" height="29" filterUnits="userSpaceOnUse">
      <feOffset dx="0" dy="0"/>
      <feGaussianBlur result="blur3" stdDeviation="1"/>
      <feFlood flood-color="#840015" flood-opacity=".8"/>
      <feComposite in2="blur3" operator="in"/>
      <feComposite in="SourceGraphic"/>
    </filter>
  </defs>
  <g class="st0">
    <path class="st1" d="M279.4,47.6c-1.5,0-2.9,0-4.4,0-.4,0-.6,0-.5-.5,0-.4,0-.8,0-1.2,0-7.9,0-15.9,0-23.8v-1.1h-4.5c0,0,0,.1,0,.2h-.1c0,0-14.8,25.6-14.8,25.6,0,0,0,0,0,0h0c0,0,0,.1,0,.1h0v4.2h15v6.1c0,.1,0,.2.1.3,0,.2,0,.4-.2.5-.1.1-.3.2-.5.2h-1.2s0,0,0,0c0,0,0,0-.1,0-.5,0-.6.2-.5.6,0,.7,0,1.4,0,2,0,.8,0,.8.8.9.2,0,.3,0,.5,0,2.4,0,4.7,0,7.1,0h1.3v-3.6c-.2,0-.4,0-.5,0h-1.5c-.4,0-.7-.3-.7-.7,0-.1,0-.2,0-.3,0-2,0-3.9,0-5.8,0,0,.2-.3.4-.3,1,0,2,0,3,0,.6,0,1.3,0,1.9,0v-3.5c-.2,0-.3,0-.4,0h0ZM258.3,43.9s0,0,0,0h0ZM269.9,47.5c-.2,0-.3,0-.5,0-2.9,0-5.8,0-8.7,0-.4,0-.5-.1-.5-.5,0,0,0-.1,0-.2l9.4-17c.2,0,.3.2.3.4,0,3.2,0,6.5,0,9.7,0,2,0,4.1,0,6.1,0,.4,0,.9,0,1.4h0Z"/>
    <path class="st1" d="M276,77.5c-2.4-2.7-5.3-4.9-8.2-7-.7-.5-1.1-.3-1.7.2-2.6,2.1-5.1,4.2-7.3,6.7-1.1,1.3-2.1,2.6-2.6,4.3-.9,3.2.9,6.4,4.2,7.2,2.3.6,4.2-.2,6.1-1.7,0,2.3-.9,4.1-1.8,5.8h5.3c-1.4-1.7-1.6-3.6-2.2-5.9.9.6,1.4.9,1.9,1.2,2.2,1.2,5,1,6.9-.6,1.9-1.6,2.5-4,1.6-6.5-.5-1.4-1.3-2.5-2.3-3.6h0Z"/>
  </g>
  <path class="st3" d="M190.7,181.4c-11.1-12.7-24.6-22.7-38.2-32.6-3.3-2.4-5.3-1.3-7.9.8-12.1,9.6-23.6,19.7-33.9,31.2-5.2,5.9-9.7,12.3-11.9,20-4.4,15.1,4.2,29.7,19.5,33.5,10.7,2.7,19.7-.9,28.5-7.9,0,10.6-4,19-8.3,27.1h24.9c-6.4-8.1-7.6-16.8-10.4-27.5,4.2,2.6,6.4,4.1,8.8,5.5,10,5.8,23.4,4.6,32.2-2.9,8.9-7.5,11.7-18.8,7.4-30.4-2.4-6.4-6.2-11.9-10.6-16.9h0Z"/>
  <path class="st4" d="M20.5,353.5c1.5,0,2.9,0,4.4,0,.4,0,.6,0,.5.5,0,.4,0,.8,0,1.2,0,7.9,0,15.9,0,23.8v1.1h4.5c0,0,0-.1,0-.2h.1c0,0,14.8-25.6,14.8-25.6,0,0,0,0,0,0h0c0,0,0-.1,0-.1h0v-4.2h-15v-6.1c0-.1,0-.2-.1-.3,0-.2,0-.4.2-.5.1-.1.3-.2.5-.2h1.2s0,0,0,0c0,0,0,0,.1,0,.5,0,.6-.2.5-.6,0-.7,0-1.4,0-2,0-.8,0-.8-.8-.9-.2,0-.3,0-.5,0-2.4,0-4.7,0-7.1,0h-1.3v3.6c.2,0,.4,0,.5,0h1.5c.4,0,.7.3.7.7,0,.1,0,.2,0,.3,0,2,0,3.9,0,5.8,0,0-.2.3-.4.3-1,0-2,0-3,0-.6,0-1.3,0-1.9,0v3.5c.2,0,.3,0,.4,0h0ZM41.6,357.2s0,0,0,0h0ZM30,353.6c.2,0,.3,0,.5,0,2.9,0,5.8,0,8.7,0,.4,0,.5.1.5.5,0,0,0,.1,0,.2l-9.4,17c-.2,0-.3-.2-.3-.4,0-3.2,0-6.5,0-9.7,0-2,0-4.1,0-6.1,0-.4,0-.9,0-1.4h0Z"/>
  <path class="st2" d="M23.9,323.6c2.4,2.7,5.3,4.9,8.2,7,.7.5,1.1.3,1.7-.2,2.6-2.1,5.1-4.2,7.3-6.7,1.1-1.3,2.1-2.6,2.6-4.3.9-3.2-.9-6.4-4.2-7.2-2.3-.6-4.2.2-6.1,1.7,0-2.3.9-4.1,1.8-5.8h-5.3c1.4,1.7,1.6,3.6,2.2,5.9-.9-.6-1.4-.9-1.9-1.2-2.2-1.2-5-1-6.9.6-1.9,1.6-2.5,4-1.6,6.5.5,1.4,1.3,2.5,2.3,3.6h0Z"/>
</svg>