<?xml version="1.0" encoding="UTF-8"?>
<svg id="a" data-name="Layer 1" xmlns="http://www.w3.org/2000/svg" width="4.822in" height="6.711in" viewBox="0 0 347.207 483.162">
  <defs>
    <style>
      .b {
        fill: #840015;
      }
    </style>
  </defs>
  <path class="b" d="M323.398,54.356c-1.667-.021-3.335-.055-5.002-.051-.444.001-.656-.087-.621-.584.031-.439-.042-.884-.042-1.327,0-9.097.004-18.195.007-27.292,0-.401,0-.802,0-1.216h-5.119c-.004.062-.007.116-.011.176l-.165-.095-16.99,29.461c-.018.002-.035.004-.053.006v.087l-.044.077.044.026v4.814h17.205v6.985c.066.121.11.252.116.389.009.2-.096.427-.235.566-.145.145-.361.235-.566.235h-1.427c-.016,0-.029-.008-.045-.009-.056.014-.104.025-.144.019-.542-.076-.65.194-.628.68.037.78.005,1.563.01,2.345.007.884.011.885.861.977.193.021.388.037.582.037,2.717.003,5.433.003,8.15.004.492,0,.983,0,1.493,0v-4.119c-.268.073-.466.073-.62.026h-1.668c-.449,0-.782-.367-.801-.801-.006-.135.039-.258.102-.371,0-2.254-.006-4.446.018-6.637.001-.109.267-.305.414-.309,1.153-.032,2.308-.028,3.462-.032.721-.003,1.441,0,2.173,0v-4.038c-.177-.011-.316-.025-.456-.027ZM299.231,50.087c-.018.031-.035.061-.053.092l.053-.092ZM312.572,54.27c-.193.012-.364.032-.534.032-3.336.001-6.673-.008-10.009.01-.449.002-.594-.133-.561-.572.006-.082.003-.166.006-.249l10.84-19.455c.232.051.289.215.289.494.011,3.709.037,7.418.051,11.127.009,2.344.011,4.689.004,7.033-.002.51-.054,1.02-.086,1.581Z"/>
  <path class="b" d="M319.496,88.716c-2.741-3.122-6.06-5.572-9.395-8.008-.809-.591-1.295-.313-1.945.202-2.971,2.353-5.807,4.85-8.329,7.68-1.284,1.441-2.379,3.02-2.931,4.911-1.082,3.708,1.04,7.313,4.785,8.245,2.637.656,4.841-.23,7.02-1.945-.004,2.6-.977,4.666-2.04,6.663h6.126c-1.578-1.986-1.873-4.135-2.564-6.754,1.021.64,1.575,1.015,2.154,1.347,2.471,1.418,5.745,1.121,7.92-.704,2.199-1.845,2.87-4.616,1.811-7.474-.581-1.568-1.52-2.921-2.611-4.164Z"/>
  <path class="b" d="M219.252,231.133c-12.791-14.571-28.279-26.002-43.845-37.37-3.777-2.759-6.043-1.462-9.078.942-13.864,10.979-27.1,22.632-38.867,35.838-5.992,6.725-11.104,14.095-13.68,22.918-5.052,17.305,4.854,34.13,22.329,38.478,12.306,3.062,22.589-1.075,32.758-9.075-.021,12.134-4.561,21.775-9.52,31.095h28.589c-7.364-9.269-8.739-19.295-11.964-31.517,4.764,2.988,7.352,4.735,10.053,6.284,11.532,6.616,26.812,5.232,36.959-3.284,10.261-8.611,13.393-21.543,8.452-34.878-2.712-7.319-7.095-13.634-12.185-19.432Z"/>
  <path class="b" d="M20.634,437.549c1.667.021,3.335.055,5.002.051.444-.001.656.087.621.584-.031.439.042.884.042,1.327,0,9.097-.004,18.195-.007,27.292,0,.401,0,.802,0,1.216h5.119c.004-.062.007-.116.011-.176l.165.095,16.99-29.461c.018-.002.035-.004.053-.006v-.087l.044-.077-.044-.026v-4.814h-17.205v-6.985c-.066-.121-.11-.252-.116-.389-.009-.2.096-.427.235-.566.145-.145.361-.235.566-.235h1.427c.016,0,.029.008.045.009.056-.014.104-.025.144-.019.542.076.65-.194.628-.68-.037-.78-.005-1.563-.01-2.345-.007-.884-.011-.885-.861-.977-.193-.021-.388-.037-.582-.037-2.717-.003-5.433-.003-8.15-.004-.492,0-.983,0-1.493,0v4.119c.268-.073.466-.073.62-.026h1.668c.449,0,.782.367.801.801.006.135-.039.258-.102.371,0,2.254.006,4.446-.018,6.637-.001.109-.267.305-.414.309-1.153.032-2.308.028-3.462.032-.721.003-1.441,0-2.173,0v4.038c.177.011.316.025.456.027ZM44.801,441.818c.018-.031.035-.061.053-.092l-.053.092ZM31.46,437.634c.193-.012.364-.032.534-.032,3.336-.001,6.673.008,10.009-.01.449-.002.594.133.561.572-.006.082-.003.166-.006.249l-10.84,19.455c-.232-.051-.289-.215-.289-.494-.011-3.709-.037-7.418-.051-11.127-.009-2.344-.011-4.689-.004-7.033.002-.51.054-1.02.086-1.581Z"/>
  <path class="b" d="M24.536,403.189c2.741,3.122,6.06,5.572,9.395,8.008.809.591,1.295.313,1.945-.202,2.971-2.353,5.807-4.85,8.329-7.68,1.284-1.441,2.379-3.02,2.931-4.911,1.082-3.708-1.04-7.313-4.785-8.245-2.637-.656-4.841.23-7.02,1.945.004-2.6.977-4.666,2.04-6.663h-6.126c1.578,1.986,1.873,4.135,2.564,6.754-1.021-.64-1.575-1.015-2.154-1.347-2.471-1.418-5.745-1.121-7.92.704-2.199,1.845-2.87,4.616-1.811,7.474.581,1.568,1.52,2.921,2.611,4.164Z"/>
</svg>